%TF.GenerationSoftware,KiCad,Pcbnew,9.0.4-9.0.4-0~ubuntu22.04.1*%
%TF.CreationDate,2025-09-23T18:33:34+12:00*%
%TF.ProjectId,BBBLedHW,4242424c-6564-4485-972e-6b696361645f,rev?*%
%TF.SameCoordinates,PX7365040PY5f5e100*%
%TF.FileFunction,Legend,Top*%
%TF.FilePolarity,Positive*%
%FSLAX46Y46*%
G04 Gerber Fmt 4.6, Leading zero omitted, Abs format (unit mm)*
G04 Created by KiCad (PCBNEW 9.0.4-9.0.4-0~ubuntu22.04.1) date 2025-09-23 18:33:34*
%MOMM*%
%LPD*%
G01*
G04 APERTURE LIST*
%ADD10C,0.150000*%
%ADD11C,0.100000*%
%ADD12C,0.200000*%
%ADD13C,0.120000*%
%ADD14C,0.152400*%
%ADD15C,0.508000*%
%ADD16C,0.127000*%
G04 APERTURE END LIST*
D10*
X37412969Y15455705D02*
X37908207Y15455705D01*
X37908207Y15455705D02*
X37641541Y15150943D01*
X37641541Y15150943D02*
X37755826Y15150943D01*
X37755826Y15150943D02*
X37832017Y15112848D01*
X37832017Y15112848D02*
X37870112Y15074753D01*
X37870112Y15074753D02*
X37908207Y14998562D01*
X37908207Y14998562D02*
X37908207Y14808086D01*
X37908207Y14808086D02*
X37870112Y14731896D01*
X37870112Y14731896D02*
X37832017Y14693800D01*
X37832017Y14693800D02*
X37755826Y14655705D01*
X37755826Y14655705D02*
X37527255Y14655705D01*
X37527255Y14655705D02*
X37451064Y14693800D01*
X37451064Y14693800D02*
X37412969Y14731896D01*
X38136779Y15455705D02*
X38403446Y14655705D01*
X38403446Y14655705D02*
X38670112Y15455705D01*
X38860588Y15455705D02*
X39355826Y15455705D01*
X39355826Y15455705D02*
X39089160Y15150943D01*
X39089160Y15150943D02*
X39203445Y15150943D01*
X39203445Y15150943D02*
X39279636Y15112848D01*
X39279636Y15112848D02*
X39317731Y15074753D01*
X39317731Y15074753D02*
X39355826Y14998562D01*
X39355826Y14998562D02*
X39355826Y14808086D01*
X39355826Y14808086D02*
X39317731Y14731896D01*
X39317731Y14731896D02*
X39279636Y14693800D01*
X39279636Y14693800D02*
X39203445Y14655705D01*
X39203445Y14655705D02*
X38974874Y14655705D01*
X38974874Y14655705D02*
X38898683Y14693800D01*
X38898683Y14693800D02*
X38860588Y14731896D01*
X48694295Y17239161D02*
X47894295Y17239161D01*
X47894295Y17239161D02*
X47894295Y17429637D01*
X47894295Y17429637D02*
X47932390Y17543923D01*
X47932390Y17543923D02*
X48008580Y17620113D01*
X48008580Y17620113D02*
X48084771Y17658208D01*
X48084771Y17658208D02*
X48237152Y17696304D01*
X48237152Y17696304D02*
X48351438Y17696304D01*
X48351438Y17696304D02*
X48503819Y17658208D01*
X48503819Y17658208D02*
X48580009Y17620113D01*
X48580009Y17620113D02*
X48656200Y17543923D01*
X48656200Y17543923D02*
X48694295Y17429637D01*
X48694295Y17429637D02*
X48694295Y17239161D01*
X48465723Y18001065D02*
X48465723Y18382018D01*
X48694295Y17924875D02*
X47894295Y18191542D01*
X47894295Y18191542D02*
X48694295Y18458208D01*
X47894295Y18610589D02*
X47894295Y19067732D01*
X48694295Y18839160D02*
X47894295Y18839160D01*
X48465723Y19296303D02*
X48465723Y19677256D01*
X48694295Y19220113D02*
X47894295Y19486780D01*
X47894295Y19486780D02*
X48694295Y19753446D01*
X64977085Y20044174D02*
X64905657Y19829888D01*
X64905657Y19829888D02*
X64834228Y19758459D01*
X64834228Y19758459D02*
X64691371Y19687031D01*
X64691371Y19687031D02*
X64477085Y19687031D01*
X64477085Y19687031D02*
X64334228Y19758459D01*
X64334228Y19758459D02*
X64262800Y19829888D01*
X64262800Y19829888D02*
X64191371Y19972745D01*
X64191371Y19972745D02*
X64191371Y20544174D01*
X64191371Y20544174D02*
X65691371Y20544174D01*
X65691371Y20544174D02*
X65691371Y20044174D01*
X65691371Y20044174D02*
X65619942Y19901316D01*
X65619942Y19901316D02*
X65548514Y19829888D01*
X65548514Y19829888D02*
X65405657Y19758459D01*
X65405657Y19758459D02*
X65262800Y19758459D01*
X65262800Y19758459D02*
X65119942Y19829888D01*
X65119942Y19829888D02*
X65048514Y19901316D01*
X65048514Y19901316D02*
X64977085Y20044174D01*
X64977085Y20044174D02*
X64977085Y20544174D01*
X64977085Y18544174D02*
X64905657Y18329888D01*
X64905657Y18329888D02*
X64834228Y18258459D01*
X64834228Y18258459D02*
X64691371Y18187031D01*
X64691371Y18187031D02*
X64477085Y18187031D01*
X64477085Y18187031D02*
X64334228Y18258459D01*
X64334228Y18258459D02*
X64262800Y18329888D01*
X64262800Y18329888D02*
X64191371Y18472745D01*
X64191371Y18472745D02*
X64191371Y19044174D01*
X64191371Y19044174D02*
X65691371Y19044174D01*
X65691371Y19044174D02*
X65691371Y18544174D01*
X65691371Y18544174D02*
X65619942Y18401316D01*
X65619942Y18401316D02*
X65548514Y18329888D01*
X65548514Y18329888D02*
X65405657Y18258459D01*
X65405657Y18258459D02*
X65262800Y18258459D01*
X65262800Y18258459D02*
X65119942Y18329888D01*
X65119942Y18329888D02*
X65048514Y18401316D01*
X65048514Y18401316D02*
X64977085Y18544174D01*
X64977085Y18544174D02*
X64977085Y19044174D01*
X64977085Y17044174D02*
X64905657Y16829888D01*
X64905657Y16829888D02*
X64834228Y16758459D01*
X64834228Y16758459D02*
X64691371Y16687031D01*
X64691371Y16687031D02*
X64477085Y16687031D01*
X64477085Y16687031D02*
X64334228Y16758459D01*
X64334228Y16758459D02*
X64262800Y16829888D01*
X64262800Y16829888D02*
X64191371Y16972745D01*
X64191371Y16972745D02*
X64191371Y17544174D01*
X64191371Y17544174D02*
X65691371Y17544174D01*
X65691371Y17544174D02*
X65691371Y17044174D01*
X65691371Y17044174D02*
X65619942Y16901316D01*
X65619942Y16901316D02*
X65548514Y16829888D01*
X65548514Y16829888D02*
X65405657Y16758459D01*
X65405657Y16758459D02*
X65262800Y16758459D01*
X65262800Y16758459D02*
X65119942Y16829888D01*
X65119942Y16829888D02*
X65048514Y16901316D01*
X65048514Y16901316D02*
X64977085Y17044174D01*
X64977085Y17044174D02*
X64977085Y17544174D01*
X64191371Y15329888D02*
X64191371Y16044174D01*
X64191371Y16044174D02*
X65691371Y16044174D01*
X64977085Y14829888D02*
X64977085Y14329888D01*
X64191371Y14115602D02*
X64191371Y14829888D01*
X64191371Y14829888D02*
X65691371Y14829888D01*
X65691371Y14829888D02*
X65691371Y14115602D01*
X64191371Y13472745D02*
X65691371Y13472745D01*
X65691371Y13472745D02*
X65691371Y13115602D01*
X65691371Y13115602D02*
X65619942Y12901316D01*
X65619942Y12901316D02*
X65477085Y12758459D01*
X65477085Y12758459D02*
X65334228Y12687030D01*
X65334228Y12687030D02*
X65048514Y12615602D01*
X65048514Y12615602D02*
X64834228Y12615602D01*
X64834228Y12615602D02*
X64548514Y12687030D01*
X64548514Y12687030D02*
X64405657Y12758459D01*
X64405657Y12758459D02*
X64262800Y12901316D01*
X64262800Y12901316D02*
X64191371Y13115602D01*
X64191371Y13115602D02*
X64191371Y13472745D01*
X64191371Y11972745D02*
X65691371Y11972745D01*
X64977085Y11972745D02*
X64977085Y11115602D01*
X64191371Y11115602D02*
X65691371Y11115602D01*
X65691371Y10544173D02*
X64191371Y10187030D01*
X64191371Y10187030D02*
X65262800Y9901316D01*
X65262800Y9901316D02*
X64191371Y9615601D01*
X64191371Y9615601D02*
X65691371Y9258458D01*
X64191371Y7829887D02*
X64905657Y8329887D01*
X64191371Y8687030D02*
X65691371Y8687030D01*
X65691371Y8687030D02*
X65691371Y8115601D01*
X65691371Y8115601D02*
X65619942Y7972744D01*
X65619942Y7972744D02*
X65548514Y7901315D01*
X65548514Y7901315D02*
X65405657Y7829887D01*
X65405657Y7829887D02*
X65191371Y7829887D01*
X65191371Y7829887D02*
X65048514Y7901315D01*
X65048514Y7901315D02*
X64977085Y7972744D01*
X64977085Y7972744D02*
X64905657Y8115601D01*
X64905657Y8115601D02*
X64905657Y8687030D01*
X64262800Y6615601D02*
X64191371Y6758458D01*
X64191371Y6758458D02*
X64191371Y7044172D01*
X64191371Y7044172D02*
X64262800Y7187030D01*
X64262800Y7187030D02*
X64405657Y7258458D01*
X64405657Y7258458D02*
X64977085Y7258458D01*
X64977085Y7258458D02*
X65119942Y7187030D01*
X65119942Y7187030D02*
X65191371Y7044172D01*
X65191371Y7044172D02*
X65191371Y6758458D01*
X65191371Y6758458D02*
X65119942Y6615601D01*
X65119942Y6615601D02*
X64977085Y6544172D01*
X64977085Y6544172D02*
X64834228Y6544172D01*
X64834228Y6544172D02*
X64691371Y7258458D01*
X65191371Y6044173D02*
X64191371Y5687030D01*
X64191371Y5687030D02*
X65191371Y5329887D01*
X64191371Y3972744D02*
X64191371Y4829887D01*
X64191371Y4401316D02*
X65691371Y4401316D01*
X65691371Y4401316D02*
X65477085Y4544173D01*
X65477085Y4544173D02*
X65334228Y4687030D01*
X65334228Y4687030D02*
X65262800Y4829887D01*
X56959523Y30806753D02*
X56692857Y30806753D01*
X56692857Y30387705D02*
X56692857Y31187705D01*
X56692857Y31187705D02*
X57073809Y31187705D01*
X57759523Y30387705D02*
X57378571Y30387705D01*
X57378571Y30387705D02*
X57378571Y31187705D01*
X58445237Y30387705D02*
X57988094Y30387705D01*
X58216666Y30387705D02*
X58216666Y31187705D01*
X58216666Y31187705D02*
X58140475Y31073420D01*
X58140475Y31073420D02*
X58064285Y30997229D01*
X58064285Y30997229D02*
X57988094Y30959134D01*
X54261905Y14345181D02*
X54261905Y15345181D01*
X54261905Y15345181D02*
X54500000Y15345181D01*
X54500000Y15345181D02*
X54642857Y15297562D01*
X54642857Y15297562D02*
X54738095Y15202324D01*
X54738095Y15202324D02*
X54785714Y15107086D01*
X54785714Y15107086D02*
X54833333Y14916610D01*
X54833333Y14916610D02*
X54833333Y14773753D01*
X54833333Y14773753D02*
X54785714Y14583277D01*
X54785714Y14583277D02*
X54738095Y14488039D01*
X54738095Y14488039D02*
X54642857Y14392800D01*
X54642857Y14392800D02*
X54500000Y14345181D01*
X54500000Y14345181D02*
X54261905Y14345181D01*
X55166667Y15345181D02*
X55785714Y15345181D01*
X55785714Y15345181D02*
X55452381Y14964229D01*
X55452381Y14964229D02*
X55595238Y14964229D01*
X55595238Y14964229D02*
X55690476Y14916610D01*
X55690476Y14916610D02*
X55738095Y14868991D01*
X55738095Y14868991D02*
X55785714Y14773753D01*
X55785714Y14773753D02*
X55785714Y14535658D01*
X55785714Y14535658D02*
X55738095Y14440420D01*
X55738095Y14440420D02*
X55690476Y14392800D01*
X55690476Y14392800D02*
X55595238Y14345181D01*
X55595238Y14345181D02*
X55309524Y14345181D01*
X55309524Y14345181D02*
X55214286Y14392800D01*
X55214286Y14392800D02*
X55166667Y14440420D01*
X51654761Y19699943D02*
X51559523Y19747562D01*
X51559523Y19747562D02*
X51464285Y19842800D01*
X51464285Y19842800D02*
X51321428Y19985658D01*
X51321428Y19985658D02*
X51226190Y20033277D01*
X51226190Y20033277D02*
X51130952Y20033277D01*
X51178571Y19795181D02*
X51083333Y19842800D01*
X51083333Y19842800D02*
X50988095Y19938039D01*
X50988095Y19938039D02*
X50940476Y20128515D01*
X50940476Y20128515D02*
X50940476Y20461848D01*
X50940476Y20461848D02*
X50988095Y20652324D01*
X50988095Y20652324D02*
X51083333Y20747562D01*
X51083333Y20747562D02*
X51178571Y20795181D01*
X51178571Y20795181D02*
X51369047Y20795181D01*
X51369047Y20795181D02*
X51464285Y20747562D01*
X51464285Y20747562D02*
X51559523Y20652324D01*
X51559523Y20652324D02*
X51607142Y20461848D01*
X51607142Y20461848D02*
X51607142Y20128515D01*
X51607142Y20128515D02*
X51559523Y19938039D01*
X51559523Y19938039D02*
X51464285Y19842800D01*
X51464285Y19842800D02*
X51369047Y19795181D01*
X51369047Y19795181D02*
X51178571Y19795181D01*
X51988095Y20699943D02*
X52035714Y20747562D01*
X52035714Y20747562D02*
X52130952Y20795181D01*
X52130952Y20795181D02*
X52369047Y20795181D01*
X52369047Y20795181D02*
X52464285Y20747562D01*
X52464285Y20747562D02*
X52511904Y20699943D01*
X52511904Y20699943D02*
X52559523Y20604705D01*
X52559523Y20604705D02*
X52559523Y20509467D01*
X52559523Y20509467D02*
X52511904Y20366610D01*
X52511904Y20366610D02*
X51940476Y19795181D01*
X51940476Y19795181D02*
X52559523Y19795181D01*
X41190476Y23420181D02*
X41857142Y22420181D01*
X41857142Y23420181D02*
X41190476Y22420181D01*
X42190476Y23324943D02*
X42238095Y23372562D01*
X42238095Y23372562D02*
X42333333Y23420181D01*
X42333333Y23420181D02*
X42571428Y23420181D01*
X42571428Y23420181D02*
X42666666Y23372562D01*
X42666666Y23372562D02*
X42714285Y23324943D01*
X42714285Y23324943D02*
X42761904Y23229705D01*
X42761904Y23229705D02*
X42761904Y23134467D01*
X42761904Y23134467D02*
X42714285Y22991610D01*
X42714285Y22991610D02*
X42142857Y22420181D01*
X42142857Y22420181D02*
X42761904Y22420181D01*
X22457142Y25440420D02*
X22409523Y25392800D01*
X22409523Y25392800D02*
X22266666Y25345181D01*
X22266666Y25345181D02*
X22171428Y25345181D01*
X22171428Y25345181D02*
X22028571Y25392800D01*
X22028571Y25392800D02*
X21933333Y25488039D01*
X21933333Y25488039D02*
X21885714Y25583277D01*
X21885714Y25583277D02*
X21838095Y25773753D01*
X21838095Y25773753D02*
X21838095Y25916610D01*
X21838095Y25916610D02*
X21885714Y26107086D01*
X21885714Y26107086D02*
X21933333Y26202324D01*
X21933333Y26202324D02*
X22028571Y26297562D01*
X22028571Y26297562D02*
X22171428Y26345181D01*
X22171428Y26345181D02*
X22266666Y26345181D01*
X22266666Y26345181D02*
X22409523Y26297562D01*
X22409523Y26297562D02*
X22457142Y26249943D01*
X22838095Y26249943D02*
X22885714Y26297562D01*
X22885714Y26297562D02*
X22980952Y26345181D01*
X22980952Y26345181D02*
X23219047Y26345181D01*
X23219047Y26345181D02*
X23314285Y26297562D01*
X23314285Y26297562D02*
X23361904Y26249943D01*
X23361904Y26249943D02*
X23409523Y26154705D01*
X23409523Y26154705D02*
X23409523Y26059467D01*
X23409523Y26059467D02*
X23361904Y25916610D01*
X23361904Y25916610D02*
X22790476Y25345181D01*
X22790476Y25345181D02*
X23409523Y25345181D01*
X23742857Y26345181D02*
X24409523Y26345181D01*
X24409523Y26345181D02*
X23980952Y25345181D01*
X54157142Y35440420D02*
X54109523Y35392800D01*
X54109523Y35392800D02*
X53966666Y35345181D01*
X53966666Y35345181D02*
X53871428Y35345181D01*
X53871428Y35345181D02*
X53728571Y35392800D01*
X53728571Y35392800D02*
X53633333Y35488039D01*
X53633333Y35488039D02*
X53585714Y35583277D01*
X53585714Y35583277D02*
X53538095Y35773753D01*
X53538095Y35773753D02*
X53538095Y35916610D01*
X53538095Y35916610D02*
X53585714Y36107086D01*
X53585714Y36107086D02*
X53633333Y36202324D01*
X53633333Y36202324D02*
X53728571Y36297562D01*
X53728571Y36297562D02*
X53871428Y36345181D01*
X53871428Y36345181D02*
X53966666Y36345181D01*
X53966666Y36345181D02*
X54109523Y36297562D01*
X54109523Y36297562D02*
X54157142Y36249943D01*
X55109523Y35345181D02*
X54538095Y35345181D01*
X54823809Y35345181D02*
X54823809Y36345181D01*
X54823809Y36345181D02*
X54728571Y36202324D01*
X54728571Y36202324D02*
X54633333Y36107086D01*
X54633333Y36107086D02*
X54538095Y36059467D01*
X55966666Y36011848D02*
X55966666Y35345181D01*
X55728571Y36392800D02*
X55490476Y35678515D01*
X55490476Y35678515D02*
X56109523Y35678515D01*
X46059580Y17457143D02*
X46107200Y17409524D01*
X46107200Y17409524D02*
X46154819Y17266667D01*
X46154819Y17266667D02*
X46154819Y17171429D01*
X46154819Y17171429D02*
X46107200Y17028572D01*
X46107200Y17028572D02*
X46011961Y16933334D01*
X46011961Y16933334D02*
X45916723Y16885715D01*
X45916723Y16885715D02*
X45726247Y16838096D01*
X45726247Y16838096D02*
X45583390Y16838096D01*
X45583390Y16838096D02*
X45392914Y16885715D01*
X45392914Y16885715D02*
X45297676Y16933334D01*
X45297676Y16933334D02*
X45202438Y17028572D01*
X45202438Y17028572D02*
X45154819Y17171429D01*
X45154819Y17171429D02*
X45154819Y17266667D01*
X45154819Y17266667D02*
X45202438Y17409524D01*
X45202438Y17409524D02*
X45250057Y17457143D01*
X46154819Y18409524D02*
X46154819Y17838096D01*
X46154819Y18123810D02*
X45154819Y18123810D01*
X45154819Y18123810D02*
X45297676Y18028572D01*
X45297676Y18028572D02*
X45392914Y17933334D01*
X45392914Y17933334D02*
X45440533Y17838096D01*
X45154819Y19266667D02*
X45154819Y19076191D01*
X45154819Y19076191D02*
X45202438Y18980953D01*
X45202438Y18980953D02*
X45250057Y18933334D01*
X45250057Y18933334D02*
X45392914Y18838096D01*
X45392914Y18838096D02*
X45583390Y18790477D01*
X45583390Y18790477D02*
X45964342Y18790477D01*
X45964342Y18790477D02*
X46059580Y18838096D01*
X46059580Y18838096D02*
X46107200Y18885715D01*
X46107200Y18885715D02*
X46154819Y18980953D01*
X46154819Y18980953D02*
X46154819Y19171429D01*
X46154819Y19171429D02*
X46107200Y19266667D01*
X46107200Y19266667D02*
X46059580Y19314286D01*
X46059580Y19314286D02*
X45964342Y19361905D01*
X45964342Y19361905D02*
X45726247Y19361905D01*
X45726247Y19361905D02*
X45631009Y19314286D01*
X45631009Y19314286D02*
X45583390Y19266667D01*
X45583390Y19266667D02*
X45535771Y19171429D01*
X45535771Y19171429D02*
X45535771Y18980953D01*
X45535771Y18980953D02*
X45583390Y18885715D01*
X45583390Y18885715D02*
X45631009Y18838096D01*
X45631009Y18838096D02*
X45726247Y18790477D01*
X38807851Y29521420D02*
X38760232Y29473800D01*
X38760232Y29473800D02*
X38617375Y29426181D01*
X38617375Y29426181D02*
X38522137Y29426181D01*
X38522137Y29426181D02*
X38379280Y29473800D01*
X38379280Y29473800D02*
X38284042Y29569039D01*
X38284042Y29569039D02*
X38236423Y29664277D01*
X38236423Y29664277D02*
X38188804Y29854753D01*
X38188804Y29854753D02*
X38188804Y29997610D01*
X38188804Y29997610D02*
X38236423Y30188086D01*
X38236423Y30188086D02*
X38284042Y30283324D01*
X38284042Y30283324D02*
X38379280Y30378562D01*
X38379280Y30378562D02*
X38522137Y30426181D01*
X38522137Y30426181D02*
X38617375Y30426181D01*
X38617375Y30426181D02*
X38760232Y30378562D01*
X38760232Y30378562D02*
X38807851Y30330943D01*
X39141185Y30426181D02*
X39760232Y30426181D01*
X39760232Y30426181D02*
X39426899Y30045229D01*
X39426899Y30045229D02*
X39569756Y30045229D01*
X39569756Y30045229D02*
X39664994Y29997610D01*
X39664994Y29997610D02*
X39712613Y29949991D01*
X39712613Y29949991D02*
X39760232Y29854753D01*
X39760232Y29854753D02*
X39760232Y29616658D01*
X39760232Y29616658D02*
X39712613Y29521420D01*
X39712613Y29521420D02*
X39664994Y29473800D01*
X39664994Y29473800D02*
X39569756Y29426181D01*
X39569756Y29426181D02*
X39284042Y29426181D01*
X39284042Y29426181D02*
X39188804Y29473800D01*
X39188804Y29473800D02*
X39141185Y29521420D01*
X35261905Y25445181D02*
X35261905Y26445181D01*
X35261905Y26445181D02*
X35500000Y26445181D01*
X35500000Y26445181D02*
X35642857Y26397562D01*
X35642857Y26397562D02*
X35738095Y26302324D01*
X35738095Y26302324D02*
X35785714Y26207086D01*
X35785714Y26207086D02*
X35833333Y26016610D01*
X35833333Y26016610D02*
X35833333Y25873753D01*
X35833333Y25873753D02*
X35785714Y25683277D01*
X35785714Y25683277D02*
X35738095Y25588039D01*
X35738095Y25588039D02*
X35642857Y25492800D01*
X35642857Y25492800D02*
X35500000Y25445181D01*
X35500000Y25445181D02*
X35261905Y25445181D01*
X36690476Y26111848D02*
X36690476Y25445181D01*
X36452381Y26492800D02*
X36214286Y25778515D01*
X36214286Y25778515D02*
X36833333Y25778515D01*
X7386104Y11585715D02*
X7424200Y11547619D01*
X7424200Y11547619D02*
X7462295Y11433334D01*
X7462295Y11433334D02*
X7462295Y11357143D01*
X7462295Y11357143D02*
X7424200Y11242857D01*
X7424200Y11242857D02*
X7348009Y11166667D01*
X7348009Y11166667D02*
X7271819Y11128572D01*
X7271819Y11128572D02*
X7119438Y11090476D01*
X7119438Y11090476D02*
X7005152Y11090476D01*
X7005152Y11090476D02*
X6852771Y11128572D01*
X6852771Y11128572D02*
X6776580Y11166667D01*
X6776580Y11166667D02*
X6700390Y11242857D01*
X6700390Y11242857D02*
X6662295Y11357143D01*
X6662295Y11357143D02*
X6662295Y11433334D01*
X6662295Y11433334D02*
X6700390Y11547619D01*
X6700390Y11547619D02*
X6738485Y11585715D01*
X6738485Y11890476D02*
X6700390Y11928572D01*
X6700390Y11928572D02*
X6662295Y12004762D01*
X6662295Y12004762D02*
X6662295Y12195238D01*
X6662295Y12195238D02*
X6700390Y12271429D01*
X6700390Y12271429D02*
X6738485Y12309524D01*
X6738485Y12309524D02*
X6814676Y12347619D01*
X6814676Y12347619D02*
X6890866Y12347619D01*
X6890866Y12347619D02*
X7005152Y12309524D01*
X7005152Y12309524D02*
X7462295Y11852381D01*
X7462295Y11852381D02*
X7462295Y12347619D01*
X6662295Y13071429D02*
X6662295Y12690477D01*
X6662295Y12690477D02*
X7043247Y12652381D01*
X7043247Y12652381D02*
X7005152Y12690477D01*
X7005152Y12690477D02*
X6967057Y12766667D01*
X6967057Y12766667D02*
X6967057Y12957143D01*
X6967057Y12957143D02*
X7005152Y13033334D01*
X7005152Y13033334D02*
X7043247Y13071429D01*
X7043247Y13071429D02*
X7119438Y13109524D01*
X7119438Y13109524D02*
X7309914Y13109524D01*
X7309914Y13109524D02*
X7386104Y13071429D01*
X7386104Y13071429D02*
X7424200Y13033334D01*
X7424200Y13033334D02*
X7462295Y12957143D01*
X7462295Y12957143D02*
X7462295Y12766667D01*
X7462295Y12766667D02*
X7424200Y12690477D01*
X7424200Y12690477D02*
X7386104Y12652381D01*
X35327200Y18076668D02*
X35374819Y18219525D01*
X35374819Y18219525D02*
X35374819Y18457620D01*
X35374819Y18457620D02*
X35327200Y18552858D01*
X35327200Y18552858D02*
X35279580Y18600477D01*
X35279580Y18600477D02*
X35184342Y18648096D01*
X35184342Y18648096D02*
X35089104Y18648096D01*
X35089104Y18648096D02*
X34993866Y18600477D01*
X34993866Y18600477D02*
X34946247Y18552858D01*
X34946247Y18552858D02*
X34898628Y18457620D01*
X34898628Y18457620D02*
X34851009Y18267144D01*
X34851009Y18267144D02*
X34803390Y18171906D01*
X34803390Y18171906D02*
X34755771Y18124287D01*
X34755771Y18124287D02*
X34660533Y18076668D01*
X34660533Y18076668D02*
X34565295Y18076668D01*
X34565295Y18076668D02*
X34470057Y18124287D01*
X34470057Y18124287D02*
X34422438Y18171906D01*
X34422438Y18171906D02*
X34374819Y18267144D01*
X34374819Y18267144D02*
X34374819Y18505239D01*
X34374819Y18505239D02*
X34422438Y18648096D01*
X34374819Y18981430D02*
X35374819Y19219525D01*
X35374819Y19219525D02*
X34660533Y19410001D01*
X34660533Y19410001D02*
X35374819Y19600477D01*
X35374819Y19600477D02*
X34374819Y19838572D01*
X35374819Y20743334D02*
X35374819Y20171906D01*
X35374819Y20457620D02*
X34374819Y20457620D01*
X34374819Y20457620D02*
X34517676Y20362382D01*
X34517676Y20362382D02*
X34612914Y20267144D01*
X34612914Y20267144D02*
X34660533Y20171906D01*
X48716666Y6088181D02*
X48716666Y5373896D01*
X48716666Y5373896D02*
X48669047Y5231039D01*
X48669047Y5231039D02*
X48573809Y5135800D01*
X48573809Y5135800D02*
X48430952Y5088181D01*
X48430952Y5088181D02*
X48335714Y5088181D01*
X49145238Y5992943D02*
X49192857Y6040562D01*
X49192857Y6040562D02*
X49288095Y6088181D01*
X49288095Y6088181D02*
X49526190Y6088181D01*
X49526190Y6088181D02*
X49621428Y6040562D01*
X49621428Y6040562D02*
X49669047Y5992943D01*
X49669047Y5992943D02*
X49716666Y5897705D01*
X49716666Y5897705D02*
X49716666Y5802467D01*
X49716666Y5802467D02*
X49669047Y5659610D01*
X49669047Y5659610D02*
X49097619Y5088181D01*
X49097619Y5088181D02*
X49716666Y5088181D01*
X25732142Y20690420D02*
X25684523Y20642800D01*
X25684523Y20642800D02*
X25541666Y20595181D01*
X25541666Y20595181D02*
X25446428Y20595181D01*
X25446428Y20595181D02*
X25303571Y20642800D01*
X25303571Y20642800D02*
X25208333Y20738039D01*
X25208333Y20738039D02*
X25160714Y20833277D01*
X25160714Y20833277D02*
X25113095Y21023753D01*
X25113095Y21023753D02*
X25113095Y21166610D01*
X25113095Y21166610D02*
X25160714Y21357086D01*
X25160714Y21357086D02*
X25208333Y21452324D01*
X25208333Y21452324D02*
X25303571Y21547562D01*
X25303571Y21547562D02*
X25446428Y21595181D01*
X25446428Y21595181D02*
X25541666Y21595181D01*
X25541666Y21595181D02*
X25684523Y21547562D01*
X25684523Y21547562D02*
X25732142Y21499943D01*
X26113095Y21499943D02*
X26160714Y21547562D01*
X26160714Y21547562D02*
X26255952Y21595181D01*
X26255952Y21595181D02*
X26494047Y21595181D01*
X26494047Y21595181D02*
X26589285Y21547562D01*
X26589285Y21547562D02*
X26636904Y21499943D01*
X26636904Y21499943D02*
X26684523Y21404705D01*
X26684523Y21404705D02*
X26684523Y21309467D01*
X26684523Y21309467D02*
X26636904Y21166610D01*
X26636904Y21166610D02*
X26065476Y20595181D01*
X26065476Y20595181D02*
X26684523Y20595181D01*
X27017857Y21595181D02*
X27636904Y21595181D01*
X27636904Y21595181D02*
X27303571Y21214229D01*
X27303571Y21214229D02*
X27446428Y21214229D01*
X27446428Y21214229D02*
X27541666Y21166610D01*
X27541666Y21166610D02*
X27589285Y21118991D01*
X27589285Y21118991D02*
X27636904Y21023753D01*
X27636904Y21023753D02*
X27636904Y20785658D01*
X27636904Y20785658D02*
X27589285Y20690420D01*
X27589285Y20690420D02*
X27541666Y20642800D01*
X27541666Y20642800D02*
X27446428Y20595181D01*
X27446428Y20595181D02*
X27160714Y20595181D01*
X27160714Y20595181D02*
X27065476Y20642800D01*
X27065476Y20642800D02*
X27017857Y20690420D01*
X55333333Y30290420D02*
X55285714Y30242800D01*
X55285714Y30242800D02*
X55142857Y30195181D01*
X55142857Y30195181D02*
X55047619Y30195181D01*
X55047619Y30195181D02*
X54904762Y30242800D01*
X54904762Y30242800D02*
X54809524Y30338039D01*
X54809524Y30338039D02*
X54761905Y30433277D01*
X54761905Y30433277D02*
X54714286Y30623753D01*
X54714286Y30623753D02*
X54714286Y30766610D01*
X54714286Y30766610D02*
X54761905Y30957086D01*
X54761905Y30957086D02*
X54809524Y31052324D01*
X54809524Y31052324D02*
X54904762Y31147562D01*
X54904762Y31147562D02*
X55047619Y31195181D01*
X55047619Y31195181D02*
X55142857Y31195181D01*
X55142857Y31195181D02*
X55285714Y31147562D01*
X55285714Y31147562D02*
X55333333Y31099943D01*
X55809524Y30195181D02*
X56000000Y30195181D01*
X56000000Y30195181D02*
X56095238Y30242800D01*
X56095238Y30242800D02*
X56142857Y30290420D01*
X56142857Y30290420D02*
X56238095Y30433277D01*
X56238095Y30433277D02*
X56285714Y30623753D01*
X56285714Y30623753D02*
X56285714Y31004705D01*
X56285714Y31004705D02*
X56238095Y31099943D01*
X56238095Y31099943D02*
X56190476Y31147562D01*
X56190476Y31147562D02*
X56095238Y31195181D01*
X56095238Y31195181D02*
X55904762Y31195181D01*
X55904762Y31195181D02*
X55809524Y31147562D01*
X55809524Y31147562D02*
X55761905Y31099943D01*
X55761905Y31099943D02*
X55714286Y31004705D01*
X55714286Y31004705D02*
X55714286Y30766610D01*
X55714286Y30766610D02*
X55761905Y30671372D01*
X55761905Y30671372D02*
X55809524Y30623753D01*
X55809524Y30623753D02*
X55904762Y30576134D01*
X55904762Y30576134D02*
X56095238Y30576134D01*
X56095238Y30576134D02*
X56190476Y30623753D01*
X56190476Y30623753D02*
X56238095Y30671372D01*
X56238095Y30671372D02*
X56285714Y30766610D01*
X16557142Y19140420D02*
X16509523Y19092800D01*
X16509523Y19092800D02*
X16366666Y19045181D01*
X16366666Y19045181D02*
X16271428Y19045181D01*
X16271428Y19045181D02*
X16128571Y19092800D01*
X16128571Y19092800D02*
X16033333Y19188039D01*
X16033333Y19188039D02*
X15985714Y19283277D01*
X15985714Y19283277D02*
X15938095Y19473753D01*
X15938095Y19473753D02*
X15938095Y19616610D01*
X15938095Y19616610D02*
X15985714Y19807086D01*
X15985714Y19807086D02*
X16033333Y19902324D01*
X16033333Y19902324D02*
X16128571Y19997562D01*
X16128571Y19997562D02*
X16271428Y20045181D01*
X16271428Y20045181D02*
X16366666Y20045181D01*
X16366666Y20045181D02*
X16509523Y19997562D01*
X16509523Y19997562D02*
X16557142Y19949943D01*
X17509523Y19045181D02*
X16938095Y19045181D01*
X17223809Y19045181D02*
X17223809Y20045181D01*
X17223809Y20045181D02*
X17128571Y19902324D01*
X17128571Y19902324D02*
X17033333Y19807086D01*
X17033333Y19807086D02*
X16938095Y19759467D01*
X17890476Y19949943D02*
X17938095Y19997562D01*
X17938095Y19997562D02*
X18033333Y20045181D01*
X18033333Y20045181D02*
X18271428Y20045181D01*
X18271428Y20045181D02*
X18366666Y19997562D01*
X18366666Y19997562D02*
X18414285Y19949943D01*
X18414285Y19949943D02*
X18461904Y19854705D01*
X18461904Y19854705D02*
X18461904Y19759467D01*
X18461904Y19759467D02*
X18414285Y19616610D01*
X18414285Y19616610D02*
X17842857Y19045181D01*
X17842857Y19045181D02*
X18461904Y19045181D01*
X54157142Y36940420D02*
X54109523Y36892800D01*
X54109523Y36892800D02*
X53966666Y36845181D01*
X53966666Y36845181D02*
X53871428Y36845181D01*
X53871428Y36845181D02*
X53728571Y36892800D01*
X53728571Y36892800D02*
X53633333Y36988039D01*
X53633333Y36988039D02*
X53585714Y37083277D01*
X53585714Y37083277D02*
X53538095Y37273753D01*
X53538095Y37273753D02*
X53538095Y37416610D01*
X53538095Y37416610D02*
X53585714Y37607086D01*
X53585714Y37607086D02*
X53633333Y37702324D01*
X53633333Y37702324D02*
X53728571Y37797562D01*
X53728571Y37797562D02*
X53871428Y37845181D01*
X53871428Y37845181D02*
X53966666Y37845181D01*
X53966666Y37845181D02*
X54109523Y37797562D01*
X54109523Y37797562D02*
X54157142Y37749943D01*
X54538095Y37749943D02*
X54585714Y37797562D01*
X54585714Y37797562D02*
X54680952Y37845181D01*
X54680952Y37845181D02*
X54919047Y37845181D01*
X54919047Y37845181D02*
X55014285Y37797562D01*
X55014285Y37797562D02*
X55061904Y37749943D01*
X55061904Y37749943D02*
X55109523Y37654705D01*
X55109523Y37654705D02*
X55109523Y37559467D01*
X55109523Y37559467D02*
X55061904Y37416610D01*
X55061904Y37416610D02*
X54490476Y36845181D01*
X54490476Y36845181D02*
X55109523Y36845181D01*
X55585714Y36845181D02*
X55776190Y36845181D01*
X55776190Y36845181D02*
X55871428Y36892800D01*
X55871428Y36892800D02*
X55919047Y36940420D01*
X55919047Y36940420D02*
X56014285Y37083277D01*
X56014285Y37083277D02*
X56061904Y37273753D01*
X56061904Y37273753D02*
X56061904Y37654705D01*
X56061904Y37654705D02*
X56014285Y37749943D01*
X56014285Y37749943D02*
X55966666Y37797562D01*
X55966666Y37797562D02*
X55871428Y37845181D01*
X55871428Y37845181D02*
X55680952Y37845181D01*
X55680952Y37845181D02*
X55585714Y37797562D01*
X55585714Y37797562D02*
X55538095Y37749943D01*
X55538095Y37749943D02*
X55490476Y37654705D01*
X55490476Y37654705D02*
X55490476Y37416610D01*
X55490476Y37416610D02*
X55538095Y37321372D01*
X55538095Y37321372D02*
X55585714Y37273753D01*
X55585714Y37273753D02*
X55680952Y37226134D01*
X55680952Y37226134D02*
X55871428Y37226134D01*
X55871428Y37226134D02*
X55966666Y37273753D01*
X55966666Y37273753D02*
X56014285Y37321372D01*
X56014285Y37321372D02*
X56061904Y37416610D01*
X1628571Y25768991D02*
X1295238Y25768991D01*
X1295238Y25245181D02*
X1295238Y26245181D01*
X1295238Y26245181D02*
X1771428Y26245181D01*
X2152381Y25245181D02*
X2152381Y26245181D01*
X2628571Y25245181D02*
X2628571Y26245181D01*
X2628571Y26245181D02*
X2866666Y26245181D01*
X2866666Y26245181D02*
X3009523Y26197562D01*
X3009523Y26197562D02*
X3104761Y26102324D01*
X3104761Y26102324D02*
X3152380Y26007086D01*
X3152380Y26007086D02*
X3199999Y25816610D01*
X3199999Y25816610D02*
X3199999Y25673753D01*
X3199999Y25673753D02*
X3152380Y25483277D01*
X3152380Y25483277D02*
X3104761Y25388039D01*
X3104761Y25388039D02*
X3009523Y25292800D01*
X3009523Y25292800D02*
X2866666Y25245181D01*
X2866666Y25245181D02*
X2628571Y25245181D01*
X3533333Y26245181D02*
X4152380Y26245181D01*
X4152380Y26245181D02*
X3819047Y25864229D01*
X3819047Y25864229D02*
X3961904Y25864229D01*
X3961904Y25864229D02*
X4057142Y25816610D01*
X4057142Y25816610D02*
X4104761Y25768991D01*
X4104761Y25768991D02*
X4152380Y25673753D01*
X4152380Y25673753D02*
X4152380Y25435658D01*
X4152380Y25435658D02*
X4104761Y25340420D01*
X4104761Y25340420D02*
X4057142Y25292800D01*
X4057142Y25292800D02*
X3961904Y25245181D01*
X3961904Y25245181D02*
X3676190Y25245181D01*
X3676190Y25245181D02*
X3580952Y25292800D01*
X3580952Y25292800D02*
X3533333Y25340420D01*
X34316666Y38470181D02*
X34316666Y37755896D01*
X34316666Y37755896D02*
X34269047Y37613039D01*
X34269047Y37613039D02*
X34173809Y37517800D01*
X34173809Y37517800D02*
X34030952Y37470181D01*
X34030952Y37470181D02*
X33935714Y37470181D01*
X35316666Y37470181D02*
X34745238Y37470181D01*
X35030952Y37470181D02*
X35030952Y38470181D01*
X35030952Y38470181D02*
X34935714Y38327324D01*
X34935714Y38327324D02*
X34840476Y38232086D01*
X34840476Y38232086D02*
X34745238Y38184467D01*
X1604819Y15986906D02*
X604819Y15986906D01*
X604819Y15986906D02*
X604819Y16225001D01*
X604819Y16225001D02*
X652438Y16367858D01*
X652438Y16367858D02*
X747676Y16463096D01*
X747676Y16463096D02*
X842914Y16510715D01*
X842914Y16510715D02*
X1033390Y16558334D01*
X1033390Y16558334D02*
X1176247Y16558334D01*
X1176247Y16558334D02*
X1366723Y16510715D01*
X1366723Y16510715D02*
X1461961Y16463096D01*
X1461961Y16463096D02*
X1557200Y16367858D01*
X1557200Y16367858D02*
X1604819Y16225001D01*
X1604819Y16225001D02*
X1604819Y15986906D01*
X604819Y17463096D02*
X604819Y16986906D01*
X604819Y16986906D02*
X1081009Y16939287D01*
X1081009Y16939287D02*
X1033390Y16986906D01*
X1033390Y16986906D02*
X985771Y17082144D01*
X985771Y17082144D02*
X985771Y17320239D01*
X985771Y17320239D02*
X1033390Y17415477D01*
X1033390Y17415477D02*
X1081009Y17463096D01*
X1081009Y17463096D02*
X1176247Y17510715D01*
X1176247Y17510715D02*
X1414342Y17510715D01*
X1414342Y17510715D02*
X1509580Y17463096D01*
X1509580Y17463096D02*
X1557200Y17415477D01*
X1557200Y17415477D02*
X1604819Y17320239D01*
X1604819Y17320239D02*
X1604819Y17082144D01*
X1604819Y17082144D02*
X1557200Y16986906D01*
X1557200Y16986906D02*
X1509580Y16939287D01*
X22457142Y22840420D02*
X22409523Y22792800D01*
X22409523Y22792800D02*
X22266666Y22745181D01*
X22266666Y22745181D02*
X22171428Y22745181D01*
X22171428Y22745181D02*
X22028571Y22792800D01*
X22028571Y22792800D02*
X21933333Y22888039D01*
X21933333Y22888039D02*
X21885714Y22983277D01*
X21885714Y22983277D02*
X21838095Y23173753D01*
X21838095Y23173753D02*
X21838095Y23316610D01*
X21838095Y23316610D02*
X21885714Y23507086D01*
X21885714Y23507086D02*
X21933333Y23602324D01*
X21933333Y23602324D02*
X22028571Y23697562D01*
X22028571Y23697562D02*
X22171428Y23745181D01*
X22171428Y23745181D02*
X22266666Y23745181D01*
X22266666Y23745181D02*
X22409523Y23697562D01*
X22409523Y23697562D02*
X22457142Y23649943D01*
X23409523Y22745181D02*
X22838095Y22745181D01*
X23123809Y22745181D02*
X23123809Y23745181D01*
X23123809Y23745181D02*
X23028571Y23602324D01*
X23028571Y23602324D02*
X22933333Y23507086D01*
X22933333Y23507086D02*
X22838095Y23459467D01*
X23742857Y23745181D02*
X24361904Y23745181D01*
X24361904Y23745181D02*
X24028571Y23364229D01*
X24028571Y23364229D02*
X24171428Y23364229D01*
X24171428Y23364229D02*
X24266666Y23316610D01*
X24266666Y23316610D02*
X24314285Y23268991D01*
X24314285Y23268991D02*
X24361904Y23173753D01*
X24361904Y23173753D02*
X24361904Y22935658D01*
X24361904Y22935658D02*
X24314285Y22840420D01*
X24314285Y22840420D02*
X24266666Y22792800D01*
X24266666Y22792800D02*
X24171428Y22745181D01*
X24171428Y22745181D02*
X23885714Y22745181D01*
X23885714Y22745181D02*
X23790476Y22792800D01*
X23790476Y22792800D02*
X23742857Y22840420D01*
X8266667Y11437705D02*
X8000000Y11818658D01*
X7809524Y11437705D02*
X7809524Y12237705D01*
X7809524Y12237705D02*
X8114286Y12237705D01*
X8114286Y12237705D02*
X8190476Y12199610D01*
X8190476Y12199610D02*
X8228571Y12161515D01*
X8228571Y12161515D02*
X8266667Y12085324D01*
X8266667Y12085324D02*
X8266667Y11971039D01*
X8266667Y11971039D02*
X8228571Y11894848D01*
X8228571Y11894848D02*
X8190476Y11856753D01*
X8190476Y11856753D02*
X8114286Y11818658D01*
X8114286Y11818658D02*
X7809524Y11818658D01*
X9028571Y11437705D02*
X8571428Y11437705D01*
X8800000Y11437705D02*
X8800000Y12237705D01*
X8800000Y12237705D02*
X8723809Y12123420D01*
X8723809Y12123420D02*
X8647619Y12047229D01*
X8647619Y12047229D02*
X8571428Y12009134D01*
X33238095Y16045181D02*
X33238095Y15235658D01*
X33238095Y15235658D02*
X33285714Y15140420D01*
X33285714Y15140420D02*
X33333333Y15092800D01*
X33333333Y15092800D02*
X33428571Y15045181D01*
X33428571Y15045181D02*
X33619047Y15045181D01*
X33619047Y15045181D02*
X33714285Y15092800D01*
X33714285Y15092800D02*
X33761904Y15140420D01*
X33761904Y15140420D02*
X33809523Y15235658D01*
X33809523Y15235658D02*
X33809523Y16045181D01*
X34714285Y15711848D02*
X34714285Y15045181D01*
X34476190Y16092800D02*
X34238095Y15378515D01*
X34238095Y15378515D02*
X34857142Y15378515D01*
X53683333Y30195181D02*
X53207143Y30195181D01*
X53207143Y30195181D02*
X53207143Y31195181D01*
X54540476Y30195181D02*
X53969048Y30195181D01*
X54254762Y30195181D02*
X54254762Y31195181D01*
X54254762Y31195181D02*
X54159524Y31052324D01*
X54159524Y31052324D02*
X54064286Y30957086D01*
X54064286Y30957086D02*
X53969048Y30909467D01*
X57654761Y19699943D02*
X57559523Y19747562D01*
X57559523Y19747562D02*
X57464285Y19842800D01*
X57464285Y19842800D02*
X57321428Y19985658D01*
X57321428Y19985658D02*
X57226190Y20033277D01*
X57226190Y20033277D02*
X57130952Y20033277D01*
X57178571Y19795181D02*
X57083333Y19842800D01*
X57083333Y19842800D02*
X56988095Y19938039D01*
X56988095Y19938039D02*
X56940476Y20128515D01*
X56940476Y20128515D02*
X56940476Y20461848D01*
X56940476Y20461848D02*
X56988095Y20652324D01*
X56988095Y20652324D02*
X57083333Y20747562D01*
X57083333Y20747562D02*
X57178571Y20795181D01*
X57178571Y20795181D02*
X57369047Y20795181D01*
X57369047Y20795181D02*
X57464285Y20747562D01*
X57464285Y20747562D02*
X57559523Y20652324D01*
X57559523Y20652324D02*
X57607142Y20461848D01*
X57607142Y20461848D02*
X57607142Y20128515D01*
X57607142Y20128515D02*
X57559523Y19938039D01*
X57559523Y19938039D02*
X57464285Y19842800D01*
X57464285Y19842800D02*
X57369047Y19795181D01*
X57369047Y19795181D02*
X57178571Y19795181D01*
X58464285Y20461848D02*
X58464285Y19795181D01*
X58226190Y20842800D02*
X57988095Y20128515D01*
X57988095Y20128515D02*
X58607142Y20128515D01*
X56704819Y9333334D02*
X56228628Y9000001D01*
X56704819Y8761906D02*
X55704819Y8761906D01*
X55704819Y8761906D02*
X55704819Y9142858D01*
X55704819Y9142858D02*
X55752438Y9238096D01*
X55752438Y9238096D02*
X55800057Y9285715D01*
X55800057Y9285715D02*
X55895295Y9333334D01*
X55895295Y9333334D02*
X56038152Y9333334D01*
X56038152Y9333334D02*
X56133390Y9285715D01*
X56133390Y9285715D02*
X56181009Y9238096D01*
X56181009Y9238096D02*
X56228628Y9142858D01*
X56228628Y9142858D02*
X56228628Y8761906D01*
X55704819Y9666668D02*
X55704819Y10333334D01*
X55704819Y10333334D02*
X56704819Y9904763D01*
X67928571Y37068991D02*
X67595238Y37068991D01*
X67595238Y36545181D02*
X67595238Y37545181D01*
X67595238Y37545181D02*
X68071428Y37545181D01*
X68452381Y36545181D02*
X68452381Y37545181D01*
X68928571Y36545181D02*
X68928571Y37545181D01*
X68928571Y37545181D02*
X69166666Y37545181D01*
X69166666Y37545181D02*
X69309523Y37497562D01*
X69309523Y37497562D02*
X69404761Y37402324D01*
X69404761Y37402324D02*
X69452380Y37307086D01*
X69452380Y37307086D02*
X69499999Y37116610D01*
X69499999Y37116610D02*
X69499999Y36973753D01*
X69499999Y36973753D02*
X69452380Y36783277D01*
X69452380Y36783277D02*
X69404761Y36688039D01*
X69404761Y36688039D02*
X69309523Y36592800D01*
X69309523Y36592800D02*
X69166666Y36545181D01*
X69166666Y36545181D02*
X68928571Y36545181D01*
X70452380Y36545181D02*
X69880952Y36545181D01*
X70166666Y36545181D02*
X70166666Y37545181D01*
X70166666Y37545181D02*
X70071428Y37402324D01*
X70071428Y37402324D02*
X69976190Y37307086D01*
X69976190Y37307086D02*
X69880952Y37259467D01*
X33285714Y11363896D02*
X33247618Y11325800D01*
X33247618Y11325800D02*
X33133333Y11287705D01*
X33133333Y11287705D02*
X33057142Y11287705D01*
X33057142Y11287705D02*
X32942856Y11325800D01*
X32942856Y11325800D02*
X32866666Y11401991D01*
X32866666Y11401991D02*
X32828571Y11478181D01*
X32828571Y11478181D02*
X32790475Y11630562D01*
X32790475Y11630562D02*
X32790475Y11744848D01*
X32790475Y11744848D02*
X32828571Y11897229D01*
X32828571Y11897229D02*
X32866666Y11973420D01*
X32866666Y11973420D02*
X32942856Y12049610D01*
X32942856Y12049610D02*
X33057142Y12087705D01*
X33057142Y12087705D02*
X33133333Y12087705D01*
X33133333Y12087705D02*
X33247618Y12049610D01*
X33247618Y12049610D02*
X33285714Y12011515D01*
X33590475Y12011515D02*
X33628571Y12049610D01*
X33628571Y12049610D02*
X33704761Y12087705D01*
X33704761Y12087705D02*
X33895237Y12087705D01*
X33895237Y12087705D02*
X33971428Y12049610D01*
X33971428Y12049610D02*
X34009523Y12011515D01*
X34009523Y12011515D02*
X34047618Y11935324D01*
X34047618Y11935324D02*
X34047618Y11859134D01*
X34047618Y11859134D02*
X34009523Y11744848D01*
X34009523Y11744848D02*
X33552380Y11287705D01*
X33552380Y11287705D02*
X34047618Y11287705D01*
X34542857Y12087705D02*
X34619047Y12087705D01*
X34619047Y12087705D02*
X34695238Y12049610D01*
X34695238Y12049610D02*
X34733333Y12011515D01*
X34733333Y12011515D02*
X34771428Y11935324D01*
X34771428Y11935324D02*
X34809523Y11782943D01*
X34809523Y11782943D02*
X34809523Y11592467D01*
X34809523Y11592467D02*
X34771428Y11440086D01*
X34771428Y11440086D02*
X34733333Y11363896D01*
X34733333Y11363896D02*
X34695238Y11325800D01*
X34695238Y11325800D02*
X34619047Y11287705D01*
X34619047Y11287705D02*
X34542857Y11287705D01*
X34542857Y11287705D02*
X34466666Y11325800D01*
X34466666Y11325800D02*
X34428571Y11363896D01*
X34428571Y11363896D02*
X34390476Y11440086D01*
X34390476Y11440086D02*
X34352380Y11592467D01*
X34352380Y11592467D02*
X34352380Y11782943D01*
X34352380Y11782943D02*
X34390476Y11935324D01*
X34390476Y11935324D02*
X34428571Y12011515D01*
X34428571Y12011515D02*
X34466666Y12049610D01*
X34466666Y12049610D02*
X34542857Y12087705D01*
X39357533Y10395239D02*
X39357533Y11004762D01*
X39662295Y10700001D02*
X39052771Y10700001D01*
X36659580Y13757143D02*
X36707200Y13709524D01*
X36707200Y13709524D02*
X36754819Y13566667D01*
X36754819Y13566667D02*
X36754819Y13471429D01*
X36754819Y13471429D02*
X36707200Y13328572D01*
X36707200Y13328572D02*
X36611961Y13233334D01*
X36611961Y13233334D02*
X36516723Y13185715D01*
X36516723Y13185715D02*
X36326247Y13138096D01*
X36326247Y13138096D02*
X36183390Y13138096D01*
X36183390Y13138096D02*
X35992914Y13185715D01*
X35992914Y13185715D02*
X35897676Y13233334D01*
X35897676Y13233334D02*
X35802438Y13328572D01*
X35802438Y13328572D02*
X35754819Y13471429D01*
X35754819Y13471429D02*
X35754819Y13566667D01*
X35754819Y13566667D02*
X35802438Y13709524D01*
X35802438Y13709524D02*
X35850057Y13757143D01*
X35850057Y14138096D02*
X35802438Y14185715D01*
X35802438Y14185715D02*
X35754819Y14280953D01*
X35754819Y14280953D02*
X35754819Y14519048D01*
X35754819Y14519048D02*
X35802438Y14614286D01*
X35802438Y14614286D02*
X35850057Y14661905D01*
X35850057Y14661905D02*
X35945295Y14709524D01*
X35945295Y14709524D02*
X36040533Y14709524D01*
X36040533Y14709524D02*
X36183390Y14661905D01*
X36183390Y14661905D02*
X36754819Y14090477D01*
X36754819Y14090477D02*
X36754819Y14709524D01*
X36088152Y15566667D02*
X36754819Y15566667D01*
X35707200Y15328572D02*
X36421485Y15090477D01*
X36421485Y15090477D02*
X36421485Y15709524D01*
X57361905Y14332681D02*
X57361905Y15332681D01*
X57361905Y15332681D02*
X57600000Y15332681D01*
X57600000Y15332681D02*
X57742857Y15285062D01*
X57742857Y15285062D02*
X57838095Y15189824D01*
X57838095Y15189824D02*
X57885714Y15094586D01*
X57885714Y15094586D02*
X57933333Y14904110D01*
X57933333Y14904110D02*
X57933333Y14761253D01*
X57933333Y14761253D02*
X57885714Y14570777D01*
X57885714Y14570777D02*
X57838095Y14475539D01*
X57838095Y14475539D02*
X57742857Y14380300D01*
X57742857Y14380300D02*
X57600000Y14332681D01*
X57600000Y14332681D02*
X57361905Y14332681D01*
X58314286Y15237443D02*
X58361905Y15285062D01*
X58361905Y15285062D02*
X58457143Y15332681D01*
X58457143Y15332681D02*
X58695238Y15332681D01*
X58695238Y15332681D02*
X58790476Y15285062D01*
X58790476Y15285062D02*
X58838095Y15237443D01*
X58838095Y15237443D02*
X58885714Y15142205D01*
X58885714Y15142205D02*
X58885714Y15046967D01*
X58885714Y15046967D02*
X58838095Y14904110D01*
X58838095Y14904110D02*
X58266667Y14332681D01*
X58266667Y14332681D02*
X58885714Y14332681D01*
X3604761Y20699943D02*
X3509523Y20747562D01*
X3509523Y20747562D02*
X3414285Y20842800D01*
X3414285Y20842800D02*
X3271428Y20985658D01*
X3271428Y20985658D02*
X3176190Y21033277D01*
X3176190Y21033277D02*
X3080952Y21033277D01*
X3128571Y20795181D02*
X3033333Y20842800D01*
X3033333Y20842800D02*
X2938095Y20938039D01*
X2938095Y20938039D02*
X2890476Y21128515D01*
X2890476Y21128515D02*
X2890476Y21461848D01*
X2890476Y21461848D02*
X2938095Y21652324D01*
X2938095Y21652324D02*
X3033333Y21747562D01*
X3033333Y21747562D02*
X3128571Y21795181D01*
X3128571Y21795181D02*
X3319047Y21795181D01*
X3319047Y21795181D02*
X3414285Y21747562D01*
X3414285Y21747562D02*
X3509523Y21652324D01*
X3509523Y21652324D02*
X3557142Y21461848D01*
X3557142Y21461848D02*
X3557142Y21128515D01*
X3557142Y21128515D02*
X3509523Y20938039D01*
X3509523Y20938039D02*
X3414285Y20842800D01*
X3414285Y20842800D02*
X3319047Y20795181D01*
X3319047Y20795181D02*
X3128571Y20795181D01*
X3890476Y21795181D02*
X4509523Y21795181D01*
X4509523Y21795181D02*
X4176190Y21414229D01*
X4176190Y21414229D02*
X4319047Y21414229D01*
X4319047Y21414229D02*
X4414285Y21366610D01*
X4414285Y21366610D02*
X4461904Y21318991D01*
X4461904Y21318991D02*
X4509523Y21223753D01*
X4509523Y21223753D02*
X4509523Y20985658D01*
X4509523Y20985658D02*
X4461904Y20890420D01*
X4461904Y20890420D02*
X4414285Y20842800D01*
X4414285Y20842800D02*
X4319047Y20795181D01*
X4319047Y20795181D02*
X4033333Y20795181D01*
X4033333Y20795181D02*
X3938095Y20842800D01*
X3938095Y20842800D02*
X3890476Y20890420D01*
X46588095Y34145181D02*
X46588095Y33335658D01*
X46588095Y33335658D02*
X46635714Y33240420D01*
X46635714Y33240420D02*
X46683333Y33192800D01*
X46683333Y33192800D02*
X46778571Y33145181D01*
X46778571Y33145181D02*
X46969047Y33145181D01*
X46969047Y33145181D02*
X47064285Y33192800D01*
X47064285Y33192800D02*
X47111904Y33240420D01*
X47111904Y33240420D02*
X47159523Y33335658D01*
X47159523Y33335658D02*
X47159523Y34145181D01*
X47540476Y34145181D02*
X48159523Y34145181D01*
X48159523Y34145181D02*
X47826190Y33764229D01*
X47826190Y33764229D02*
X47969047Y33764229D01*
X47969047Y33764229D02*
X48064285Y33716610D01*
X48064285Y33716610D02*
X48111904Y33668991D01*
X48111904Y33668991D02*
X48159523Y33573753D01*
X48159523Y33573753D02*
X48159523Y33335658D01*
X48159523Y33335658D02*
X48111904Y33240420D01*
X48111904Y33240420D02*
X48064285Y33192800D01*
X48064285Y33192800D02*
X47969047Y33145181D01*
X47969047Y33145181D02*
X47683333Y33145181D01*
X47683333Y33145181D02*
X47588095Y33192800D01*
X47588095Y33192800D02*
X47540476Y33240420D01*
X51240476Y36445181D02*
X51907142Y35445181D01*
X51907142Y36445181D02*
X51240476Y35445181D01*
X52811904Y35445181D02*
X52240476Y35445181D01*
X52526190Y35445181D02*
X52526190Y36445181D01*
X52526190Y36445181D02*
X52430952Y36302324D01*
X52430952Y36302324D02*
X52335714Y36207086D01*
X52335714Y36207086D02*
X52240476Y36159467D01*
X38813333Y23760420D02*
X38765714Y23712800D01*
X38765714Y23712800D02*
X38622857Y23665181D01*
X38622857Y23665181D02*
X38527619Y23665181D01*
X38527619Y23665181D02*
X38384762Y23712800D01*
X38384762Y23712800D02*
X38289524Y23808039D01*
X38289524Y23808039D02*
X38241905Y23903277D01*
X38241905Y23903277D02*
X38194286Y24093753D01*
X38194286Y24093753D02*
X38194286Y24236610D01*
X38194286Y24236610D02*
X38241905Y24427086D01*
X38241905Y24427086D02*
X38289524Y24522324D01*
X38289524Y24522324D02*
X38384762Y24617562D01*
X38384762Y24617562D02*
X38527619Y24665181D01*
X38527619Y24665181D02*
X38622857Y24665181D01*
X38622857Y24665181D02*
X38765714Y24617562D01*
X38765714Y24617562D02*
X38813333Y24569943D01*
X39718095Y24665181D02*
X39241905Y24665181D01*
X39241905Y24665181D02*
X39194286Y24188991D01*
X39194286Y24188991D02*
X39241905Y24236610D01*
X39241905Y24236610D02*
X39337143Y24284229D01*
X39337143Y24284229D02*
X39575238Y24284229D01*
X39575238Y24284229D02*
X39670476Y24236610D01*
X39670476Y24236610D02*
X39718095Y24188991D01*
X39718095Y24188991D02*
X39765714Y24093753D01*
X39765714Y24093753D02*
X39765714Y23855658D01*
X39765714Y23855658D02*
X39718095Y23760420D01*
X39718095Y23760420D02*
X39670476Y23712800D01*
X39670476Y23712800D02*
X39575238Y23665181D01*
X39575238Y23665181D02*
X39337143Y23665181D01*
X39337143Y23665181D02*
X39241905Y23712800D01*
X39241905Y23712800D02*
X39194286Y23760420D01*
X51438095Y14645181D02*
X51438095Y13835658D01*
X51438095Y13835658D02*
X51485714Y13740420D01*
X51485714Y13740420D02*
X51533333Y13692800D01*
X51533333Y13692800D02*
X51628571Y13645181D01*
X51628571Y13645181D02*
X51819047Y13645181D01*
X51819047Y13645181D02*
X51914285Y13692800D01*
X51914285Y13692800D02*
X51961904Y13740420D01*
X51961904Y13740420D02*
X52009523Y13835658D01*
X52009523Y13835658D02*
X52009523Y14645181D01*
X53009523Y13645181D02*
X52438095Y13645181D01*
X52723809Y13645181D02*
X52723809Y14645181D01*
X52723809Y14645181D02*
X52628571Y14502324D01*
X52628571Y14502324D02*
X52533333Y14407086D01*
X52533333Y14407086D02*
X52438095Y14359467D01*
X53733333Y32540420D02*
X53685714Y32492800D01*
X53685714Y32492800D02*
X53542857Y32445181D01*
X53542857Y32445181D02*
X53447619Y32445181D01*
X53447619Y32445181D02*
X53304762Y32492800D01*
X53304762Y32492800D02*
X53209524Y32588039D01*
X53209524Y32588039D02*
X53161905Y32683277D01*
X53161905Y32683277D02*
X53114286Y32873753D01*
X53114286Y32873753D02*
X53114286Y33016610D01*
X53114286Y33016610D02*
X53161905Y33207086D01*
X53161905Y33207086D02*
X53209524Y33302324D01*
X53209524Y33302324D02*
X53304762Y33397562D01*
X53304762Y33397562D02*
X53447619Y33445181D01*
X53447619Y33445181D02*
X53542857Y33445181D01*
X53542857Y33445181D02*
X53685714Y33397562D01*
X53685714Y33397562D02*
X53733333Y33349943D01*
X54304762Y33016610D02*
X54209524Y33064229D01*
X54209524Y33064229D02*
X54161905Y33111848D01*
X54161905Y33111848D02*
X54114286Y33207086D01*
X54114286Y33207086D02*
X54114286Y33254705D01*
X54114286Y33254705D02*
X54161905Y33349943D01*
X54161905Y33349943D02*
X54209524Y33397562D01*
X54209524Y33397562D02*
X54304762Y33445181D01*
X54304762Y33445181D02*
X54495238Y33445181D01*
X54495238Y33445181D02*
X54590476Y33397562D01*
X54590476Y33397562D02*
X54638095Y33349943D01*
X54638095Y33349943D02*
X54685714Y33254705D01*
X54685714Y33254705D02*
X54685714Y33207086D01*
X54685714Y33207086D02*
X54638095Y33111848D01*
X54638095Y33111848D02*
X54590476Y33064229D01*
X54590476Y33064229D02*
X54495238Y33016610D01*
X54495238Y33016610D02*
X54304762Y33016610D01*
X54304762Y33016610D02*
X54209524Y32968991D01*
X54209524Y32968991D02*
X54161905Y32921372D01*
X54161905Y32921372D02*
X54114286Y32826134D01*
X54114286Y32826134D02*
X54114286Y32635658D01*
X54114286Y32635658D02*
X54161905Y32540420D01*
X54161905Y32540420D02*
X54209524Y32492800D01*
X54209524Y32492800D02*
X54304762Y32445181D01*
X54304762Y32445181D02*
X54495238Y32445181D01*
X54495238Y32445181D02*
X54590476Y32492800D01*
X54590476Y32492800D02*
X54638095Y32540420D01*
X54638095Y32540420D02*
X54685714Y32635658D01*
X54685714Y32635658D02*
X54685714Y32826134D01*
X54685714Y32826134D02*
X54638095Y32921372D01*
X54638095Y32921372D02*
X54590476Y32968991D01*
X54590476Y32968991D02*
X54495238Y33016610D01*
X53933333Y27240420D02*
X53885714Y27192800D01*
X53885714Y27192800D02*
X53742857Y27145181D01*
X53742857Y27145181D02*
X53647619Y27145181D01*
X53647619Y27145181D02*
X53504762Y27192800D01*
X53504762Y27192800D02*
X53409524Y27288039D01*
X53409524Y27288039D02*
X53361905Y27383277D01*
X53361905Y27383277D02*
X53314286Y27573753D01*
X53314286Y27573753D02*
X53314286Y27716610D01*
X53314286Y27716610D02*
X53361905Y27907086D01*
X53361905Y27907086D02*
X53409524Y28002324D01*
X53409524Y28002324D02*
X53504762Y28097562D01*
X53504762Y28097562D02*
X53647619Y28145181D01*
X53647619Y28145181D02*
X53742857Y28145181D01*
X53742857Y28145181D02*
X53885714Y28097562D01*
X53885714Y28097562D02*
X53933333Y28049943D01*
X54266667Y28145181D02*
X54933333Y28145181D01*
X54933333Y28145181D02*
X54504762Y27145181D01*
X34213095Y31245181D02*
X34213095Y30435658D01*
X34213095Y30435658D02*
X34260714Y30340420D01*
X34260714Y30340420D02*
X34308333Y30292800D01*
X34308333Y30292800D02*
X34403571Y30245181D01*
X34403571Y30245181D02*
X34594047Y30245181D01*
X34594047Y30245181D02*
X34689285Y30292800D01*
X34689285Y30292800D02*
X34736904Y30340420D01*
X34736904Y30340420D02*
X34784523Y30435658D01*
X34784523Y30435658D02*
X34784523Y31245181D01*
X35736904Y31245181D02*
X35260714Y31245181D01*
X35260714Y31245181D02*
X35213095Y30768991D01*
X35213095Y30768991D02*
X35260714Y30816610D01*
X35260714Y30816610D02*
X35355952Y30864229D01*
X35355952Y30864229D02*
X35594047Y30864229D01*
X35594047Y30864229D02*
X35689285Y30816610D01*
X35689285Y30816610D02*
X35736904Y30768991D01*
X35736904Y30768991D02*
X35784523Y30673753D01*
X35784523Y30673753D02*
X35784523Y30435658D01*
X35784523Y30435658D02*
X35736904Y30340420D01*
X35736904Y30340420D02*
X35689285Y30292800D01*
X35689285Y30292800D02*
X35594047Y30245181D01*
X35594047Y30245181D02*
X35355952Y30245181D01*
X35355952Y30245181D02*
X35260714Y30292800D01*
X35260714Y30292800D02*
X35213095Y30340420D01*
X33357142Y13040420D02*
X33309523Y12992800D01*
X33309523Y12992800D02*
X33166666Y12945181D01*
X33166666Y12945181D02*
X33071428Y12945181D01*
X33071428Y12945181D02*
X32928571Y12992800D01*
X32928571Y12992800D02*
X32833333Y13088039D01*
X32833333Y13088039D02*
X32785714Y13183277D01*
X32785714Y13183277D02*
X32738095Y13373753D01*
X32738095Y13373753D02*
X32738095Y13516610D01*
X32738095Y13516610D02*
X32785714Y13707086D01*
X32785714Y13707086D02*
X32833333Y13802324D01*
X32833333Y13802324D02*
X32928571Y13897562D01*
X32928571Y13897562D02*
X33071428Y13945181D01*
X33071428Y13945181D02*
X33166666Y13945181D01*
X33166666Y13945181D02*
X33309523Y13897562D01*
X33309523Y13897562D02*
X33357142Y13849943D01*
X34309523Y12945181D02*
X33738095Y12945181D01*
X34023809Y12945181D02*
X34023809Y13945181D01*
X34023809Y13945181D02*
X33928571Y13802324D01*
X33928571Y13802324D02*
X33833333Y13707086D01*
X33833333Y13707086D02*
X33738095Y13659467D01*
X34880952Y13516610D02*
X34785714Y13564229D01*
X34785714Y13564229D02*
X34738095Y13611848D01*
X34738095Y13611848D02*
X34690476Y13707086D01*
X34690476Y13707086D02*
X34690476Y13754705D01*
X34690476Y13754705D02*
X34738095Y13849943D01*
X34738095Y13849943D02*
X34785714Y13897562D01*
X34785714Y13897562D02*
X34880952Y13945181D01*
X34880952Y13945181D02*
X35071428Y13945181D01*
X35071428Y13945181D02*
X35166666Y13897562D01*
X35166666Y13897562D02*
X35214285Y13849943D01*
X35214285Y13849943D02*
X35261904Y13754705D01*
X35261904Y13754705D02*
X35261904Y13707086D01*
X35261904Y13707086D02*
X35214285Y13611848D01*
X35214285Y13611848D02*
X35166666Y13564229D01*
X35166666Y13564229D02*
X35071428Y13516610D01*
X35071428Y13516610D02*
X34880952Y13516610D01*
X34880952Y13516610D02*
X34785714Y13468991D01*
X34785714Y13468991D02*
X34738095Y13421372D01*
X34738095Y13421372D02*
X34690476Y13326134D01*
X34690476Y13326134D02*
X34690476Y13135658D01*
X34690476Y13135658D02*
X34738095Y13040420D01*
X34738095Y13040420D02*
X34785714Y12992800D01*
X34785714Y12992800D02*
X34880952Y12945181D01*
X34880952Y12945181D02*
X35071428Y12945181D01*
X35071428Y12945181D02*
X35166666Y12992800D01*
X35166666Y12992800D02*
X35214285Y13040420D01*
X35214285Y13040420D02*
X35261904Y13135658D01*
X35261904Y13135658D02*
X35261904Y13326134D01*
X35261904Y13326134D02*
X35214285Y13421372D01*
X35214285Y13421372D02*
X35166666Y13468991D01*
X35166666Y13468991D02*
X35071428Y13516610D01*
X23266666Y37545181D02*
X23266666Y36830896D01*
X23266666Y36830896D02*
X23219047Y36688039D01*
X23219047Y36688039D02*
X23123809Y36592800D01*
X23123809Y36592800D02*
X22980952Y36545181D01*
X22980952Y36545181D02*
X22885714Y36545181D01*
X24171428Y37211848D02*
X24171428Y36545181D01*
X23933333Y37592800D02*
X23695238Y36878515D01*
X23695238Y36878515D02*
X24314285Y36878515D01*
X22557142Y21440420D02*
X22509523Y21392800D01*
X22509523Y21392800D02*
X22366666Y21345181D01*
X22366666Y21345181D02*
X22271428Y21345181D01*
X22271428Y21345181D02*
X22128571Y21392800D01*
X22128571Y21392800D02*
X22033333Y21488039D01*
X22033333Y21488039D02*
X21985714Y21583277D01*
X21985714Y21583277D02*
X21938095Y21773753D01*
X21938095Y21773753D02*
X21938095Y21916610D01*
X21938095Y21916610D02*
X21985714Y22107086D01*
X21985714Y22107086D02*
X22033333Y22202324D01*
X22033333Y22202324D02*
X22128571Y22297562D01*
X22128571Y22297562D02*
X22271428Y22345181D01*
X22271428Y22345181D02*
X22366666Y22345181D01*
X22366666Y22345181D02*
X22509523Y22297562D01*
X22509523Y22297562D02*
X22557142Y22249943D01*
X22938095Y22249943D02*
X22985714Y22297562D01*
X22985714Y22297562D02*
X23080952Y22345181D01*
X23080952Y22345181D02*
X23319047Y22345181D01*
X23319047Y22345181D02*
X23414285Y22297562D01*
X23414285Y22297562D02*
X23461904Y22249943D01*
X23461904Y22249943D02*
X23509523Y22154705D01*
X23509523Y22154705D02*
X23509523Y22059467D01*
X23509523Y22059467D02*
X23461904Y21916610D01*
X23461904Y21916610D02*
X22890476Y21345181D01*
X22890476Y21345181D02*
X23509523Y21345181D01*
X23890476Y22249943D02*
X23938095Y22297562D01*
X23938095Y22297562D02*
X24033333Y22345181D01*
X24033333Y22345181D02*
X24271428Y22345181D01*
X24271428Y22345181D02*
X24366666Y22297562D01*
X24366666Y22297562D02*
X24414285Y22249943D01*
X24414285Y22249943D02*
X24461904Y22154705D01*
X24461904Y22154705D02*
X24461904Y22059467D01*
X24461904Y22059467D02*
X24414285Y21916610D01*
X24414285Y21916610D02*
X23842857Y21345181D01*
X23842857Y21345181D02*
X24461904Y21345181D01*
X7886104Y22435715D02*
X7924200Y22397619D01*
X7924200Y22397619D02*
X7962295Y22283334D01*
X7962295Y22283334D02*
X7962295Y22207143D01*
X7962295Y22207143D02*
X7924200Y22092857D01*
X7924200Y22092857D02*
X7848009Y22016667D01*
X7848009Y22016667D02*
X7771819Y21978572D01*
X7771819Y21978572D02*
X7619438Y21940476D01*
X7619438Y21940476D02*
X7505152Y21940476D01*
X7505152Y21940476D02*
X7352771Y21978572D01*
X7352771Y21978572D02*
X7276580Y22016667D01*
X7276580Y22016667D02*
X7200390Y22092857D01*
X7200390Y22092857D02*
X7162295Y22207143D01*
X7162295Y22207143D02*
X7162295Y22283334D01*
X7162295Y22283334D02*
X7200390Y22397619D01*
X7200390Y22397619D02*
X7238485Y22435715D01*
X7238485Y22740476D02*
X7200390Y22778572D01*
X7200390Y22778572D02*
X7162295Y22854762D01*
X7162295Y22854762D02*
X7162295Y23045238D01*
X7162295Y23045238D02*
X7200390Y23121429D01*
X7200390Y23121429D02*
X7238485Y23159524D01*
X7238485Y23159524D02*
X7314676Y23197619D01*
X7314676Y23197619D02*
X7390866Y23197619D01*
X7390866Y23197619D02*
X7505152Y23159524D01*
X7505152Y23159524D02*
X7962295Y22702381D01*
X7962295Y22702381D02*
X7962295Y23197619D01*
X7162295Y23883334D02*
X7162295Y23730953D01*
X7162295Y23730953D02*
X7200390Y23654762D01*
X7200390Y23654762D02*
X7238485Y23616667D01*
X7238485Y23616667D02*
X7352771Y23540477D01*
X7352771Y23540477D02*
X7505152Y23502381D01*
X7505152Y23502381D02*
X7809914Y23502381D01*
X7809914Y23502381D02*
X7886104Y23540477D01*
X7886104Y23540477D02*
X7924200Y23578572D01*
X7924200Y23578572D02*
X7962295Y23654762D01*
X7962295Y23654762D02*
X7962295Y23807143D01*
X7962295Y23807143D02*
X7924200Y23883334D01*
X7924200Y23883334D02*
X7886104Y23921429D01*
X7886104Y23921429D02*
X7809914Y23959524D01*
X7809914Y23959524D02*
X7619438Y23959524D01*
X7619438Y23959524D02*
X7543247Y23921429D01*
X7543247Y23921429D02*
X7505152Y23883334D01*
X7505152Y23883334D02*
X7467057Y23807143D01*
X7467057Y23807143D02*
X7467057Y23654762D01*
X7467057Y23654762D02*
X7505152Y23578572D01*
X7505152Y23578572D02*
X7543247Y23540477D01*
X7543247Y23540477D02*
X7619438Y23502381D01*
D11*
X70480952Y27328296D02*
X70957142Y27328296D01*
X70385714Y27042581D02*
X70719047Y28042581D01*
X70719047Y28042581D02*
X71052380Y27042581D01*
X71385714Y27042581D02*
X71385714Y28042581D01*
X71385714Y28042581D02*
X71957142Y27042581D01*
X71957142Y27042581D02*
X71957142Y28042581D01*
X72290476Y28042581D02*
X72861904Y28042581D01*
X72576190Y27042581D02*
X72576190Y28042581D01*
X73719047Y27042581D02*
X73147619Y27042581D01*
X73433333Y27042581D02*
X73433333Y28042581D01*
X73433333Y28042581D02*
X73338095Y27899724D01*
X73338095Y27899724D02*
X73242857Y27804486D01*
X73242857Y27804486D02*
X73147619Y27756867D01*
D10*
X67928571Y2068991D02*
X67595238Y2068991D01*
X67595238Y1545181D02*
X67595238Y2545181D01*
X67595238Y2545181D02*
X68071428Y2545181D01*
X68452381Y1545181D02*
X68452381Y2545181D01*
X68928571Y1545181D02*
X68928571Y2545181D01*
X68928571Y2545181D02*
X69166666Y2545181D01*
X69166666Y2545181D02*
X69309523Y2497562D01*
X69309523Y2497562D02*
X69404761Y2402324D01*
X69404761Y2402324D02*
X69452380Y2307086D01*
X69452380Y2307086D02*
X69499999Y2116610D01*
X69499999Y2116610D02*
X69499999Y1973753D01*
X69499999Y1973753D02*
X69452380Y1783277D01*
X69452380Y1783277D02*
X69404761Y1688039D01*
X69404761Y1688039D02*
X69309523Y1592800D01*
X69309523Y1592800D02*
X69166666Y1545181D01*
X69166666Y1545181D02*
X68928571Y1545181D01*
X69880952Y2449943D02*
X69928571Y2497562D01*
X69928571Y2497562D02*
X70023809Y2545181D01*
X70023809Y2545181D02*
X70261904Y2545181D01*
X70261904Y2545181D02*
X70357142Y2497562D01*
X70357142Y2497562D02*
X70404761Y2449943D01*
X70404761Y2449943D02*
X70452380Y2354705D01*
X70452380Y2354705D02*
X70452380Y2259467D01*
X70452380Y2259467D02*
X70404761Y2116610D01*
X70404761Y2116610D02*
X69833333Y1545181D01*
X69833333Y1545181D02*
X70452380Y1545181D01*
X8792667Y22211705D02*
X8526000Y22592658D01*
X8335524Y22211705D02*
X8335524Y23011705D01*
X8335524Y23011705D02*
X8640286Y23011705D01*
X8640286Y23011705D02*
X8716476Y22973610D01*
X8716476Y22973610D02*
X8754571Y22935515D01*
X8754571Y22935515D02*
X8792667Y22859324D01*
X8792667Y22859324D02*
X8792667Y22745039D01*
X8792667Y22745039D02*
X8754571Y22668848D01*
X8754571Y22668848D02*
X8716476Y22630753D01*
X8716476Y22630753D02*
X8640286Y22592658D01*
X8640286Y22592658D02*
X8335524Y22592658D01*
X9478381Y22745039D02*
X9478381Y22211705D01*
X9287905Y23049800D02*
X9097428Y22478372D01*
X9097428Y22478372D02*
X9592667Y22478372D01*
X43869580Y36495834D02*
X43917200Y36448215D01*
X43917200Y36448215D02*
X43964819Y36305358D01*
X43964819Y36305358D02*
X43964819Y36210120D01*
X43964819Y36210120D02*
X43917200Y36067263D01*
X43917200Y36067263D02*
X43821961Y35972025D01*
X43821961Y35972025D02*
X43726723Y35924406D01*
X43726723Y35924406D02*
X43536247Y35876787D01*
X43536247Y35876787D02*
X43393390Y35876787D01*
X43393390Y35876787D02*
X43202914Y35924406D01*
X43202914Y35924406D02*
X43107676Y35972025D01*
X43107676Y35972025D02*
X43012438Y36067263D01*
X43012438Y36067263D02*
X42964819Y36210120D01*
X42964819Y36210120D02*
X42964819Y36305358D01*
X42964819Y36305358D02*
X43012438Y36448215D01*
X43012438Y36448215D02*
X43060057Y36495834D01*
X43060057Y36876787D02*
X43012438Y36924406D01*
X43012438Y36924406D02*
X42964819Y37019644D01*
X42964819Y37019644D02*
X42964819Y37257739D01*
X42964819Y37257739D02*
X43012438Y37352977D01*
X43012438Y37352977D02*
X43060057Y37400596D01*
X43060057Y37400596D02*
X43155295Y37448215D01*
X43155295Y37448215D02*
X43250533Y37448215D01*
X43250533Y37448215D02*
X43393390Y37400596D01*
X43393390Y37400596D02*
X43964819Y36829168D01*
X43964819Y36829168D02*
X43964819Y37448215D01*
X2407142Y18290420D02*
X2359523Y18242800D01*
X2359523Y18242800D02*
X2216666Y18195181D01*
X2216666Y18195181D02*
X2121428Y18195181D01*
X2121428Y18195181D02*
X1978571Y18242800D01*
X1978571Y18242800D02*
X1883333Y18338039D01*
X1883333Y18338039D02*
X1835714Y18433277D01*
X1835714Y18433277D02*
X1788095Y18623753D01*
X1788095Y18623753D02*
X1788095Y18766610D01*
X1788095Y18766610D02*
X1835714Y18957086D01*
X1835714Y18957086D02*
X1883333Y19052324D01*
X1883333Y19052324D02*
X1978571Y19147562D01*
X1978571Y19147562D02*
X2121428Y19195181D01*
X2121428Y19195181D02*
X2216666Y19195181D01*
X2216666Y19195181D02*
X2359523Y19147562D01*
X2359523Y19147562D02*
X2407142Y19099943D01*
X3359523Y18195181D02*
X2788095Y18195181D01*
X3073809Y18195181D02*
X3073809Y19195181D01*
X3073809Y19195181D02*
X2978571Y19052324D01*
X2978571Y19052324D02*
X2883333Y18957086D01*
X2883333Y18957086D02*
X2788095Y18909467D01*
X4311904Y18195181D02*
X3740476Y18195181D01*
X4026190Y18195181D02*
X4026190Y19195181D01*
X4026190Y19195181D02*
X3930952Y19052324D01*
X3930952Y19052324D02*
X3835714Y18957086D01*
X3835714Y18957086D02*
X3740476Y18909467D01*
X26559580Y12632143D02*
X26607200Y12584524D01*
X26607200Y12584524D02*
X26654819Y12441667D01*
X26654819Y12441667D02*
X26654819Y12346429D01*
X26654819Y12346429D02*
X26607200Y12203572D01*
X26607200Y12203572D02*
X26511961Y12108334D01*
X26511961Y12108334D02*
X26416723Y12060715D01*
X26416723Y12060715D02*
X26226247Y12013096D01*
X26226247Y12013096D02*
X26083390Y12013096D01*
X26083390Y12013096D02*
X25892914Y12060715D01*
X25892914Y12060715D02*
X25797676Y12108334D01*
X25797676Y12108334D02*
X25702438Y12203572D01*
X25702438Y12203572D02*
X25654819Y12346429D01*
X25654819Y12346429D02*
X25654819Y12441667D01*
X25654819Y12441667D02*
X25702438Y12584524D01*
X25702438Y12584524D02*
X25750057Y12632143D01*
X26654819Y13584524D02*
X26654819Y13013096D01*
X26654819Y13298810D02*
X25654819Y13298810D01*
X25654819Y13298810D02*
X25797676Y13203572D01*
X25797676Y13203572D02*
X25892914Y13108334D01*
X25892914Y13108334D02*
X25940533Y13013096D01*
X25654819Y13917858D02*
X25654819Y14584524D01*
X25654819Y14584524D02*
X26654819Y14155953D01*
X59904819Y9333334D02*
X59428628Y9000001D01*
X59904819Y8761906D02*
X58904819Y8761906D01*
X58904819Y8761906D02*
X58904819Y9142858D01*
X58904819Y9142858D02*
X58952438Y9238096D01*
X58952438Y9238096D02*
X59000057Y9285715D01*
X59000057Y9285715D02*
X59095295Y9333334D01*
X59095295Y9333334D02*
X59238152Y9333334D01*
X59238152Y9333334D02*
X59333390Y9285715D01*
X59333390Y9285715D02*
X59381009Y9238096D01*
X59381009Y9238096D02*
X59428628Y9142858D01*
X59428628Y9142858D02*
X59428628Y8761906D01*
X59333390Y9904763D02*
X59285771Y9809525D01*
X59285771Y9809525D02*
X59238152Y9761906D01*
X59238152Y9761906D02*
X59142914Y9714287D01*
X59142914Y9714287D02*
X59095295Y9714287D01*
X59095295Y9714287D02*
X59000057Y9761906D01*
X59000057Y9761906D02*
X58952438Y9809525D01*
X58952438Y9809525D02*
X58904819Y9904763D01*
X58904819Y9904763D02*
X58904819Y10095239D01*
X58904819Y10095239D02*
X58952438Y10190477D01*
X58952438Y10190477D02*
X59000057Y10238096D01*
X59000057Y10238096D02*
X59095295Y10285715D01*
X59095295Y10285715D02*
X59142914Y10285715D01*
X59142914Y10285715D02*
X59238152Y10238096D01*
X59238152Y10238096D02*
X59285771Y10190477D01*
X59285771Y10190477D02*
X59333390Y10095239D01*
X59333390Y10095239D02*
X59333390Y9904763D01*
X59333390Y9904763D02*
X59381009Y9809525D01*
X59381009Y9809525D02*
X59428628Y9761906D01*
X59428628Y9761906D02*
X59523866Y9714287D01*
X59523866Y9714287D02*
X59714342Y9714287D01*
X59714342Y9714287D02*
X59809580Y9761906D01*
X59809580Y9761906D02*
X59857200Y9809525D01*
X59857200Y9809525D02*
X59904819Y9904763D01*
X59904819Y9904763D02*
X59904819Y10095239D01*
X59904819Y10095239D02*
X59857200Y10190477D01*
X59857200Y10190477D02*
X59809580Y10238096D01*
X59809580Y10238096D02*
X59714342Y10285715D01*
X59714342Y10285715D02*
X59523866Y10285715D01*
X59523866Y10285715D02*
X59428628Y10238096D01*
X59428628Y10238096D02*
X59381009Y10190477D01*
X59381009Y10190477D02*
X59333390Y10095239D01*
X24129761Y29524943D02*
X24034523Y29572562D01*
X24034523Y29572562D02*
X23939285Y29667800D01*
X23939285Y29667800D02*
X23796428Y29810658D01*
X23796428Y29810658D02*
X23701190Y29858277D01*
X23701190Y29858277D02*
X23605952Y29858277D01*
X23653571Y29620181D02*
X23558333Y29667800D01*
X23558333Y29667800D02*
X23463095Y29763039D01*
X23463095Y29763039D02*
X23415476Y29953515D01*
X23415476Y29953515D02*
X23415476Y30286848D01*
X23415476Y30286848D02*
X23463095Y30477324D01*
X23463095Y30477324D02*
X23558333Y30572562D01*
X23558333Y30572562D02*
X23653571Y30620181D01*
X23653571Y30620181D02*
X23844047Y30620181D01*
X23844047Y30620181D02*
X23939285Y30572562D01*
X23939285Y30572562D02*
X24034523Y30477324D01*
X24034523Y30477324D02*
X24082142Y30286848D01*
X24082142Y30286848D02*
X24082142Y29953515D01*
X24082142Y29953515D02*
X24034523Y29763039D01*
X24034523Y29763039D02*
X23939285Y29667800D01*
X23939285Y29667800D02*
X23844047Y29620181D01*
X23844047Y29620181D02*
X23653571Y29620181D01*
X25034523Y29620181D02*
X24463095Y29620181D01*
X24748809Y29620181D02*
X24748809Y30620181D01*
X24748809Y30620181D02*
X24653571Y30477324D01*
X24653571Y30477324D02*
X24558333Y30382086D01*
X24558333Y30382086D02*
X24463095Y30334467D01*
X57504819Y22257143D02*
X57028628Y21923810D01*
X57504819Y21685715D02*
X56504819Y21685715D01*
X56504819Y21685715D02*
X56504819Y22066667D01*
X56504819Y22066667D02*
X56552438Y22161905D01*
X56552438Y22161905D02*
X56600057Y22209524D01*
X56600057Y22209524D02*
X56695295Y22257143D01*
X56695295Y22257143D02*
X56838152Y22257143D01*
X56838152Y22257143D02*
X56933390Y22209524D01*
X56933390Y22209524D02*
X56981009Y22161905D01*
X56981009Y22161905D02*
X57028628Y22066667D01*
X57028628Y22066667D02*
X57028628Y21685715D01*
X57504819Y23209524D02*
X57504819Y22638096D01*
X57504819Y22923810D02*
X56504819Y22923810D01*
X56504819Y22923810D02*
X56647676Y22828572D01*
X56647676Y22828572D02*
X56742914Y22733334D01*
X56742914Y22733334D02*
X56790533Y22638096D01*
X56504819Y23542858D02*
X56504819Y24161905D01*
X56504819Y24161905D02*
X56885771Y23828572D01*
X56885771Y23828572D02*
X56885771Y23971429D01*
X56885771Y23971429D02*
X56933390Y24066667D01*
X56933390Y24066667D02*
X56981009Y24114286D01*
X56981009Y24114286D02*
X57076247Y24161905D01*
X57076247Y24161905D02*
X57314342Y24161905D01*
X57314342Y24161905D02*
X57409580Y24114286D01*
X57409580Y24114286D02*
X57457200Y24066667D01*
X57457200Y24066667D02*
X57504819Y23971429D01*
X57504819Y23971429D02*
X57504819Y23685715D01*
X57504819Y23685715D02*
X57457200Y23590477D01*
X57457200Y23590477D02*
X57409580Y23542858D01*
X17154819Y6833334D02*
X16678628Y6500001D01*
X17154819Y6261906D02*
X16154819Y6261906D01*
X16154819Y6261906D02*
X16154819Y6642858D01*
X16154819Y6642858D02*
X16202438Y6738096D01*
X16202438Y6738096D02*
X16250057Y6785715D01*
X16250057Y6785715D02*
X16345295Y6833334D01*
X16345295Y6833334D02*
X16488152Y6833334D01*
X16488152Y6833334D02*
X16583390Y6785715D01*
X16583390Y6785715D02*
X16631009Y6738096D01*
X16631009Y6738096D02*
X16678628Y6642858D01*
X16678628Y6642858D02*
X16678628Y6261906D01*
X16154819Y7166668D02*
X16154819Y7785715D01*
X16154819Y7785715D02*
X16535771Y7452382D01*
X16535771Y7452382D02*
X16535771Y7595239D01*
X16535771Y7595239D02*
X16583390Y7690477D01*
X16583390Y7690477D02*
X16631009Y7738096D01*
X16631009Y7738096D02*
X16726247Y7785715D01*
X16726247Y7785715D02*
X16964342Y7785715D01*
X16964342Y7785715D02*
X17059580Y7738096D01*
X17059580Y7738096D02*
X17107200Y7690477D01*
X17107200Y7690477D02*
X17154819Y7595239D01*
X17154819Y7595239D02*
X17154819Y7309525D01*
X17154819Y7309525D02*
X17107200Y7214287D01*
X17107200Y7214287D02*
X17059580Y7166668D01*
X40957142Y12745181D02*
X40623809Y13221372D01*
X40385714Y12745181D02*
X40385714Y13745181D01*
X40385714Y13745181D02*
X40766666Y13745181D01*
X40766666Y13745181D02*
X40861904Y13697562D01*
X40861904Y13697562D02*
X40909523Y13649943D01*
X40909523Y13649943D02*
X40957142Y13554705D01*
X40957142Y13554705D02*
X40957142Y13411848D01*
X40957142Y13411848D02*
X40909523Y13316610D01*
X40909523Y13316610D02*
X40861904Y13268991D01*
X40861904Y13268991D02*
X40766666Y13221372D01*
X40766666Y13221372D02*
X40385714Y13221372D01*
X41909523Y12745181D02*
X41338095Y12745181D01*
X41623809Y12745181D02*
X41623809Y13745181D01*
X41623809Y13745181D02*
X41528571Y13602324D01*
X41528571Y13602324D02*
X41433333Y13507086D01*
X41433333Y13507086D02*
X41338095Y13459467D01*
X42528571Y13745181D02*
X42623809Y13745181D01*
X42623809Y13745181D02*
X42719047Y13697562D01*
X42719047Y13697562D02*
X42766666Y13649943D01*
X42766666Y13649943D02*
X42814285Y13554705D01*
X42814285Y13554705D02*
X42861904Y13364229D01*
X42861904Y13364229D02*
X42861904Y13126134D01*
X42861904Y13126134D02*
X42814285Y12935658D01*
X42814285Y12935658D02*
X42766666Y12840420D01*
X42766666Y12840420D02*
X42719047Y12792800D01*
X42719047Y12792800D02*
X42623809Y12745181D01*
X42623809Y12745181D02*
X42528571Y12745181D01*
X42528571Y12745181D02*
X42433333Y12792800D01*
X42433333Y12792800D02*
X42385714Y12840420D01*
X42385714Y12840420D02*
X42338095Y12935658D01*
X42338095Y12935658D02*
X42290476Y13126134D01*
X42290476Y13126134D02*
X42290476Y13364229D01*
X42290476Y13364229D02*
X42338095Y13554705D01*
X42338095Y13554705D02*
X42385714Y13649943D01*
X42385714Y13649943D02*
X42433333Y13697562D01*
X42433333Y13697562D02*
X42528571Y13745181D01*
X22457142Y24140420D02*
X22409523Y24092800D01*
X22409523Y24092800D02*
X22266666Y24045181D01*
X22266666Y24045181D02*
X22171428Y24045181D01*
X22171428Y24045181D02*
X22028571Y24092800D01*
X22028571Y24092800D02*
X21933333Y24188039D01*
X21933333Y24188039D02*
X21885714Y24283277D01*
X21885714Y24283277D02*
X21838095Y24473753D01*
X21838095Y24473753D02*
X21838095Y24616610D01*
X21838095Y24616610D02*
X21885714Y24807086D01*
X21885714Y24807086D02*
X21933333Y24902324D01*
X21933333Y24902324D02*
X22028571Y24997562D01*
X22028571Y24997562D02*
X22171428Y25045181D01*
X22171428Y25045181D02*
X22266666Y25045181D01*
X22266666Y25045181D02*
X22409523Y24997562D01*
X22409523Y24997562D02*
X22457142Y24949943D01*
X22838095Y24949943D02*
X22885714Y24997562D01*
X22885714Y24997562D02*
X22980952Y25045181D01*
X22980952Y25045181D02*
X23219047Y25045181D01*
X23219047Y25045181D02*
X23314285Y24997562D01*
X23314285Y24997562D02*
X23361904Y24949943D01*
X23361904Y24949943D02*
X23409523Y24854705D01*
X23409523Y24854705D02*
X23409523Y24759467D01*
X23409523Y24759467D02*
X23361904Y24616610D01*
X23361904Y24616610D02*
X22790476Y24045181D01*
X22790476Y24045181D02*
X23409523Y24045181D01*
X23980952Y24616610D02*
X23885714Y24664229D01*
X23885714Y24664229D02*
X23838095Y24711848D01*
X23838095Y24711848D02*
X23790476Y24807086D01*
X23790476Y24807086D02*
X23790476Y24854705D01*
X23790476Y24854705D02*
X23838095Y24949943D01*
X23838095Y24949943D02*
X23885714Y24997562D01*
X23885714Y24997562D02*
X23980952Y25045181D01*
X23980952Y25045181D02*
X24171428Y25045181D01*
X24171428Y25045181D02*
X24266666Y24997562D01*
X24266666Y24997562D02*
X24314285Y24949943D01*
X24314285Y24949943D02*
X24361904Y24854705D01*
X24361904Y24854705D02*
X24361904Y24807086D01*
X24361904Y24807086D02*
X24314285Y24711848D01*
X24314285Y24711848D02*
X24266666Y24664229D01*
X24266666Y24664229D02*
X24171428Y24616610D01*
X24171428Y24616610D02*
X23980952Y24616610D01*
X23980952Y24616610D02*
X23885714Y24568991D01*
X23885714Y24568991D02*
X23838095Y24521372D01*
X23838095Y24521372D02*
X23790476Y24426134D01*
X23790476Y24426134D02*
X23790476Y24235658D01*
X23790476Y24235658D02*
X23838095Y24140420D01*
X23838095Y24140420D02*
X23885714Y24092800D01*
X23885714Y24092800D02*
X23980952Y24045181D01*
X23980952Y24045181D02*
X24171428Y24045181D01*
X24171428Y24045181D02*
X24266666Y24092800D01*
X24266666Y24092800D02*
X24314285Y24140420D01*
X24314285Y24140420D02*
X24361904Y24235658D01*
X24361904Y24235658D02*
X24361904Y24426134D01*
X24361904Y24426134D02*
X24314285Y24521372D01*
X24314285Y24521372D02*
X24266666Y24568991D01*
X24266666Y24568991D02*
X24171428Y24616610D01*
X53254819Y22107143D02*
X52778628Y21773810D01*
X53254819Y21535715D02*
X52254819Y21535715D01*
X52254819Y21535715D02*
X52254819Y21916667D01*
X52254819Y21916667D02*
X52302438Y22011905D01*
X52302438Y22011905D02*
X52350057Y22059524D01*
X52350057Y22059524D02*
X52445295Y22107143D01*
X52445295Y22107143D02*
X52588152Y22107143D01*
X52588152Y22107143D02*
X52683390Y22059524D01*
X52683390Y22059524D02*
X52731009Y22011905D01*
X52731009Y22011905D02*
X52778628Y21916667D01*
X52778628Y21916667D02*
X52778628Y21535715D01*
X53254819Y23059524D02*
X53254819Y22488096D01*
X53254819Y22773810D02*
X52254819Y22773810D01*
X52254819Y22773810D02*
X52397676Y22678572D01*
X52397676Y22678572D02*
X52492914Y22583334D01*
X52492914Y22583334D02*
X52540533Y22488096D01*
X52350057Y23440477D02*
X52302438Y23488096D01*
X52302438Y23488096D02*
X52254819Y23583334D01*
X52254819Y23583334D02*
X52254819Y23821429D01*
X52254819Y23821429D02*
X52302438Y23916667D01*
X52302438Y23916667D02*
X52350057Y23964286D01*
X52350057Y23964286D02*
X52445295Y24011905D01*
X52445295Y24011905D02*
X52540533Y24011905D01*
X52540533Y24011905D02*
X52683390Y23964286D01*
X52683390Y23964286D02*
X53254819Y23392858D01*
X53254819Y23392858D02*
X53254819Y24011905D01*
X29683333Y26245181D02*
X29350000Y26721372D01*
X29111905Y26245181D02*
X29111905Y27245181D01*
X29111905Y27245181D02*
X29492857Y27245181D01*
X29492857Y27245181D02*
X29588095Y27197562D01*
X29588095Y27197562D02*
X29635714Y27149943D01*
X29635714Y27149943D02*
X29683333Y27054705D01*
X29683333Y27054705D02*
X29683333Y26911848D01*
X29683333Y26911848D02*
X29635714Y26816610D01*
X29635714Y26816610D02*
X29588095Y26768991D01*
X29588095Y26768991D02*
X29492857Y26721372D01*
X29492857Y26721372D02*
X29111905Y26721372D01*
X30540476Y27245181D02*
X30350000Y27245181D01*
X30350000Y27245181D02*
X30254762Y27197562D01*
X30254762Y27197562D02*
X30207143Y27149943D01*
X30207143Y27149943D02*
X30111905Y27007086D01*
X30111905Y27007086D02*
X30064286Y26816610D01*
X30064286Y26816610D02*
X30064286Y26435658D01*
X30064286Y26435658D02*
X30111905Y26340420D01*
X30111905Y26340420D02*
X30159524Y26292800D01*
X30159524Y26292800D02*
X30254762Y26245181D01*
X30254762Y26245181D02*
X30445238Y26245181D01*
X30445238Y26245181D02*
X30540476Y26292800D01*
X30540476Y26292800D02*
X30588095Y26340420D01*
X30588095Y26340420D02*
X30635714Y26435658D01*
X30635714Y26435658D02*
X30635714Y26673753D01*
X30635714Y26673753D02*
X30588095Y26768991D01*
X30588095Y26768991D02*
X30540476Y26816610D01*
X30540476Y26816610D02*
X30445238Y26864229D01*
X30445238Y26864229D02*
X30254762Y26864229D01*
X30254762Y26864229D02*
X30159524Y26816610D01*
X30159524Y26816610D02*
X30111905Y26768991D01*
X30111905Y26768991D02*
X30064286Y26673753D01*
X30166666Y2037705D02*
X29785714Y2037705D01*
X29785714Y2037705D02*
X29785714Y2837705D01*
X30357142Y2837705D02*
X30852380Y2837705D01*
X30852380Y2837705D02*
X30585714Y2532943D01*
X30585714Y2532943D02*
X30699999Y2532943D01*
X30699999Y2532943D02*
X30776190Y2494848D01*
X30776190Y2494848D02*
X30814285Y2456753D01*
X30814285Y2456753D02*
X30852380Y2380562D01*
X30852380Y2380562D02*
X30852380Y2190086D01*
X30852380Y2190086D02*
X30814285Y2113896D01*
X30814285Y2113896D02*
X30776190Y2075800D01*
X30776190Y2075800D02*
X30699999Y2037705D01*
X30699999Y2037705D02*
X30471428Y2037705D01*
X30471428Y2037705D02*
X30395237Y2075800D01*
X30395237Y2075800D02*
X30357142Y2113896D01*
X13861905Y24795181D02*
X13861905Y25795181D01*
X13861905Y25795181D02*
X14100000Y25795181D01*
X14100000Y25795181D02*
X14242857Y25747562D01*
X14242857Y25747562D02*
X14338095Y25652324D01*
X14338095Y25652324D02*
X14385714Y25557086D01*
X14385714Y25557086D02*
X14433333Y25366610D01*
X14433333Y25366610D02*
X14433333Y25223753D01*
X14433333Y25223753D02*
X14385714Y25033277D01*
X14385714Y25033277D02*
X14338095Y24938039D01*
X14338095Y24938039D02*
X14242857Y24842800D01*
X14242857Y24842800D02*
X14100000Y24795181D01*
X14100000Y24795181D02*
X13861905Y24795181D01*
X15385714Y24795181D02*
X14814286Y24795181D01*
X15100000Y24795181D02*
X15100000Y25795181D01*
X15100000Y25795181D02*
X15004762Y25652324D01*
X15004762Y25652324D02*
X14909524Y25557086D01*
X14909524Y25557086D02*
X14814286Y25509467D01*
X8816667Y23387705D02*
X8550000Y23768658D01*
X8359524Y23387705D02*
X8359524Y24187705D01*
X8359524Y24187705D02*
X8664286Y24187705D01*
X8664286Y24187705D02*
X8740476Y24149610D01*
X8740476Y24149610D02*
X8778571Y24111515D01*
X8778571Y24111515D02*
X8816667Y24035324D01*
X8816667Y24035324D02*
X8816667Y23921039D01*
X8816667Y23921039D02*
X8778571Y23844848D01*
X8778571Y23844848D02*
X8740476Y23806753D01*
X8740476Y23806753D02*
X8664286Y23768658D01*
X8664286Y23768658D02*
X8359524Y23768658D01*
X9540476Y24187705D02*
X9159524Y24187705D01*
X9159524Y24187705D02*
X9121428Y23806753D01*
X9121428Y23806753D02*
X9159524Y23844848D01*
X9159524Y23844848D02*
X9235714Y23882943D01*
X9235714Y23882943D02*
X9426190Y23882943D01*
X9426190Y23882943D02*
X9502381Y23844848D01*
X9502381Y23844848D02*
X9540476Y23806753D01*
X9540476Y23806753D02*
X9578571Y23730562D01*
X9578571Y23730562D02*
X9578571Y23540086D01*
X9578571Y23540086D02*
X9540476Y23463896D01*
X9540476Y23463896D02*
X9502381Y23425800D01*
X9502381Y23425800D02*
X9426190Y23387705D01*
X9426190Y23387705D02*
X9235714Y23387705D01*
X9235714Y23387705D02*
X9159524Y23425800D01*
X9159524Y23425800D02*
X9121428Y23463896D01*
X59883333Y30245181D02*
X59407143Y30245181D01*
X59407143Y30245181D02*
X59407143Y31245181D01*
X60169048Y31149943D02*
X60216667Y31197562D01*
X60216667Y31197562D02*
X60311905Y31245181D01*
X60311905Y31245181D02*
X60550000Y31245181D01*
X60550000Y31245181D02*
X60645238Y31197562D01*
X60645238Y31197562D02*
X60692857Y31149943D01*
X60692857Y31149943D02*
X60740476Y31054705D01*
X60740476Y31054705D02*
X60740476Y30959467D01*
X60740476Y30959467D02*
X60692857Y30816610D01*
X60692857Y30816610D02*
X60121429Y30245181D01*
X60121429Y30245181D02*
X60740476Y30245181D01*
X62559580Y31007143D02*
X62607200Y30959524D01*
X62607200Y30959524D02*
X62654819Y30816667D01*
X62654819Y30816667D02*
X62654819Y30721429D01*
X62654819Y30721429D02*
X62607200Y30578572D01*
X62607200Y30578572D02*
X62511961Y30483334D01*
X62511961Y30483334D02*
X62416723Y30435715D01*
X62416723Y30435715D02*
X62226247Y30388096D01*
X62226247Y30388096D02*
X62083390Y30388096D01*
X62083390Y30388096D02*
X61892914Y30435715D01*
X61892914Y30435715D02*
X61797676Y30483334D01*
X61797676Y30483334D02*
X61702438Y30578572D01*
X61702438Y30578572D02*
X61654819Y30721429D01*
X61654819Y30721429D02*
X61654819Y30816667D01*
X61654819Y30816667D02*
X61702438Y30959524D01*
X61702438Y30959524D02*
X61750057Y31007143D01*
X62654819Y31959524D02*
X62654819Y31388096D01*
X62654819Y31673810D02*
X61654819Y31673810D01*
X61654819Y31673810D02*
X61797676Y31578572D01*
X61797676Y31578572D02*
X61892914Y31483334D01*
X61892914Y31483334D02*
X61940533Y31388096D01*
X61654819Y32578572D02*
X61654819Y32673810D01*
X61654819Y32673810D02*
X61702438Y32769048D01*
X61702438Y32769048D02*
X61750057Y32816667D01*
X61750057Y32816667D02*
X61845295Y32864286D01*
X61845295Y32864286D02*
X62035771Y32911905D01*
X62035771Y32911905D02*
X62273866Y32911905D01*
X62273866Y32911905D02*
X62464342Y32864286D01*
X62464342Y32864286D02*
X62559580Y32816667D01*
X62559580Y32816667D02*
X62607200Y32769048D01*
X62607200Y32769048D02*
X62654819Y32673810D01*
X62654819Y32673810D02*
X62654819Y32578572D01*
X62654819Y32578572D02*
X62607200Y32483334D01*
X62607200Y32483334D02*
X62559580Y32435715D01*
X62559580Y32435715D02*
X62464342Y32388096D01*
X62464342Y32388096D02*
X62273866Y32340477D01*
X62273866Y32340477D02*
X62035771Y32340477D01*
X62035771Y32340477D02*
X61845295Y32388096D01*
X61845295Y32388096D02*
X61750057Y32435715D01*
X61750057Y32435715D02*
X61702438Y32483334D01*
X61702438Y32483334D02*
X61654819Y32578572D01*
X18238095Y17845181D02*
X18238095Y17035658D01*
X18238095Y17035658D02*
X18285714Y16940420D01*
X18285714Y16940420D02*
X18333333Y16892800D01*
X18333333Y16892800D02*
X18428571Y16845181D01*
X18428571Y16845181D02*
X18619047Y16845181D01*
X18619047Y16845181D02*
X18714285Y16892800D01*
X18714285Y16892800D02*
X18761904Y16940420D01*
X18761904Y16940420D02*
X18809523Y17035658D01*
X18809523Y17035658D02*
X18809523Y17845181D01*
X19238095Y17749943D02*
X19285714Y17797562D01*
X19285714Y17797562D02*
X19380952Y17845181D01*
X19380952Y17845181D02*
X19619047Y17845181D01*
X19619047Y17845181D02*
X19714285Y17797562D01*
X19714285Y17797562D02*
X19761904Y17749943D01*
X19761904Y17749943D02*
X19809523Y17654705D01*
X19809523Y17654705D02*
X19809523Y17559467D01*
X19809523Y17559467D02*
X19761904Y17416610D01*
X19761904Y17416610D02*
X19190476Y16845181D01*
X19190476Y16845181D02*
X19809523Y16845181D01*
X44559580Y17457143D02*
X44607200Y17409524D01*
X44607200Y17409524D02*
X44654819Y17266667D01*
X44654819Y17266667D02*
X44654819Y17171429D01*
X44654819Y17171429D02*
X44607200Y17028572D01*
X44607200Y17028572D02*
X44511961Y16933334D01*
X44511961Y16933334D02*
X44416723Y16885715D01*
X44416723Y16885715D02*
X44226247Y16838096D01*
X44226247Y16838096D02*
X44083390Y16838096D01*
X44083390Y16838096D02*
X43892914Y16885715D01*
X43892914Y16885715D02*
X43797676Y16933334D01*
X43797676Y16933334D02*
X43702438Y17028572D01*
X43702438Y17028572D02*
X43654819Y17171429D01*
X43654819Y17171429D02*
X43654819Y17266667D01*
X43654819Y17266667D02*
X43702438Y17409524D01*
X43702438Y17409524D02*
X43750057Y17457143D01*
X44654819Y18409524D02*
X44654819Y17838096D01*
X44654819Y18123810D02*
X43654819Y18123810D01*
X43654819Y18123810D02*
X43797676Y18028572D01*
X43797676Y18028572D02*
X43892914Y17933334D01*
X43892914Y17933334D02*
X43940533Y17838096D01*
X43654819Y19314286D02*
X43654819Y18838096D01*
X43654819Y18838096D02*
X44131009Y18790477D01*
X44131009Y18790477D02*
X44083390Y18838096D01*
X44083390Y18838096D02*
X44035771Y18933334D01*
X44035771Y18933334D02*
X44035771Y19171429D01*
X44035771Y19171429D02*
X44083390Y19266667D01*
X44083390Y19266667D02*
X44131009Y19314286D01*
X44131009Y19314286D02*
X44226247Y19361905D01*
X44226247Y19361905D02*
X44464342Y19361905D01*
X44464342Y19361905D02*
X44559580Y19314286D01*
X44559580Y19314286D02*
X44607200Y19266667D01*
X44607200Y19266667D02*
X44654819Y19171429D01*
X44654819Y19171429D02*
X44654819Y18933334D01*
X44654819Y18933334D02*
X44607200Y18838096D01*
X44607200Y18838096D02*
X44559580Y18790477D01*
X48034580Y21363334D02*
X48082200Y21315715D01*
X48082200Y21315715D02*
X48129819Y21172858D01*
X48129819Y21172858D02*
X48129819Y21077620D01*
X48129819Y21077620D02*
X48082200Y20934763D01*
X48082200Y20934763D02*
X47986961Y20839525D01*
X47986961Y20839525D02*
X47891723Y20791906D01*
X47891723Y20791906D02*
X47701247Y20744287D01*
X47701247Y20744287D02*
X47558390Y20744287D01*
X47558390Y20744287D02*
X47367914Y20791906D01*
X47367914Y20791906D02*
X47272676Y20839525D01*
X47272676Y20839525D02*
X47177438Y20934763D01*
X47177438Y20934763D02*
X47129819Y21077620D01*
X47129819Y21077620D02*
X47129819Y21172858D01*
X47129819Y21172858D02*
X47177438Y21315715D01*
X47177438Y21315715D02*
X47225057Y21363334D01*
X47129819Y22220477D02*
X47129819Y22030001D01*
X47129819Y22030001D02*
X47177438Y21934763D01*
X47177438Y21934763D02*
X47225057Y21887144D01*
X47225057Y21887144D02*
X47367914Y21791906D01*
X47367914Y21791906D02*
X47558390Y21744287D01*
X47558390Y21744287D02*
X47939342Y21744287D01*
X47939342Y21744287D02*
X48034580Y21791906D01*
X48034580Y21791906D02*
X48082200Y21839525D01*
X48082200Y21839525D02*
X48129819Y21934763D01*
X48129819Y21934763D02*
X48129819Y22125239D01*
X48129819Y22125239D02*
X48082200Y22220477D01*
X48082200Y22220477D02*
X48034580Y22268096D01*
X48034580Y22268096D02*
X47939342Y22315715D01*
X47939342Y22315715D02*
X47701247Y22315715D01*
X47701247Y22315715D02*
X47606009Y22268096D01*
X47606009Y22268096D02*
X47558390Y22220477D01*
X47558390Y22220477D02*
X47510771Y22125239D01*
X47510771Y22125239D02*
X47510771Y21934763D01*
X47510771Y21934763D02*
X47558390Y21839525D01*
X47558390Y21839525D02*
X47606009Y21791906D01*
X47606009Y21791906D02*
X47701247Y21744287D01*
X41033333Y15745181D02*
X40700000Y16221372D01*
X40461905Y15745181D02*
X40461905Y16745181D01*
X40461905Y16745181D02*
X40842857Y16745181D01*
X40842857Y16745181D02*
X40938095Y16697562D01*
X40938095Y16697562D02*
X40985714Y16649943D01*
X40985714Y16649943D02*
X41033333Y16554705D01*
X41033333Y16554705D02*
X41033333Y16411848D01*
X41033333Y16411848D02*
X40985714Y16316610D01*
X40985714Y16316610D02*
X40938095Y16268991D01*
X40938095Y16268991D02*
X40842857Y16221372D01*
X40842857Y16221372D02*
X40461905Y16221372D01*
X41509524Y15745181D02*
X41700000Y15745181D01*
X41700000Y15745181D02*
X41795238Y15792800D01*
X41795238Y15792800D02*
X41842857Y15840420D01*
X41842857Y15840420D02*
X41938095Y15983277D01*
X41938095Y15983277D02*
X41985714Y16173753D01*
X41985714Y16173753D02*
X41985714Y16554705D01*
X41985714Y16554705D02*
X41938095Y16649943D01*
X41938095Y16649943D02*
X41890476Y16697562D01*
X41890476Y16697562D02*
X41795238Y16745181D01*
X41795238Y16745181D02*
X41604762Y16745181D01*
X41604762Y16745181D02*
X41509524Y16697562D01*
X41509524Y16697562D02*
X41461905Y16649943D01*
X41461905Y16649943D02*
X41414286Y16554705D01*
X41414286Y16554705D02*
X41414286Y16316610D01*
X41414286Y16316610D02*
X41461905Y16221372D01*
X41461905Y16221372D02*
X41509524Y16173753D01*
X41509524Y16173753D02*
X41604762Y16126134D01*
X41604762Y16126134D02*
X41795238Y16126134D01*
X41795238Y16126134D02*
X41890476Y16173753D01*
X41890476Y16173753D02*
X41938095Y16221372D01*
X41938095Y16221372D02*
X41985714Y16316610D01*
X41085714Y11363896D02*
X41047618Y11325800D01*
X41047618Y11325800D02*
X40933333Y11287705D01*
X40933333Y11287705D02*
X40857142Y11287705D01*
X40857142Y11287705D02*
X40742856Y11325800D01*
X40742856Y11325800D02*
X40666666Y11401991D01*
X40666666Y11401991D02*
X40628571Y11478181D01*
X40628571Y11478181D02*
X40590475Y11630562D01*
X40590475Y11630562D02*
X40590475Y11744848D01*
X40590475Y11744848D02*
X40628571Y11897229D01*
X40628571Y11897229D02*
X40666666Y11973420D01*
X40666666Y11973420D02*
X40742856Y12049610D01*
X40742856Y12049610D02*
X40857142Y12087705D01*
X40857142Y12087705D02*
X40933333Y12087705D01*
X40933333Y12087705D02*
X41047618Y12049610D01*
X41047618Y12049610D02*
X41085714Y12011515D01*
X41390475Y12011515D02*
X41428571Y12049610D01*
X41428571Y12049610D02*
X41504761Y12087705D01*
X41504761Y12087705D02*
X41695237Y12087705D01*
X41695237Y12087705D02*
X41771428Y12049610D01*
X41771428Y12049610D02*
X41809523Y12011515D01*
X41809523Y12011515D02*
X41847618Y11935324D01*
X41847618Y11935324D02*
X41847618Y11859134D01*
X41847618Y11859134D02*
X41809523Y11744848D01*
X41809523Y11744848D02*
X41352380Y11287705D01*
X41352380Y11287705D02*
X41847618Y11287705D01*
X42609523Y11287705D02*
X42152380Y11287705D01*
X42380952Y11287705D02*
X42380952Y12087705D01*
X42380952Y12087705D02*
X42304761Y11973420D01*
X42304761Y11973420D02*
X42228571Y11897229D01*
X42228571Y11897229D02*
X42152380Y11859134D01*
X46557533Y10395239D02*
X46557533Y11004762D01*
X46862295Y10700001D02*
X46252771Y10700001D01*
X40957142Y14440420D02*
X40909523Y14392800D01*
X40909523Y14392800D02*
X40766666Y14345181D01*
X40766666Y14345181D02*
X40671428Y14345181D01*
X40671428Y14345181D02*
X40528571Y14392800D01*
X40528571Y14392800D02*
X40433333Y14488039D01*
X40433333Y14488039D02*
X40385714Y14583277D01*
X40385714Y14583277D02*
X40338095Y14773753D01*
X40338095Y14773753D02*
X40338095Y14916610D01*
X40338095Y14916610D02*
X40385714Y15107086D01*
X40385714Y15107086D02*
X40433333Y15202324D01*
X40433333Y15202324D02*
X40528571Y15297562D01*
X40528571Y15297562D02*
X40671428Y15345181D01*
X40671428Y15345181D02*
X40766666Y15345181D01*
X40766666Y15345181D02*
X40909523Y15297562D01*
X40909523Y15297562D02*
X40957142Y15249943D01*
X41909523Y14345181D02*
X41338095Y14345181D01*
X41623809Y14345181D02*
X41623809Y15345181D01*
X41623809Y15345181D02*
X41528571Y15202324D01*
X41528571Y15202324D02*
X41433333Y15107086D01*
X41433333Y15107086D02*
X41338095Y15059467D01*
X42385714Y14345181D02*
X42576190Y14345181D01*
X42576190Y14345181D02*
X42671428Y14392800D01*
X42671428Y14392800D02*
X42719047Y14440420D01*
X42719047Y14440420D02*
X42814285Y14583277D01*
X42814285Y14583277D02*
X42861904Y14773753D01*
X42861904Y14773753D02*
X42861904Y15154705D01*
X42861904Y15154705D02*
X42814285Y15249943D01*
X42814285Y15249943D02*
X42766666Y15297562D01*
X42766666Y15297562D02*
X42671428Y15345181D01*
X42671428Y15345181D02*
X42480952Y15345181D01*
X42480952Y15345181D02*
X42385714Y15297562D01*
X42385714Y15297562D02*
X42338095Y15249943D01*
X42338095Y15249943D02*
X42290476Y15154705D01*
X42290476Y15154705D02*
X42290476Y14916610D01*
X42290476Y14916610D02*
X42338095Y14821372D01*
X42338095Y14821372D02*
X42385714Y14773753D01*
X42385714Y14773753D02*
X42480952Y14726134D01*
X42480952Y14726134D02*
X42671428Y14726134D01*
X42671428Y14726134D02*
X42766666Y14773753D01*
X42766666Y14773753D02*
X42814285Y14821372D01*
X42814285Y14821372D02*
X42861904Y14916610D01*
X38833333Y25640420D02*
X38785714Y25592800D01*
X38785714Y25592800D02*
X38642857Y25545181D01*
X38642857Y25545181D02*
X38547619Y25545181D01*
X38547619Y25545181D02*
X38404762Y25592800D01*
X38404762Y25592800D02*
X38309524Y25688039D01*
X38309524Y25688039D02*
X38261905Y25783277D01*
X38261905Y25783277D02*
X38214286Y25973753D01*
X38214286Y25973753D02*
X38214286Y26116610D01*
X38214286Y26116610D02*
X38261905Y26307086D01*
X38261905Y26307086D02*
X38309524Y26402324D01*
X38309524Y26402324D02*
X38404762Y26497562D01*
X38404762Y26497562D02*
X38547619Y26545181D01*
X38547619Y26545181D02*
X38642857Y26545181D01*
X38642857Y26545181D02*
X38785714Y26497562D01*
X38785714Y26497562D02*
X38833333Y26449943D01*
X39690476Y26211848D02*
X39690476Y25545181D01*
X39452381Y26592800D02*
X39214286Y25878515D01*
X39214286Y25878515D02*
X39833333Y25878515D01*
X2107142Y11370181D02*
X1773809Y11846372D01*
X1535714Y11370181D02*
X1535714Y12370181D01*
X1535714Y12370181D02*
X1916666Y12370181D01*
X1916666Y12370181D02*
X2011904Y12322562D01*
X2011904Y12322562D02*
X2059523Y12274943D01*
X2059523Y12274943D02*
X2107142Y12179705D01*
X2107142Y12179705D02*
X2107142Y12036848D01*
X2107142Y12036848D02*
X2059523Y11941610D01*
X2059523Y11941610D02*
X2011904Y11893991D01*
X2011904Y11893991D02*
X1916666Y11846372D01*
X1916666Y11846372D02*
X1535714Y11846372D01*
X3059523Y11370181D02*
X2488095Y11370181D01*
X2773809Y11370181D02*
X2773809Y12370181D01*
X2773809Y12370181D02*
X2678571Y12227324D01*
X2678571Y12227324D02*
X2583333Y12132086D01*
X2583333Y12132086D02*
X2488095Y12084467D01*
X4011904Y11370181D02*
X3440476Y11370181D01*
X3726190Y11370181D02*
X3726190Y12370181D01*
X3726190Y12370181D02*
X3630952Y12227324D01*
X3630952Y12227324D02*
X3535714Y12132086D01*
X3535714Y12132086D02*
X3440476Y12084467D01*
X45679580Y36495834D02*
X45727200Y36448215D01*
X45727200Y36448215D02*
X45774819Y36305358D01*
X45774819Y36305358D02*
X45774819Y36210120D01*
X45774819Y36210120D02*
X45727200Y36067263D01*
X45727200Y36067263D02*
X45631961Y35972025D01*
X45631961Y35972025D02*
X45536723Y35924406D01*
X45536723Y35924406D02*
X45346247Y35876787D01*
X45346247Y35876787D02*
X45203390Y35876787D01*
X45203390Y35876787D02*
X45012914Y35924406D01*
X45012914Y35924406D02*
X44917676Y35972025D01*
X44917676Y35972025D02*
X44822438Y36067263D01*
X44822438Y36067263D02*
X44774819Y36210120D01*
X44774819Y36210120D02*
X44774819Y36305358D01*
X44774819Y36305358D02*
X44822438Y36448215D01*
X44822438Y36448215D02*
X44870057Y36495834D01*
X45774819Y37448215D02*
X45774819Y36876787D01*
X45774819Y37162501D02*
X44774819Y37162501D01*
X44774819Y37162501D02*
X44917676Y37067263D01*
X44917676Y37067263D02*
X45012914Y36972025D01*
X45012914Y36972025D02*
X45060533Y36876787D01*
X16254819Y4533334D02*
X15778628Y4200001D01*
X16254819Y3961906D02*
X15254819Y3961906D01*
X15254819Y3961906D02*
X15254819Y4342858D01*
X15254819Y4342858D02*
X15302438Y4438096D01*
X15302438Y4438096D02*
X15350057Y4485715D01*
X15350057Y4485715D02*
X15445295Y4533334D01*
X15445295Y4533334D02*
X15588152Y4533334D01*
X15588152Y4533334D02*
X15683390Y4485715D01*
X15683390Y4485715D02*
X15731009Y4438096D01*
X15731009Y4438096D02*
X15778628Y4342858D01*
X15778628Y4342858D02*
X15778628Y3961906D01*
X15350057Y4914287D02*
X15302438Y4961906D01*
X15302438Y4961906D02*
X15254819Y5057144D01*
X15254819Y5057144D02*
X15254819Y5295239D01*
X15254819Y5295239D02*
X15302438Y5390477D01*
X15302438Y5390477D02*
X15350057Y5438096D01*
X15350057Y5438096D02*
X15445295Y5485715D01*
X15445295Y5485715D02*
X15540533Y5485715D01*
X15540533Y5485715D02*
X15683390Y5438096D01*
X15683390Y5438096D02*
X16254819Y4866668D01*
X16254819Y4866668D02*
X16254819Y5485715D01*
D12*
%TO.C,FL1*%
X56300000Y29575000D02*
G75*
G02*
X56100000Y29575000I-100000J0D01*
G01*
X56100000Y29575000D02*
G75*
G02*
X56300000Y29575000I100000J0D01*
G01*
D13*
%TO.C,D3*%
X54265000Y14072500D02*
X54265000Y11787500D01*
X55735000Y14072500D02*
X54265000Y14072500D01*
X55735000Y11787500D02*
X55735000Y14072500D01*
%TO.C,Q2*%
X50190000Y17500000D02*
X50190000Y18150000D01*
X50190000Y17500000D02*
X50190000Y16850000D01*
X53310000Y17500000D02*
X53310000Y18150000D01*
X53310000Y17500000D02*
X53310000Y16850000D01*
X50240000Y16337500D02*
X49910000Y16097500D01*
X49910000Y16577500D01*
X50240000Y16337500D01*
G36*
X50240000Y16337500D02*
G01*
X49910000Y16097500D01*
X49910000Y16577500D01*
X50240000Y16337500D01*
G37*
%TO.C,C27*%
X23157836Y20860000D02*
X22942164Y20860000D01*
X23157836Y20140000D02*
X22942164Y20140000D01*
%TO.C,C14*%
X51390000Y31462836D02*
X51390000Y31247164D01*
X52110000Y31462836D02*
X52110000Y31247164D01*
%TO.C,C16*%
X45040000Y21387836D02*
X45040000Y21172164D01*
X45760000Y21387836D02*
X45760000Y21172164D01*
%TO.C,C3*%
X41132354Y30241000D02*
X40916682Y30241000D01*
X41132354Y29521000D02*
X40916682Y29521000D01*
D14*
%TO.C,D4*%
X27475800Y25982000D02*
X27475800Y25332322D01*
X27475800Y22567678D02*
X27475800Y21918000D01*
X27475800Y21918000D02*
X33317800Y21918000D01*
X33317800Y25982000D02*
X27475800Y25982000D01*
X33317800Y25332322D02*
X33317800Y25982000D01*
X33317800Y21918000D02*
X33317800Y22567678D01*
X33698800Y23950000D02*
X34968800Y23950000D01*
X33952800Y23315000D02*
X33952800Y24585000D01*
X34714800Y23950000D02*
X33952800Y24585000D01*
X34714800Y23950000D02*
X33952800Y24458000D01*
X34714800Y23950000D02*
X33952800Y24331000D01*
X34714800Y23950000D02*
X33952800Y24204000D01*
X34714800Y23950000D02*
X33952800Y24077000D01*
X34714800Y23950000D02*
X33952800Y23823000D01*
X34714800Y23950000D02*
X33952800Y23696000D01*
X34714800Y23950000D02*
X33952800Y23569000D01*
X34714800Y23950000D02*
X33952800Y23442000D01*
X34714800Y23950000D02*
X33952800Y23315000D01*
X34714800Y23315000D02*
X34714800Y24585000D01*
D13*
%TO.C,C25*%
X8770000Y14532164D02*
X8770000Y14747836D01*
X9490000Y14532164D02*
X9490000Y14747836D01*
%TO.C,SW1*%
X36250000Y21600000D02*
X36250000Y17200000D01*
X37750000Y21600000D02*
X37850000Y21600000D01*
X37750000Y17200000D02*
X37850000Y17200000D01*
X39350000Y17200000D02*
X39350000Y21600000D01*
D14*
%TO.C,J2*%
X51007600Y6645000D02*
X51007600Y41000D01*
X51007600Y41000D02*
X58729200Y41000D01*
X58729200Y6645000D02*
X51007600Y6645000D01*
X58729200Y41000D02*
X58729200Y6645000D01*
D15*
X51947400Y7800200D02*
G75*
G02*
X52709400Y7800200I381000J0D01*
G01*
X52709400Y7800200D02*
G75*
G02*
X51947400Y7800200I-381000J0D01*
G01*
D13*
%TO.C,C23*%
X26032836Y19310000D02*
X25817164Y19310000D01*
X26032836Y18590000D02*
X25817164Y18590000D01*
%TO.C,C9*%
X55190000Y29227836D02*
X55190000Y29012164D01*
X55910000Y29227836D02*
X55910000Y29012164D01*
%TO.C,C12*%
X14477836Y20110000D02*
X14262164Y20110000D01*
X14477836Y19390000D02*
X14262164Y19390000D01*
%TO.C,C29*%
X51365000Y33577836D02*
X51365000Y33362164D01*
X52085000Y33577836D02*
X52085000Y33362164D01*
D14*
%TO.C,J1*%
X25147100Y38895600D02*
X25147100Y36884094D01*
X25147100Y35278710D02*
X25147100Y33104401D01*
X25147100Y33104401D02*
X25876597Y33104401D01*
X32723403Y33104401D02*
X33452900Y33104401D01*
X33452900Y38895600D02*
X25147100Y38895600D01*
X33452900Y36884094D02*
X33452900Y38895600D01*
X33452900Y33104401D02*
X33452900Y35278710D01*
D15*
X35611900Y33406401D02*
G75*
G02*
X34849900Y33406401I-381000J0D01*
G01*
X34849900Y33406401D02*
G75*
G02*
X35611900Y33406401I381000J0D01*
G01*
D13*
%TO.C,D5*%
X1815000Y17885000D02*
X1815000Y15600000D01*
X3285000Y17885000D02*
X1815000Y17885000D01*
X3285000Y15600000D02*
X3285000Y17885000D01*
%TO.C,C13*%
X22811252Y17735000D02*
X22288748Y17735000D01*
X22811252Y16265000D02*
X22288748Y16265000D01*
%TO.C,R1*%
X11103641Y12780000D02*
X10796359Y12780000D01*
X11103641Y12020000D02*
X10796359Y12020000D01*
%TO.C,U4*%
X29750000Y19560000D02*
X28950000Y19560000D01*
X29750000Y19560000D02*
X30550000Y19560000D01*
X29750000Y16440000D02*
X28950000Y16440000D01*
X29750000Y16440000D02*
X30550000Y16440000D01*
X28450000Y19510000D02*
X28210000Y19840000D01*
X28690000Y19840000D01*
X28450000Y19510000D01*
G36*
X28450000Y19510000D02*
G01*
X28210000Y19840000D01*
X28690000Y19840000D01*
X28450000Y19510000D01*
G37*
%TO.C,Q4*%
X56190000Y17500000D02*
X56190000Y18150000D01*
X56190000Y17500000D02*
X56190000Y16850000D01*
X59310000Y17500000D02*
X59310000Y18150000D01*
X59310000Y17500000D02*
X59310000Y16850000D01*
X56240000Y16337500D02*
X55910000Y16097500D01*
X55910000Y16577500D01*
X56240000Y16337500D01*
G36*
X56240000Y16337500D02*
G01*
X55910000Y16097500D01*
X55910000Y16577500D01*
X56240000Y16337500D01*
G37*
%TO.C,R7*%
X54620000Y9653641D02*
X54620000Y9346359D01*
X55380000Y9653641D02*
X55380000Y9346359D01*
D12*
%TO.C,C20*%
X34450000Y8900000D02*
X35500000Y9950000D01*
X34450000Y4450000D02*
X34450000Y8900000D01*
X34450000Y4450000D02*
X36100000Y4450000D01*
X35500000Y9950000D02*
X36100000Y9950000D01*
X38900000Y9950000D02*
X38300000Y9950000D01*
X39950000Y8900000D02*
X38900000Y9950000D01*
X39950000Y4450000D02*
X38300000Y4450000D01*
X39950000Y4450000D02*
X39950000Y8900000D01*
D13*
%TO.C,C24*%
X32390000Y17607836D02*
X32390000Y17392164D01*
X33110000Y17607836D02*
X33110000Y17392164D01*
%TO.C,D2*%
X57365000Y14072500D02*
X57365000Y11787500D01*
X58835000Y14072500D02*
X57365000Y14072500D01*
X58835000Y11787500D02*
X58835000Y14072500D01*
%TO.C,Q3*%
X5750000Y21560000D02*
X5100000Y21560000D01*
X5750000Y21560000D02*
X6400000Y21560000D01*
X5750000Y18440000D02*
X5100000Y18440000D01*
X5750000Y18440000D02*
X6400000Y18440000D01*
X7152500Y18160000D02*
X6672500Y18160000D01*
X6912500Y18490000D01*
X7152500Y18160000D01*
G36*
X7152500Y18160000D02*
G01*
X6672500Y18160000D01*
X6912500Y18490000D01*
X7152500Y18160000D01*
G37*
%TO.C,U3*%
X42940000Y32410000D02*
X43415000Y32410000D01*
X42940000Y31935000D02*
X42940000Y32410000D01*
X42940000Y25665000D02*
X42940000Y25490000D01*
X43415000Y25190000D02*
X43180000Y25190000D01*
X50160000Y32410000D02*
X49685000Y32410000D01*
X50160000Y31935000D02*
X50160000Y32410000D01*
X50160000Y25665000D02*
X50160000Y25190000D01*
X50160000Y25190000D02*
X49685000Y25190000D01*
X42940000Y25190000D02*
X42610000Y24950000D01*
X42610000Y25430000D01*
X42940000Y25190000D01*
G36*
X42940000Y25190000D02*
G01*
X42610000Y24950000D01*
X42610000Y25430000D01*
X42940000Y25190000D01*
G37*
%TO.C,X1*%
X48440000Y33590000D02*
X50860000Y33590000D01*
X50860000Y33590000D02*
X50860000Y36410000D01*
%TO.C,C5*%
X41137836Y24580000D02*
X40922164Y24580000D01*
X41137836Y23860000D02*
X40922164Y23860000D01*
%TO.C,U1*%
X51262500Y13210000D02*
X50462500Y13210000D01*
X51262500Y13210000D02*
X52062500Y13210000D01*
X51262500Y10090000D02*
X50462500Y10090000D01*
X51262500Y10090000D02*
X52062500Y10090000D01*
X52802500Y9810000D02*
X52322500Y9810000D01*
X52562500Y10140000D01*
X52802500Y9810000D01*
G36*
X52802500Y9810000D02*
G01*
X52322500Y9810000D01*
X52562500Y10140000D01*
X52802500Y9810000D01*
G37*
%TO.C,C8*%
X51490000Y29307836D02*
X51490000Y29092164D01*
X52210000Y29307836D02*
X52210000Y29092164D01*
%TO.C,C7*%
X52142164Y27880000D02*
X52357836Y27880000D01*
X52142164Y27160000D02*
X52357836Y27160000D01*
%TO.C,U5*%
X32900000Y30060000D02*
X32100000Y30060000D01*
X32900000Y30060000D02*
X33700000Y30060000D01*
X32900000Y26940000D02*
X32100000Y26940000D01*
X32900000Y26940000D02*
X33700000Y26940000D01*
X31600000Y30010000D02*
X31360000Y30340000D01*
X31840000Y30340000D01*
X31600000Y30010000D01*
G36*
X31600000Y30010000D02*
G01*
X31360000Y30340000D01*
X31840000Y30340000D01*
X31600000Y30010000D01*
G37*
%TO.C,C18*%
X29488748Y15485000D02*
X30011252Y15485000D01*
X29488748Y14015000D02*
X30011252Y14015000D01*
D14*
%TO.C,J4*%
X1613300Y37778200D02*
X1613300Y28481800D01*
X1613300Y28481800D02*
X22466700Y28481800D01*
X22466700Y37778200D02*
X1613300Y37778200D01*
X22466700Y28481800D02*
X22466700Y37778200D01*
D15*
X1359300Y31860000D02*
G75*
G02*
X597300Y31860000I-381000J0D01*
G01*
X597300Y31860000D02*
G75*
G02*
X1359300Y31860000I381000J0D01*
G01*
D13*
%TO.C,C22*%
X22811252Y15235000D02*
X22288748Y15235000D01*
X22811252Y13765000D02*
X22288748Y13765000D01*
%TO.C,C26*%
X6870000Y14552164D02*
X6870000Y14767836D01*
X7590000Y14552164D02*
X7590000Y14767836D01*
%TO.C,R4*%
X8596000Y17220359D02*
X8596000Y17527641D01*
X9356000Y17220359D02*
X9356000Y17527641D01*
%TO.C,C2*%
X43200000Y34292164D02*
X43200000Y34507836D01*
X43920000Y34292164D02*
X43920000Y34507836D01*
%TO.C,C11*%
X4615000Y15711252D02*
X4615000Y15188748D01*
X6085000Y15711252D02*
X6085000Y15188748D01*
D16*
%TO.C,J3*%
X300000Y10704500D02*
X14700000Y10704500D01*
X300000Y1704500D02*
X300000Y10704500D01*
X300000Y1704500D02*
X9230000Y1704500D01*
X14700000Y10704500D02*
X14700000Y8654500D01*
X14700000Y3754500D02*
X14700000Y1704500D01*
X14700000Y1704500D02*
X12970000Y1704500D01*
D12*
X15450000Y6204500D02*
G75*
G02*
X15250000Y6204500I-100000J0D01*
G01*
X15250000Y6204500D02*
G75*
G02*
X15450000Y6204500I100000J0D01*
G01*
D13*
%TO.C,C17*%
X25942164Y16585000D02*
X26157836Y16585000D01*
X25942164Y15865000D02*
X26157836Y15865000D01*
%TO.C,R8*%
X57820000Y9653641D02*
X57820000Y9346359D01*
X58580000Y9653641D02*
X58580000Y9346359D01*
%TO.C,Q1*%
X24590000Y28437500D02*
X24590000Y29087500D01*
X24590000Y28437500D02*
X24590000Y27787500D01*
X27710000Y28437500D02*
X27710000Y29087500D01*
X27710000Y28437500D02*
X27710000Y27787500D01*
X24640000Y27275000D02*
X24310000Y27035000D01*
X24310000Y27515000D01*
X24640000Y27275000D01*
G36*
X24640000Y27275000D02*
G01*
X24310000Y27035000D01*
X24310000Y27515000D01*
X24640000Y27275000D01*
G37*
%TO.C,R13*%
X55120000Y20353641D02*
X55120000Y20046359D01*
X55880000Y20353641D02*
X55880000Y20046359D01*
%TO.C,R3*%
X14970000Y12056359D02*
X14970000Y12363641D01*
X15730000Y12056359D02*
X15730000Y12363641D01*
%TO.C,R10*%
X41343641Y18080000D02*
X41036359Y18080000D01*
X41343641Y17320000D02*
X41036359Y17320000D01*
%TO.C,C28*%
X23157836Y19360000D02*
X22942164Y19360000D01*
X23157836Y18640000D02*
X22942164Y18640000D01*
%TO.C,R12*%
X53870000Y20353641D02*
X53870000Y20046359D01*
X54630000Y20353641D02*
X54630000Y20046359D01*
%TO.C,R6*%
X28520000Y28283859D02*
X28520000Y28591141D01*
X29280000Y28283859D02*
X29280000Y28591141D01*
D16*
%TO.C,L3*%
X18300000Y11500000D02*
X18300000Y8670000D01*
X18300000Y11500000D02*
X28400000Y11500000D01*
X18300000Y1500000D02*
X18300000Y4330000D01*
X18300000Y1500000D02*
X28400000Y1500000D01*
X28400000Y11500000D02*
X28400000Y8670000D01*
X28400000Y1500000D02*
X28400000Y4330000D01*
D14*
%TO.C,D1*%
X11629000Y24532000D02*
X11629000Y23882322D01*
X11629000Y21117678D02*
X11629000Y20468000D01*
X11629000Y20468000D02*
X17471000Y20468000D01*
X17471000Y24532000D02*
X11629000Y24532000D01*
X17471000Y23882322D02*
X17471000Y24532000D01*
X17471000Y20468000D02*
X17471000Y21117678D01*
X17852000Y22500000D02*
X19122000Y22500000D01*
X18106000Y21865000D02*
X18106000Y23135000D01*
X18868000Y22500000D02*
X18106000Y23135000D01*
X18868000Y22500000D02*
X18106000Y23008000D01*
X18868000Y22500000D02*
X18106000Y22881000D01*
X18868000Y22500000D02*
X18106000Y22754000D01*
X18868000Y22500000D02*
X18106000Y22627000D01*
X18868000Y22500000D02*
X18106000Y22373000D01*
X18868000Y22500000D02*
X18106000Y22246000D01*
X18868000Y22500000D02*
X18106000Y22119000D01*
X18868000Y22500000D02*
X18106000Y21992000D01*
X18868000Y22500000D02*
X18106000Y21865000D01*
X18868000Y21865000D02*
X18868000Y23135000D01*
D13*
%TO.C,R5*%
X8770000Y19446359D02*
X8770000Y19753641D01*
X9530000Y19446359D02*
X9530000Y19753641D01*
%TO.C,C10*%
X61690000Y29207836D02*
X61690000Y28992164D01*
X62410000Y29207836D02*
X62410000Y28992164D01*
%TO.C,U2*%
X14375000Y18599500D02*
X12425000Y18599500D01*
X14375000Y18599500D02*
X16325000Y18599500D01*
X14375000Y13479500D02*
X12425000Y13479500D01*
X14375000Y13479500D02*
X16325000Y13479500D01*
X11675000Y18504500D02*
X11435000Y18834500D01*
X11915000Y18834500D01*
X11675000Y18504500D01*
G36*
X11675000Y18504500D02*
G01*
X11435000Y18834500D01*
X11915000Y18834500D01*
X11675000Y18504500D01*
G37*
%TO.C,C15*%
X43540000Y21387836D02*
X43540000Y21172164D01*
X44260000Y21387836D02*
X44260000Y21172164D01*
%TO.C,C6*%
X47250000Y23587836D02*
X47250000Y23372164D01*
X47970000Y23587836D02*
X47970000Y23372164D01*
%TO.C,R9*%
X41373641Y20990000D02*
X41066359Y20990000D01*
X41373641Y20230000D02*
X41066359Y20230000D01*
D12*
%TO.C,C21*%
X41650000Y8900000D02*
X42700000Y9950000D01*
X41650000Y4450000D02*
X41650000Y8900000D01*
X41650000Y4450000D02*
X43300000Y4450000D01*
X42700000Y9950000D02*
X43300000Y9950000D01*
X46100000Y9950000D02*
X45500000Y9950000D01*
X47150000Y8900000D02*
X46100000Y9950000D01*
X47150000Y4450000D02*
X45500000Y4450000D01*
X47150000Y4450000D02*
X47150000Y8900000D01*
D13*
%TO.C,C19*%
X41317836Y19560000D02*
X41102164Y19560000D01*
X41317836Y18840000D02*
X41102164Y18840000D01*
%TO.C,C4*%
X41157836Y26360000D02*
X40942164Y26360000D01*
X41157836Y25640000D02*
X40942164Y25640000D01*
%TO.C,R11*%
X2853641Y13380000D02*
X2546359Y13380000D01*
X2853641Y12620000D02*
X2546359Y12620000D01*
%TO.C,C1*%
X45010000Y34292164D02*
X45010000Y34507836D01*
X45730000Y34292164D02*
X45730000Y34507836D01*
%TO.C,R2*%
X13170000Y12353641D02*
X13170000Y12046359D01*
X13930000Y12353641D02*
X13930000Y12046359D01*
%TD*%
M02*
