%TF.GenerationSoftware,KiCad,Pcbnew,9.0.4-9.0.4-0~ubuntu22.04.1*%
%TF.CreationDate,2025-09-23T18:33:34+12:00*%
%TF.ProjectId,BBBLedHW,4242424c-6564-4485-972e-6b696361645f,rev?*%
%TF.SameCoordinates,PX7365040PY5f5e100*%
%TF.FileFunction,Copper,L4,Bot*%
%TF.FilePolarity,Positive*%
%FSLAX46Y46*%
G04 Gerber Fmt 4.6, Leading zero omitted, Abs format (unit mm)*
G04 Created by KiCad (PCBNEW 9.0.4-9.0.4-0~ubuntu22.04.1) date 2025-09-23 18:33:34*
%MOMM*%
%LPD*%
G01*
G04 APERTURE LIST*
%TA.AperFunction,ComponentPad*%
%ADD10C,1.574800*%
%TD*%
%TA.AperFunction,ComponentPad*%
%ADD11O,1.016000X1.651000*%
%TD*%
%TA.AperFunction,ComponentPad*%
%ADD12O,1.295400X1.016000*%
%TD*%
%TA.AperFunction,ComponentPad*%
%ADD13C,1.524000*%
%TD*%
%TA.AperFunction,ComponentPad*%
%ADD14O,1.750000X4.250000*%
%TD*%
%TA.AperFunction,ComponentPad*%
%ADD15O,1.750000X3.750000*%
%TD*%
%TA.AperFunction,ComponentPad*%
%ADD16O,3.100000X1.400000*%
%TD*%
%TA.AperFunction,ViaPad*%
%ADD17C,0.700000*%
%TD*%
%TA.AperFunction,ViaPad*%
%ADD18C,0.650000*%
%TD*%
%TA.AperFunction,ViaPad*%
%ADD19C,1.000000*%
%TD*%
%TA.AperFunction,ViaPad*%
%ADD20C,0.900000*%
%TD*%
%TA.AperFunction,Conductor*%
%ADD21C,0.150000*%
%TD*%
G04 APERTURE END LIST*
D10*
%TO.P,J2,1,GND*%
%TO.N,GND*%
X52328400Y3419200D03*
%TO.P,J2,2,DATA*%
%TO.N,/LED_DATA*%
X54868400Y3419200D03*
%TO.P,J2,3,5V*%
%TO.N,+5V*%
X57408400Y3419200D03*
%TD*%
D11*
%TO.P,J1,S_1*%
%TO.N,N/C*%
X32800000Y36081402D03*
%TO.P,J1,S_2*%
X25799999Y36081402D03*
D12*
%TO.P,J1,S_3*%
X31800000Y33406401D03*
%TO.P,J1,S_4*%
X26800000Y33406401D03*
%TD*%
D13*
%TO.P,J4,1,RST*%
%TO.N,/SWD_nRST*%
X6960000Y31860000D03*
%TO.P,J4,2,SWCLK*%
%TO.N,/SWD_CLK*%
X6960000Y34400000D03*
%TO.P,J4,3,SWIM*%
%TO.N,unconnected-(J4-SWIM-Pad3)*%
X9500000Y31860000D03*
%TO.P,J4,4,SWDIO*%
%TO.N,/SWD_IO*%
X9500000Y34400000D03*
%TO.P,J4,5,GND*%
%TO.N,GND*%
X12040000Y31860000D03*
%TO.P,J4,6,GND*%
X12040000Y34400000D03*
%TO.P,J4,7,3V3*%
%TO.N,+3V3*%
X14580000Y31860000D03*
%TO.P,J4,8,3V3*%
X14580000Y34400000D03*
%TO.P,J4,9,5V*%
%TO.N,unconnected-(J4-5V-Pad9)*%
X17120000Y31860000D03*
%TO.P,J4,10,5V*%
%TO.N,unconnected-(J4-5V-Pad10)*%
X17120000Y34400000D03*
%TD*%
D14*
%TO.P,J3,1*%
%TO.N,VBUS*%
X13900000Y6204500D03*
D15*
%TO.P,J3,2*%
%TO.N,GND*%
X8000000Y6204500D03*
D16*
%TO.P,J3,3*%
%TO.N,unconnected-(J3-Pad3)*%
X11100000Y1504500D03*
%TD*%
D17*
%TO.N,+3V3*%
X41800000Y25100000D03*
X44200000Y33920000D03*
D18*
X37000000Y22700000D03*
D17*
X31725000Y15300000D03*
X51600000Y26645000D03*
D18*
X54100000Y9000000D03*
D17*
X46070000Y33900000D03*
X52600000Y34300000D03*
D19*
X38400000Y14000000D03*
D18*
X57300000Y9000000D03*
D17*
X31725000Y14050000D03*
X42350000Y24350000D03*
D18*
X33600000Y18200000D03*
D17*
X48380000Y24100000D03*
D18*
X53800000Y10700000D03*
D17*
X53000000Y31900000D03*
D18*
X41400000Y29000000D03*
X32225000Y18950000D03*
D17*
%TO.N,GND*%
X20475000Y13900000D03*
D18*
X10400000Y23300000D03*
D17*
X21750000Y20500000D03*
D18*
X27337500Y18000000D03*
D17*
X43950000Y20050000D03*
X62050000Y27800000D03*
X62000000Y4000000D03*
X62000000Y24850000D03*
D18*
X47000000Y37000000D03*
X20400000Y23700000D03*
D17*
X20475000Y15150000D03*
D18*
X44650000Y27000000D03*
X48650000Y31000000D03*
X40700000Y21600000D03*
D17*
X52505000Y32990000D03*
X16950000Y12250000D03*
X62000000Y34000000D03*
X45370000Y20010000D03*
X6000000Y17550000D03*
D18*
X5400000Y23700000D03*
D17*
X54000000Y24850000D03*
D18*
X45200000Y2700000D03*
X48650000Y27000000D03*
D17*
X62000000Y37000000D03*
X40560000Y25270000D03*
X20475000Y16400000D03*
D18*
X33600000Y17025000D03*
D17*
X44180000Y34890000D03*
X16900000Y9000000D03*
D18*
X45650000Y30000000D03*
D17*
X20475000Y17650000D03*
X62000000Y19000000D03*
X62000000Y22000000D03*
D18*
X32000000Y4000000D03*
D17*
X25575000Y15375000D03*
D18*
X13750000Y17000000D03*
X38000000Y37000000D03*
D17*
X62000000Y7000000D03*
X55500000Y21530000D03*
D18*
X32875000Y30600000D03*
X32000000Y10000000D03*
X44650000Y29000000D03*
X26150000Y30825000D03*
D17*
X59000000Y32000000D03*
X54250000Y21550000D03*
D18*
X27500000Y13000000D03*
X10050000Y20100000D03*
X36400000Y2700000D03*
X10600000Y19400000D03*
X8350000Y15100000D03*
X38000000Y2700000D03*
X47000000Y16000000D03*
D17*
X27675000Y14150000D03*
D18*
X28600000Y29900000D03*
D17*
X57000000Y26850000D03*
D18*
X50000000Y37000000D03*
D17*
X52800000Y28720000D03*
D18*
X39500000Y34000000D03*
D17*
X60000000Y24850000D03*
D18*
X48500000Y13000000D03*
D17*
X57550000Y27800000D03*
X59000000Y26850000D03*
D18*
X12900000Y26700000D03*
X28500000Y31800000D03*
X18900000Y26700000D03*
X13750000Y15250000D03*
D17*
X48500000Y23000000D03*
D18*
X53000000Y37000000D03*
D17*
X52600000Y30875000D03*
D18*
X47650000Y30000000D03*
D17*
X55000000Y32000000D03*
D18*
X6900000Y26700000D03*
X48500000Y11650000D03*
X43600000Y2700000D03*
X15000000Y15250000D03*
D17*
X27675000Y15400000D03*
D18*
X48650000Y29000000D03*
D17*
X56000000Y24850000D03*
X54000000Y34000000D03*
X25450000Y19800000D03*
X55000000Y26850000D03*
D18*
X7250000Y15900000D03*
D17*
X61000000Y32000000D03*
X21750000Y19000000D03*
X4750000Y17550000D03*
X59000000Y37000000D03*
D18*
X36500000Y34000000D03*
X44650000Y31000000D03*
X46650000Y31000000D03*
X48500000Y4000000D03*
X53775000Y11650000D03*
X15000000Y17000000D03*
D17*
X55550000Y27800000D03*
D18*
X47650000Y28000000D03*
D17*
X62000000Y10000000D03*
D18*
X10400000Y21700000D03*
D17*
X56000000Y34000000D03*
D18*
X40300000Y28900000D03*
X9900000Y26700000D03*
D17*
X62000000Y16000000D03*
D18*
X30500000Y13000000D03*
D17*
X58000000Y34000000D03*
D18*
X41000000Y37000000D03*
X32000000Y7000000D03*
D17*
X52740000Y26650000D03*
D18*
X45650000Y28000000D03*
X50550000Y18900000D03*
D17*
X57000000Y32000000D03*
X46030000Y34880000D03*
D18*
X40900000Y27400000D03*
D17*
X58000000Y24850000D03*
D18*
X8100000Y20950000D03*
X46650000Y27000000D03*
D17*
X61000000Y26850000D03*
D18*
X56400000Y18900000D03*
D17*
X62000000Y13000000D03*
D18*
X15900000Y26700000D03*
X45500000Y13000000D03*
X39500000Y13000000D03*
D17*
X40530000Y23410000D03*
X60000000Y34000000D03*
D18*
X27100000Y31800000D03*
%TO.N,VBUS*%
X8100000Y14150000D03*
X9650000Y12400000D03*
X8076000Y17149000D03*
D19*
X16000000Y3500000D03*
D18*
X10325000Y16675000D03*
D20*
X4850000Y13150000D03*
X5900000Y13150000D03*
D18*
X9150000Y13400000D03*
D20*
%TO.N,+5V*%
X36500000Y11700000D03*
D18*
X24300000Y19000000D03*
D17*
X24525000Y17600000D03*
D20*
X30300000Y8100000D03*
X34100000Y25250000D03*
D18*
X27350000Y18950000D03*
X27387500Y17050000D03*
D17*
X26525000Y15400000D03*
D20*
X37900000Y11700000D03*
D17*
X24525000Y16350000D03*
X26425000Y19800000D03*
D20*
X45000000Y11700000D03*
D18*
X48500000Y10700000D03*
D20*
X43700000Y11700000D03*
D17*
X17775000Y13075000D03*
D18*
X24300000Y20500000D03*
D17*
X24525000Y13850000D03*
D20*
X30300000Y5100000D03*
D17*
X24525000Y15100000D03*
D20*
X34100000Y22650000D03*
D17*
X16700000Y10300000D03*
D18*
%TO.N,/USB_5V*%
X29800000Y27900000D03*
D20*
X26800000Y24800000D03*
D18*
X28175000Y27125000D03*
X35300000Y28500000D03*
D20*
X30600000Y30800000D03*
X26800000Y23200000D03*
D18*
%TO.N,/SWD_CLK*%
X41800000Y28000000D03*
X7900000Y35900000D03*
%TO.N,/REG_EN*%
X25200000Y26000000D03*
X10200000Y18400000D03*
D19*
%TO.N,/MCU_LLC*%
X49250000Y20250000D03*
%TD*%
D21*
%TO.N,+5V*%
X25250000Y12300000D02*
X18700000Y12300000D01*
X18075000Y13075000D02*
X17775000Y13075000D01*
X24500000Y12850000D02*
X24500000Y12920000D01*
X18700000Y12300000D02*
X16700000Y10300000D01*
X24320000Y13100000D02*
X18100000Y13100000D01*
X18100000Y13100000D02*
X18075000Y13075000D01*
X24500000Y12920000D02*
X24320000Y13100000D01*
%TO.N,/SWD_CLK*%
X41800000Y28200000D02*
X41800000Y28000000D01*
X42350000Y28750000D02*
X42350000Y35350000D01*
X42000000Y28400000D02*
X41800000Y28200000D01*
X42350000Y35350000D02*
X40600000Y37100000D01*
X40600000Y37100000D02*
X9100000Y37100000D01*
X42000000Y28400000D02*
X42350000Y28750000D01*
X9100000Y37100000D02*
X7900000Y35900000D01*
%TO.N,/REG_EN*%
X11400000Y19200000D02*
X10600000Y18400000D01*
X12000000Y26000000D02*
X11400000Y25400000D01*
X10600000Y18400000D02*
X10200000Y18400000D01*
X11400000Y25400000D02*
X11400000Y19200000D01*
X25200000Y26000000D02*
X12000000Y26000000D01*
%TD*%
%TA.AperFunction,Conductor*%
%TO.N,+5V*%
G36*
X34528326Y25478326D02*
G01*
X34550000Y25426000D01*
X34550000Y19824000D01*
X34528326Y19771674D01*
X34476000Y19750000D01*
X29750000Y19750000D01*
X29750000Y13000000D01*
X29801516Y13000000D01*
X29853842Y12978326D01*
X29874094Y12940436D01*
X29898535Y12817555D01*
X29898537Y12817548D01*
X29945688Y12703715D01*
X29945689Y12703714D01*
X30014142Y12601267D01*
X30101267Y12514142D01*
X30203714Y12445689D01*
X30317548Y12398537D01*
X30438394Y12374500D01*
X30561606Y12374500D01*
X30682452Y12398537D01*
X30796286Y12445689D01*
X30898733Y12514142D01*
X30985858Y12601267D01*
X31054311Y12703714D01*
X31101463Y12817548D01*
X31125500Y12938394D01*
X31125500Y12938395D01*
X31125906Y12940436D01*
X31157371Y12987528D01*
X31198484Y13000000D01*
X38801516Y13000000D01*
X38853842Y12978326D01*
X38874094Y12940436D01*
X38898535Y12817555D01*
X38898537Y12817548D01*
X38945688Y12703715D01*
X38945689Y12703714D01*
X39014142Y12601267D01*
X39101267Y12514142D01*
X39203714Y12445689D01*
X39317548Y12398537D01*
X39438394Y12374500D01*
X39561606Y12374500D01*
X39682452Y12398537D01*
X39796286Y12445689D01*
X39898733Y12514142D01*
X39985858Y12601267D01*
X40054311Y12703714D01*
X40101463Y12817548D01*
X40125500Y12938394D01*
X40125500Y12938395D01*
X40125906Y12940436D01*
X40157371Y12987528D01*
X40198484Y13000000D01*
X44801516Y13000000D01*
X44853842Y12978326D01*
X44874094Y12940436D01*
X44898535Y12817555D01*
X44898537Y12817548D01*
X44945688Y12703715D01*
X44945689Y12703714D01*
X45014142Y12601267D01*
X45101267Y12514142D01*
X45203714Y12445689D01*
X45317548Y12398537D01*
X45438394Y12374500D01*
X45561606Y12374500D01*
X45682452Y12398537D01*
X45796286Y12445689D01*
X45898733Y12514142D01*
X45985858Y12601267D01*
X46054311Y12703714D01*
X46101463Y12817548D01*
X46125500Y12938394D01*
X46125500Y12938395D01*
X46125906Y12940436D01*
X46157371Y12987528D01*
X46198484Y13000000D01*
X47801516Y13000000D01*
X47853842Y12978326D01*
X47874094Y12940436D01*
X47898535Y12817555D01*
X47898537Y12817548D01*
X47945688Y12703715D01*
X47945689Y12703714D01*
X47987529Y12641096D01*
X48000000Y12599985D01*
X48000000Y12050017D01*
X47987529Y12008905D01*
X47945689Y11946287D01*
X47898537Y11832453D01*
X47898535Y11832446D01*
X47874500Y11711606D01*
X47874500Y11588395D01*
X47898535Y11467555D01*
X47898537Y11467548D01*
X47945688Y11353715D01*
X47945689Y11353714D01*
X48000000Y11272432D01*
X48000000Y11250000D01*
X48015409Y11250000D01*
X48101267Y11164142D01*
X48203714Y11095689D01*
X48317548Y11048537D01*
X48438394Y11024500D01*
X48561606Y11024500D01*
X48682452Y11048537D01*
X48796286Y11095689D01*
X48898733Y11164142D01*
X48962917Y11228326D01*
X49015243Y11250000D01*
X50926000Y11250000D01*
X50978326Y11228326D01*
X51000000Y11176000D01*
X51000000Y9500000D01*
X52676000Y9500000D01*
X52728326Y9478326D01*
X52750000Y9426000D01*
X52750000Y7000000D01*
X61276120Y7000000D01*
X61328446Y6978326D01*
X61346990Y6939139D01*
X61348791Y6939497D01*
X61374497Y6810261D01*
X61374498Y6810258D01*
X61374499Y6810256D01*
X61423535Y6691873D01*
X61494724Y6585331D01*
X61585331Y6494724D01*
X61691873Y6423535D01*
X61810256Y6374499D01*
X61810258Y6374499D01*
X61810260Y6374498D01*
X61858680Y6364867D01*
X61935931Y6349500D01*
X61935933Y6349500D01*
X61939497Y6348791D01*
X61939069Y6346641D01*
X61983174Y6323101D01*
X62000000Y6276121D01*
X62000000Y4723880D01*
X61978326Y4671554D01*
X61939138Y4653010D01*
X61939497Y4651209D01*
X61935933Y4650500D01*
X61935931Y4650500D01*
X61910976Y4645537D01*
X61810260Y4625503D01*
X61810257Y4625502D01*
X61691876Y4576467D01*
X61585331Y4505277D01*
X61585330Y4505275D01*
X61494725Y4414670D01*
X61494723Y4414669D01*
X61423533Y4308124D01*
X61374498Y4189743D01*
X61374497Y4189740D01*
X61349500Y4064068D01*
X61349500Y3935933D01*
X61374497Y3810261D01*
X61374498Y3810258D01*
X61421308Y3697248D01*
X61423535Y3691873D01*
X61468161Y3625085D01*
X61487610Y3595977D01*
X61494724Y3585331D01*
X61585331Y3494724D01*
X61691873Y3423535D01*
X61810256Y3374499D01*
X61810258Y3374499D01*
X61810260Y3374498D01*
X61858680Y3364867D01*
X61935931Y3349500D01*
X61935933Y3349500D01*
X61939497Y3348791D01*
X61939069Y3346641D01*
X61983174Y3323101D01*
X62000000Y3276121D01*
X62000000Y2424000D01*
X61978326Y2371674D01*
X61926000Y2350000D01*
X58184646Y2350000D01*
X58132320Y2371674D01*
X58110646Y2424000D01*
X58132320Y2476326D01*
X58141149Y2483867D01*
X58156096Y2494727D01*
X57686804Y2964020D01*
X57735915Y2992374D01*
X57835226Y3091685D01*
X57863580Y3140797D01*
X58332873Y2671504D01*
X58423954Y2796865D01*
X58423957Y2796871D01*
X58508807Y2963396D01*
X58508809Y2963402D01*
X58566560Y3141140D01*
X58566563Y3141153D01*
X58595800Y3325750D01*
X58595800Y3512651D01*
X58566563Y3697248D01*
X58566560Y3697261D01*
X58508809Y3874999D01*
X58508807Y3875005D01*
X58423957Y4041530D01*
X58423954Y4041536D01*
X58332873Y4166898D01*
X57863580Y3697606D01*
X57835226Y3746715D01*
X57735915Y3846026D01*
X57686803Y3874382D01*
X58156096Y4343674D01*
X58030733Y4434757D01*
X57864196Y4519611D01*
X57686460Y4577361D01*
X57686447Y4577364D01*
X57501851Y4606600D01*
X57314949Y4606600D01*
X57130352Y4577364D01*
X57130339Y4577361D01*
X56952603Y4519611D01*
X56786071Y4434759D01*
X56660702Y4343674D01*
X57129995Y3874381D01*
X57080885Y3846026D01*
X56981574Y3746715D01*
X56953219Y3697605D01*
X56483926Y4166898D01*
X56392841Y4041529D01*
X56307989Y3874997D01*
X56250239Y3697261D01*
X56250236Y3697248D01*
X56221000Y3512651D01*
X56221000Y3325750D01*
X56250236Y3141153D01*
X56250239Y3141140D01*
X56307989Y2963404D01*
X56392843Y2796867D01*
X56483926Y2671504D01*
X56953218Y3140797D01*
X56981574Y3091685D01*
X57080885Y2992374D01*
X57129995Y2964020D01*
X56660702Y2494727D01*
X56675650Y2483867D01*
X56705243Y2435576D01*
X56692021Y2380504D01*
X56643730Y2350911D01*
X56632154Y2350000D01*
X55474517Y2350000D01*
X55422191Y2371674D01*
X55400517Y2424000D01*
X55422191Y2476326D01*
X55436431Y2486676D01*
X55436098Y2487220D01*
X55438578Y2488741D01*
X55438584Y2488744D01*
X55577119Y2589396D01*
X55698204Y2710481D01*
X55798856Y2849016D01*
X55876596Y3001591D01*
X55876597Y3001594D01*
X55929509Y3164439D01*
X55929509Y3164442D01*
X55929512Y3164449D01*
X55956300Y3333580D01*
X55956300Y3504820D01*
X55929512Y3673951D01*
X55929510Y3673956D01*
X55929509Y3673962D01*
X55876597Y3836807D01*
X55876595Y3836811D01*
X55798856Y3989384D01*
X55698207Y4127915D01*
X55698206Y4127916D01*
X55698204Y4127919D01*
X55577119Y4249004D01*
X55568033Y4255606D01*
X55438583Y4349657D01*
X55286010Y4427396D01*
X55286006Y4427398D01*
X55123161Y4480310D01*
X55123148Y4480313D01*
X54954022Y4507100D01*
X54954020Y4507100D01*
X54782780Y4507100D01*
X54782778Y4507100D01*
X54613651Y4480313D01*
X54613638Y4480310D01*
X54450793Y4427398D01*
X54450789Y4427396D01*
X54298216Y4349657D01*
X54159685Y4249008D01*
X54038592Y4127915D01*
X53937943Y3989384D01*
X53860204Y3836811D01*
X53860202Y3836807D01*
X53807290Y3673962D01*
X53807287Y3673949D01*
X53780500Y3504822D01*
X53780500Y3333579D01*
X53807287Y3164452D01*
X53807290Y3164439D01*
X53860202Y3001594D01*
X53860204Y3001590D01*
X53937943Y2849017D01*
X53975832Y2796867D01*
X54038596Y2710481D01*
X54159681Y2589396D01*
X54159684Y2589394D01*
X54159685Y2589393D01*
X54298216Y2488744D01*
X54300702Y2487220D01*
X54299658Y2485519D01*
X54332668Y2446847D01*
X54328208Y2390386D01*
X54285130Y2353615D01*
X54262283Y2350000D01*
X52934517Y2350000D01*
X52882191Y2371674D01*
X52860517Y2424000D01*
X52882191Y2476326D01*
X52896431Y2486676D01*
X52896098Y2487220D01*
X52898578Y2488741D01*
X52898584Y2488744D01*
X53037119Y2589396D01*
X53158204Y2710481D01*
X53258856Y2849016D01*
X53336596Y3001591D01*
X53336597Y3001594D01*
X53389509Y3164439D01*
X53389509Y3164442D01*
X53389512Y3164449D01*
X53416300Y3333580D01*
X53416300Y3504820D01*
X53389512Y3673951D01*
X53389510Y3673956D01*
X53389509Y3673962D01*
X53336597Y3836807D01*
X53336595Y3836811D01*
X53258856Y3989384D01*
X53158207Y4127915D01*
X53158206Y4127916D01*
X53158204Y4127919D01*
X53037119Y4249004D01*
X53037116Y4249007D01*
X53037114Y4249008D01*
X52898583Y4349657D01*
X52746010Y4427396D01*
X52746006Y4427398D01*
X52583161Y4480310D01*
X52583148Y4480313D01*
X52414022Y4507100D01*
X52414020Y4507100D01*
X52242780Y4507100D01*
X52242778Y4507100D01*
X52073651Y4480313D01*
X52073638Y4480310D01*
X51910793Y4427398D01*
X51910789Y4427396D01*
X51758216Y4349657D01*
X51619685Y4249008D01*
X51498592Y4127915D01*
X51397943Y3989384D01*
X51320204Y3836811D01*
X51320202Y3836807D01*
X51267290Y3673962D01*
X51267287Y3673949D01*
X51240500Y3504822D01*
X51240500Y3333579D01*
X51267287Y3164452D01*
X51267290Y3164439D01*
X51320202Y3001594D01*
X51320204Y3001590D01*
X51397943Y2849017D01*
X51435832Y2796867D01*
X51498596Y2710481D01*
X51619681Y2589396D01*
X51619684Y2589394D01*
X51619685Y2589393D01*
X51758216Y2488744D01*
X51760702Y2487220D01*
X51759658Y2485519D01*
X51792668Y2446847D01*
X51788208Y2390386D01*
X51745130Y2353615D01*
X51722283Y2350000D01*
X45842811Y2350000D01*
X45790485Y2371674D01*
X45768811Y2424000D01*
X45774444Y2452319D01*
X45784388Y2476326D01*
X45801463Y2517548D01*
X45825500Y2638394D01*
X45825500Y2761606D01*
X45801463Y2882452D01*
X45754311Y2996286D01*
X45685858Y3098733D01*
X45598733Y3185858D01*
X45557641Y3213315D01*
X45496285Y3254312D01*
X45382452Y3301463D01*
X45382445Y3301465D01*
X45261606Y3325500D01*
X45138394Y3325500D01*
X45017554Y3301465D01*
X45017547Y3301463D01*
X44903714Y3254312D01*
X44801270Y3185861D01*
X44714139Y3098730D01*
X44645688Y2996286D01*
X44598537Y2882453D01*
X44598535Y2882446D01*
X44574500Y2761606D01*
X44574500Y2638395D01*
X44598535Y2517555D01*
X44598537Y2517548D01*
X44625556Y2452319D01*
X44625556Y2395681D01*
X44585508Y2355633D01*
X44557189Y2350000D01*
X44242811Y2350000D01*
X44190485Y2371674D01*
X44168811Y2424000D01*
X44174444Y2452319D01*
X44184388Y2476326D01*
X44201463Y2517548D01*
X44225500Y2638394D01*
X44225500Y2761606D01*
X44201463Y2882452D01*
X44154311Y2996286D01*
X44085858Y3098733D01*
X43998733Y3185858D01*
X43957641Y3213315D01*
X43896285Y3254312D01*
X43782452Y3301463D01*
X43782445Y3301465D01*
X43661606Y3325500D01*
X43538394Y3325500D01*
X43417554Y3301465D01*
X43417547Y3301463D01*
X43303714Y3254312D01*
X43201270Y3185861D01*
X43114139Y3098730D01*
X43045688Y2996286D01*
X42998537Y2882453D01*
X42998535Y2882446D01*
X42974500Y2761606D01*
X42974500Y2638395D01*
X42998535Y2517555D01*
X42998537Y2517548D01*
X43025556Y2452319D01*
X43025556Y2395681D01*
X42985508Y2355633D01*
X42957189Y2350000D01*
X38642811Y2350000D01*
X38590485Y2371674D01*
X38568811Y2424000D01*
X38574444Y2452319D01*
X38584388Y2476326D01*
X38601463Y2517548D01*
X38625500Y2638394D01*
X38625500Y2761606D01*
X38601463Y2882452D01*
X38554311Y2996286D01*
X38485858Y3098733D01*
X38398733Y3185858D01*
X38357641Y3213315D01*
X38296285Y3254312D01*
X38182452Y3301463D01*
X38182445Y3301465D01*
X38061606Y3325500D01*
X37938394Y3325500D01*
X37817554Y3301465D01*
X37817547Y3301463D01*
X37703714Y3254312D01*
X37601270Y3185861D01*
X37514139Y3098730D01*
X37445688Y2996286D01*
X37398537Y2882453D01*
X37398535Y2882446D01*
X37374500Y2761606D01*
X37374500Y2638395D01*
X37398535Y2517555D01*
X37398537Y2517548D01*
X37425556Y2452319D01*
X37425556Y2395681D01*
X37385508Y2355633D01*
X37357189Y2350000D01*
X37042811Y2350000D01*
X36990485Y2371674D01*
X36968811Y2424000D01*
X36974444Y2452319D01*
X36984388Y2476326D01*
X37001463Y2517548D01*
X37025500Y2638394D01*
X37025500Y2761606D01*
X37001463Y2882452D01*
X36954311Y2996286D01*
X36885858Y3098733D01*
X36798733Y3185858D01*
X36757641Y3213315D01*
X36696285Y3254312D01*
X36582452Y3301463D01*
X36582445Y3301465D01*
X36461606Y3325500D01*
X36338394Y3325500D01*
X36217554Y3301465D01*
X36217547Y3301463D01*
X36103714Y3254312D01*
X36001270Y3185861D01*
X35914139Y3098730D01*
X35845688Y2996286D01*
X35798537Y2882453D01*
X35798535Y2882446D01*
X35774500Y2761606D01*
X35774500Y2638395D01*
X35798535Y2517555D01*
X35798537Y2517548D01*
X35825556Y2452319D01*
X35825556Y2395681D01*
X35785508Y2355633D01*
X35757189Y2350000D01*
X23574000Y2350000D01*
X23521674Y2371674D01*
X23500000Y2424000D01*
X23500000Y4061606D01*
X31374500Y4061606D01*
X31374500Y3938395D01*
X31398535Y3817555D01*
X31398537Y3817548D01*
X31445688Y3703715D01*
X31465576Y3673951D01*
X31514142Y3601267D01*
X31601267Y3514142D01*
X31703714Y3445689D01*
X31817548Y3398537D01*
X31938394Y3374500D01*
X32061606Y3374500D01*
X32182452Y3398537D01*
X32296286Y3445689D01*
X32398733Y3514142D01*
X32485858Y3601267D01*
X32554311Y3703714D01*
X32601463Y3817548D01*
X32625500Y3938394D01*
X32625500Y4061606D01*
X47874500Y4061606D01*
X47874500Y3938395D01*
X47898535Y3817555D01*
X47898537Y3817548D01*
X47945688Y3703715D01*
X47965576Y3673951D01*
X48014142Y3601267D01*
X48101267Y3514142D01*
X48203714Y3445689D01*
X48317548Y3398537D01*
X48438394Y3374500D01*
X48561606Y3374500D01*
X48682452Y3398537D01*
X48796286Y3445689D01*
X48898733Y3514142D01*
X48985858Y3601267D01*
X49054311Y3703714D01*
X49101463Y3817548D01*
X49125500Y3938394D01*
X49125500Y4061606D01*
X49101463Y4182452D01*
X49054311Y4296286D01*
X48985858Y4398733D01*
X48898733Y4485858D01*
X48898729Y4485861D01*
X48796285Y4554312D01*
X48682452Y4601463D01*
X48682445Y4601465D01*
X48561606Y4625500D01*
X48438394Y4625500D01*
X48317554Y4601465D01*
X48317547Y4601463D01*
X48203714Y4554312D01*
X48101270Y4485861D01*
X48014139Y4398730D01*
X47945688Y4296286D01*
X47898537Y4182453D01*
X47898535Y4182446D01*
X47874500Y4061606D01*
X32625500Y4061606D01*
X32601463Y4182452D01*
X32554311Y4296286D01*
X32485858Y4398733D01*
X32398733Y4485858D01*
X32398729Y4485861D01*
X32296285Y4554312D01*
X32182452Y4601463D01*
X32182445Y4601465D01*
X32061606Y4625500D01*
X31938394Y4625500D01*
X31817554Y4601465D01*
X31817547Y4601463D01*
X31703714Y4554312D01*
X31601270Y4485861D01*
X31514139Y4398730D01*
X31445688Y4296286D01*
X31398537Y4182453D01*
X31398535Y4182446D01*
X31374500Y4061606D01*
X23500000Y4061606D01*
X23500000Y7061606D01*
X31374500Y7061606D01*
X31374500Y6938395D01*
X31398535Y6817555D01*
X31398537Y6817548D01*
X31445688Y6703715D01*
X31445689Y6703714D01*
X31514142Y6601267D01*
X31601267Y6514142D01*
X31703714Y6445689D01*
X31817548Y6398537D01*
X31938394Y6374500D01*
X32061606Y6374500D01*
X32182452Y6398537D01*
X32296286Y6445689D01*
X32398733Y6514142D01*
X32485858Y6601267D01*
X32554311Y6703714D01*
X32601463Y6817548D01*
X32625500Y6938394D01*
X32625500Y7061606D01*
X32601463Y7182452D01*
X32554311Y7296286D01*
X32485858Y7398733D01*
X32398733Y7485858D01*
X32296286Y7554311D01*
X32296287Y7554311D01*
X32296285Y7554312D01*
X32182452Y7601463D01*
X32182445Y7601465D01*
X32061606Y7625500D01*
X31938394Y7625500D01*
X31817554Y7601465D01*
X31817547Y7601463D01*
X31703714Y7554312D01*
X31601270Y7485861D01*
X31514139Y7398730D01*
X31445688Y7296286D01*
X31398537Y7182453D01*
X31398535Y7182446D01*
X31374500Y7061606D01*
X23500000Y7061606D01*
X23500000Y10061606D01*
X31374500Y10061606D01*
X31374500Y9938395D01*
X31398535Y9817555D01*
X31398537Y9817548D01*
X31445688Y9703715D01*
X31445689Y9703714D01*
X31514142Y9601267D01*
X31601267Y9514142D01*
X31703714Y9445689D01*
X31817548Y9398537D01*
X31938394Y9374500D01*
X32061606Y9374500D01*
X32182452Y9398537D01*
X32296286Y9445689D01*
X32398733Y9514142D01*
X32485858Y9601267D01*
X32554311Y9703714D01*
X32601463Y9817548D01*
X32625500Y9938394D01*
X32625500Y10061606D01*
X32601463Y10182452D01*
X32554311Y10296286D01*
X32485858Y10398733D01*
X32398733Y10485858D01*
X32296286Y10554311D01*
X32296287Y10554311D01*
X32296285Y10554312D01*
X32182452Y10601463D01*
X32182445Y10601465D01*
X32061606Y10625500D01*
X31938394Y10625500D01*
X31817554Y10601465D01*
X31817547Y10601463D01*
X31703714Y10554312D01*
X31601270Y10485861D01*
X31514139Y10398730D01*
X31445688Y10296286D01*
X31398537Y10182453D01*
X31398535Y10182446D01*
X31374500Y10061606D01*
X23500000Y10061606D01*
X23500000Y13000000D01*
X22574000Y13000000D01*
X22521674Y13021674D01*
X22505134Y13061606D01*
X26874500Y13061606D01*
X26874500Y12938395D01*
X26898535Y12817555D01*
X26898537Y12817548D01*
X26945688Y12703715D01*
X26945689Y12703714D01*
X27014142Y12601267D01*
X27101267Y12514142D01*
X27203714Y12445689D01*
X27317548Y12398537D01*
X27438394Y12374500D01*
X27561606Y12374500D01*
X27682452Y12398537D01*
X27796286Y12445689D01*
X27898733Y12514142D01*
X27985858Y12601267D01*
X28054311Y12703714D01*
X28101463Y12817548D01*
X28125500Y12938394D01*
X28125500Y13061606D01*
X28101463Y13182452D01*
X28054311Y13296286D01*
X27985858Y13398733D01*
X27939764Y13444827D01*
X27918091Y13497151D01*
X27939765Y13549477D01*
X27963773Y13565518D01*
X27983122Y13573533D01*
X27983121Y13573533D01*
X27983127Y13573535D01*
X28089669Y13644724D01*
X28180276Y13735331D01*
X28251465Y13841873D01*
X28300501Y13960256D01*
X28325500Y14085931D01*
X28325500Y14214069D01*
X28300501Y14339744D01*
X28251465Y14458127D01*
X28180276Y14564669D01*
X28089669Y14655276D01*
X28002570Y14713474D01*
X27971106Y14760563D01*
X27982155Y14816112D01*
X28002568Y14836526D01*
X28089669Y14894724D01*
X28180276Y14985331D01*
X28251465Y15091873D01*
X28300501Y15210256D01*
X28325500Y15335931D01*
X28325500Y15464069D01*
X28300501Y15589744D01*
X28251465Y15708127D01*
X28180276Y15814669D01*
X28089669Y15905276D01*
X27983127Y15976465D01*
X27983124Y15976467D01*
X27983123Y15976467D01*
X27864742Y16025502D01*
X27864739Y16025503D01*
X27774696Y16043414D01*
X27739069Y16050500D01*
X27610931Y16050500D01*
X27579726Y16044293D01*
X27485260Y16025503D01*
X27485257Y16025502D01*
X27366876Y15976467D01*
X27260331Y15905277D01*
X27260330Y15905275D01*
X27169725Y15814670D01*
X27169723Y15814669D01*
X27098533Y15708124D01*
X27049498Y15589743D01*
X27049497Y15589740D01*
X27024500Y15464068D01*
X27024500Y15335933D01*
X27049497Y15210261D01*
X27049498Y15210258D01*
X27059853Y15185258D01*
X27098535Y15091873D01*
X27169724Y14985331D01*
X27260331Y14894724D01*
X27347427Y14836528D01*
X27378893Y14789437D01*
X27367844Y14733888D01*
X27347428Y14713473D01*
X27314282Y14691325D01*
X27260331Y14655277D01*
X27260330Y14655275D01*
X27169725Y14564670D01*
X27169723Y14564669D01*
X27098533Y14458124D01*
X27049498Y14339743D01*
X27049497Y14339740D01*
X27024500Y14214068D01*
X27024500Y14085933D01*
X27049497Y13960261D01*
X27049498Y13960258D01*
X27049499Y13960256D01*
X27098535Y13841873D01*
X27146207Y13770527D01*
X27169723Y13735332D01*
X27169729Y13735325D01*
X27229368Y13675687D01*
X27251043Y13623362D01*
X27229369Y13571036D01*
X27206918Y13556033D01*
X27206922Y13556026D01*
X27206853Y13555990D01*
X27205367Y13554996D01*
X27203715Y13554312D01*
X27101270Y13485861D01*
X27014139Y13398730D01*
X26945688Y13296286D01*
X26898537Y13182453D01*
X26898535Y13182446D01*
X26874500Y13061606D01*
X22505134Y13061606D01*
X22500000Y13074000D01*
X22500000Y15439068D01*
X24924500Y15439068D01*
X24924500Y15310933D01*
X24949497Y15185261D01*
X24949498Y15185258D01*
X24988179Y15091873D01*
X24998535Y15066873D01*
X25046207Y14995527D01*
X25053019Y14985331D01*
X25069724Y14960331D01*
X25160331Y14869724D01*
X25266873Y14798535D01*
X25385256Y14749499D01*
X25385258Y14749499D01*
X25385260Y14749498D01*
X25427903Y14741016D01*
X25510931Y14724500D01*
X25510933Y14724500D01*
X25639067Y14724500D01*
X25639069Y14724500D01*
X25764744Y14749499D01*
X25883127Y14798535D01*
X25989669Y14869724D01*
X26080276Y14960331D01*
X26151465Y15066873D01*
X26200501Y15185256D01*
X26225500Y15310931D01*
X26225500Y15439069D01*
X26200501Y15564744D01*
X26151465Y15683127D01*
X26080276Y15789669D01*
X25989669Y15880276D01*
X25883127Y15951465D01*
X25883124Y15951467D01*
X25883123Y15951467D01*
X25764742Y16000502D01*
X25764739Y16000503D01*
X25674696Y16018414D01*
X25639069Y16025500D01*
X25510931Y16025500D01*
X25479726Y16019293D01*
X25385260Y16000503D01*
X25385257Y16000502D01*
X25266876Y15951467D01*
X25160331Y15880277D01*
X25160330Y15880275D01*
X25069725Y15789670D01*
X25069723Y15789669D01*
X24998533Y15683124D01*
X24949498Y15564743D01*
X24949497Y15564740D01*
X24924500Y15439068D01*
X22500000Y15439068D01*
X22500000Y17926000D01*
X22521674Y17978326D01*
X22574000Y18000000D01*
X23000000Y18000000D01*
X23000000Y18061606D01*
X26712000Y18061606D01*
X26712000Y17938395D01*
X26736035Y17817555D01*
X26736037Y17817548D01*
X26783188Y17703715D01*
X26783189Y17703714D01*
X26851642Y17601267D01*
X26938767Y17514142D01*
X27041214Y17445689D01*
X27155048Y17398537D01*
X27275894Y17374500D01*
X27399106Y17374500D01*
X27519952Y17398537D01*
X27633786Y17445689D01*
X27736233Y17514142D01*
X27823358Y17601267D01*
X27891811Y17703714D01*
X27938963Y17817548D01*
X27963000Y17938394D01*
X27963000Y18061606D01*
X27938963Y18182452D01*
X27891811Y18296286D01*
X27823358Y18398733D01*
X27736233Y18485858D01*
X27736229Y18485861D01*
X27633785Y18554312D01*
X27519952Y18601463D01*
X27519945Y18601465D01*
X27399106Y18625500D01*
X27275894Y18625500D01*
X27155054Y18601465D01*
X27155047Y18601463D01*
X27041214Y18554312D01*
X26938770Y18485861D01*
X26851639Y18398730D01*
X26783188Y18296286D01*
X26736037Y18182453D01*
X26736035Y18182446D01*
X26712000Y18061606D01*
X23000000Y18061606D01*
X23000000Y19864068D01*
X24799500Y19864068D01*
X24799500Y19735933D01*
X24824497Y19610261D01*
X24824498Y19610258D01*
X24869562Y19501463D01*
X24873535Y19491873D01*
X24898633Y19454311D01*
X24935256Y19399500D01*
X24944724Y19385331D01*
X25035331Y19294724D01*
X25141873Y19223535D01*
X25260256Y19174499D01*
X25260258Y19174499D01*
X25260260Y19174498D01*
X25302903Y19166016D01*
X25385931Y19149500D01*
X25385933Y19149500D01*
X25514067Y19149500D01*
X25514069Y19149500D01*
X25639744Y19174499D01*
X25758127Y19223535D01*
X25864669Y19294724D01*
X25955276Y19385331D01*
X26026465Y19491873D01*
X26075501Y19610256D01*
X26100500Y19735931D01*
X26100500Y19864069D01*
X26084216Y19945931D01*
X26075502Y19989740D01*
X26075501Y19989743D01*
X26026466Y20108124D01*
X26026465Y20108127D01*
X25955276Y20214669D01*
X25864669Y20305276D01*
X25758127Y20376465D01*
X25758124Y20376467D01*
X25758123Y20376467D01*
X25639742Y20425502D01*
X25639739Y20425503D01*
X25549696Y20443414D01*
X25514069Y20450500D01*
X25385931Y20450500D01*
X25354726Y20444293D01*
X25260260Y20425503D01*
X25260257Y20425502D01*
X25141876Y20376467D01*
X25035331Y20305277D01*
X25035330Y20305275D01*
X24944725Y20214670D01*
X24944723Y20214669D01*
X24873533Y20108124D01*
X24824498Y19989743D01*
X24824497Y19989740D01*
X24799500Y19864068D01*
X23000000Y19864068D01*
X23000000Y21426000D01*
X23021674Y21478326D01*
X23074000Y21500000D01*
X29500000Y21500000D01*
X29500000Y25426000D01*
X29521674Y25478326D01*
X29574000Y25500000D01*
X34476000Y25500000D01*
X34528326Y25478326D01*
G37*
%TD.AperFunction*%
%TD*%
%TA.AperFunction,Conductor*%
%TO.N,VBUS*%
G36*
X12977150Y17477814D02*
G01*
X12999982Y17425982D01*
X13000000Y17424338D01*
X13000000Y11250000D01*
X14926000Y11250000D01*
X14978326Y11228326D01*
X15000000Y11176000D01*
X15000000Y4500000D01*
X16926000Y4500000D01*
X16978326Y4478326D01*
X17000000Y4426000D01*
X17000000Y2574000D01*
X16978326Y2521674D01*
X16926000Y2500000D01*
X15000000Y2500000D01*
X2824000Y2500000D01*
X2771674Y2521674D01*
X2750000Y2574000D01*
X2750000Y7293080D01*
X6874500Y7293080D01*
X6874500Y5115921D01*
X6902214Y4940946D01*
X6902216Y4940935D01*
X6956956Y4772461D01*
X6956958Y4772457D01*
X7031786Y4625599D01*
X7037386Y4614610D01*
X7141517Y4471286D01*
X7266786Y4346017D01*
X7410110Y4241886D01*
X7562463Y4164258D01*
X7567956Y4161459D01*
X7567960Y4161457D01*
X7736434Y4106717D01*
X7736438Y4106717D01*
X7736445Y4106714D01*
X7887495Y4082790D01*
X7911420Y4079000D01*
X7911421Y4079000D01*
X8088580Y4079000D01*
X8109626Y4082334D01*
X8263555Y4106714D01*
X8263563Y4106717D01*
X8263565Y4106717D01*
X8432039Y4161457D01*
X8432039Y4161458D01*
X8432042Y4161458D01*
X8589890Y4241886D01*
X8733214Y4346017D01*
X8858483Y4471286D01*
X8962614Y4614610D01*
X9043042Y4772458D01*
X9097786Y4940945D01*
X9125500Y5115921D01*
X9125500Y7293079D01*
X9097786Y7468055D01*
X9097783Y7468062D01*
X9097783Y7468066D01*
X9043043Y7636540D01*
X9043041Y7636544D01*
X9040242Y7642037D01*
X8962614Y7794390D01*
X8858483Y7937714D01*
X8733214Y8062983D01*
X8733211Y8062986D01*
X8733209Y8062987D01*
X8589892Y8167113D01*
X8589886Y8167116D01*
X8432043Y8247542D01*
X8432039Y8247544D01*
X8263565Y8302284D01*
X8263556Y8302286D01*
X8263555Y8302286D01*
X8176067Y8316143D01*
X8088580Y8330000D01*
X8088579Y8330000D01*
X7911421Y8330000D01*
X7911420Y8330000D01*
X7736445Y8302286D01*
X7736434Y8302284D01*
X7567960Y8247544D01*
X7567956Y8247542D01*
X7410113Y8167116D01*
X7410107Y8167113D01*
X7266790Y8062987D01*
X7141513Y7937710D01*
X7037387Y7794393D01*
X7037384Y7794387D01*
X6956958Y7636544D01*
X6956956Y7636540D01*
X6902216Y7468066D01*
X6902214Y7468055D01*
X6874500Y7293080D01*
X2750000Y7293080D01*
X2750000Y15175769D01*
X7774500Y15175769D01*
X7774500Y15024232D01*
X7813717Y14877870D01*
X7813718Y14877867D01*
X7813719Y14877865D01*
X7889485Y14746635D01*
X7996635Y14639485D01*
X8127865Y14563719D01*
X8274231Y14524501D01*
X8274232Y14524500D01*
X8274234Y14524500D01*
X8425768Y14524500D01*
X8425768Y14524501D01*
X8572135Y14563719D01*
X8703365Y14639485D01*
X8810515Y14746635D01*
X8886281Y14877865D01*
X8925499Y15024232D01*
X8925500Y15024232D01*
X8925500Y15175768D01*
X8925499Y15175769D01*
X8886282Y15322131D01*
X8886281Y15322135D01*
X8810515Y15453365D01*
X8703365Y15560515D01*
X8629147Y15603365D01*
X8572139Y15636279D01*
X8572130Y15636283D01*
X8425768Y15675500D01*
X8425766Y15675500D01*
X8274234Y15675500D01*
X8274232Y15675500D01*
X8127869Y15636283D01*
X8127860Y15636279D01*
X7996637Y15560517D01*
X7889483Y15453363D01*
X7813721Y15322140D01*
X7813717Y15322131D01*
X7774500Y15175769D01*
X2750000Y15175769D01*
X2750000Y15975769D01*
X6674500Y15975769D01*
X6674500Y15824232D01*
X6713717Y15677870D01*
X6713721Y15677861D01*
X6781470Y15560517D01*
X6789485Y15546635D01*
X6896635Y15439485D01*
X7027865Y15363719D01*
X7174231Y15324501D01*
X7174232Y15324500D01*
X7174234Y15324500D01*
X7325768Y15324500D01*
X7325768Y15324501D01*
X7472135Y15363719D01*
X7603365Y15439485D01*
X7710515Y15546635D01*
X7786281Y15677865D01*
X7825499Y15824232D01*
X7825500Y15824232D01*
X7825500Y15975768D01*
X7825499Y15975769D01*
X7786282Y16122131D01*
X7786281Y16122135D01*
X7710515Y16253365D01*
X7603365Y16360515D01*
X7603362Y16360517D01*
X7472139Y16436279D01*
X7472130Y16436283D01*
X7325768Y16475500D01*
X7325766Y16475500D01*
X7174234Y16475500D01*
X7174232Y16475500D01*
X7027869Y16436283D01*
X7027860Y16436279D01*
X6896637Y16360517D01*
X6789483Y16253363D01*
X6713721Y16122140D01*
X6713717Y16122131D01*
X6674500Y15975769D01*
X2750000Y15975769D01*
X2750000Y17199848D01*
X2771674Y17252174D01*
X2822355Y17273830D01*
X4154579Y17303435D01*
X4207371Y17282930D01*
X4220307Y17266454D01*
X4228552Y17252174D01*
X4269480Y17181284D01*
X4381284Y17069480D01*
X4518216Y16990423D01*
X4670940Y16949501D01*
X4670941Y16949500D01*
X4670943Y16949500D01*
X4829059Y16949500D01*
X4829059Y16949501D01*
X4981784Y16990423D01*
X5118716Y17069480D01*
X5230520Y17181284D01*
X5295126Y17293188D01*
X5302409Y17298777D01*
X5305735Y17307337D01*
X5324120Y17315436D01*
X5340057Y17327665D01*
X5357557Y17330168D01*
X5388744Y17330861D01*
X5441537Y17310356D01*
X5454473Y17293880D01*
X5478552Y17252174D01*
X5519480Y17181284D01*
X5631284Y17069480D01*
X5768216Y16990423D01*
X5920940Y16949501D01*
X5920941Y16949500D01*
X5920943Y16949500D01*
X6079059Y16949500D01*
X6079059Y16949501D01*
X6231784Y16990423D01*
X6368716Y17069480D01*
X6480520Y17181284D01*
X6559577Y17318216D01*
X6559577Y17318218D01*
X6561371Y17321324D01*
X6606304Y17355803D01*
X6623811Y17358307D01*
X12924358Y17498320D01*
X12977150Y17477814D01*
G37*
%TD.AperFunction*%
%TD*%
%TA.AperFunction,Conductor*%
%TO.N,+3V3*%
G36*
X62978326Y37978326D02*
G01*
X63000000Y37926000D01*
X63000000Y30874000D01*
X62978326Y30821674D01*
X62926000Y30800000D01*
X53424500Y30800000D01*
X53372174Y30821674D01*
X53350500Y30874000D01*
X53350500Y30948917D01*
X53349546Y30953711D01*
X53321658Y31093913D01*
X53265084Y31230495D01*
X53182951Y31353416D01*
X53078416Y31457951D01*
X53071640Y31462479D01*
X52955494Y31540085D01*
X52818917Y31596657D01*
X52818907Y31596660D01*
X52721811Y31615974D01*
X52673918Y31625500D01*
X52526082Y31625500D01*
X52484977Y31617324D01*
X52381092Y31596660D01*
X52381082Y31596657D01*
X52244505Y31540085D01*
X52121584Y31457952D01*
X52121583Y31457950D01*
X52017050Y31353417D01*
X52017048Y31353416D01*
X51934915Y31230495D01*
X51878343Y31093918D01*
X51878340Y31093908D01*
X51854350Y30973299D01*
X51849500Y30948918D01*
X51849500Y30801082D01*
X51859026Y30753189D01*
X51878340Y30656093D01*
X51878343Y30656083D01*
X51934914Y30519508D01*
X51934915Y30519506D01*
X51934916Y30519505D01*
X51937850Y30515114D01*
X51948902Y30459566D01*
X51917438Y30412473D01*
X51876323Y30400000D01*
X51400000Y30400000D01*
X51400000Y29200000D01*
X52079663Y29200000D01*
X52131989Y29178326D01*
X52153663Y29126000D01*
X52141192Y29084888D01*
X52134915Y29075495D01*
X52078343Y28938918D01*
X52078340Y28938908D01*
X52056388Y28828547D01*
X52049500Y28793918D01*
X52049500Y28646082D01*
X52055502Y28615910D01*
X52078340Y28501093D01*
X52078343Y28501083D01*
X52134915Y28364506D01*
X52206702Y28257070D01*
X52217049Y28241584D01*
X52321584Y28137049D01*
X52444505Y28054916D01*
X52581087Y27998342D01*
X52726082Y27969500D01*
X52726084Y27969500D01*
X52873916Y27969500D01*
X52873918Y27969500D01*
X53018913Y27998342D01*
X53155495Y28054916D01*
X53278416Y28137049D01*
X53319693Y28178326D01*
X53372019Y28200000D01*
X53400000Y28200000D01*
X54792602Y28200000D01*
X54844928Y28178326D01*
X54866602Y28126000D01*
X54860969Y28097682D01*
X54828343Y28018918D01*
X54828340Y28018908D01*
X54799500Y27873917D01*
X54799500Y27726083D01*
X54814629Y27650022D01*
X54803580Y27594474D01*
X54770370Y27567219D01*
X54644504Y27515084D01*
X54521584Y27432952D01*
X54521583Y27432950D01*
X54417050Y27328417D01*
X54417048Y27328416D01*
X54334915Y27205495D01*
X54278343Y27068918D01*
X54278340Y27068908D01*
X54263278Y26993185D01*
X54249500Y26923918D01*
X54249500Y26776082D01*
X54259026Y26728189D01*
X54278340Y26631093D01*
X54278343Y26631083D01*
X54334915Y26494506D01*
X54417048Y26371585D01*
X54521584Y26267049D01*
X54644505Y26184916D01*
X54761466Y26136469D01*
X54781087Y26128342D01*
X54926082Y26099500D01*
X54926084Y26099500D01*
X55073916Y26099500D01*
X55073918Y26099500D01*
X55218913Y26128342D01*
X55355495Y26184916D01*
X55478416Y26267049D01*
X55582951Y26371584D01*
X55665084Y26494505D01*
X55721658Y26631087D01*
X55750500Y26776082D01*
X55750500Y26923918D01*
X55735370Y26999979D01*
X55746419Y27055527D01*
X55779627Y27082781D01*
X55905495Y27134916D01*
X56028416Y27217049D01*
X56132951Y27321584D01*
X56215084Y27444505D01*
X56271658Y27581087D01*
X56300500Y27726082D01*
X56300500Y27873918D01*
X56271658Y28018913D01*
X56261710Y28042929D01*
X56239031Y28097682D01*
X56239031Y28154319D01*
X56279080Y28194367D01*
X56307398Y28200000D01*
X56792602Y28200000D01*
X56844928Y28178326D01*
X56866602Y28126000D01*
X56860969Y28097682D01*
X56828343Y28018918D01*
X56828340Y28018908D01*
X56799500Y27873917D01*
X56799500Y27726083D01*
X56814629Y27650022D01*
X56803580Y27594474D01*
X56770370Y27567219D01*
X56644504Y27515084D01*
X56521584Y27432952D01*
X56521583Y27432950D01*
X56417050Y27328417D01*
X56417048Y27328416D01*
X56334915Y27205495D01*
X56278343Y27068918D01*
X56278340Y27068908D01*
X56263278Y26993185D01*
X56249500Y26923918D01*
X56249500Y26776082D01*
X56259026Y26728189D01*
X56278340Y26631093D01*
X56278343Y26631083D01*
X56334915Y26494506D01*
X56417048Y26371585D01*
X56521584Y26267049D01*
X56644505Y26184916D01*
X56761466Y26136469D01*
X56781087Y26128342D01*
X56926082Y26099500D01*
X56926084Y26099500D01*
X57073916Y26099500D01*
X57073918Y26099500D01*
X57218913Y26128342D01*
X57355495Y26184916D01*
X57478416Y26267049D01*
X57582951Y26371584D01*
X57665084Y26494505D01*
X57721658Y26631087D01*
X57750500Y26776082D01*
X57750500Y26923918D01*
X58249500Y26923918D01*
X58249500Y26776082D01*
X58259026Y26728189D01*
X58278340Y26631093D01*
X58278343Y26631083D01*
X58334915Y26494506D01*
X58417048Y26371585D01*
X58521584Y26267049D01*
X58644505Y26184916D01*
X58761466Y26136469D01*
X58781087Y26128342D01*
X58926082Y26099500D01*
X58926084Y26099500D01*
X59073916Y26099500D01*
X59073918Y26099500D01*
X59218913Y26128342D01*
X59355495Y26184916D01*
X59478416Y26267049D01*
X59582951Y26371584D01*
X59665084Y26494505D01*
X59721658Y26631087D01*
X59750500Y26776082D01*
X59750500Y26923918D01*
X59721658Y27068913D01*
X59720605Y27071454D01*
X59665084Y27205495D01*
X59582951Y27328416D01*
X59478415Y27432952D01*
X59355494Y27515085D01*
X59218917Y27571657D01*
X59218907Y27571660D01*
X59121811Y27590974D01*
X59073918Y27600500D01*
X58926082Y27600500D01*
X58884977Y27592324D01*
X58781092Y27571660D01*
X58781082Y27571657D01*
X58644505Y27515085D01*
X58521584Y27432952D01*
X58521583Y27432950D01*
X58417050Y27328417D01*
X58417048Y27328416D01*
X58334915Y27205495D01*
X58278343Y27068918D01*
X58278340Y27068908D01*
X58263278Y26993185D01*
X58249500Y26923918D01*
X57750500Y26923918D01*
X57735301Y27000323D01*
X57735256Y27000563D01*
X57740949Y27028031D01*
X57746419Y27055527D01*
X57746696Y27055756D01*
X57746752Y27056021D01*
X57748097Y27056905D01*
X57779627Y27082781D01*
X57905495Y27134916D01*
X58028416Y27217049D01*
X58132951Y27321584D01*
X58215084Y27444505D01*
X58271658Y27581087D01*
X58300500Y27726082D01*
X58300500Y27873918D01*
X58271658Y28018913D01*
X58261710Y28042929D01*
X58239031Y28097682D01*
X58239031Y28154319D01*
X58279080Y28194367D01*
X58307398Y28200000D01*
X61292602Y28200000D01*
X61344928Y28178326D01*
X61366602Y28126000D01*
X61360969Y28097682D01*
X61328343Y28018918D01*
X61328340Y28018908D01*
X61310366Y27928545D01*
X61299500Y27873918D01*
X61299500Y27726082D01*
X61305162Y27697619D01*
X61313278Y27656816D01*
X61302229Y27601267D01*
X61255137Y27569801D01*
X61222567Y27571401D01*
X61222478Y27570949D01*
X61219433Y27571555D01*
X61219222Y27571565D01*
X61218918Y27571658D01*
X61115345Y27592260D01*
X61073918Y27600500D01*
X60926082Y27600500D01*
X60884977Y27592324D01*
X60781092Y27571660D01*
X60781082Y27571657D01*
X60644505Y27515085D01*
X60521584Y27432952D01*
X60521583Y27432950D01*
X60417050Y27328417D01*
X60417048Y27328416D01*
X60334915Y27205495D01*
X60278343Y27068918D01*
X60278340Y27068908D01*
X60263278Y26993185D01*
X60249500Y26923918D01*
X60249500Y26776082D01*
X60259026Y26728189D01*
X60278340Y26631093D01*
X60278343Y26631083D01*
X60334915Y26494506D01*
X60417048Y26371585D01*
X60521584Y26267049D01*
X60644505Y26184916D01*
X60761466Y26136469D01*
X60781087Y26128342D01*
X60926082Y26099500D01*
X60926084Y26099500D01*
X61073916Y26099500D01*
X61073918Y26099500D01*
X61218913Y26128342D01*
X61355495Y26184916D01*
X61478416Y26267049D01*
X61582951Y26371584D01*
X61665084Y26494505D01*
X61721658Y26631087D01*
X61750500Y26776082D01*
X61750500Y26923918D01*
X61736721Y26993187D01*
X61747770Y27048734D01*
X61794862Y27080200D01*
X61827431Y27078599D01*
X61827522Y27079051D01*
X61830576Y27078444D01*
X61830789Y27078433D01*
X61831079Y27078346D01*
X61831087Y27078342D01*
X61976082Y27049500D01*
X61976084Y27049500D01*
X62123916Y27049500D01*
X62123918Y27049500D01*
X62268913Y27078342D01*
X62405495Y27134916D01*
X62528416Y27217049D01*
X62632951Y27321584D01*
X62715084Y27444505D01*
X62771658Y27581087D01*
X62800500Y27726082D01*
X62800500Y27873918D01*
X62771658Y28018913D01*
X62761710Y28042929D01*
X62739031Y28097682D01*
X62739031Y28154319D01*
X62779080Y28194367D01*
X62807398Y28200000D01*
X62926000Y28200000D01*
X62978326Y28178326D01*
X63000000Y28126000D01*
X63000000Y1074000D01*
X62978326Y1021674D01*
X62926000Y1000000D01*
X13045064Y1000000D01*
X12992738Y1021674D01*
X12971064Y1074000D01*
X12974686Y1096868D01*
X13023400Y1246793D01*
X13023399Y1246793D01*
X13023402Y1246799D01*
X13050500Y1417889D01*
X13050500Y1591111D01*
X13023402Y1762201D01*
X13023400Y1762206D01*
X13023399Y1762212D01*
X12969874Y1926943D01*
X12969868Y1926957D01*
X12939323Y1986905D01*
X12934879Y2043367D01*
X12971662Y2086434D01*
X13005257Y2094500D01*
X16925998Y2094500D01*
X16926000Y2094500D01*
X16957814Y2095750D01*
X17081177Y2125366D01*
X17133503Y2147040D01*
X17190200Y2175929D01*
X17286671Y2258324D01*
X17352960Y2366497D01*
X17374634Y2418823D01*
X17385653Y2448694D01*
X17405500Y2574000D01*
X17405500Y4426000D01*
X17404250Y4457814D01*
X17374634Y4581177D01*
X17352960Y4633503D01*
X17324071Y4690200D01*
X17295305Y4723880D01*
X17241678Y4786670D01*
X17241675Y4786672D01*
X17133509Y4852957D01*
X17133499Y4852962D01*
X17081171Y4874637D01*
X17051313Y4885651D01*
X17051309Y4885652D01*
X17051306Y4885653D01*
X16967768Y4898885D01*
X16926001Y4905500D01*
X16926000Y4905500D01*
X15479500Y4905500D01*
X15427174Y4927174D01*
X15405500Y4979500D01*
X15405500Y11175998D01*
X15405047Y11187522D01*
X15404250Y11207814D01*
X15374634Y11331177D01*
X15352960Y11383503D01*
X15324071Y11440200D01*
X15280430Y11491297D01*
X15241678Y11536670D01*
X15241675Y11536672D01*
X15133509Y11602957D01*
X15133499Y11602962D01*
X15081171Y11624637D01*
X15051313Y11635651D01*
X15051309Y11635652D01*
X15051306Y11635653D01*
X14967768Y11648885D01*
X14926001Y11655500D01*
X14926000Y11655500D01*
X13479500Y11655500D01*
X13427174Y11677174D01*
X13405500Y11729500D01*
X13405500Y14496673D01*
X13427174Y14548999D01*
X13479500Y14570673D01*
X13507818Y14565040D01*
X13538375Y14552383D01*
X13538380Y14552381D01*
X13678545Y14524500D01*
X13678547Y14524500D01*
X13821453Y14524500D01*
X13821455Y14524500D01*
X13961620Y14552381D01*
X14093653Y14607071D01*
X14212479Y14686468D01*
X14313532Y14787521D01*
X14313532Y14787523D01*
X14315837Y14790330D01*
X14316723Y14789603D01*
X14360562Y14818896D01*
X14416111Y14807848D01*
X14433869Y14790090D01*
X14434163Y14790330D01*
X14436467Y14787523D01*
X14436468Y14787521D01*
X14537521Y14686468D01*
X14656347Y14607071D01*
X14788380Y14552381D01*
X14928545Y14524500D01*
X14928547Y14524500D01*
X15071453Y14524500D01*
X15071455Y14524500D01*
X15211620Y14552381D01*
X15343653Y14607071D01*
X15462479Y14686468D01*
X15563532Y14787521D01*
X15642929Y14906347D01*
X15697619Y15038380D01*
X15725500Y15178545D01*
X15725500Y15321455D01*
X15697619Y15461620D01*
X15642929Y15593653D01*
X15563532Y15712479D01*
X15462479Y15813532D01*
X15457215Y15817049D01*
X15423226Y15839760D01*
X15343653Y15892929D01*
X15343650Y15892931D01*
X15343649Y15892931D01*
X15211620Y15947619D01*
X15211614Y15947621D01*
X15117752Y15966291D01*
X15071455Y15975500D01*
X14928545Y15975500D01*
X14888810Y15967597D01*
X14788385Y15947621D01*
X14788379Y15947619D01*
X14656350Y15892931D01*
X14537521Y15813533D01*
X14537520Y15813532D01*
X14436466Y15712477D01*
X14434158Y15709664D01*
X14433271Y15710392D01*
X14389427Y15681103D01*
X14333880Y15692160D01*
X14316135Y15709905D01*
X14315842Y15709664D01*
X14313533Y15712477D01*
X14313532Y15712479D01*
X14212479Y15813532D01*
X14207215Y15817049D01*
X14173226Y15839760D01*
X14093653Y15892929D01*
X14093650Y15892931D01*
X14093649Y15892931D01*
X13961620Y15947619D01*
X13961614Y15947621D01*
X13867752Y15966291D01*
X13821455Y15975500D01*
X13678545Y15975500D01*
X13638810Y15967597D01*
X13538385Y15947621D01*
X13538375Y15947618D01*
X13507818Y15934960D01*
X13451181Y15934960D01*
X13411133Y15975009D01*
X13405500Y16003327D01*
X13405500Y16246673D01*
X13427174Y16298999D01*
X13479500Y16320673D01*
X13507818Y16315040D01*
X13538375Y16302383D01*
X13538380Y16302381D01*
X13678545Y16274500D01*
X13678547Y16274500D01*
X13821453Y16274500D01*
X13821455Y16274500D01*
X13961620Y16302381D01*
X14093653Y16357071D01*
X14212479Y16436468D01*
X14313532Y16537521D01*
X14313532Y16537523D01*
X14315837Y16540330D01*
X14316723Y16539603D01*
X14360562Y16568896D01*
X14416111Y16557848D01*
X14433869Y16540090D01*
X14434163Y16540330D01*
X14436467Y16537523D01*
X14436468Y16537521D01*
X14537521Y16436468D01*
X14656347Y16357071D01*
X14788380Y16302381D01*
X14928545Y16274500D01*
X14928547Y16274500D01*
X15071453Y16274500D01*
X15071455Y16274500D01*
X15211620Y16302381D01*
X15343653Y16357071D01*
X15462479Y16436468D01*
X15563532Y16537521D01*
X15642929Y16656347D01*
X15697619Y16788380D01*
X15725500Y16928545D01*
X15725500Y17071455D01*
X15697619Y17211620D01*
X15642929Y17343653D01*
X15563532Y17462479D01*
X15462479Y17563532D01*
X15343653Y17642929D01*
X15343650Y17642931D01*
X15343649Y17642931D01*
X15211620Y17697619D01*
X15211614Y17697621D01*
X15113774Y17717082D01*
X15071455Y17725500D01*
X14928545Y17725500D01*
X14888810Y17717597D01*
X14788385Y17697621D01*
X14788379Y17697619D01*
X14656350Y17642931D01*
X14537521Y17563533D01*
X14537520Y17563532D01*
X14436466Y17462477D01*
X14434158Y17459664D01*
X14433271Y17460392D01*
X14389427Y17431103D01*
X14333880Y17442160D01*
X14316135Y17459905D01*
X14315842Y17459664D01*
X14313533Y17462477D01*
X14313532Y17462479D01*
X14212479Y17563532D01*
X14093653Y17642929D01*
X14093650Y17642931D01*
X14093649Y17642931D01*
X13961620Y17697619D01*
X13961614Y17697621D01*
X13863774Y17717082D01*
X13821455Y17725500D01*
X13678545Y17725500D01*
X13638810Y17717597D01*
X13538385Y17697621D01*
X13538375Y17697618D01*
X13419906Y17648546D01*
X13363269Y17648546D01*
X13326416Y17681861D01*
X13318106Y17697312D01*
X13233590Y17791930D01*
X13123971Y17855800D01*
X13123970Y17855801D01*
X13123969Y17855801D01*
X13071182Y17876305D01*
X13062621Y17879249D01*
X13041065Y17886662D01*
X13009636Y17890927D01*
X12915352Y17903720D01*
X12915349Y17903720D01*
X12762252Y17900318D01*
X10891296Y17858742D01*
X10838501Y17879249D01*
X10815670Y17931080D01*
X10836177Y17983875D01*
X10852647Y17996807D01*
X10891964Y18019505D01*
X11780495Y18908036D01*
X11843095Y19016464D01*
X11875499Y19137397D01*
X11875500Y19137397D01*
X11875500Y23771454D01*
X19674500Y23771454D01*
X19674500Y23628547D01*
X19702379Y23488386D01*
X19702381Y23488380D01*
X19757071Y23356347D01*
X19836468Y23237521D01*
X19937521Y23136468D01*
X20056347Y23057071D01*
X20188380Y23002381D01*
X20328545Y22974500D01*
X20328547Y22974500D01*
X20471453Y22974500D01*
X20471455Y22974500D01*
X20611620Y23002381D01*
X20743653Y23057071D01*
X20862479Y23136468D01*
X20963532Y23237521D01*
X21042929Y23356347D01*
X21097619Y23488380D01*
X21125500Y23628545D01*
X21125500Y23771455D01*
X21097619Y23911620D01*
X21042929Y24043653D01*
X20963532Y24162479D01*
X20862479Y24263532D01*
X20857215Y24267049D01*
X20823226Y24289760D01*
X20743653Y24342929D01*
X20743650Y24342931D01*
X20743649Y24342931D01*
X20611620Y24397619D01*
X20611614Y24397621D01*
X20517752Y24416291D01*
X20471455Y24425500D01*
X20328545Y24425500D01*
X20288810Y24417597D01*
X20188385Y24397621D01*
X20188379Y24397619D01*
X20056350Y24342931D01*
X19937521Y24263533D01*
X19937520Y24263531D01*
X19836469Y24162480D01*
X19836467Y24162479D01*
X19757069Y24043650D01*
X19702381Y23911621D01*
X19702379Y23911615D01*
X19674500Y23771454D01*
X11875500Y23771454D01*
X11875500Y25172389D01*
X11897174Y25224715D01*
X12175285Y25502826D01*
X12227611Y25524500D01*
X22520500Y25524500D01*
X22572826Y25502826D01*
X22594500Y25450500D01*
X22594500Y21879500D01*
X22595750Y21847686D01*
X22604410Y21811615D01*
X22625366Y21724323D01*
X22643282Y21681070D01*
X22643282Y21624433D01*
X22625367Y21581182D01*
X22614349Y21551314D01*
X22614347Y21551305D01*
X22594500Y21426001D01*
X22594500Y20794370D01*
X22572826Y20742044D01*
X22520500Y20720370D01*
X22468174Y20742044D01*
X22452133Y20766051D01*
X22438278Y20799500D01*
X22415084Y20855495D01*
X22332951Y20978416D01*
X22228416Y21082951D01*
X22201412Y21100995D01*
X22105494Y21165085D01*
X21968917Y21221657D01*
X21968907Y21221660D01*
X21871811Y21240974D01*
X21823918Y21250500D01*
X21676082Y21250500D01*
X21634977Y21242324D01*
X21531092Y21221660D01*
X21531082Y21221657D01*
X21394505Y21165085D01*
X21271584Y21082952D01*
X21271583Y21082950D01*
X21167050Y20978417D01*
X21167048Y20978416D01*
X21084915Y20855495D01*
X21028343Y20718918D01*
X21028340Y20718908D01*
X20999500Y20573917D01*
X20999500Y20426084D01*
X21028340Y20281093D01*
X21028343Y20281083D01*
X21084915Y20144506D01*
X21162398Y20028545D01*
X21167049Y20021584D01*
X21271584Y19917049D01*
X21394505Y19834916D01*
X21434458Y19818367D01*
X21474506Y19778319D01*
X21474506Y19721681D01*
X21434458Y19681633D01*
X21394504Y19665084D01*
X21271584Y19582952D01*
X21271583Y19582950D01*
X21167050Y19478417D01*
X21167048Y19478416D01*
X21084915Y19355495D01*
X21028343Y19218918D01*
X21028340Y19218908D01*
X21006998Y19111614D01*
X20999500Y19073918D01*
X20999500Y18926082D01*
X21003090Y18908036D01*
X21028340Y18781093D01*
X21028343Y18781083D01*
X21084915Y18644506D01*
X21084916Y18644505D01*
X21167049Y18521584D01*
X21271584Y18417049D01*
X21394505Y18334916D01*
X21531087Y18278342D01*
X21676082Y18249500D01*
X21676084Y18249500D01*
X21823916Y18249500D01*
X21823918Y18249500D01*
X21968913Y18278342D01*
X22105495Y18334916D01*
X22105498Y18334919D01*
X22108703Y18336630D01*
X22109468Y18335199D01*
X22159959Y18345249D01*
X22207055Y18313790D01*
X22218112Y18258242D01*
X22208627Y18234004D01*
X22147043Y18133510D01*
X22147038Y18133500D01*
X22125363Y18081172D01*
X22114349Y18051314D01*
X22114347Y18051309D01*
X22114347Y18051306D01*
X22109653Y18021670D01*
X22109653Y18021669D01*
X22094500Y17926001D01*
X22094500Y13649500D01*
X22072826Y13597174D01*
X22020500Y13575500D01*
X21263671Y13575500D01*
X21211345Y13597174D01*
X21189671Y13649500D01*
X21195304Y13677819D01*
X21196658Y13681087D01*
X21225500Y13826082D01*
X21225500Y13973918D01*
X21196658Y14118913D01*
X21140084Y14255495D01*
X21057951Y14378416D01*
X20963693Y14472674D01*
X20942019Y14525000D01*
X20963693Y14577326D01*
X21057950Y14671583D01*
X21057951Y14671584D01*
X21140084Y14794505D01*
X21196658Y14931087D01*
X21225500Y15076082D01*
X21225500Y15223918D01*
X21196658Y15368913D01*
X21176719Y15417049D01*
X21140084Y15505495D01*
X21057951Y15628416D01*
X20963693Y15722674D01*
X20942019Y15775000D01*
X20963693Y15827326D01*
X21057950Y15921583D01*
X21057951Y15921584D01*
X21140084Y16044505D01*
X21196658Y16181087D01*
X21225500Y16326082D01*
X21225500Y16473918D01*
X21196658Y16618913D01*
X21140084Y16755495D01*
X21057951Y16878416D01*
X20963693Y16972674D01*
X20942019Y17025000D01*
X20963693Y17077326D01*
X21057950Y17171583D01*
X21057951Y17171584D01*
X21140084Y17294505D01*
X21196658Y17431087D01*
X21225500Y17576082D01*
X21225500Y17723918D01*
X21196658Y17868913D01*
X21182240Y17903720D01*
X21140084Y18005495D01*
X21057951Y18128416D01*
X20953415Y18232952D01*
X20830494Y18315085D01*
X20693917Y18371657D01*
X20693907Y18371660D01*
X20596811Y18390974D01*
X20548918Y18400500D01*
X20401082Y18400500D01*
X20359977Y18392324D01*
X20256092Y18371660D01*
X20256082Y18371657D01*
X20119505Y18315085D01*
X19996584Y18232952D01*
X19996583Y18232950D01*
X19892050Y18128417D01*
X19892048Y18128416D01*
X19809915Y18005495D01*
X19753343Y17868918D01*
X19753340Y17868908D01*
X19737255Y17788042D01*
X19724500Y17723918D01*
X19724500Y17576082D01*
X19734026Y17528189D01*
X19753340Y17431093D01*
X19753343Y17431083D01*
X19809915Y17294506D01*
X19892048Y17171585D01*
X19986307Y17077326D01*
X20007981Y17025000D01*
X19986307Y16972674D01*
X19892050Y16878417D01*
X19892048Y16878416D01*
X19809915Y16755495D01*
X19753343Y16618918D01*
X19753340Y16618908D01*
X19729263Y16497865D01*
X19724500Y16473918D01*
X19724500Y16326082D01*
X19729215Y16302381D01*
X19753340Y16181093D01*
X19753343Y16181083D01*
X19809915Y16044506D01*
X19892048Y15921585D01*
X19986307Y15827326D01*
X20007981Y15775000D01*
X19986307Y15722674D01*
X19892050Y15628417D01*
X19892048Y15628416D01*
X19809915Y15505495D01*
X19753343Y15368918D01*
X19753340Y15368908D01*
X19724500Y15223917D01*
X19724500Y15076084D01*
X19753340Y14931093D01*
X19753343Y14931083D01*
X19809915Y14794506D01*
X19892048Y14671585D01*
X19986307Y14577326D01*
X20007981Y14525000D01*
X19986307Y14472674D01*
X19892050Y14378417D01*
X19892048Y14378416D01*
X19809915Y14255495D01*
X19753343Y14118918D01*
X19753340Y14118908D01*
X19724500Y13973917D01*
X19724500Y13826084D01*
X19753340Y13681093D01*
X19753342Y13681087D01*
X19754696Y13677819D01*
X19754696Y13621181D01*
X19714648Y13581133D01*
X19686329Y13575500D01*
X18366519Y13575500D01*
X18314193Y13597174D01*
X18253415Y13657952D01*
X18130494Y13740085D01*
X17993917Y13796657D01*
X17993907Y13796660D01*
X17896811Y13815974D01*
X17848918Y13825500D01*
X17701082Y13825500D01*
X17659977Y13817324D01*
X17556092Y13796660D01*
X17556082Y13796657D01*
X17419505Y13740085D01*
X17296584Y13657952D01*
X17296583Y13657950D01*
X17192050Y13553417D01*
X17192048Y13553416D01*
X17109915Y13430495D01*
X17053343Y13293918D01*
X17053340Y13293908D01*
X17024500Y13148917D01*
X17024500Y13074500D01*
X17002826Y13022174D01*
X16950500Y13000500D01*
X16876082Y13000500D01*
X16834977Y12992324D01*
X16731092Y12971660D01*
X16731082Y12971657D01*
X16594505Y12915085D01*
X16471584Y12832952D01*
X16471583Y12832950D01*
X16367050Y12728417D01*
X16367048Y12728416D01*
X16284915Y12605495D01*
X16228343Y12468918D01*
X16228340Y12468908D01*
X16199500Y12323917D01*
X16199500Y12176084D01*
X16228340Y12031093D01*
X16228343Y12031083D01*
X16284915Y11894506D01*
X16367048Y11771585D01*
X16471584Y11667049D01*
X16594505Y11584916D01*
X16710976Y11536672D01*
X16731087Y11528342D01*
X16876082Y11499500D01*
X16876084Y11499500D01*
X17023915Y11499500D01*
X17023918Y11499500D01*
X17038218Y11502345D01*
X17093765Y11491297D01*
X17125232Y11444205D01*
X17114184Y11388656D01*
X17104980Y11377441D01*
X16799714Y11072174D01*
X16747388Y11050500D01*
X16626082Y11050500D01*
X16584977Y11042324D01*
X16481092Y11021660D01*
X16481082Y11021657D01*
X16344505Y10965085D01*
X16221584Y10882952D01*
X16221583Y10882950D01*
X16117050Y10778417D01*
X16117048Y10778416D01*
X16034915Y10655495D01*
X15978343Y10518918D01*
X15978340Y10518908D01*
X15949500Y10373917D01*
X15949500Y10226084D01*
X15978340Y10081093D01*
X15978343Y10081083D01*
X16034915Y9944506D01*
X16117048Y9821585D01*
X16221584Y9717049D01*
X16346887Y9633324D01*
X16378353Y9586232D01*
X16367304Y9530683D01*
X16358102Y9519470D01*
X16317048Y9478416D01*
X16234915Y9355495D01*
X16178343Y9218918D01*
X16178340Y9218908D01*
X16149500Y9073917D01*
X16149500Y8926084D01*
X16178340Y8781093D01*
X16178343Y8781083D01*
X16234915Y8644506D01*
X16234916Y8644505D01*
X16317049Y8521584D01*
X16421584Y8417049D01*
X16544505Y8334916D01*
X16681087Y8278342D01*
X16826082Y8249500D01*
X16826084Y8249500D01*
X16973916Y8249500D01*
X16973918Y8249500D01*
X17118913Y8278342D01*
X17255495Y8334916D01*
X17378416Y8417049D01*
X17482951Y8521584D01*
X17565084Y8644505D01*
X17621658Y8781087D01*
X17650500Y8926082D01*
X17650500Y9073918D01*
X17621658Y9218913D01*
X17608988Y9249500D01*
X17565084Y9355495D01*
X17482951Y9478416D01*
X17378415Y9582952D01*
X17253112Y9666677D01*
X17221646Y9713770D01*
X17232695Y9769318D01*
X17241894Y9780528D01*
X17282951Y9821584D01*
X17365084Y9944505D01*
X17421658Y10081087D01*
X17450500Y10226082D01*
X17450500Y10347390D01*
X17472174Y10399716D01*
X18875285Y11802826D01*
X18927611Y11824500D01*
X23020500Y11824500D01*
X23072826Y11802826D01*
X23094500Y11750500D01*
X23094500Y10021670D01*
X23094500Y7021670D01*
X23094500Y4021670D01*
X23094500Y2424000D01*
X23095750Y2392186D01*
X23123613Y2276127D01*
X23125366Y2268823D01*
X23147040Y2216496D01*
X23147041Y2216494D01*
X23175928Y2159802D01*
X23175930Y2159799D01*
X23258321Y2063331D01*
X23258324Y2063329D01*
X23361666Y2000000D01*
X23366497Y1997040D01*
X23410202Y1978937D01*
X23418828Y1975364D01*
X23441544Y1966985D01*
X23448694Y1964347D01*
X23558926Y1946888D01*
X23573999Y1944500D01*
X23574000Y1944500D01*
X35757188Y1944500D01*
X35757189Y1944500D01*
X35836298Y1952292D01*
X35864617Y1957925D01*
X35969601Y1994330D01*
X36022570Y2032816D01*
X36077642Y2046038D01*
X36094376Y2041319D01*
X36188380Y2002381D01*
X36328545Y1974500D01*
X36328547Y1974500D01*
X36471453Y1974500D01*
X36471455Y1974500D01*
X36611620Y2002381D01*
X36705056Y2041084D01*
X36761692Y2041084D01*
X36772037Y2035813D01*
X36835308Y1997040D01*
X36879013Y1978937D01*
X36887639Y1975364D01*
X36910355Y1966985D01*
X36917505Y1964347D01*
X37027737Y1946888D01*
X37042810Y1944500D01*
X37042811Y1944500D01*
X37357188Y1944500D01*
X37357189Y1944500D01*
X37436298Y1952292D01*
X37464617Y1957925D01*
X37569601Y1994330D01*
X37622570Y2032816D01*
X37677642Y2046038D01*
X37694376Y2041319D01*
X37788380Y2002381D01*
X37928545Y1974500D01*
X37928547Y1974500D01*
X38071453Y1974500D01*
X38071455Y1974500D01*
X38211620Y2002381D01*
X38305056Y2041084D01*
X38361692Y2041084D01*
X38372037Y2035813D01*
X38435308Y1997040D01*
X38479013Y1978937D01*
X38487639Y1975364D01*
X38510355Y1966985D01*
X38517505Y1964347D01*
X38627737Y1946888D01*
X38642810Y1944500D01*
X38642811Y1944500D01*
X42957188Y1944500D01*
X42957189Y1944500D01*
X43036298Y1952292D01*
X43064617Y1957925D01*
X43169601Y1994330D01*
X43222570Y2032816D01*
X43277642Y2046038D01*
X43294376Y2041319D01*
X43388380Y2002381D01*
X43528545Y1974500D01*
X43528547Y1974500D01*
X43671453Y1974500D01*
X43671455Y1974500D01*
X43811620Y2002381D01*
X43905056Y2041084D01*
X43961692Y2041084D01*
X43972037Y2035813D01*
X44035308Y1997040D01*
X44079013Y1978937D01*
X44087639Y1975364D01*
X44110355Y1966985D01*
X44117505Y1964347D01*
X44227737Y1946888D01*
X44242810Y1944500D01*
X44242811Y1944500D01*
X44557188Y1944500D01*
X44557189Y1944500D01*
X44636298Y1952292D01*
X44664617Y1957925D01*
X44769601Y1994330D01*
X44822570Y2032816D01*
X44877642Y2046038D01*
X44894376Y2041319D01*
X44988380Y2002381D01*
X45128545Y1974500D01*
X45128547Y1974500D01*
X45271453Y1974500D01*
X45271455Y1974500D01*
X45411620Y2002381D01*
X45505056Y2041084D01*
X45561692Y2041084D01*
X45572037Y2035813D01*
X45635308Y1997040D01*
X45679013Y1978937D01*
X45687639Y1975364D01*
X45710355Y1966985D01*
X45717505Y1964347D01*
X45827737Y1946888D01*
X45842810Y1944500D01*
X45842811Y1944500D01*
X51722279Y1944500D01*
X51722283Y1944500D01*
X51785655Y1949483D01*
X51785672Y1949486D01*
X51785682Y1949487D01*
X51796231Y1951157D01*
X51808502Y1953098D01*
X51900202Y1978938D01*
X52008394Y2045196D01*
X52051472Y2081967D01*
X52096476Y2126946D01*
X52141218Y2199912D01*
X52187045Y2233186D01*
X52215875Y2234315D01*
X52234910Y2231300D01*
X52234911Y2231300D01*
X52421892Y2231300D01*
X52430096Y2232600D01*
X52441075Y2234339D01*
X52496147Y2221121D01*
X52518588Y2194847D01*
X52536445Y2159802D01*
X52536447Y2159799D01*
X52618838Y2063331D01*
X52618841Y2063329D01*
X52722183Y2000000D01*
X52727014Y1997040D01*
X52770719Y1978937D01*
X52779345Y1975364D01*
X52802061Y1966985D01*
X52809211Y1964347D01*
X52919443Y1946888D01*
X52934516Y1944500D01*
X52934517Y1944500D01*
X54262279Y1944500D01*
X54262283Y1944500D01*
X54325655Y1949483D01*
X54325672Y1949486D01*
X54325682Y1949487D01*
X54336231Y1951157D01*
X54348502Y1953098D01*
X54440202Y1978938D01*
X54548394Y2045196D01*
X54591472Y2081967D01*
X54636476Y2126946D01*
X54681218Y2199912D01*
X54727045Y2233186D01*
X54755875Y2234315D01*
X54774910Y2231300D01*
X54774911Y2231300D01*
X54961892Y2231300D01*
X54970096Y2232600D01*
X54981075Y2234339D01*
X55036147Y2221121D01*
X55058588Y2194847D01*
X55076445Y2159802D01*
X55076447Y2159799D01*
X55158838Y2063331D01*
X55158841Y2063329D01*
X55262183Y2000000D01*
X55267014Y1997040D01*
X55310719Y1978937D01*
X55319345Y1975364D01*
X55342061Y1966985D01*
X55349211Y1964347D01*
X55459443Y1946888D01*
X55474516Y1944500D01*
X55474517Y1944500D01*
X56632153Y1944500D01*
X56632154Y1944500D01*
X56663967Y1945750D01*
X56675543Y1946661D01*
X56738394Y1956615D01*
X56855604Y2005166D01*
X56903895Y2034759D01*
X56955370Y2072158D01*
X57037765Y2168629D01*
X57056864Y2214740D01*
X57096910Y2254787D01*
X57136806Y2259509D01*
X57144300Y2258322D01*
X57314909Y2231300D01*
X57314910Y2231300D01*
X57501890Y2231300D01*
X57678594Y2259288D01*
X57733665Y2246067D01*
X57756913Y2217735D01*
X57757026Y2217792D01*
X57757288Y2217277D01*
X57757377Y2217169D01*
X57757680Y2216511D01*
X57757686Y2216497D01*
X57757687Y2216496D01*
X57757694Y2216481D01*
X57786574Y2159802D01*
X57786576Y2159799D01*
X57868967Y2063331D01*
X57868970Y2063329D01*
X57972312Y2000000D01*
X57977143Y1997040D01*
X58020848Y1978937D01*
X58029474Y1975364D01*
X58052190Y1966985D01*
X58059340Y1964347D01*
X58169572Y1946888D01*
X58184645Y1944500D01*
X58184646Y1944500D01*
X61925998Y1944500D01*
X61926000Y1944500D01*
X61957814Y1945750D01*
X62081177Y1975366D01*
X62133503Y1997040D01*
X62190200Y2025929D01*
X62286671Y2108324D01*
X62352960Y2216497D01*
X62374634Y2268823D01*
X62385653Y2298694D01*
X62405500Y2424000D01*
X62405500Y3276121D01*
X62405320Y3288187D01*
X62400979Y3311149D01*
X62412556Y3366589D01*
X62432578Y3386422D01*
X62478416Y3417049D01*
X62582951Y3521584D01*
X62665084Y3644505D01*
X62721658Y3781087D01*
X62750500Y3926082D01*
X62750500Y4073918D01*
X62721658Y4218913D01*
X62665084Y4355495D01*
X62582951Y4478416D01*
X62478416Y4582951D01*
X62431679Y4614180D01*
X62400214Y4661271D01*
X62399703Y4687281D01*
X62405500Y4723880D01*
X62405500Y6276121D01*
X62405320Y6288187D01*
X62400979Y6311149D01*
X62412556Y6366589D01*
X62432578Y6386422D01*
X62478416Y6417049D01*
X62582951Y6521584D01*
X62665084Y6644505D01*
X62721658Y6781087D01*
X62750500Y6926082D01*
X62750500Y7073918D01*
X62721658Y7218913D01*
X62665084Y7355495D01*
X62582951Y7478416D01*
X62478416Y7582951D01*
X62355495Y7665084D01*
X62355496Y7665084D01*
X62355494Y7665085D01*
X62218917Y7721657D01*
X62218907Y7721660D01*
X62121811Y7740974D01*
X62073918Y7750500D01*
X61926082Y7750500D01*
X61884977Y7742324D01*
X61781092Y7721660D01*
X61781082Y7721657D01*
X61644505Y7665085D01*
X61521584Y7582952D01*
X61521583Y7582951D01*
X61417047Y7478414D01*
X61417044Y7478410D01*
X61385820Y7431681D01*
X61338727Y7400216D01*
X61312718Y7399705D01*
X61276123Y7405500D01*
X61276120Y7405500D01*
X53229500Y7405500D01*
X53177174Y7427174D01*
X53155500Y7479500D01*
X53155500Y9425998D01*
X53155500Y9426000D01*
X53154250Y9457814D01*
X53124634Y9581177D01*
X53102960Y9633503D01*
X53074071Y9690200D01*
X53051140Y9717049D01*
X52991678Y9786670D01*
X52991675Y9786672D01*
X52883509Y9852957D01*
X52883499Y9852962D01*
X52831171Y9874637D01*
X52801313Y9885651D01*
X52801309Y9885652D01*
X52801306Y9885653D01*
X52717768Y9898885D01*
X52676001Y9905500D01*
X52676000Y9905500D01*
X51479500Y9905500D01*
X51427174Y9927174D01*
X51405500Y9979500D01*
X51405500Y10073917D01*
X61249500Y10073917D01*
X61249500Y9926084D01*
X61278340Y9781093D01*
X61278343Y9781083D01*
X61334915Y9644506D01*
X61377230Y9581178D01*
X61417049Y9521584D01*
X61521584Y9417049D01*
X61644505Y9334916D01*
X61781087Y9278342D01*
X61926082Y9249500D01*
X61926084Y9249500D01*
X62073916Y9249500D01*
X62073918Y9249500D01*
X62218913Y9278342D01*
X62355495Y9334916D01*
X62478416Y9417049D01*
X62582951Y9521584D01*
X62665084Y9644505D01*
X62721658Y9781087D01*
X62750500Y9926082D01*
X62750500Y10073918D01*
X62721658Y10218913D01*
X62665084Y10355495D01*
X62582951Y10478416D01*
X62478416Y10582951D01*
X62355495Y10665084D01*
X62355496Y10665084D01*
X62355494Y10665085D01*
X62218917Y10721657D01*
X62218907Y10721660D01*
X62121811Y10740974D01*
X62073918Y10750500D01*
X61926082Y10750500D01*
X61884977Y10742324D01*
X61781092Y10721660D01*
X61781082Y10721657D01*
X61644505Y10665085D01*
X61521584Y10582952D01*
X61521583Y10582950D01*
X61417050Y10478417D01*
X61417048Y10478416D01*
X61334915Y10355495D01*
X61278343Y10218918D01*
X61278340Y10218908D01*
X61249500Y10073917D01*
X51405500Y10073917D01*
X51405500Y11175998D01*
X51405047Y11187522D01*
X51404250Y11207814D01*
X51374634Y11331177D01*
X51352960Y11383503D01*
X51324071Y11440200D01*
X51280430Y11491297D01*
X51241678Y11536670D01*
X51241675Y11536672D01*
X51133509Y11602957D01*
X51133499Y11602962D01*
X51081171Y11624637D01*
X51051313Y11635651D01*
X51051309Y11635652D01*
X51051306Y11635653D01*
X50943218Y11652773D01*
X50926001Y11655500D01*
X50926000Y11655500D01*
X49299065Y11655500D01*
X49246739Y11677174D01*
X49227375Y11718121D01*
X49226209Y11717889D01*
X49225500Y11721454D01*
X53049500Y11721454D01*
X53049500Y11578547D01*
X53077379Y11438386D01*
X53077381Y11438380D01*
X53121785Y11331178D01*
X53132071Y11306347D01*
X53185240Y11226774D01*
X53197908Y11207814D01*
X53211468Y11187521D01*
X53312521Y11086468D01*
X53431347Y11007071D01*
X53563380Y10952381D01*
X53703545Y10924500D01*
X53703547Y10924500D01*
X53846453Y10924500D01*
X53846455Y10924500D01*
X53986620Y10952381D01*
X54118653Y11007071D01*
X54237479Y11086468D01*
X54338532Y11187521D01*
X54417929Y11306347D01*
X54472619Y11438380D01*
X54500500Y11578545D01*
X54500500Y11721455D01*
X54472619Y11861620D01*
X54417929Y11993653D01*
X54338532Y12112479D01*
X54237479Y12213532D01*
X54118653Y12292929D01*
X54118650Y12292931D01*
X54118649Y12292931D01*
X53986620Y12347619D01*
X53986614Y12347621D01*
X53892752Y12366291D01*
X53846455Y12375500D01*
X53703545Y12375500D01*
X53663810Y12367597D01*
X53563385Y12347621D01*
X53563379Y12347619D01*
X53431350Y12292931D01*
X53312521Y12213533D01*
X53312520Y12213531D01*
X53211469Y12112480D01*
X53211467Y12112479D01*
X53132069Y11993650D01*
X53077381Y11861621D01*
X53077379Y11861615D01*
X53049500Y11721454D01*
X49225500Y11721454D01*
X49223899Y11729500D01*
X49197619Y11861620D01*
X49142929Y11993653D01*
X49063532Y12112479D01*
X48962479Y12213532D01*
X48887738Y12263473D01*
X48856273Y12310563D01*
X48867322Y12366112D01*
X48887736Y12386527D01*
X48962479Y12436468D01*
X49063532Y12537521D01*
X49142929Y12656347D01*
X49197619Y12788380D01*
X49225500Y12928545D01*
X49225500Y13071455D01*
X49225010Y13073918D01*
X61249500Y13073918D01*
X61249500Y12926082D01*
X61251688Y12915084D01*
X61278340Y12781093D01*
X61278343Y12781083D01*
X61334915Y12644506D01*
X61417048Y12521585D01*
X61521584Y12417049D01*
X61644505Y12334916D01*
X61669651Y12324500D01*
X61781087Y12278342D01*
X61926082Y12249500D01*
X61926084Y12249500D01*
X62073916Y12249500D01*
X62073918Y12249500D01*
X62218913Y12278342D01*
X62355495Y12334916D01*
X62478416Y12417049D01*
X62582951Y12521584D01*
X62665084Y12644505D01*
X62721658Y12781087D01*
X62750500Y12926082D01*
X62750500Y13073918D01*
X62721658Y13218913D01*
X62665084Y13355495D01*
X62582951Y13478416D01*
X62478416Y13582951D01*
X62388653Y13642929D01*
X62355494Y13665085D01*
X62218917Y13721657D01*
X62218907Y13721660D01*
X62121811Y13740974D01*
X62073918Y13750500D01*
X61926082Y13750500D01*
X61884977Y13742324D01*
X61781092Y13721660D01*
X61781082Y13721657D01*
X61644505Y13665085D01*
X61521584Y13582952D01*
X61521583Y13582950D01*
X61417050Y13478417D01*
X61417048Y13478416D01*
X61334915Y13355495D01*
X61278343Y13218918D01*
X61278340Y13218908D01*
X61254263Y13097865D01*
X61249500Y13073918D01*
X49225010Y13073918D01*
X49197619Y13211620D01*
X49142929Y13343653D01*
X49063532Y13462479D01*
X48962479Y13563532D01*
X48933416Y13582951D01*
X48876201Y13621181D01*
X48843653Y13642929D01*
X48843650Y13642931D01*
X48843649Y13642931D01*
X48711620Y13697619D01*
X48711614Y13697621D01*
X48617752Y13716291D01*
X48571455Y13725500D01*
X48428545Y13725500D01*
X48388810Y13717597D01*
X48288385Y13697621D01*
X48288379Y13697619D01*
X48156350Y13642931D01*
X48037521Y13563533D01*
X48037520Y13563532D01*
X47936466Y13462477D01*
X47936463Y13462474D01*
X47915441Y13431011D01*
X47868349Y13399546D01*
X47842337Y13399035D01*
X47801518Y13405500D01*
X47801516Y13405500D01*
X46198484Y13405500D01*
X46198483Y13405500D01*
X46156693Y13399301D01*
X46101753Y13413063D01*
X46084306Y13431388D01*
X46063532Y13462479D01*
X45962478Y13563533D01*
X45876201Y13621181D01*
X45843653Y13642929D01*
X45843650Y13642931D01*
X45843649Y13642931D01*
X45711620Y13697619D01*
X45711614Y13697621D01*
X45617752Y13716291D01*
X45571455Y13725500D01*
X45428545Y13725500D01*
X45388810Y13717597D01*
X45288385Y13697621D01*
X45288379Y13697619D01*
X45156350Y13642931D01*
X45037521Y13563533D01*
X45037520Y13563532D01*
X44936466Y13462477D01*
X44936463Y13462474D01*
X44915441Y13431011D01*
X44868349Y13399546D01*
X44842337Y13399035D01*
X44801518Y13405500D01*
X44801516Y13405500D01*
X40198484Y13405500D01*
X40198483Y13405500D01*
X40156693Y13399301D01*
X40101753Y13413063D01*
X40084306Y13431388D01*
X40063532Y13462479D01*
X39962478Y13563533D01*
X39876201Y13621181D01*
X39843653Y13642929D01*
X39843650Y13642931D01*
X39843649Y13642931D01*
X39711620Y13697619D01*
X39711614Y13697621D01*
X39617752Y13716291D01*
X39571455Y13725500D01*
X39428545Y13725500D01*
X39388810Y13717597D01*
X39288385Y13697621D01*
X39288379Y13697619D01*
X39156350Y13642931D01*
X39037521Y13563533D01*
X39037520Y13563532D01*
X38936466Y13462477D01*
X38936463Y13462474D01*
X38915441Y13431011D01*
X38868349Y13399546D01*
X38842337Y13399035D01*
X38801518Y13405500D01*
X38801516Y13405500D01*
X31198484Y13405500D01*
X31198483Y13405500D01*
X31156693Y13399301D01*
X31101753Y13413063D01*
X31084306Y13431388D01*
X31063532Y13462479D01*
X30962478Y13563533D01*
X30876201Y13621181D01*
X30843653Y13642929D01*
X30843650Y13642931D01*
X30843649Y13642931D01*
X30711620Y13697619D01*
X30711614Y13697621D01*
X30617752Y13716291D01*
X30571455Y13725500D01*
X30428545Y13725500D01*
X30388810Y13717597D01*
X30288385Y13697621D01*
X30288375Y13697618D01*
X30257818Y13684960D01*
X30201181Y13684960D01*
X30161133Y13725009D01*
X30155500Y13753327D01*
X30155500Y16071455D01*
X46274500Y16071455D01*
X46274500Y15928545D01*
X46275885Y15921584D01*
X46302379Y15788386D01*
X46302381Y15788380D01*
X46346816Y15681103D01*
X46357071Y15656347D01*
X46436468Y15537521D01*
X46537521Y15436468D01*
X46656347Y15357071D01*
X46788380Y15302381D01*
X46928545Y15274500D01*
X46928547Y15274500D01*
X47071453Y15274500D01*
X47071455Y15274500D01*
X47211620Y15302381D01*
X47343653Y15357071D01*
X47462479Y15436468D01*
X47563532Y15537521D01*
X47642929Y15656347D01*
X47697619Y15788380D01*
X47725500Y15928545D01*
X47725500Y16071455D01*
X47725010Y16073918D01*
X61249500Y16073918D01*
X61249500Y15926082D01*
X61250395Y15921585D01*
X61278340Y15781093D01*
X61278343Y15781083D01*
X61334915Y15644506D01*
X61406400Y15537522D01*
X61417049Y15521584D01*
X61521584Y15417049D01*
X61644505Y15334916D01*
X61781087Y15278342D01*
X61926082Y15249500D01*
X61926084Y15249500D01*
X62073916Y15249500D01*
X62073918Y15249500D01*
X62218913Y15278342D01*
X62355495Y15334916D01*
X62478416Y15417049D01*
X62582951Y15521584D01*
X62665084Y15644505D01*
X62721658Y15781087D01*
X62750500Y15926082D01*
X62750500Y16073918D01*
X62721658Y16218913D01*
X62710159Y16246673D01*
X62665084Y16355495D01*
X62582951Y16478416D01*
X62478415Y16582952D01*
X62355494Y16665085D01*
X62218917Y16721657D01*
X62218907Y16721660D01*
X62121811Y16740974D01*
X62073918Y16750500D01*
X61926082Y16750500D01*
X61884977Y16742324D01*
X61781092Y16721660D01*
X61781082Y16721657D01*
X61644505Y16665085D01*
X61521584Y16582952D01*
X61521583Y16582950D01*
X61417050Y16478417D01*
X61417048Y16478416D01*
X61334915Y16355495D01*
X61278343Y16218918D01*
X61278340Y16218908D01*
X61254263Y16097865D01*
X61249500Y16073918D01*
X47725010Y16073918D01*
X47697619Y16211620D01*
X47642929Y16343653D01*
X47563532Y16462479D01*
X47462479Y16563532D01*
X47454451Y16568896D01*
X47423226Y16589760D01*
X47343653Y16642929D01*
X47343650Y16642931D01*
X47343649Y16642931D01*
X47211620Y16697619D01*
X47211614Y16697621D01*
X47117752Y16716291D01*
X47071455Y16725500D01*
X46928545Y16725500D01*
X46888810Y16717597D01*
X46788385Y16697621D01*
X46788379Y16697619D01*
X46656350Y16642931D01*
X46537521Y16563533D01*
X46537520Y16563531D01*
X46436469Y16462480D01*
X46436467Y16462479D01*
X46357069Y16343650D01*
X46302381Y16211621D01*
X46302379Y16211615D01*
X46279104Y16094604D01*
X46274500Y16071455D01*
X30155500Y16071455D01*
X30155500Y17096455D01*
X32874500Y17096455D01*
X32874500Y16953545D01*
X32879473Y16928545D01*
X32902379Y16813386D01*
X32902381Y16813380D01*
X32940373Y16721658D01*
X32957071Y16681347D01*
X33010240Y16601774D01*
X33035791Y16563533D01*
X33036468Y16562521D01*
X33137521Y16461468D01*
X33256347Y16382071D01*
X33388380Y16327381D01*
X33528545Y16299500D01*
X33528547Y16299500D01*
X33671453Y16299500D01*
X33671455Y16299500D01*
X33811620Y16327381D01*
X33943653Y16382071D01*
X34062479Y16461468D01*
X34163532Y16562521D01*
X34242929Y16681347D01*
X34297619Y16813380D01*
X34325500Y16953545D01*
X34325500Y17096455D01*
X34297619Y17236620D01*
X34242929Y17368653D01*
X34163532Y17487479D01*
X34062479Y17588532D01*
X34048430Y17597919D01*
X33981065Y17642931D01*
X33943653Y17667929D01*
X33943650Y17667931D01*
X33943649Y17667931D01*
X33811620Y17722619D01*
X33811614Y17722621D01*
X33717752Y17741291D01*
X33671455Y17750500D01*
X33528545Y17750500D01*
X33488810Y17742597D01*
X33388385Y17722621D01*
X33388379Y17722619D01*
X33256350Y17667931D01*
X33137521Y17588533D01*
X33137520Y17588531D01*
X33036469Y17487480D01*
X33036467Y17487479D01*
X32957069Y17368650D01*
X32902381Y17236621D01*
X32902379Y17236615D01*
X32889444Y17171584D01*
X32874500Y17096455D01*
X30155500Y17096455D01*
X30155500Y18971454D01*
X49824500Y18971454D01*
X49824500Y18828547D01*
X49852379Y18688386D01*
X49852381Y18688380D01*
X49907071Y18556347D01*
X49986468Y18437521D01*
X50087521Y18336468D01*
X50206347Y18257071D01*
X50338380Y18202381D01*
X50478545Y18174500D01*
X50478547Y18174500D01*
X50621453Y18174500D01*
X50621455Y18174500D01*
X50761620Y18202381D01*
X50893653Y18257071D01*
X51012479Y18336468D01*
X51113532Y18437521D01*
X51192929Y18556347D01*
X51247619Y18688380D01*
X51275500Y18828545D01*
X51275500Y18971454D01*
X55674500Y18971454D01*
X55674500Y18828547D01*
X55702379Y18688386D01*
X55702381Y18688380D01*
X55757071Y18556347D01*
X55836468Y18437521D01*
X55937521Y18336468D01*
X56056347Y18257071D01*
X56188380Y18202381D01*
X56328545Y18174500D01*
X56328547Y18174500D01*
X56471453Y18174500D01*
X56471455Y18174500D01*
X56611620Y18202381D01*
X56743653Y18257071D01*
X56862479Y18336468D01*
X56963532Y18437521D01*
X57042929Y18556347D01*
X57097619Y18688380D01*
X57125500Y18828545D01*
X57125500Y18971455D01*
X57105119Y19073918D01*
X61249500Y19073918D01*
X61249500Y18926082D01*
X61253090Y18908036D01*
X61278340Y18781093D01*
X61278343Y18781083D01*
X61334915Y18644506D01*
X61334916Y18644505D01*
X61417049Y18521584D01*
X61521584Y18417049D01*
X61644505Y18334916D01*
X61781087Y18278342D01*
X61926082Y18249500D01*
X61926084Y18249500D01*
X62073916Y18249500D01*
X62073918Y18249500D01*
X62218913Y18278342D01*
X62355495Y18334916D01*
X62478416Y18417049D01*
X62582951Y18521584D01*
X62665084Y18644505D01*
X62721658Y18781087D01*
X62750500Y18926082D01*
X62750500Y19073918D01*
X62721658Y19218913D01*
X62721054Y19220370D01*
X62665084Y19355495D01*
X62582951Y19478416D01*
X62478415Y19582952D01*
X62355494Y19665085D01*
X62218917Y19721657D01*
X62218907Y19721660D01*
X62121811Y19740974D01*
X62073918Y19750500D01*
X61926082Y19750500D01*
X61884977Y19742324D01*
X61781092Y19721660D01*
X61781082Y19721657D01*
X61644505Y19665085D01*
X61521584Y19582952D01*
X61521583Y19582950D01*
X61417050Y19478417D01*
X61417048Y19478416D01*
X61334915Y19355495D01*
X61278343Y19218918D01*
X61278340Y19218908D01*
X61256998Y19111614D01*
X61249500Y19073918D01*
X57105119Y19073918D01*
X57097619Y19111620D01*
X57042929Y19243653D01*
X56963532Y19362479D01*
X56862479Y19463532D01*
X56857215Y19467049D01*
X56795443Y19508324D01*
X56743653Y19542929D01*
X56743650Y19542931D01*
X56743649Y19542931D01*
X56611620Y19597619D01*
X56611614Y19597621D01*
X56516695Y19616501D01*
X56471455Y19625500D01*
X56328545Y19625500D01*
X56288810Y19617597D01*
X56188385Y19597621D01*
X56188379Y19597619D01*
X56056350Y19542931D01*
X55937521Y19463533D01*
X55937520Y19463531D01*
X55836469Y19362480D01*
X55836467Y19362479D01*
X55757069Y19243650D01*
X55702381Y19111621D01*
X55702379Y19111615D01*
X55674500Y18971454D01*
X51275500Y18971454D01*
X51275500Y18971455D01*
X51247619Y19111620D01*
X51192929Y19243653D01*
X51113532Y19362479D01*
X51012479Y19463532D01*
X51007215Y19467049D01*
X50945443Y19508324D01*
X50893653Y19542929D01*
X50893650Y19542931D01*
X50893649Y19542931D01*
X50761620Y19597619D01*
X50761614Y19597621D01*
X50666695Y19616501D01*
X50621455Y19625500D01*
X50478545Y19625500D01*
X50438810Y19617597D01*
X50338385Y19597621D01*
X50338379Y19597619D01*
X50206350Y19542931D01*
X50087521Y19463533D01*
X50087520Y19463531D01*
X49986469Y19362480D01*
X49986467Y19362479D01*
X49907069Y19243650D01*
X49852381Y19111621D01*
X49852379Y19111615D01*
X49824500Y18971454D01*
X30155500Y18971454D01*
X30155500Y19270500D01*
X30177174Y19322826D01*
X30229500Y19344500D01*
X34475998Y19344500D01*
X34476000Y19344500D01*
X34507814Y19345750D01*
X34631177Y19375366D01*
X34683503Y19397040D01*
X34740200Y19425929D01*
X34836671Y19508324D01*
X34902960Y19616497D01*
X34924634Y19668823D01*
X34935653Y19698694D01*
X34955500Y19824000D01*
X34955500Y20123917D01*
X43199500Y20123917D01*
X43199500Y19976084D01*
X43228340Y19831093D01*
X43228343Y19831083D01*
X43284915Y19694506D01*
X43359454Y19582951D01*
X43367049Y19571584D01*
X43471584Y19467049D01*
X43594505Y19384916D01*
X43731087Y19328342D01*
X43876082Y19299500D01*
X43876084Y19299500D01*
X44023916Y19299500D01*
X44023918Y19299500D01*
X44168913Y19328342D01*
X44305495Y19384916D01*
X44428416Y19467049D01*
X44532951Y19571584D01*
X44585109Y19649645D01*
X44632199Y19681109D01*
X44687748Y19670060D01*
X44708164Y19649644D01*
X44730312Y19616497D01*
X44783785Y19536468D01*
X44787049Y19531584D01*
X44891584Y19427049D01*
X45014505Y19344916D01*
X45151087Y19288342D01*
X45296082Y19259500D01*
X45296084Y19259500D01*
X45443916Y19259500D01*
X45443918Y19259500D01*
X45588913Y19288342D01*
X45725495Y19344916D01*
X45848416Y19427049D01*
X45952951Y19531584D01*
X46035084Y19654505D01*
X46091658Y19791087D01*
X46120500Y19936082D01*
X46120500Y20083918D01*
X46091658Y20228913D01*
X46075092Y20268908D01*
X46056411Y20314008D01*
X46046187Y20338691D01*
X48349500Y20338691D01*
X48349500Y20161309D01*
X48352843Y20144505D01*
X48384104Y19987340D01*
X48384107Y19987330D01*
X48451985Y19823456D01*
X48546748Y19681633D01*
X48550536Y19675965D01*
X48675965Y19550536D01*
X48823453Y19451987D01*
X48823454Y19451987D01*
X48823455Y19451986D01*
X48985378Y19384916D01*
X48987334Y19384106D01*
X49161309Y19349500D01*
X49161311Y19349500D01*
X49338689Y19349500D01*
X49338691Y19349500D01*
X49512666Y19384106D01*
X49676547Y19451987D01*
X49824035Y19550536D01*
X49949464Y19675965D01*
X50048013Y19823453D01*
X50115894Y19987334D01*
X50150500Y20161309D01*
X50150500Y20338691D01*
X50115894Y20512666D01*
X50082639Y20592952D01*
X50048014Y20676545D01*
X50022262Y20715085D01*
X49949464Y20824035D01*
X49824035Y20949464D01*
X49812650Y20957071D01*
X49676544Y21048015D01*
X49512670Y21115893D01*
X49512660Y21115896D01*
X49396156Y21139070D01*
X49338691Y21150500D01*
X49161309Y21150500D01*
X49111989Y21140690D01*
X48987339Y21115896D01*
X48987329Y21115893D01*
X48823455Y21048015D01*
X48675968Y20949467D01*
X48550533Y20824032D01*
X48451985Y20676545D01*
X48384107Y20512671D01*
X48384104Y20512661D01*
X48355215Y20367424D01*
X48349500Y20338691D01*
X46046187Y20338691D01*
X46035084Y20365495D01*
X45952951Y20488416D01*
X45848416Y20592951D01*
X45828368Y20606347D01*
X45725494Y20675085D01*
X45588917Y20731657D01*
X45588907Y20731660D01*
X45491811Y20750974D01*
X45443918Y20760500D01*
X45296082Y20760500D01*
X45254977Y20752324D01*
X45151092Y20731660D01*
X45151082Y20731657D01*
X45014505Y20675085D01*
X44891584Y20592952D01*
X44891583Y20592950D01*
X44787050Y20488417D01*
X44787048Y20488416D01*
X44734892Y20410358D01*
X44687799Y20378892D01*
X44632251Y20389941D01*
X44611835Y20410357D01*
X44532951Y20528416D01*
X44428416Y20632951D01*
X44382649Y20663532D01*
X44305494Y20715085D01*
X44168917Y20771657D01*
X44168907Y20771660D01*
X44071811Y20790974D01*
X44023918Y20800500D01*
X43876082Y20800500D01*
X43834977Y20792324D01*
X43731092Y20771660D01*
X43731082Y20771657D01*
X43594505Y20715085D01*
X43471584Y20632952D01*
X43471583Y20632950D01*
X43367050Y20528417D01*
X43367048Y20528416D01*
X43284915Y20405495D01*
X43228343Y20268918D01*
X43228340Y20268908D01*
X43220386Y20228918D01*
X43201368Y20133306D01*
X43199500Y20123917D01*
X34955500Y20123917D01*
X34955500Y21671455D01*
X39974500Y21671455D01*
X39974500Y21528545D01*
X39977487Y21513531D01*
X40002379Y21388386D01*
X40002381Y21388380D01*
X40047960Y21278341D01*
X40057071Y21256347D01*
X40098392Y21194506D01*
X40127795Y21150500D01*
X40136468Y21137521D01*
X40237521Y21036468D01*
X40356347Y20957071D01*
X40488380Y20902381D01*
X40628545Y20874500D01*
X40628547Y20874500D01*
X40771453Y20874500D01*
X40771455Y20874500D01*
X40911620Y20902381D01*
X41043653Y20957071D01*
X41162479Y21036468D01*
X41263532Y21137521D01*
X41342929Y21256347D01*
X41397619Y21388380D01*
X41425500Y21528545D01*
X41425500Y21623918D01*
X53499500Y21623918D01*
X53499500Y21476082D01*
X53509026Y21428189D01*
X53528340Y21331093D01*
X53528343Y21331083D01*
X53584915Y21194506D01*
X53667048Y21071585D01*
X53771584Y20967049D01*
X53894505Y20884916D01*
X53919651Y20874500D01*
X54031087Y20828342D01*
X54176082Y20799500D01*
X54176084Y20799500D01*
X54323916Y20799500D01*
X54323918Y20799500D01*
X54468913Y20828342D01*
X54605495Y20884916D01*
X54728416Y20967049D01*
X54812674Y21051307D01*
X54865000Y21072981D01*
X54917326Y21051307D01*
X55021584Y20947049D01*
X55144505Y20864916D01*
X55281087Y20808342D01*
X55426082Y20779500D01*
X55426084Y20779500D01*
X55573916Y20779500D01*
X55573918Y20779500D01*
X55718913Y20808342D01*
X55855495Y20864916D01*
X55978416Y20947049D01*
X56082951Y21051584D01*
X56165084Y21174505D01*
X56221658Y21311087D01*
X56250500Y21456082D01*
X56250500Y21603918D01*
X56221658Y21748913D01*
X56165084Y21885495D01*
X56082951Y22008416D01*
X56017449Y22073918D01*
X61249500Y22073918D01*
X61249500Y21926082D01*
X61258765Y21879503D01*
X61278340Y21781093D01*
X61278343Y21781083D01*
X61334915Y21644506D01*
X61412398Y21528545D01*
X61417049Y21521584D01*
X61521584Y21417049D01*
X61644505Y21334916D01*
X61781087Y21278342D01*
X61926082Y21249500D01*
X61926084Y21249500D01*
X62073916Y21249500D01*
X62073918Y21249500D01*
X62218913Y21278342D01*
X62355495Y21334916D01*
X62478416Y21417049D01*
X62582951Y21521584D01*
X62665084Y21644505D01*
X62721658Y21781087D01*
X62750500Y21926082D01*
X62750500Y22073918D01*
X62721658Y22218913D01*
X62708988Y22249500D01*
X62665084Y22355495D01*
X62582951Y22478416D01*
X62478415Y22582952D01*
X62355494Y22665085D01*
X62218917Y22721657D01*
X62218907Y22721660D01*
X62121811Y22740974D01*
X62073918Y22750500D01*
X61926082Y22750500D01*
X61884977Y22742324D01*
X61781092Y22721660D01*
X61781082Y22721657D01*
X61644505Y22665085D01*
X61521584Y22582952D01*
X61521583Y22582950D01*
X61417050Y22478417D01*
X61417048Y22478416D01*
X61334915Y22355495D01*
X61278343Y22218918D01*
X61278340Y22218908D01*
X61257264Y22112951D01*
X61249500Y22073918D01*
X56017449Y22073918D01*
X55978416Y22112951D01*
X55948486Y22132950D01*
X55855494Y22195085D01*
X55718917Y22251657D01*
X55718907Y22251660D01*
X55618369Y22271658D01*
X55573918Y22280500D01*
X55426082Y22280500D01*
X55384977Y22272324D01*
X55281092Y22251660D01*
X55281082Y22251657D01*
X55144505Y22195085D01*
X55021584Y22112952D01*
X55021583Y22112950D01*
X54937326Y22028693D01*
X54885000Y22007019D01*
X54832674Y22028693D01*
X54728415Y22132952D01*
X54605494Y22215085D01*
X54468917Y22271657D01*
X54468907Y22271660D01*
X54371811Y22290974D01*
X54323918Y22300500D01*
X54176082Y22300500D01*
X54134977Y22292324D01*
X54031092Y22271660D01*
X54031082Y22271657D01*
X53894505Y22215085D01*
X53771584Y22132952D01*
X53771583Y22132950D01*
X53667050Y22028417D01*
X53667048Y22028416D01*
X53584915Y21905495D01*
X53528343Y21768918D01*
X53528340Y21768908D01*
X53509064Y21671997D01*
X53499500Y21623918D01*
X41425500Y21623918D01*
X41425500Y21671455D01*
X41397619Y21811620D01*
X41342929Y21943653D01*
X41263532Y22062479D01*
X41162479Y22163532D01*
X41043653Y22242929D01*
X41043650Y22242931D01*
X41043649Y22242931D01*
X40911620Y22297619D01*
X40911614Y22297621D01*
X40817752Y22316291D01*
X40771455Y22325500D01*
X40628545Y22325500D01*
X40588810Y22317597D01*
X40488385Y22297621D01*
X40488379Y22297619D01*
X40356350Y22242931D01*
X40237521Y22163533D01*
X40237520Y22163531D01*
X40136469Y22062480D01*
X40136467Y22062479D01*
X40057069Y21943650D01*
X40002381Y21811621D01*
X40002379Y21811615D01*
X39985016Y21724323D01*
X39974500Y21671455D01*
X34955500Y21671455D01*
X34955500Y23483917D01*
X39779500Y23483917D01*
X39779500Y23336084D01*
X39808340Y23191093D01*
X39808343Y23191083D01*
X39864915Y23054506D01*
X39918374Y22974500D01*
X39947049Y22931584D01*
X40051584Y22827049D01*
X40174505Y22744916D01*
X40311087Y22688342D01*
X40456082Y22659500D01*
X40456084Y22659500D01*
X40603916Y22659500D01*
X40603918Y22659500D01*
X40748913Y22688342D01*
X40885495Y22744916D01*
X41008416Y22827049D01*
X41112951Y22931584D01*
X41195084Y23054505D01*
X41203125Y23073917D01*
X47749500Y23073917D01*
X47749500Y22926084D01*
X47778340Y22781093D01*
X47778343Y22781083D01*
X47834915Y22644506D01*
X47917048Y22521585D01*
X48021584Y22417049D01*
X48144505Y22334916D01*
X48231199Y22299006D01*
X48281087Y22278342D01*
X48426082Y22249500D01*
X48426084Y22249500D01*
X48573916Y22249500D01*
X48573918Y22249500D01*
X48718913Y22278342D01*
X48855495Y22334916D01*
X48978416Y22417049D01*
X49082951Y22521584D01*
X49165084Y22644505D01*
X49221658Y22781087D01*
X49250500Y22926082D01*
X49250500Y23073918D01*
X49221658Y23218913D01*
X49217667Y23228547D01*
X49165084Y23355495D01*
X49082951Y23478416D01*
X48978415Y23582952D01*
X48855494Y23665085D01*
X48718917Y23721657D01*
X48718907Y23721660D01*
X48621811Y23740974D01*
X48573918Y23750500D01*
X48426082Y23750500D01*
X48384977Y23742324D01*
X48281092Y23721660D01*
X48281082Y23721657D01*
X48144505Y23665085D01*
X48021584Y23582952D01*
X48021583Y23582950D01*
X47917050Y23478417D01*
X47917048Y23478416D01*
X47834915Y23355495D01*
X47778343Y23218918D01*
X47778340Y23218908D01*
X47749500Y23073917D01*
X41203125Y23073917D01*
X41251658Y23191087D01*
X41280500Y23336082D01*
X41280500Y23483918D01*
X41251658Y23628913D01*
X41195084Y23765495D01*
X41112951Y23888416D01*
X41008416Y23992951D01*
X40932540Y24043650D01*
X40885494Y24075085D01*
X40748917Y24131657D01*
X40748907Y24131660D01*
X40651811Y24150974D01*
X40603918Y24160500D01*
X40456082Y24160500D01*
X40414977Y24152324D01*
X40311092Y24131660D01*
X40311082Y24131657D01*
X40174505Y24075085D01*
X40051584Y23992952D01*
X40051583Y23992950D01*
X39947050Y23888417D01*
X39947048Y23888416D01*
X39864915Y23765495D01*
X39808343Y23628918D01*
X39808340Y23628908D01*
X39779500Y23483917D01*
X34955500Y23483917D01*
X34955500Y25343917D01*
X39809500Y25343917D01*
X39809500Y25196084D01*
X39838340Y25051093D01*
X39838343Y25051083D01*
X39894915Y24914506D01*
X39894916Y24914505D01*
X39977049Y24791584D01*
X40081584Y24687049D01*
X40204505Y24604916D01*
X40341087Y24548342D01*
X40486082Y24519500D01*
X40486084Y24519500D01*
X40633916Y24519500D01*
X40633918Y24519500D01*
X40778913Y24548342D01*
X40915495Y24604916D01*
X41038416Y24687049D01*
X41142951Y24791584D01*
X41225084Y24914505D01*
X41228983Y24923917D01*
X53249500Y24923917D01*
X53249500Y24776084D01*
X53278340Y24631093D01*
X53278343Y24631083D01*
X53334915Y24494506D01*
X53417048Y24371585D01*
X53521584Y24267049D01*
X53644505Y24184916D01*
X53773076Y24131660D01*
X53781087Y24128342D01*
X53926082Y24099500D01*
X53926084Y24099500D01*
X54073916Y24099500D01*
X54073918Y24099500D01*
X54218913Y24128342D01*
X54355495Y24184916D01*
X54478416Y24267049D01*
X54582951Y24371584D01*
X54665084Y24494505D01*
X54721658Y24631087D01*
X54750500Y24776082D01*
X54750500Y24923917D01*
X55249500Y24923917D01*
X55249500Y24776084D01*
X55278340Y24631093D01*
X55278343Y24631083D01*
X55334915Y24494506D01*
X55417048Y24371585D01*
X55521584Y24267049D01*
X55644505Y24184916D01*
X55773076Y24131660D01*
X55781087Y24128342D01*
X55926082Y24099500D01*
X55926084Y24099500D01*
X56073916Y24099500D01*
X56073918Y24099500D01*
X56218913Y24128342D01*
X56355495Y24184916D01*
X56478416Y24267049D01*
X56582951Y24371584D01*
X56665084Y24494505D01*
X56721658Y24631087D01*
X56750500Y24776082D01*
X56750500Y24923917D01*
X57249500Y24923917D01*
X57249500Y24776084D01*
X57278340Y24631093D01*
X57278343Y24631083D01*
X57334915Y24494506D01*
X57417048Y24371585D01*
X57521584Y24267049D01*
X57644505Y24184916D01*
X57773076Y24131660D01*
X57781087Y24128342D01*
X57926082Y24099500D01*
X57926084Y24099500D01*
X58073916Y24099500D01*
X58073918Y24099500D01*
X58218913Y24128342D01*
X58355495Y24184916D01*
X58478416Y24267049D01*
X58582951Y24371584D01*
X58665084Y24494505D01*
X58721658Y24631087D01*
X58750500Y24776082D01*
X58750500Y24923917D01*
X59249500Y24923917D01*
X59249500Y24776084D01*
X59278340Y24631093D01*
X59278343Y24631083D01*
X59334915Y24494506D01*
X59417048Y24371585D01*
X59521584Y24267049D01*
X59644505Y24184916D01*
X59773076Y24131660D01*
X59781087Y24128342D01*
X59926082Y24099500D01*
X59926084Y24099500D01*
X60073916Y24099500D01*
X60073918Y24099500D01*
X60218913Y24128342D01*
X60355495Y24184916D01*
X60478416Y24267049D01*
X60582951Y24371584D01*
X60665084Y24494505D01*
X60721658Y24631087D01*
X60750500Y24776082D01*
X60750500Y24923917D01*
X61249500Y24923917D01*
X61249500Y24776084D01*
X61278340Y24631093D01*
X61278343Y24631083D01*
X61334915Y24494506D01*
X61417048Y24371585D01*
X61521584Y24267049D01*
X61644505Y24184916D01*
X61773076Y24131660D01*
X61781087Y24128342D01*
X61926082Y24099500D01*
X61926084Y24099500D01*
X62073916Y24099500D01*
X62073918Y24099500D01*
X62218913Y24128342D01*
X62355495Y24184916D01*
X62478416Y24267049D01*
X62582951Y24371584D01*
X62665084Y24494505D01*
X62721658Y24631087D01*
X62750500Y24776082D01*
X62750500Y24923918D01*
X62721658Y25068913D01*
X62665084Y25205495D01*
X62582951Y25328416D01*
X62478416Y25432951D01*
X62452153Y25450500D01*
X62355494Y25515085D01*
X62218917Y25571657D01*
X62218907Y25571660D01*
X62121811Y25590974D01*
X62073918Y25600500D01*
X61926082Y25600500D01*
X61884977Y25592324D01*
X61781092Y25571660D01*
X61781082Y25571657D01*
X61644505Y25515085D01*
X61521584Y25432952D01*
X61521583Y25432950D01*
X61417050Y25328417D01*
X61417048Y25328416D01*
X61334915Y25205495D01*
X61278343Y25068918D01*
X61278340Y25068908D01*
X61249500Y24923917D01*
X60750500Y24923917D01*
X60750500Y24923918D01*
X60721658Y25068913D01*
X60665084Y25205495D01*
X60582951Y25328416D01*
X60478416Y25432951D01*
X60452153Y25450500D01*
X60355494Y25515085D01*
X60218917Y25571657D01*
X60218907Y25571660D01*
X60121811Y25590974D01*
X60073918Y25600500D01*
X59926082Y25600500D01*
X59884977Y25592324D01*
X59781092Y25571660D01*
X59781082Y25571657D01*
X59644505Y25515085D01*
X59521584Y25432952D01*
X59521583Y25432950D01*
X59417050Y25328417D01*
X59417048Y25328416D01*
X59334915Y25205495D01*
X59278343Y25068918D01*
X59278340Y25068908D01*
X59249500Y24923917D01*
X58750500Y24923917D01*
X58750500Y24923918D01*
X58721658Y25068913D01*
X58665084Y25205495D01*
X58582951Y25328416D01*
X58478416Y25432951D01*
X58452153Y25450500D01*
X58355494Y25515085D01*
X58218917Y25571657D01*
X58218907Y25571660D01*
X58121811Y25590974D01*
X58073918Y25600500D01*
X57926082Y25600500D01*
X57884977Y25592324D01*
X57781092Y25571660D01*
X57781082Y25571657D01*
X57644505Y25515085D01*
X57521584Y25432952D01*
X57521583Y25432950D01*
X57417050Y25328417D01*
X57417048Y25328416D01*
X57334915Y25205495D01*
X57278343Y25068918D01*
X57278340Y25068908D01*
X57249500Y24923917D01*
X56750500Y24923917D01*
X56750500Y24923918D01*
X56721658Y25068913D01*
X56665084Y25205495D01*
X56582951Y25328416D01*
X56478416Y25432951D01*
X56452153Y25450500D01*
X56355494Y25515085D01*
X56218917Y25571657D01*
X56218907Y25571660D01*
X56121811Y25590974D01*
X56073918Y25600500D01*
X55926082Y25600500D01*
X55884977Y25592324D01*
X55781092Y25571660D01*
X55781082Y25571657D01*
X55644505Y25515085D01*
X55521584Y25432952D01*
X55521583Y25432950D01*
X55417050Y25328417D01*
X55417048Y25328416D01*
X55334915Y25205495D01*
X55278343Y25068918D01*
X55278340Y25068908D01*
X55249500Y24923917D01*
X54750500Y24923917D01*
X54750500Y24923918D01*
X54721658Y25068913D01*
X54665084Y25205495D01*
X54582951Y25328416D01*
X54478416Y25432951D01*
X54452153Y25450500D01*
X54355494Y25515085D01*
X54218917Y25571657D01*
X54218907Y25571660D01*
X54121811Y25590974D01*
X54073918Y25600500D01*
X53926082Y25600500D01*
X53884977Y25592324D01*
X53781092Y25571660D01*
X53781082Y25571657D01*
X53644505Y25515085D01*
X53521584Y25432952D01*
X53521583Y25432950D01*
X53417050Y25328417D01*
X53417048Y25328416D01*
X53334915Y25205495D01*
X53278343Y25068918D01*
X53278340Y25068908D01*
X53249500Y24923917D01*
X41228983Y24923917D01*
X41281658Y25051087D01*
X41310500Y25196082D01*
X41310500Y25343918D01*
X41281658Y25488913D01*
X41225084Y25625495D01*
X41142951Y25748416D01*
X41038416Y25852951D01*
X40968751Y25899500D01*
X40915494Y25935085D01*
X40778917Y25991657D01*
X40778907Y25991660D01*
X40681811Y26010974D01*
X40633918Y26020500D01*
X40486082Y26020500D01*
X40444977Y26012324D01*
X40341092Y25991660D01*
X40341082Y25991657D01*
X40204505Y25935085D01*
X40081584Y25852952D01*
X40081583Y25852950D01*
X39977050Y25748417D01*
X39977048Y25748416D01*
X39894915Y25625495D01*
X39838343Y25488918D01*
X39838340Y25488908D01*
X39809500Y25343917D01*
X34955500Y25343917D01*
X34955500Y25420500D01*
X34977174Y25472826D01*
X35029500Y25494500D01*
X36025998Y25494500D01*
X36026000Y25494500D01*
X36057814Y25495750D01*
X36181177Y25525366D01*
X36233503Y25547040D01*
X36290200Y25575929D01*
X36386671Y25658324D01*
X36452960Y25766497D01*
X36474634Y25818823D01*
X36485653Y25848694D01*
X36505500Y25974000D01*
X36505500Y28971454D01*
X39574500Y28971454D01*
X39574500Y28828547D01*
X39602379Y28688386D01*
X39602381Y28688380D01*
X39615649Y28656347D01*
X39657071Y28556347D01*
X39669651Y28537520D01*
X39719791Y28462479D01*
X39736468Y28437521D01*
X39837521Y28336468D01*
X39956347Y28257071D01*
X40088380Y28202381D01*
X40228545Y28174500D01*
X40228547Y28174500D01*
X40371453Y28174500D01*
X40371455Y28174500D01*
X40511620Y28202381D01*
X40643653Y28257071D01*
X40762479Y28336468D01*
X40863532Y28437521D01*
X40942929Y28556347D01*
X40997619Y28688380D01*
X41025500Y28828545D01*
X41025500Y28971455D01*
X40997619Y29111620D01*
X40942929Y29243653D01*
X40863532Y29362479D01*
X40762479Y29463532D01*
X40643653Y29542929D01*
X40643650Y29542931D01*
X40643649Y29542931D01*
X40511620Y29597619D01*
X40511614Y29597621D01*
X40417752Y29616291D01*
X40371455Y29625500D01*
X40228545Y29625500D01*
X40188810Y29617597D01*
X40088385Y29597621D01*
X40088379Y29597619D01*
X39956350Y29542931D01*
X39837521Y29463533D01*
X39837520Y29463531D01*
X39736469Y29362480D01*
X39736467Y29362479D01*
X39657069Y29243650D01*
X39602381Y29111621D01*
X39602379Y29111615D01*
X39574500Y28971454D01*
X36505500Y28971454D01*
X36505500Y33200935D01*
X36527174Y33253261D01*
X36568120Y33272625D01*
X36567889Y33273791D01*
X36571453Y33274500D01*
X36571455Y33274500D01*
X36711620Y33302381D01*
X36843653Y33357071D01*
X36962479Y33436468D01*
X37063532Y33537521D01*
X37142929Y33656347D01*
X37197619Y33788380D01*
X37225500Y33928545D01*
X37225500Y34071455D01*
X38774500Y34071455D01*
X38774500Y33928545D01*
X38792754Y33836777D01*
X38802379Y33788389D01*
X38802381Y33788380D01*
X38834159Y33711660D01*
X38857071Y33656347D01*
X38936468Y33537521D01*
X39037521Y33436468D01*
X39156347Y33357071D01*
X39288380Y33302381D01*
X39428545Y33274500D01*
X39428547Y33274500D01*
X39571453Y33274500D01*
X39571455Y33274500D01*
X39711620Y33302381D01*
X39843653Y33357071D01*
X39962479Y33436468D01*
X40063532Y33537521D01*
X40142929Y33656347D01*
X40197619Y33788380D01*
X40225500Y33928545D01*
X40225500Y34071455D01*
X40197619Y34211620D01*
X40142929Y34343653D01*
X40063532Y34462479D01*
X39962479Y34563532D01*
X39933416Y34582951D01*
X39913766Y34596081D01*
X39843653Y34642929D01*
X39843650Y34642931D01*
X39843649Y34642931D01*
X39711620Y34697619D01*
X39711614Y34697621D01*
X39617752Y34716291D01*
X39571455Y34725500D01*
X39428545Y34725500D01*
X39388810Y34717597D01*
X39288385Y34697621D01*
X39288379Y34697619D01*
X39156350Y34642931D01*
X39037521Y34563533D01*
X39037520Y34563531D01*
X38936469Y34462480D01*
X38936467Y34462479D01*
X38857069Y34343650D01*
X38802381Y34211621D01*
X38802379Y34211615D01*
X38785704Y34127781D01*
X38774500Y34071455D01*
X37225500Y34071455D01*
X37197619Y34211620D01*
X37142929Y34343653D01*
X37063532Y34462479D01*
X36962479Y34563532D01*
X36933416Y34582951D01*
X36913766Y34596081D01*
X36843653Y34642929D01*
X36843650Y34642931D01*
X36843649Y34642931D01*
X36711620Y34697619D01*
X36711614Y34697621D01*
X36609881Y34717857D01*
X36571455Y34725500D01*
X36571453Y34725500D01*
X36567889Y34726209D01*
X36568165Y34727598D01*
X36522286Y34752134D01*
X36505500Y34799066D01*
X36505500Y36225998D01*
X36505500Y36226001D01*
X36504250Y36257814D01*
X36474634Y36381177D01*
X36452960Y36433503D01*
X36424071Y36490200D01*
X36424069Y36490202D01*
X36424069Y36490203D01*
X36413617Y36502440D01*
X36396114Y36556305D01*
X36421826Y36606769D01*
X36469886Y36624500D01*
X37338796Y36624500D01*
X37391122Y36602826D01*
X37400324Y36591613D01*
X37436463Y36537527D01*
X37436465Y36537525D01*
X37436468Y36537521D01*
X37537521Y36436468D01*
X37656347Y36357071D01*
X37788380Y36302381D01*
X37928545Y36274500D01*
X37928547Y36274500D01*
X38071453Y36274500D01*
X38071455Y36274500D01*
X38211620Y36302381D01*
X38343653Y36357071D01*
X38462479Y36436468D01*
X38563532Y36537521D01*
X38576083Y36556305D01*
X38599676Y36591613D01*
X38646768Y36623078D01*
X38661204Y36624500D01*
X40338796Y36624500D01*
X40391122Y36602826D01*
X40400324Y36591613D01*
X40436463Y36537527D01*
X40436465Y36537525D01*
X40436468Y36537521D01*
X40510456Y36463533D01*
X40537520Y36436469D01*
X40537521Y36436468D01*
X40656345Y36357072D01*
X40656346Y36357072D01*
X40656347Y36357071D01*
X40666856Y36352718D01*
X40690864Y36336677D01*
X41852826Y35174716D01*
X41874500Y35122390D01*
X41874500Y28977612D01*
X41852826Y28925286D01*
X41650164Y28722625D01*
X41612276Y28702373D01*
X41588383Y28697620D01*
X41588381Y28697620D01*
X41456350Y28642931D01*
X41337521Y28563533D01*
X41337520Y28563531D01*
X41236469Y28462480D01*
X41236467Y28462479D01*
X41157069Y28343650D01*
X41102381Y28211621D01*
X41102380Y28211618D01*
X41095355Y28176302D01*
X41063888Y28129211D01*
X41008341Y28118163D01*
X40991448Y28121524D01*
X40971455Y28125500D01*
X40828545Y28125500D01*
X40791660Y28118163D01*
X40688385Y28097621D01*
X40688379Y28097619D01*
X40556350Y28042931D01*
X40437521Y27963533D01*
X40437520Y27963531D01*
X40336469Y27862480D01*
X40336467Y27862479D01*
X40257069Y27743650D01*
X40202381Y27611621D01*
X40202379Y27611615D01*
X40187641Y27537520D01*
X40174500Y27471455D01*
X40174500Y27328545D01*
X40179705Y27302380D01*
X40202379Y27188386D01*
X40202381Y27188380D01*
X40251854Y27068940D01*
X40257071Y27056347D01*
X40336468Y26937521D01*
X40437521Y26836468D01*
X40556347Y26757071D01*
X40688380Y26702381D01*
X40828545Y26674500D01*
X40828547Y26674500D01*
X40971453Y26674500D01*
X40971455Y26674500D01*
X41111620Y26702381D01*
X41243653Y26757071D01*
X41362479Y26836468D01*
X41463532Y26937521D01*
X41542929Y27056347D01*
X41597619Y27188380D01*
X41604643Y27223698D01*
X41636107Y27270788D01*
X41691653Y27281839D01*
X41728545Y27274500D01*
X41728547Y27274500D01*
X41871453Y27274500D01*
X41871455Y27274500D01*
X42011620Y27302381D01*
X42143653Y27357071D01*
X42262479Y27436468D01*
X42363532Y27537521D01*
X42442929Y27656347D01*
X42497619Y27788380D01*
X42525500Y27928545D01*
X42525500Y28071455D01*
X42503089Y28184121D01*
X42514138Y28239670D01*
X42523335Y28250878D01*
X42730495Y28458036D01*
X42793095Y28566464D01*
X42825499Y28687397D01*
X42825500Y28687397D01*
X42825500Y31071454D01*
X43924500Y31071454D01*
X43924500Y30928547D01*
X43952379Y30788386D01*
X43952381Y30788380D01*
X43989975Y30697619D01*
X44007071Y30656347D01*
X44086468Y30537521D01*
X44187521Y30436468D01*
X44306347Y30357071D01*
X44438380Y30302381D01*
X44578545Y30274500D01*
X44578547Y30274500D01*
X44721453Y30274500D01*
X44721455Y30274500D01*
X44858242Y30301709D01*
X44865185Y30303090D01*
X44865581Y30301097D01*
X44915753Y30296178D01*
X44951703Y30252413D01*
X44951720Y30215458D01*
X44953090Y30215185D01*
X44924500Y30071454D01*
X44924500Y29928547D01*
X44953090Y29784815D01*
X44951111Y29784422D01*
X44946152Y29734200D01*
X44902361Y29698282D01*
X44865458Y29698282D01*
X44865185Y29696910D01*
X44828973Y29704113D01*
X44721455Y29725500D01*
X44578545Y29725500D01*
X44538810Y29717597D01*
X44438385Y29697621D01*
X44438379Y29697619D01*
X44306350Y29642931D01*
X44187521Y29563533D01*
X44187520Y29563531D01*
X44086469Y29462480D01*
X44086467Y29462479D01*
X44007069Y29343650D01*
X43952381Y29211621D01*
X43952379Y29211615D01*
X43932489Y29111620D01*
X43924500Y29071455D01*
X43924500Y28928545D01*
X43933709Y28882248D01*
X43952379Y28788386D01*
X43952381Y28788380D01*
X43994209Y28687397D01*
X44007071Y28656347D01*
X44086468Y28537521D01*
X44187521Y28436468D01*
X44306347Y28357071D01*
X44438380Y28302381D01*
X44578545Y28274500D01*
X44578547Y28274500D01*
X44721453Y28274500D01*
X44721455Y28274500D01*
X44858242Y28301709D01*
X44865185Y28303090D01*
X44865581Y28301097D01*
X44915753Y28296178D01*
X44951703Y28252413D01*
X44951720Y28215458D01*
X44953090Y28215185D01*
X44952380Y28211615D01*
X44924500Y28071455D01*
X44924500Y27928545D01*
X44937642Y27862479D01*
X44953090Y27784815D01*
X44951111Y27784422D01*
X44946152Y27734200D01*
X44902361Y27698282D01*
X44865458Y27698282D01*
X44865185Y27696910D01*
X44828973Y27704113D01*
X44721455Y27725500D01*
X44578545Y27725500D01*
X44538810Y27717597D01*
X44438385Y27697621D01*
X44438379Y27697619D01*
X44306350Y27642931D01*
X44187521Y27563533D01*
X44187520Y27563531D01*
X44086469Y27462480D01*
X44086467Y27462479D01*
X44007069Y27343650D01*
X43952381Y27211621D01*
X43952379Y27211615D01*
X43935830Y27128416D01*
X43924500Y27071455D01*
X43924500Y26928545D01*
X43927867Y26911620D01*
X43952379Y26788386D01*
X43952381Y26788380D01*
X43999551Y26674500D01*
X44007071Y26656347D01*
X44086468Y26537521D01*
X44187521Y26436468D01*
X44306347Y26357071D01*
X44438380Y26302381D01*
X44578545Y26274500D01*
X44578547Y26274500D01*
X44721453Y26274500D01*
X44721455Y26274500D01*
X44861620Y26302381D01*
X44993653Y26357071D01*
X45112479Y26436468D01*
X45213532Y26537521D01*
X45292929Y26656347D01*
X45347619Y26788380D01*
X45375500Y26928545D01*
X45375500Y27071455D01*
X45347619Y27211620D01*
X45347619Y27211621D01*
X45346910Y27215185D01*
X45348898Y27215581D01*
X45353830Y27265768D01*
X45397603Y27301709D01*
X45434540Y27301709D01*
X45434815Y27303090D01*
X45441758Y27301709D01*
X45578545Y27274500D01*
X45578547Y27274500D01*
X45721453Y27274500D01*
X45721455Y27274500D01*
X45858242Y27301709D01*
X45865185Y27303090D01*
X45865581Y27301097D01*
X45915753Y27296178D01*
X45951703Y27252413D01*
X45951720Y27215458D01*
X45953090Y27215185D01*
X45952381Y27211621D01*
X45952381Y27211620D01*
X45924500Y27071455D01*
X45924500Y26928545D01*
X45927867Y26911620D01*
X45952379Y26788386D01*
X45952381Y26788380D01*
X45999551Y26674500D01*
X46007071Y26656347D01*
X46086468Y26537521D01*
X46187521Y26436468D01*
X46306347Y26357071D01*
X46438380Y26302381D01*
X46578545Y26274500D01*
X46578547Y26274500D01*
X46721453Y26274500D01*
X46721455Y26274500D01*
X46861620Y26302381D01*
X46993653Y26357071D01*
X47112479Y26436468D01*
X47213532Y26537521D01*
X47292929Y26656347D01*
X47347619Y26788380D01*
X47375500Y26928545D01*
X47375500Y27071455D01*
X47347619Y27211620D01*
X47347619Y27211621D01*
X47346910Y27215185D01*
X47348898Y27215581D01*
X47353830Y27265768D01*
X47397603Y27301709D01*
X47434540Y27301709D01*
X47434815Y27303090D01*
X47441758Y27301709D01*
X47578545Y27274500D01*
X47578547Y27274500D01*
X47721453Y27274500D01*
X47721455Y27274500D01*
X47858242Y27301709D01*
X47865185Y27303090D01*
X47865581Y27301097D01*
X47915753Y27296178D01*
X47951703Y27252413D01*
X47951720Y27215458D01*
X47953090Y27215185D01*
X47952381Y27211621D01*
X47952381Y27211620D01*
X47924500Y27071455D01*
X47924500Y26928545D01*
X47927867Y26911620D01*
X47952379Y26788386D01*
X47952381Y26788380D01*
X47999551Y26674500D01*
X48007071Y26656347D01*
X48086468Y26537521D01*
X48187521Y26436468D01*
X48306347Y26357071D01*
X48438380Y26302381D01*
X48578545Y26274500D01*
X48578547Y26274500D01*
X48721453Y26274500D01*
X48721455Y26274500D01*
X48861620Y26302381D01*
X48993653Y26357071D01*
X49112479Y26436468D01*
X49213532Y26537521D01*
X49292929Y26656347D01*
X49320918Y26723918D01*
X51989500Y26723918D01*
X51989500Y26576082D01*
X51997171Y26537520D01*
X52018340Y26431093D01*
X52018343Y26431083D01*
X52074915Y26294506D01*
X52157048Y26171585D01*
X52261584Y26067049D01*
X52384505Y25984916D01*
X52409651Y25974500D01*
X52521087Y25928342D01*
X52666082Y25899500D01*
X52666084Y25899500D01*
X52813916Y25899500D01*
X52813918Y25899500D01*
X52958913Y25928342D01*
X53095495Y25984916D01*
X53218416Y26067049D01*
X53322951Y26171584D01*
X53405084Y26294505D01*
X53461658Y26431087D01*
X53490500Y26576082D01*
X53490500Y26723918D01*
X53461658Y26868913D01*
X53405084Y27005495D01*
X53322951Y27128416D01*
X53218416Y27232951D01*
X53172649Y27263532D01*
X53095494Y27315085D01*
X52958917Y27371657D01*
X52958907Y27371660D01*
X52861811Y27390974D01*
X52813918Y27400500D01*
X52666082Y27400500D01*
X52624977Y27392324D01*
X52521092Y27371660D01*
X52521082Y27371657D01*
X52384505Y27315085D01*
X52261584Y27232952D01*
X52261583Y27232950D01*
X52157050Y27128417D01*
X52157048Y27128416D01*
X52074915Y27005495D01*
X52018343Y26868918D01*
X52018340Y26868908D01*
X51995856Y26755872D01*
X51989500Y26723918D01*
X49320918Y26723918D01*
X49347619Y26788380D01*
X49375500Y26928545D01*
X49375500Y27071455D01*
X49347619Y27211620D01*
X49292929Y27343653D01*
X49213532Y27462479D01*
X49112479Y27563532D01*
X49100702Y27571401D01*
X49057152Y27600500D01*
X48993653Y27642929D01*
X48993650Y27642931D01*
X48993649Y27642931D01*
X48861620Y27697619D01*
X48861614Y27697621D01*
X48767752Y27716291D01*
X48721455Y27725500D01*
X48578545Y27725500D01*
X48471026Y27704113D01*
X48434815Y27696910D01*
X48434422Y27698884D01*
X48384185Y27703856D01*
X48348276Y27747654D01*
X48348293Y27784540D01*
X48346910Y27784815D01*
X48362358Y27862479D01*
X48375500Y27928545D01*
X48375500Y28071455D01*
X48347620Y28211615D01*
X48346910Y28215185D01*
X48348898Y28215581D01*
X48353830Y28265768D01*
X48397603Y28301709D01*
X48434540Y28301709D01*
X48434815Y28303090D01*
X48441758Y28301709D01*
X48578545Y28274500D01*
X48578547Y28274500D01*
X48721453Y28274500D01*
X48721455Y28274500D01*
X48861620Y28302381D01*
X48993653Y28357071D01*
X49112479Y28436468D01*
X49213532Y28537521D01*
X49292929Y28656347D01*
X49347619Y28788380D01*
X49375500Y28928545D01*
X49375500Y29071455D01*
X49347619Y29211620D01*
X49292929Y29343653D01*
X49213532Y29462479D01*
X49112479Y29563532D01*
X48993653Y29642929D01*
X48993650Y29642931D01*
X48993649Y29642931D01*
X48861620Y29697619D01*
X48861614Y29697621D01*
X48767752Y29716291D01*
X48721455Y29725500D01*
X48578545Y29725500D01*
X48471026Y29704113D01*
X48434815Y29696910D01*
X48434422Y29698884D01*
X48384185Y29703856D01*
X48348276Y29747654D01*
X48348293Y29784540D01*
X48346910Y29784815D01*
X48375500Y29928547D01*
X48375500Y30071454D01*
X48346910Y30215185D01*
X48348898Y30215581D01*
X48353830Y30265768D01*
X48397603Y30301709D01*
X48434540Y30301709D01*
X48434815Y30303090D01*
X48441758Y30301709D01*
X48578545Y30274500D01*
X48578547Y30274500D01*
X48721453Y30274500D01*
X48721455Y30274500D01*
X48861620Y30302381D01*
X48993653Y30357071D01*
X49112479Y30436468D01*
X49213532Y30537521D01*
X49292929Y30656347D01*
X49347619Y30788380D01*
X49375500Y30928545D01*
X49375500Y31071455D01*
X49347619Y31211620D01*
X49292929Y31343653D01*
X49213532Y31462479D01*
X49112479Y31563532D01*
X48993653Y31642929D01*
X48993650Y31642931D01*
X48993649Y31642931D01*
X48861620Y31697619D01*
X48861614Y31697621D01*
X48767752Y31716291D01*
X48721455Y31725500D01*
X48578545Y31725500D01*
X48538810Y31717597D01*
X48438385Y31697621D01*
X48438379Y31697619D01*
X48306350Y31642931D01*
X48187521Y31563533D01*
X48187520Y31563531D01*
X48086469Y31462480D01*
X48086467Y31462479D01*
X48007069Y31343650D01*
X47952381Y31211621D01*
X47952379Y31211615D01*
X47924500Y31071454D01*
X47924500Y30928547D01*
X47953090Y30784815D01*
X47951111Y30784422D01*
X47946152Y30734200D01*
X47902361Y30698282D01*
X47865458Y30698282D01*
X47865185Y30696910D01*
X47828973Y30704113D01*
X47721455Y30725500D01*
X47578545Y30725500D01*
X47471026Y30704113D01*
X47434815Y30696910D01*
X47434422Y30698884D01*
X47384185Y30703856D01*
X47348276Y30747654D01*
X47348293Y30784540D01*
X47346910Y30784815D01*
X47375500Y30928547D01*
X47375500Y31071454D01*
X47347620Y31211615D01*
X47347619Y31211616D01*
X47347619Y31211620D01*
X47292929Y31343653D01*
X47213532Y31462479D01*
X47112479Y31563532D01*
X46993653Y31642929D01*
X46993650Y31642931D01*
X46993649Y31642931D01*
X46861620Y31697619D01*
X46861614Y31697621D01*
X46767752Y31716291D01*
X46721455Y31725500D01*
X46578545Y31725500D01*
X46538810Y31717597D01*
X46438385Y31697621D01*
X46438379Y31697619D01*
X46306350Y31642931D01*
X46187521Y31563533D01*
X46187520Y31563531D01*
X46086469Y31462480D01*
X46086467Y31462479D01*
X46007069Y31343650D01*
X45952381Y31211621D01*
X45952379Y31211615D01*
X45924500Y31071454D01*
X45924500Y30928547D01*
X45953090Y30784815D01*
X45951111Y30784422D01*
X45946152Y30734200D01*
X45902361Y30698282D01*
X45865458Y30698282D01*
X45865185Y30696910D01*
X45828973Y30704113D01*
X45721455Y30725500D01*
X45578545Y30725500D01*
X45471026Y30704113D01*
X45434815Y30696910D01*
X45434422Y30698884D01*
X45384185Y30703856D01*
X45348276Y30747654D01*
X45348293Y30784540D01*
X45346910Y30784815D01*
X45375500Y30928547D01*
X45375500Y31071454D01*
X45347620Y31211615D01*
X45347619Y31211616D01*
X45347619Y31211620D01*
X45292929Y31343653D01*
X45213532Y31462479D01*
X45112479Y31563532D01*
X44993653Y31642929D01*
X44993650Y31642931D01*
X44993649Y31642931D01*
X44861620Y31697619D01*
X44861614Y31697621D01*
X44767752Y31716291D01*
X44721455Y31725500D01*
X44578545Y31725500D01*
X44538810Y31717597D01*
X44438385Y31697621D01*
X44438379Y31697619D01*
X44306350Y31642931D01*
X44187521Y31563533D01*
X44187520Y31563531D01*
X44086469Y31462480D01*
X44086467Y31462479D01*
X44007069Y31343650D01*
X43952381Y31211621D01*
X43952379Y31211615D01*
X43924500Y31071454D01*
X42825500Y31071454D01*
X42825500Y32073917D01*
X54249500Y32073917D01*
X54249500Y31926084D01*
X54278340Y31781093D01*
X54278343Y31781083D01*
X54334915Y31644506D01*
X54404688Y31540084D01*
X54417049Y31521584D01*
X54521584Y31417049D01*
X54644505Y31334916D01*
X54781087Y31278342D01*
X54926082Y31249500D01*
X54926084Y31249500D01*
X55073916Y31249500D01*
X55073918Y31249500D01*
X55218913Y31278342D01*
X55355495Y31334916D01*
X55478416Y31417049D01*
X55582951Y31521584D01*
X55665084Y31644505D01*
X55721658Y31781087D01*
X55750500Y31926082D01*
X55750500Y32073917D01*
X56249500Y32073917D01*
X56249500Y31926084D01*
X56278340Y31781093D01*
X56278343Y31781083D01*
X56334915Y31644506D01*
X56404688Y31540084D01*
X56417049Y31521584D01*
X56521584Y31417049D01*
X56644505Y31334916D01*
X56781087Y31278342D01*
X56926082Y31249500D01*
X56926084Y31249500D01*
X57073916Y31249500D01*
X57073918Y31249500D01*
X57218913Y31278342D01*
X57355495Y31334916D01*
X57478416Y31417049D01*
X57582951Y31521584D01*
X57665084Y31644505D01*
X57721658Y31781087D01*
X57750500Y31926082D01*
X57750500Y32073917D01*
X58249500Y32073917D01*
X58249500Y31926084D01*
X58278340Y31781093D01*
X58278343Y31781083D01*
X58334915Y31644506D01*
X58404688Y31540084D01*
X58417049Y31521584D01*
X58521584Y31417049D01*
X58644505Y31334916D01*
X58781087Y31278342D01*
X58926082Y31249500D01*
X58926084Y31249500D01*
X59073916Y31249500D01*
X59073918Y31249500D01*
X59218913Y31278342D01*
X59355495Y31334916D01*
X59478416Y31417049D01*
X59582951Y31521584D01*
X59665084Y31644505D01*
X59721658Y31781087D01*
X59750500Y31926082D01*
X59750500Y32073917D01*
X60249500Y32073917D01*
X60249500Y31926084D01*
X60278340Y31781093D01*
X60278343Y31781083D01*
X60334915Y31644506D01*
X60404688Y31540084D01*
X60417049Y31521584D01*
X60521584Y31417049D01*
X60644505Y31334916D01*
X60781087Y31278342D01*
X60926082Y31249500D01*
X60926084Y31249500D01*
X61073916Y31249500D01*
X61073918Y31249500D01*
X61218913Y31278342D01*
X61355495Y31334916D01*
X61478416Y31417049D01*
X61582951Y31521584D01*
X61665084Y31644505D01*
X61721658Y31781087D01*
X61750500Y31926082D01*
X61750500Y32073918D01*
X61721658Y32218913D01*
X61665084Y32355495D01*
X61582951Y32478416D01*
X61478416Y32582951D01*
X61468596Y32589513D01*
X61355494Y32665085D01*
X61218917Y32721657D01*
X61218907Y32721660D01*
X61121811Y32740974D01*
X61073918Y32750500D01*
X60926082Y32750500D01*
X60884977Y32742324D01*
X60781092Y32721660D01*
X60781082Y32721657D01*
X60644505Y32665085D01*
X60521584Y32582952D01*
X60521583Y32582950D01*
X60417050Y32478417D01*
X60417048Y32478416D01*
X60334915Y32355495D01*
X60278343Y32218918D01*
X60278340Y32218908D01*
X60249500Y32073917D01*
X59750500Y32073917D01*
X59750500Y32073918D01*
X59721658Y32218913D01*
X59665084Y32355495D01*
X59582951Y32478416D01*
X59478416Y32582951D01*
X59468596Y32589513D01*
X59355494Y32665085D01*
X59218917Y32721657D01*
X59218907Y32721660D01*
X59121811Y32740974D01*
X59073918Y32750500D01*
X58926082Y32750500D01*
X58884977Y32742324D01*
X58781092Y32721660D01*
X58781082Y32721657D01*
X58644505Y32665085D01*
X58521584Y32582952D01*
X58521583Y32582950D01*
X58417050Y32478417D01*
X58417048Y32478416D01*
X58334915Y32355495D01*
X58278343Y32218918D01*
X58278340Y32218908D01*
X58249500Y32073917D01*
X57750500Y32073917D01*
X57750500Y32073918D01*
X57721658Y32218913D01*
X57665084Y32355495D01*
X57582951Y32478416D01*
X57478416Y32582951D01*
X57468596Y32589513D01*
X57355494Y32665085D01*
X57218917Y32721657D01*
X57218907Y32721660D01*
X57121811Y32740974D01*
X57073918Y32750500D01*
X56926082Y32750500D01*
X56884977Y32742324D01*
X56781092Y32721660D01*
X56781082Y32721657D01*
X56644505Y32665085D01*
X56521584Y32582952D01*
X56521583Y32582950D01*
X56417050Y32478417D01*
X56417048Y32478416D01*
X56334915Y32355495D01*
X56278343Y32218918D01*
X56278340Y32218908D01*
X56249500Y32073917D01*
X55750500Y32073917D01*
X55750500Y32073918D01*
X55721658Y32218913D01*
X55665084Y32355495D01*
X55582951Y32478416D01*
X55478416Y32582951D01*
X55468596Y32589513D01*
X55355494Y32665085D01*
X55218917Y32721657D01*
X55218907Y32721660D01*
X55121811Y32740974D01*
X55073918Y32750500D01*
X54926082Y32750500D01*
X54884977Y32742324D01*
X54781092Y32721660D01*
X54781082Y32721657D01*
X54644505Y32665085D01*
X54521584Y32582952D01*
X54521583Y32582950D01*
X54417050Y32478417D01*
X54417048Y32478416D01*
X54334915Y32355495D01*
X54278343Y32218918D01*
X54278340Y32218908D01*
X54249500Y32073917D01*
X42825500Y32073917D01*
X42825500Y33063917D01*
X51754500Y33063917D01*
X51754500Y32916084D01*
X51783340Y32771093D01*
X51783343Y32771083D01*
X51839915Y32634506D01*
X51874363Y32582952D01*
X51922049Y32511584D01*
X52026584Y32407049D01*
X52149505Y32324916D01*
X52286087Y32268342D01*
X52431082Y32239500D01*
X52431084Y32239500D01*
X52578916Y32239500D01*
X52578918Y32239500D01*
X52723913Y32268342D01*
X52860495Y32324916D01*
X52983416Y32407049D01*
X53087951Y32511584D01*
X53170084Y32634505D01*
X53226658Y32771087D01*
X53255500Y32916082D01*
X53255500Y33063918D01*
X53226658Y33208913D01*
X53208288Y33253261D01*
X53170084Y33345495D01*
X53087951Y33468416D01*
X52983415Y33572952D01*
X52860494Y33655085D01*
X52723917Y33711657D01*
X52723907Y33711660D01*
X52626811Y33730974D01*
X52578918Y33740500D01*
X52431082Y33740500D01*
X52389977Y33732324D01*
X52286092Y33711660D01*
X52286082Y33711657D01*
X52149505Y33655085D01*
X52026584Y33572952D01*
X52026583Y33572950D01*
X51922050Y33468417D01*
X51922048Y33468416D01*
X51839915Y33345495D01*
X51783343Y33208918D01*
X51783340Y33208908D01*
X51754500Y33063917D01*
X42825500Y33063917D01*
X42825500Y34073918D01*
X53249500Y34073918D01*
X53249500Y33926082D01*
X53259026Y33878189D01*
X53278340Y33781093D01*
X53278343Y33781083D01*
X53334915Y33644506D01*
X53406400Y33537522D01*
X53417049Y33521584D01*
X53521584Y33417049D01*
X53644505Y33334916D01*
X53781087Y33278342D01*
X53926082Y33249500D01*
X53926084Y33249500D01*
X54073916Y33249500D01*
X54073918Y33249500D01*
X54218913Y33278342D01*
X54355495Y33334916D01*
X54478416Y33417049D01*
X54582951Y33521584D01*
X54665084Y33644505D01*
X54721658Y33781087D01*
X54750500Y33926082D01*
X54750500Y34073918D01*
X55249500Y34073918D01*
X55249500Y33926082D01*
X55259026Y33878189D01*
X55278340Y33781093D01*
X55278343Y33781083D01*
X55334915Y33644506D01*
X55406400Y33537522D01*
X55417049Y33521584D01*
X55521584Y33417049D01*
X55644505Y33334916D01*
X55781087Y33278342D01*
X55926082Y33249500D01*
X55926084Y33249500D01*
X56073916Y33249500D01*
X56073918Y33249500D01*
X56218913Y33278342D01*
X56355495Y33334916D01*
X56478416Y33417049D01*
X56582951Y33521584D01*
X56665084Y33644505D01*
X56721658Y33781087D01*
X56750500Y33926082D01*
X56750500Y34073918D01*
X57249500Y34073918D01*
X57249500Y33926082D01*
X57259026Y33878189D01*
X57278340Y33781093D01*
X57278343Y33781083D01*
X57334915Y33644506D01*
X57406400Y33537522D01*
X57417049Y33521584D01*
X57521584Y33417049D01*
X57644505Y33334916D01*
X57781087Y33278342D01*
X57926082Y33249500D01*
X57926084Y33249500D01*
X58073916Y33249500D01*
X58073918Y33249500D01*
X58218913Y33278342D01*
X58355495Y33334916D01*
X58478416Y33417049D01*
X58582951Y33521584D01*
X58665084Y33644505D01*
X58721658Y33781087D01*
X58750500Y33926082D01*
X58750500Y34073918D01*
X59249500Y34073918D01*
X59249500Y33926082D01*
X59259026Y33878189D01*
X59278340Y33781093D01*
X59278343Y33781083D01*
X59334915Y33644506D01*
X59406400Y33537522D01*
X59417049Y33521584D01*
X59521584Y33417049D01*
X59644505Y33334916D01*
X59781087Y33278342D01*
X59926082Y33249500D01*
X59926084Y33249500D01*
X60073916Y33249500D01*
X60073918Y33249500D01*
X60218913Y33278342D01*
X60355495Y33334916D01*
X60478416Y33417049D01*
X60582951Y33521584D01*
X60665084Y33644505D01*
X60721658Y33781087D01*
X60750500Y33926082D01*
X60750500Y34073918D01*
X61249500Y34073918D01*
X61249500Y33926082D01*
X61259026Y33878189D01*
X61278340Y33781093D01*
X61278343Y33781083D01*
X61334915Y33644506D01*
X61406400Y33537522D01*
X61417049Y33521584D01*
X61521584Y33417049D01*
X61644505Y33334916D01*
X61781087Y33278342D01*
X61926082Y33249500D01*
X61926084Y33249500D01*
X62073916Y33249500D01*
X62073918Y33249500D01*
X62218913Y33278342D01*
X62355495Y33334916D01*
X62478416Y33417049D01*
X62582951Y33521584D01*
X62665084Y33644505D01*
X62721658Y33781087D01*
X62750500Y33926082D01*
X62750500Y34073918D01*
X62721658Y34218913D01*
X62719171Y34224916D01*
X62665084Y34355495D01*
X62582951Y34478416D01*
X62478415Y34582952D01*
X62355494Y34665085D01*
X62218917Y34721657D01*
X62218907Y34721660D01*
X62121811Y34740974D01*
X62073918Y34750500D01*
X61926082Y34750500D01*
X61884977Y34742324D01*
X61781092Y34721660D01*
X61781082Y34721657D01*
X61644505Y34665085D01*
X61521584Y34582952D01*
X61521583Y34582950D01*
X61417050Y34478417D01*
X61417048Y34478416D01*
X61334915Y34355495D01*
X61278343Y34218918D01*
X61278340Y34218908D01*
X61260215Y34127784D01*
X61249500Y34073918D01*
X60750500Y34073918D01*
X60721658Y34218913D01*
X60719171Y34224916D01*
X60665084Y34355495D01*
X60582951Y34478416D01*
X60478415Y34582952D01*
X60355494Y34665085D01*
X60218917Y34721657D01*
X60218907Y34721660D01*
X60121811Y34740974D01*
X60073918Y34750500D01*
X59926082Y34750500D01*
X59884977Y34742324D01*
X59781092Y34721660D01*
X59781082Y34721657D01*
X59644505Y34665085D01*
X59521584Y34582952D01*
X59521583Y34582950D01*
X59417050Y34478417D01*
X59417048Y34478416D01*
X59334915Y34355495D01*
X59278343Y34218918D01*
X59278340Y34218908D01*
X59260215Y34127784D01*
X59249500Y34073918D01*
X58750500Y34073918D01*
X58721658Y34218913D01*
X58719171Y34224916D01*
X58665084Y34355495D01*
X58582951Y34478416D01*
X58478415Y34582952D01*
X58355494Y34665085D01*
X58218917Y34721657D01*
X58218907Y34721660D01*
X58121811Y34740974D01*
X58073918Y34750500D01*
X57926082Y34750500D01*
X57884977Y34742324D01*
X57781092Y34721660D01*
X57781082Y34721657D01*
X57644505Y34665085D01*
X57521584Y34582952D01*
X57521583Y34582950D01*
X57417050Y34478417D01*
X57417048Y34478416D01*
X57334915Y34355495D01*
X57278343Y34218918D01*
X57278340Y34218908D01*
X57260215Y34127784D01*
X57249500Y34073918D01*
X56750500Y34073918D01*
X56721658Y34218913D01*
X56719171Y34224916D01*
X56665084Y34355495D01*
X56582951Y34478416D01*
X56478415Y34582952D01*
X56355494Y34665085D01*
X56218917Y34721657D01*
X56218907Y34721660D01*
X56121811Y34740974D01*
X56073918Y34750500D01*
X55926082Y34750500D01*
X55884977Y34742324D01*
X55781092Y34721660D01*
X55781082Y34721657D01*
X55644505Y34665085D01*
X55521584Y34582952D01*
X55521583Y34582950D01*
X55417050Y34478417D01*
X55417048Y34478416D01*
X55334915Y34355495D01*
X55278343Y34218918D01*
X55278340Y34218908D01*
X55260215Y34127784D01*
X55249500Y34073918D01*
X54750500Y34073918D01*
X54721658Y34218913D01*
X54719171Y34224916D01*
X54665084Y34355495D01*
X54582951Y34478416D01*
X54478415Y34582952D01*
X54355494Y34665085D01*
X54218917Y34721657D01*
X54218907Y34721660D01*
X54121811Y34740974D01*
X54073918Y34750500D01*
X53926082Y34750500D01*
X53884977Y34742324D01*
X53781092Y34721660D01*
X53781082Y34721657D01*
X53644505Y34665085D01*
X53521584Y34582952D01*
X53521583Y34582950D01*
X53417050Y34478417D01*
X53417048Y34478416D01*
X53334915Y34355495D01*
X53278343Y34218918D01*
X53278340Y34218908D01*
X53260215Y34127784D01*
X53249500Y34073918D01*
X42825500Y34073918D01*
X42825500Y34963917D01*
X43429500Y34963917D01*
X43429500Y34816084D01*
X43458340Y34671093D01*
X43458343Y34671083D01*
X43514915Y34534506D01*
X43597048Y34411585D01*
X43701584Y34307049D01*
X43824505Y34224916D01*
X43856616Y34211615D01*
X43961087Y34168342D01*
X44106082Y34139500D01*
X44106084Y34139500D01*
X44253916Y34139500D01*
X44253918Y34139500D01*
X44398913Y34168342D01*
X44535495Y34224916D01*
X44658416Y34307049D01*
X44762951Y34411584D01*
X44845084Y34534505D01*
X44901658Y34671087D01*
X44930500Y34816082D01*
X44930500Y34953917D01*
X45279500Y34953917D01*
X45279500Y34806084D01*
X45308340Y34661093D01*
X45308343Y34661083D01*
X45364915Y34524506D01*
X45440367Y34411585D01*
X45447049Y34401584D01*
X45551584Y34297049D01*
X45674505Y34214916D01*
X45811087Y34158342D01*
X45956082Y34129500D01*
X45956084Y34129500D01*
X46103916Y34129500D01*
X46103918Y34129500D01*
X46248913Y34158342D01*
X46385495Y34214916D01*
X46508416Y34297049D01*
X46612951Y34401584D01*
X46695084Y34524505D01*
X46751658Y34661087D01*
X46780500Y34806082D01*
X46780500Y34953918D01*
X46751658Y35098913D01*
X46695084Y35235495D01*
X46612951Y35358416D01*
X46508416Y35462951D01*
X46493452Y35472950D01*
X46385494Y35545085D01*
X46248917Y35601657D01*
X46248907Y35601660D01*
X46151811Y35620974D01*
X46103918Y35630500D01*
X45956082Y35630500D01*
X45914977Y35622324D01*
X45811092Y35601660D01*
X45811082Y35601657D01*
X45674505Y35545085D01*
X45551584Y35462952D01*
X45551583Y35462950D01*
X45447050Y35358417D01*
X45447048Y35358416D01*
X45364915Y35235495D01*
X45308343Y35098918D01*
X45308340Y35098908D01*
X45279500Y34953917D01*
X44930500Y34953917D01*
X44930500Y34963918D01*
X44901658Y35108913D01*
X44845084Y35245495D01*
X44762951Y35368416D01*
X44658416Y35472951D01*
X44652550Y35476871D01*
X44535494Y35555085D01*
X44398917Y35611657D01*
X44398907Y35611660D01*
X44301811Y35630974D01*
X44253918Y35640500D01*
X44106082Y35640500D01*
X44064977Y35632324D01*
X43961092Y35611660D01*
X43961082Y35611657D01*
X43824505Y35555085D01*
X43701584Y35472952D01*
X43701583Y35472950D01*
X43597050Y35368417D01*
X43597048Y35368416D01*
X43514915Y35245495D01*
X43458343Y35108918D01*
X43458340Y35108908D01*
X43429500Y34963917D01*
X42825500Y34963917D01*
X42825500Y35281428D01*
X42825501Y35281441D01*
X42825501Y35412603D01*
X42793134Y35533389D01*
X42793095Y35533536D01*
X42776373Y35562500D01*
X42730495Y35641964D01*
X42641964Y35730495D01*
X42639385Y35733074D01*
X42639374Y35733084D01*
X41699326Y36673132D01*
X41677652Y36725458D01*
X41683284Y36753774D01*
X41697619Y36788380D01*
X41725500Y36928545D01*
X41725500Y37071454D01*
X46274500Y37071454D01*
X46274500Y36928547D01*
X46302379Y36788386D01*
X46302381Y36788380D01*
X46357071Y36656347D01*
X46396312Y36597619D01*
X46433691Y36541676D01*
X46436468Y36537521D01*
X46537521Y36436468D01*
X46656347Y36357071D01*
X46788380Y36302381D01*
X46928545Y36274500D01*
X46928547Y36274500D01*
X47071453Y36274500D01*
X47071455Y36274500D01*
X47211620Y36302381D01*
X47343653Y36357071D01*
X47462479Y36436468D01*
X47563532Y36537521D01*
X47642929Y36656347D01*
X47697619Y36788380D01*
X47725500Y36928545D01*
X47725500Y37071454D01*
X49274500Y37071454D01*
X49274500Y36928547D01*
X49302379Y36788386D01*
X49302381Y36788380D01*
X49357071Y36656347D01*
X49396312Y36597619D01*
X49433691Y36541676D01*
X49436468Y36537521D01*
X49537521Y36436468D01*
X49656347Y36357071D01*
X49788380Y36302381D01*
X49928545Y36274500D01*
X49928547Y36274500D01*
X50071453Y36274500D01*
X50071455Y36274500D01*
X50211620Y36302381D01*
X50343653Y36357071D01*
X50462479Y36436468D01*
X50563532Y36537521D01*
X50642929Y36656347D01*
X50697619Y36788380D01*
X50725500Y36928545D01*
X50725500Y37071454D01*
X52274500Y37071454D01*
X52274500Y36928547D01*
X52302379Y36788386D01*
X52302381Y36788380D01*
X52357071Y36656347D01*
X52396312Y36597619D01*
X52433691Y36541676D01*
X52436468Y36537521D01*
X52537521Y36436468D01*
X52656347Y36357071D01*
X52788380Y36302381D01*
X52928545Y36274500D01*
X52928547Y36274500D01*
X53071453Y36274500D01*
X53071455Y36274500D01*
X53211620Y36302381D01*
X53343653Y36357071D01*
X53462479Y36436468D01*
X53563532Y36537521D01*
X53642929Y36656347D01*
X53697619Y36788380D01*
X53725500Y36928545D01*
X53725500Y37071455D01*
X53725010Y37073917D01*
X58249500Y37073917D01*
X58249500Y36926084D01*
X58278340Y36781093D01*
X58278343Y36781083D01*
X58334915Y36644506D01*
X58406400Y36537522D01*
X58417049Y36521584D01*
X58521584Y36417049D01*
X58644505Y36334916D01*
X58781087Y36278342D01*
X58926082Y36249500D01*
X58926084Y36249500D01*
X59073916Y36249500D01*
X59073918Y36249500D01*
X59218913Y36278342D01*
X59355495Y36334916D01*
X59478416Y36417049D01*
X59582951Y36521584D01*
X59665084Y36644505D01*
X59721658Y36781087D01*
X59750500Y36926082D01*
X59750500Y37073917D01*
X61249500Y37073917D01*
X61249500Y36926084D01*
X61278340Y36781093D01*
X61278343Y36781083D01*
X61334915Y36644506D01*
X61406400Y36537522D01*
X61417049Y36521584D01*
X61521584Y36417049D01*
X61644505Y36334916D01*
X61781087Y36278342D01*
X61926082Y36249500D01*
X61926084Y36249500D01*
X62073916Y36249500D01*
X62073918Y36249500D01*
X62218913Y36278342D01*
X62355495Y36334916D01*
X62478416Y36417049D01*
X62582951Y36521584D01*
X62665084Y36644505D01*
X62721658Y36781087D01*
X62750500Y36926082D01*
X62750500Y37073918D01*
X62721658Y37218913D01*
X62665084Y37355495D01*
X62582951Y37478416D01*
X62478416Y37582951D01*
X62470904Y37587971D01*
X62355494Y37665085D01*
X62218917Y37721657D01*
X62218907Y37721660D01*
X62121811Y37740974D01*
X62073918Y37750500D01*
X61926082Y37750500D01*
X61884977Y37742324D01*
X61781092Y37721660D01*
X61781082Y37721657D01*
X61644505Y37665085D01*
X61521584Y37582952D01*
X61521583Y37582950D01*
X61417050Y37478417D01*
X61417048Y37478416D01*
X61334915Y37355495D01*
X61278343Y37218918D01*
X61278340Y37218908D01*
X61249500Y37073917D01*
X59750500Y37073917D01*
X59750500Y37073918D01*
X59721658Y37218913D01*
X59665084Y37355495D01*
X59582951Y37478416D01*
X59478416Y37582951D01*
X59470904Y37587971D01*
X59355494Y37665085D01*
X59218917Y37721657D01*
X59218907Y37721660D01*
X59121811Y37740974D01*
X59073918Y37750500D01*
X58926082Y37750500D01*
X58884977Y37742324D01*
X58781092Y37721660D01*
X58781082Y37721657D01*
X58644505Y37665085D01*
X58521584Y37582952D01*
X58521583Y37582950D01*
X58417050Y37478417D01*
X58417048Y37478416D01*
X58334915Y37355495D01*
X58278343Y37218918D01*
X58278340Y37218908D01*
X58249500Y37073917D01*
X53725010Y37073917D01*
X53697619Y37211620D01*
X53642929Y37343653D01*
X53563532Y37462479D01*
X53462479Y37563532D01*
X53433416Y37582951D01*
X53423226Y37589760D01*
X53343653Y37642929D01*
X53343650Y37642931D01*
X53343649Y37642931D01*
X53211620Y37697619D01*
X53211614Y37697621D01*
X53117752Y37716291D01*
X53071455Y37725500D01*
X52928545Y37725500D01*
X52888810Y37717597D01*
X52788385Y37697621D01*
X52788379Y37697619D01*
X52656350Y37642931D01*
X52537521Y37563533D01*
X52537520Y37563531D01*
X52436469Y37462480D01*
X52436467Y37462479D01*
X52357069Y37343650D01*
X52302381Y37211621D01*
X52302379Y37211615D01*
X52274500Y37071454D01*
X50725500Y37071454D01*
X50725500Y37071455D01*
X50697619Y37211620D01*
X50642929Y37343653D01*
X50563532Y37462479D01*
X50462479Y37563532D01*
X50433416Y37582951D01*
X50423226Y37589760D01*
X50343653Y37642929D01*
X50343650Y37642931D01*
X50343649Y37642931D01*
X50211620Y37697619D01*
X50211614Y37697621D01*
X50117752Y37716291D01*
X50071455Y37725500D01*
X49928545Y37725500D01*
X49888810Y37717597D01*
X49788385Y37697621D01*
X49788379Y37697619D01*
X49656350Y37642931D01*
X49537521Y37563533D01*
X49537520Y37563531D01*
X49436469Y37462480D01*
X49436467Y37462479D01*
X49357069Y37343650D01*
X49302381Y37211621D01*
X49302379Y37211615D01*
X49274500Y37071454D01*
X47725500Y37071454D01*
X47725500Y37071455D01*
X47697619Y37211620D01*
X47642929Y37343653D01*
X47563532Y37462479D01*
X47462479Y37563532D01*
X47433416Y37582951D01*
X47423226Y37589760D01*
X47343653Y37642929D01*
X47343650Y37642931D01*
X47343649Y37642931D01*
X47211620Y37697619D01*
X47211614Y37697621D01*
X47117752Y37716291D01*
X47071455Y37725500D01*
X46928545Y37725500D01*
X46888810Y37717597D01*
X46788385Y37697621D01*
X46788379Y37697619D01*
X46656350Y37642931D01*
X46537521Y37563533D01*
X46537520Y37563531D01*
X46436469Y37462480D01*
X46436467Y37462479D01*
X46357069Y37343650D01*
X46302381Y37211621D01*
X46302379Y37211615D01*
X46274500Y37071454D01*
X41725500Y37071454D01*
X41725500Y37071455D01*
X41697619Y37211620D01*
X41642929Y37343653D01*
X41563532Y37462479D01*
X41462479Y37563532D01*
X41433416Y37582951D01*
X41423226Y37589760D01*
X41343653Y37642929D01*
X41343650Y37642931D01*
X41343649Y37642931D01*
X41211620Y37697619D01*
X41211614Y37697621D01*
X41117752Y37716291D01*
X41071455Y37725500D01*
X40928545Y37725500D01*
X40888810Y37717597D01*
X40788385Y37697621D01*
X40788379Y37697619D01*
X40656346Y37642929D01*
X40574096Y37587971D01*
X40532984Y37575500D01*
X38467016Y37575500D01*
X38425904Y37587971D01*
X38343653Y37642929D01*
X38211620Y37697619D01*
X38211614Y37697621D01*
X38117752Y37716291D01*
X38071455Y37725500D01*
X37928545Y37725500D01*
X37888810Y37717597D01*
X37788385Y37697621D01*
X37788379Y37697619D01*
X37656346Y37642929D01*
X37574096Y37587971D01*
X37532984Y37575500D01*
X9037397Y37575500D01*
X8916464Y37543096D01*
X8808036Y37480496D01*
X7974715Y36647174D01*
X7922389Y36625500D01*
X7828545Y36625500D01*
X7788810Y36617597D01*
X7688385Y36597621D01*
X7688379Y36597619D01*
X7556350Y36542931D01*
X7437521Y36463533D01*
X7437520Y36463531D01*
X7336469Y36362480D01*
X7336467Y36362479D01*
X7257069Y36243650D01*
X7202381Y36111621D01*
X7202379Y36111615D01*
X7179104Y35994604D01*
X7175149Y35974715D01*
X7174500Y35971454D01*
X7174500Y35828547D01*
X7202379Y35688386D01*
X7202382Y35688376D01*
X7218210Y35650164D01*
X7218210Y35593527D01*
X7178161Y35553479D01*
X7138268Y35548757D01*
X7051493Y35562500D01*
X7051491Y35562500D01*
X6868509Y35562500D01*
X6868508Y35562500D01*
X6687783Y35533877D01*
X6687770Y35533874D01*
X6513762Y35477335D01*
X6350716Y35394260D01*
X6229637Y35306290D01*
X6202682Y35286706D01*
X6073294Y35157318D01*
X6073291Y35157315D01*
X6073291Y35157314D01*
X5965740Y35009284D01*
X5882665Y34846238D01*
X5826126Y34672230D01*
X5826123Y34672217D01*
X5797500Y34491492D01*
X5797500Y34308509D01*
X5826123Y34127784D01*
X5826126Y34127771D01*
X5882665Y33953763D01*
X5965740Y33790717D01*
X6023179Y33711660D01*
X6073294Y33642682D01*
X6202682Y33513294D01*
X6264452Y33468416D01*
X6350716Y33405741D01*
X6427909Y33366410D01*
X6513755Y33322669D01*
X6513758Y33322669D01*
X6513762Y33322666D01*
X6687770Y33266127D01*
X6687776Y33266126D01*
X6687781Y33266124D01*
X6792743Y33249500D01*
X6868508Y33237500D01*
X6868509Y33237500D01*
X7051492Y33237500D01*
X7127257Y33249500D01*
X7232219Y33266124D01*
X7232226Y33266127D01*
X7232229Y33266127D01*
X7406237Y33322666D01*
X7406239Y33322668D01*
X7406245Y33322669D01*
X7569283Y33405741D01*
X7717318Y33513294D01*
X7846706Y33642682D01*
X7954259Y33790717D01*
X8037331Y33953755D01*
X8050245Y33993498D01*
X8093873Y34127771D01*
X8093873Y34127774D01*
X8093876Y34127781D01*
X8122500Y34308509D01*
X8122500Y34491491D01*
X8122500Y34491492D01*
X8337500Y34491492D01*
X8337500Y34308509D01*
X8366123Y34127784D01*
X8366126Y34127771D01*
X8422665Y33953763D01*
X8505740Y33790717D01*
X8563179Y33711660D01*
X8613294Y33642682D01*
X8742682Y33513294D01*
X8804452Y33468416D01*
X8890716Y33405741D01*
X8967909Y33366410D01*
X9053755Y33322669D01*
X9053758Y33322669D01*
X9053762Y33322666D01*
X9227770Y33266127D01*
X9227776Y33266126D01*
X9227781Y33266124D01*
X9332743Y33249500D01*
X9408508Y33237500D01*
X9408509Y33237500D01*
X9591492Y33237500D01*
X9667257Y33249500D01*
X9772219Y33266124D01*
X9772226Y33266127D01*
X9772229Y33266127D01*
X9946237Y33322666D01*
X9946239Y33322668D01*
X9946245Y33322669D01*
X10109283Y33405741D01*
X10257318Y33513294D01*
X10386706Y33642682D01*
X10494259Y33790717D01*
X10577331Y33953755D01*
X10590245Y33993498D01*
X10633873Y34127771D01*
X10633873Y34127774D01*
X10633876Y34127781D01*
X10662500Y34308509D01*
X10662500Y34491491D01*
X10662500Y34491492D01*
X10877500Y34491492D01*
X10877500Y34308509D01*
X10906123Y34127784D01*
X10906126Y34127771D01*
X10962665Y33953763D01*
X11045740Y33790717D01*
X11103179Y33711660D01*
X11153294Y33642682D01*
X11282682Y33513294D01*
X11344452Y33468416D01*
X11430716Y33405741D01*
X11507909Y33366410D01*
X11593755Y33322669D01*
X11593758Y33322669D01*
X11593762Y33322666D01*
X11767770Y33266127D01*
X11767776Y33266126D01*
X11767781Y33266124D01*
X11872743Y33249500D01*
X11948508Y33237500D01*
X11948509Y33237500D01*
X12131492Y33237500D01*
X12207257Y33249500D01*
X12312219Y33266124D01*
X12312226Y33266127D01*
X12312229Y33266127D01*
X12486237Y33322666D01*
X12486239Y33322668D01*
X12486245Y33322669D01*
X12649283Y33405741D01*
X12797318Y33513294D01*
X12926706Y33642682D01*
X13034259Y33790717D01*
X13117331Y33953755D01*
X13130245Y33993498D01*
X13173873Y34127771D01*
X13173873Y34127774D01*
X13173876Y34127781D01*
X13202500Y34308509D01*
X13202500Y34491452D01*
X13418000Y34491452D01*
X13418000Y34308549D01*
X13446611Y34127901D01*
X13446614Y34127888D01*
X13503130Y33953951D01*
X13586168Y33790982D01*
X13673710Y33670489D01*
X14143412Y34140192D01*
X14173498Y34088080D01*
X14268080Y33993498D01*
X14320188Y33963414D01*
X13850487Y33493712D01*
X13970976Y33406171D01*
X14133950Y33323131D01*
X14307887Y33266615D01*
X14307900Y33266612D01*
X14488548Y33238000D01*
X14671452Y33238000D01*
X14852099Y33266612D01*
X14852112Y33266615D01*
X15026049Y33323131D01*
X15189022Y33406171D01*
X15189023Y33406171D01*
X15309511Y33493711D01*
X14839810Y33963413D01*
X14891920Y33993498D01*
X14986502Y34088080D01*
X15016587Y34140190D01*
X15486289Y33670489D01*
X15573829Y33790977D01*
X15573829Y33790978D01*
X15656869Y33953951D01*
X15713385Y34127888D01*
X15713388Y34127901D01*
X15742000Y34308549D01*
X15742000Y34491452D01*
X15741994Y34491492D01*
X15957500Y34491492D01*
X15957500Y34308509D01*
X15986123Y34127784D01*
X15986126Y34127771D01*
X16042665Y33953763D01*
X16125740Y33790717D01*
X16183179Y33711660D01*
X16233294Y33642682D01*
X16362682Y33513294D01*
X16424452Y33468416D01*
X16510716Y33405741D01*
X16587909Y33366410D01*
X16673755Y33322669D01*
X16673758Y33322669D01*
X16673762Y33322666D01*
X16847770Y33266127D01*
X16847776Y33266126D01*
X16847781Y33266124D01*
X16952743Y33249500D01*
X17028508Y33237500D01*
X17028509Y33237500D01*
X17211492Y33237500D01*
X17287257Y33249500D01*
X17392219Y33266124D01*
X17392226Y33266127D01*
X17392229Y33266127D01*
X17566237Y33322666D01*
X17566239Y33322668D01*
X17566245Y33322669D01*
X17729283Y33405741D01*
X17877318Y33513294D01*
X18006706Y33642682D01*
X18114259Y33790717D01*
X18197331Y33953755D01*
X18210245Y33993498D01*
X18253873Y34127771D01*
X18253873Y34127774D01*
X18253876Y34127781D01*
X18282500Y34308509D01*
X18282500Y34491491D01*
X18253876Y34672219D01*
X18253874Y34672224D01*
X18253873Y34672230D01*
X18197334Y34846238D01*
X18197331Y34846242D01*
X18197331Y34846245D01*
X18153590Y34932091D01*
X18114259Y35009284D01*
X18049136Y35098918D01*
X18006706Y35157318D01*
X17877318Y35286706D01*
X17808825Y35336469D01*
X17729283Y35394260D01*
X17566237Y35477335D01*
X17392229Y35533874D01*
X17392216Y35533877D01*
X17211492Y35562500D01*
X17211491Y35562500D01*
X17028509Y35562500D01*
X17028508Y35562500D01*
X16847783Y35533877D01*
X16847770Y35533874D01*
X16673762Y35477335D01*
X16510716Y35394260D01*
X16389637Y35306290D01*
X16362682Y35286706D01*
X16233294Y35157318D01*
X16233291Y35157315D01*
X16233291Y35157314D01*
X16125740Y35009284D01*
X16042665Y34846238D01*
X15986126Y34672230D01*
X15986123Y34672217D01*
X15957500Y34491492D01*
X15741994Y34491492D01*
X15713388Y34672100D01*
X15713385Y34672113D01*
X15656869Y34846050D01*
X15573829Y35009023D01*
X15573829Y35009024D01*
X15486288Y35129513D01*
X15016586Y34659812D01*
X14986502Y34711920D01*
X14891920Y34806502D01*
X14839808Y34836588D01*
X15309511Y35306290D01*
X15189018Y35393832D01*
X15026049Y35476870D01*
X14852112Y35533386D01*
X14852099Y35533389D01*
X14671452Y35562000D01*
X14488548Y35562000D01*
X14307900Y35533389D01*
X14307887Y35533386D01*
X14133952Y35476871D01*
X13970983Y35393834D01*
X13850487Y35306290D01*
X14320189Y34836588D01*
X14268080Y34806502D01*
X14173498Y34711920D01*
X14143412Y34659811D01*
X13673710Y35129513D01*
X13586166Y35009017D01*
X13503129Y34846048D01*
X13446614Y34672113D01*
X13446611Y34672100D01*
X13418000Y34491452D01*
X13202500Y34491452D01*
X13202500Y34491491D01*
X13173876Y34672219D01*
X13173874Y34672224D01*
X13173873Y34672230D01*
X13117334Y34846238D01*
X13117331Y34846242D01*
X13117331Y34846245D01*
X13073590Y34932091D01*
X13034259Y35009284D01*
X12969136Y35098918D01*
X12926706Y35157318D01*
X12797318Y35286706D01*
X12728825Y35336469D01*
X12649283Y35394260D01*
X12486237Y35477335D01*
X12312229Y35533874D01*
X12312216Y35533877D01*
X12131492Y35562500D01*
X12131491Y35562500D01*
X11948509Y35562500D01*
X11948508Y35562500D01*
X11767783Y35533877D01*
X11767770Y35533874D01*
X11593762Y35477335D01*
X11430716Y35394260D01*
X11309637Y35306290D01*
X11282682Y35286706D01*
X11153294Y35157318D01*
X11153291Y35157315D01*
X11153291Y35157314D01*
X11045740Y35009284D01*
X10962665Y34846238D01*
X10906126Y34672230D01*
X10906123Y34672217D01*
X10877500Y34491492D01*
X10662500Y34491492D01*
X10633876Y34672219D01*
X10633874Y34672224D01*
X10633873Y34672230D01*
X10577334Y34846238D01*
X10577331Y34846242D01*
X10577331Y34846245D01*
X10533590Y34932091D01*
X10494259Y35009284D01*
X10429136Y35098918D01*
X10386706Y35157318D01*
X10257318Y35286706D01*
X10188825Y35336469D01*
X10109283Y35394260D01*
X9946237Y35477335D01*
X9772229Y35533874D01*
X9772216Y35533877D01*
X9591492Y35562500D01*
X9591491Y35562500D01*
X9408509Y35562500D01*
X9408508Y35562500D01*
X9227783Y35533877D01*
X9227770Y35533874D01*
X9053762Y35477335D01*
X8890716Y35394260D01*
X8769637Y35306290D01*
X8742682Y35286706D01*
X8613294Y35157318D01*
X8613291Y35157315D01*
X8613291Y35157314D01*
X8505740Y35009284D01*
X8422665Y34846238D01*
X8366126Y34672230D01*
X8366123Y34672217D01*
X8337500Y34491492D01*
X8122500Y34491492D01*
X8093876Y34672219D01*
X8093874Y34672224D01*
X8093873Y34672230D01*
X8037334Y34846238D01*
X8037331Y34846242D01*
X8037331Y34846245D01*
X7993590Y34932091D01*
X7954259Y35009284D01*
X7919296Y35057406D01*
X7906074Y35112478D01*
X7935667Y35160769D01*
X7968032Y35173069D01*
X7967889Y35173791D01*
X7971453Y35174500D01*
X7971455Y35174500D01*
X8111620Y35202381D01*
X8243653Y35257071D01*
X8362479Y35336468D01*
X8463532Y35437521D01*
X8542929Y35556347D01*
X8597619Y35688380D01*
X8625500Y35828545D01*
X8625500Y35922389D01*
X8647174Y35974715D01*
X9275285Y36602826D01*
X9327611Y36624500D01*
X22631947Y36624500D01*
X22684273Y36602826D01*
X22705947Y36550500D01*
X22695042Y36511835D01*
X22647043Y36433510D01*
X22647038Y36433500D01*
X22625363Y36381172D01*
X22614349Y36351314D01*
X22614347Y36351308D01*
X22614347Y36351306D01*
X22612030Y36336677D01*
X22594500Y36226001D01*
X22594500Y26549500D01*
X22572826Y26497174D01*
X22520500Y26475500D01*
X19685226Y26475500D01*
X19632900Y26497174D01*
X19611226Y26549500D01*
X19612648Y26563937D01*
X19615065Y26576084D01*
X19625500Y26628545D01*
X19625500Y26771455D01*
X19597619Y26911620D01*
X19542929Y27043653D01*
X19463532Y27162479D01*
X19362479Y27263532D01*
X19346064Y27274500D01*
X19285324Y27315085D01*
X19243653Y27342929D01*
X19243650Y27342931D01*
X19243649Y27342931D01*
X19111620Y27397619D01*
X19111614Y27397621D01*
X19017752Y27416291D01*
X18971455Y27425500D01*
X18828545Y27425500D01*
X18788810Y27417597D01*
X18688385Y27397621D01*
X18688379Y27397619D01*
X18556350Y27342931D01*
X18437521Y27263533D01*
X18437520Y27263531D01*
X18336469Y27162480D01*
X18336467Y27162479D01*
X18257069Y27043650D01*
X18202381Y26911621D01*
X18202379Y26911615D01*
X18187432Y26836469D01*
X18174500Y26771455D01*
X18174500Y26628545D01*
X18184935Y26576084D01*
X18187352Y26563937D01*
X18176303Y26508388D01*
X18129211Y26476922D01*
X18114774Y26475500D01*
X16685226Y26475500D01*
X16632900Y26497174D01*
X16611226Y26549500D01*
X16612648Y26563937D01*
X16615065Y26576084D01*
X16625500Y26628545D01*
X16625500Y26771455D01*
X16597619Y26911620D01*
X16542929Y27043653D01*
X16463532Y27162479D01*
X16362479Y27263532D01*
X16346064Y27274500D01*
X16285324Y27315085D01*
X16243653Y27342929D01*
X16243650Y27342931D01*
X16243649Y27342931D01*
X16111620Y27397619D01*
X16111614Y27397621D01*
X16017752Y27416291D01*
X15971455Y27425500D01*
X15828545Y27425500D01*
X15788810Y27417597D01*
X15688385Y27397621D01*
X15688379Y27397619D01*
X15556350Y27342931D01*
X15437521Y27263533D01*
X15437520Y27263531D01*
X15336469Y27162480D01*
X15336467Y27162479D01*
X15257069Y27043650D01*
X15202381Y26911621D01*
X15202379Y26911615D01*
X15187432Y26836469D01*
X15174500Y26771455D01*
X15174500Y26628545D01*
X15184935Y26576084D01*
X15187352Y26563937D01*
X15176303Y26508388D01*
X15129211Y26476922D01*
X15114774Y26475500D01*
X13685226Y26475500D01*
X13632900Y26497174D01*
X13611226Y26549500D01*
X13612648Y26563937D01*
X13615065Y26576084D01*
X13625500Y26628545D01*
X13625500Y26771455D01*
X13597619Y26911620D01*
X13542929Y27043653D01*
X13463532Y27162479D01*
X13362479Y27263532D01*
X13346064Y27274500D01*
X13285324Y27315085D01*
X13243653Y27342929D01*
X13243650Y27342931D01*
X13243649Y27342931D01*
X13111620Y27397619D01*
X13111614Y27397621D01*
X13017752Y27416291D01*
X12971455Y27425500D01*
X12828545Y27425500D01*
X12788810Y27417597D01*
X12688385Y27397621D01*
X12688379Y27397619D01*
X12556350Y27342931D01*
X12437521Y27263533D01*
X12437520Y27263531D01*
X12336469Y27162480D01*
X12336467Y27162479D01*
X12257069Y27043650D01*
X12202381Y26911621D01*
X12202379Y26911615D01*
X12187432Y26836469D01*
X12174500Y26771455D01*
X12174500Y26628545D01*
X12184935Y26576084D01*
X12187352Y26563937D01*
X12176303Y26508388D01*
X12129211Y26476922D01*
X12114774Y26475500D01*
X11937397Y26475500D01*
X11816464Y26443096D01*
X11708036Y26380496D01*
X11019504Y25691964D01*
X10956904Y25583536D01*
X10924500Y25462604D01*
X10924500Y23960535D01*
X10902826Y23908209D01*
X10850500Y23886535D01*
X10809388Y23899006D01*
X10795615Y23908209D01*
X10743653Y23942929D01*
X10743650Y23942931D01*
X10743649Y23942931D01*
X10611620Y23997619D01*
X10611614Y23997621D01*
X10517752Y24016291D01*
X10471455Y24025500D01*
X10328545Y24025500D01*
X10288810Y24017597D01*
X10188385Y23997621D01*
X10188379Y23997619D01*
X10056350Y23942931D01*
X9937521Y23863533D01*
X9937520Y23863531D01*
X9836469Y23762480D01*
X9836467Y23762479D01*
X9757069Y23643650D01*
X9702381Y23511621D01*
X9702379Y23511615D01*
X9674500Y23371454D01*
X9674500Y23228547D01*
X9702379Y23088386D01*
X9702381Y23088380D01*
X9749551Y22974500D01*
X9757071Y22956347D01*
X9836468Y22837521D01*
X9937521Y22736468D01*
X10056347Y22657071D01*
X10188380Y22602381D01*
X10328545Y22574500D01*
X10328547Y22574500D01*
X10471453Y22574500D01*
X10471455Y22574500D01*
X10611620Y22602381D01*
X10743653Y22657071D01*
X10809390Y22700996D01*
X10864936Y22712044D01*
X10912029Y22680578D01*
X10924500Y22639466D01*
X10924500Y22360535D01*
X10902826Y22308209D01*
X10850500Y22286535D01*
X10809388Y22299006D01*
X10769737Y22325500D01*
X10743653Y22342929D01*
X10743650Y22342931D01*
X10743649Y22342931D01*
X10611620Y22397619D01*
X10611614Y22397621D01*
X10513935Y22417050D01*
X10471455Y22425500D01*
X10328545Y22425500D01*
X10288810Y22417597D01*
X10188385Y22397621D01*
X10188379Y22397619D01*
X10056350Y22342931D01*
X9937521Y22263533D01*
X9937520Y22263531D01*
X9836469Y22162480D01*
X9836467Y22162479D01*
X9757069Y22043650D01*
X9702381Y21911621D01*
X9702379Y21911615D01*
X9682489Y21811620D01*
X9674500Y21771455D01*
X9674500Y21628545D01*
X9675421Y21623917D01*
X9702379Y21488386D01*
X9702381Y21488380D01*
X9757071Y21356347D01*
X9798962Y21293653D01*
X9827795Y21250500D01*
X9836468Y21237521D01*
X9937521Y21136468D01*
X10056347Y21057071D01*
X10188380Y21002381D01*
X10328545Y20974500D01*
X10328547Y20974500D01*
X10471453Y20974500D01*
X10471455Y20974500D01*
X10611620Y21002381D01*
X10743653Y21057071D01*
X10809390Y21100996D01*
X10864936Y21112044D01*
X10912029Y21080578D01*
X10924500Y21039466D01*
X10924500Y20161612D01*
X10918869Y20148019D01*
X10918872Y20133306D01*
X10908461Y20122892D01*
X10902826Y20109286D01*
X10889232Y20103656D01*
X10878831Y20093250D01*
X10864105Y20093248D01*
X10850500Y20087612D01*
X10822194Y20093240D01*
X10821194Y20093654D01*
X10781138Y20133695D01*
X10775500Y20162026D01*
X10775500Y20171454D01*
X10764948Y20224500D01*
X10747619Y20311620D01*
X10692929Y20443653D01*
X10613532Y20562479D01*
X10512479Y20663532D01*
X10393653Y20742929D01*
X10393650Y20742931D01*
X10393649Y20742931D01*
X10261620Y20797619D01*
X10261614Y20797621D01*
X10167752Y20816291D01*
X10121455Y20825500D01*
X9978545Y20825500D01*
X9938810Y20817597D01*
X9838385Y20797621D01*
X9838379Y20797619D01*
X9706350Y20742931D01*
X9587521Y20663533D01*
X9587520Y20663531D01*
X9486469Y20562480D01*
X9486467Y20562479D01*
X9407069Y20443650D01*
X9352381Y20311621D01*
X9352379Y20311615D01*
X9340597Y20252381D01*
X9324500Y20171455D01*
X9324500Y20028545D01*
X9325885Y20021584D01*
X9352379Y19888386D01*
X9352381Y19888380D01*
X9396054Y19782943D01*
X9407071Y19756347D01*
X9430250Y19721657D01*
X9475119Y19654505D01*
X9486468Y19637521D01*
X9587521Y19536468D01*
X9706347Y19457071D01*
X9706352Y19457069D01*
X9706351Y19457069D01*
X9718623Y19451986D01*
X9828818Y19406342D01*
X9868867Y19366294D01*
X9874500Y19337975D01*
X9874500Y19328545D01*
X9874541Y19328341D01*
X9902379Y19188386D01*
X9902382Y19188376D01*
X9918745Y19148873D01*
X9918745Y19092236D01*
X9878699Y19052189D01*
X9856350Y19042932D01*
X9737521Y18963533D01*
X9737520Y18963531D01*
X9636469Y18862480D01*
X9636467Y18862479D01*
X9557069Y18743650D01*
X9502381Y18611621D01*
X9502379Y18611615D01*
X9484471Y18521584D01*
X9474500Y18471455D01*
X9474500Y18328545D01*
X9477178Y18315084D01*
X9502379Y18188386D01*
X9502381Y18188380D01*
X9527218Y18128417D01*
X9557071Y18056347D01*
X9596852Y17996811D01*
X9631794Y17944516D01*
X9642843Y17888967D01*
X9611377Y17841875D01*
X9571909Y17829422D01*
X8407989Y17803557D01*
X8378027Y17809172D01*
X8287624Y17846618D01*
X8287614Y17846621D01*
X8175542Y17868913D01*
X8147455Y17874500D01*
X8004545Y17874500D01*
X7976483Y17868918D01*
X7864385Y17846621D01*
X7864375Y17846618D01*
X7736517Y17793657D01*
X7709843Y17788042D01*
X6773450Y17767234D01*
X6720655Y17787741D01*
X6703439Y17812898D01*
X6665084Y17905495D01*
X6582951Y18028416D01*
X6478415Y18132952D01*
X6355494Y18215085D01*
X6218917Y18271657D01*
X6218907Y18271660D01*
X6121811Y18290974D01*
X6073918Y18300500D01*
X5926082Y18300500D01*
X5884977Y18292324D01*
X5781092Y18271660D01*
X5781082Y18271657D01*
X5644505Y18215085D01*
X5521584Y18132952D01*
X5521583Y18132950D01*
X5427326Y18038693D01*
X5375000Y18017019D01*
X5322674Y18038693D01*
X5228415Y18132952D01*
X5105494Y18215085D01*
X4968917Y18271657D01*
X4968907Y18271660D01*
X4871811Y18290974D01*
X4823918Y18300500D01*
X4676082Y18300500D01*
X4634977Y18292324D01*
X4531092Y18271660D01*
X4531082Y18271657D01*
X4394505Y18215085D01*
X4271584Y18132952D01*
X4271583Y18132950D01*
X4167050Y18028417D01*
X4167048Y18028416D01*
X4084915Y17905495D01*
X4028342Y17768916D01*
X4028338Y17768901D01*
X4027397Y17764171D01*
X3995926Y17717082D01*
X3956465Y17704634D01*
X2813329Y17679230D01*
X2786049Y17677702D01*
X2663024Y17646716D01*
X2663022Y17646716D01*
X2663021Y17646715D01*
X2654161Y17642929D01*
X2612335Y17625057D01*
X2559798Y17597919D01*
X2463330Y17515527D01*
X2463328Y17515524D01*
X2397043Y17407358D01*
X2397038Y17407348D01*
X2375363Y17355020D01*
X2364349Y17325162D01*
X2364347Y17325153D01*
X2346365Y17211620D01*
X2344500Y17199848D01*
X2344500Y15922386D01*
X2344500Y15122386D01*
X2344500Y7261168D01*
X2344500Y2574000D01*
X2345750Y2542186D01*
X2374122Y2424003D01*
X2375366Y2418823D01*
X2397040Y2366496D01*
X2397041Y2366494D01*
X2425928Y2309802D01*
X2425930Y2309799D01*
X2508321Y2213331D01*
X2508324Y2213329D01*
X2595674Y2159800D01*
X2616497Y2147040D01*
X2668823Y2125366D01*
X2698694Y2114347D01*
X2808926Y2096888D01*
X2823999Y2094500D01*
X2824000Y2094500D01*
X9194743Y2094500D01*
X9247069Y2072826D01*
X9268743Y2020500D01*
X9260677Y1986905D01*
X9230131Y1926957D01*
X9230125Y1926943D01*
X9176600Y1762212D01*
X9176597Y1762199D01*
X9149500Y1591112D01*
X9149500Y1417889D01*
X9176597Y1246802D01*
X9176599Y1246793D01*
X9225314Y1096868D01*
X9220871Y1040405D01*
X9177804Y1003622D01*
X9154936Y1000000D01*
X1074000Y1000000D01*
X1021674Y1021674D01*
X1000000Y1074000D01*
X1000000Y21021454D01*
X7374500Y21021454D01*
X7374500Y20878547D01*
X7402379Y20738386D01*
X7402381Y20738380D01*
X7446051Y20632950D01*
X7457071Y20606347D01*
X7536468Y20487521D01*
X7637521Y20386468D01*
X7756347Y20307071D01*
X7888380Y20252381D01*
X8028545Y20224500D01*
X8028547Y20224500D01*
X8171453Y20224500D01*
X8171455Y20224500D01*
X8311620Y20252381D01*
X8443653Y20307071D01*
X8562479Y20386468D01*
X8663532Y20487521D01*
X8742929Y20606347D01*
X8797619Y20738380D01*
X8825500Y20878545D01*
X8825500Y21021455D01*
X8797619Y21161620D01*
X8742929Y21293653D01*
X8663532Y21412479D01*
X8562479Y21513532D01*
X8550428Y21521584D01*
X8523226Y21539760D01*
X8443653Y21592929D01*
X8443650Y21592931D01*
X8443649Y21592931D01*
X8311620Y21647619D01*
X8311614Y21647621D01*
X8217752Y21666291D01*
X8171455Y21675500D01*
X8028545Y21675500D01*
X7988810Y21667597D01*
X7888385Y21647621D01*
X7888379Y21647619D01*
X7756350Y21592931D01*
X7637521Y21513533D01*
X7637520Y21513531D01*
X7536469Y21412480D01*
X7536467Y21412479D01*
X7457069Y21293650D01*
X7402381Y21161621D01*
X7402379Y21161615D01*
X7374500Y21021454D01*
X1000000Y21021454D01*
X1000000Y23771454D01*
X4674500Y23771454D01*
X4674500Y23628547D01*
X4702379Y23488386D01*
X4702381Y23488380D01*
X4757071Y23356347D01*
X4836468Y23237521D01*
X4937521Y23136468D01*
X5056347Y23057071D01*
X5188380Y23002381D01*
X5328545Y22974500D01*
X5328547Y22974500D01*
X5471453Y22974500D01*
X5471455Y22974500D01*
X5611620Y23002381D01*
X5743653Y23057071D01*
X5862479Y23136468D01*
X5963532Y23237521D01*
X6042929Y23356347D01*
X6097619Y23488380D01*
X6125500Y23628545D01*
X6125500Y23771455D01*
X6097619Y23911620D01*
X6042929Y24043653D01*
X5963532Y24162479D01*
X5862479Y24263532D01*
X5857215Y24267049D01*
X5823226Y24289760D01*
X5743653Y24342929D01*
X5743650Y24342931D01*
X5743649Y24342931D01*
X5611620Y24397619D01*
X5611614Y24397621D01*
X5517752Y24416291D01*
X5471455Y24425500D01*
X5328545Y24425500D01*
X5288810Y24417597D01*
X5188385Y24397621D01*
X5188379Y24397619D01*
X5056350Y24342931D01*
X4937521Y24263533D01*
X4937520Y24263531D01*
X4836469Y24162480D01*
X4836467Y24162479D01*
X4757069Y24043650D01*
X4702381Y23911621D01*
X4702379Y23911615D01*
X4674500Y23771454D01*
X1000000Y23771454D01*
X1000000Y26771454D01*
X6174500Y26771454D01*
X6174500Y26628547D01*
X6202379Y26488386D01*
X6202381Y26488380D01*
X6256771Y26357070D01*
X6257071Y26356347D01*
X6336468Y26237521D01*
X6437521Y26136468D01*
X6556347Y26057071D01*
X6688380Y26002381D01*
X6828545Y25974500D01*
X6828547Y25974500D01*
X6971453Y25974500D01*
X6971455Y25974500D01*
X7111620Y26002381D01*
X7243653Y26057071D01*
X7362479Y26136468D01*
X7463532Y26237521D01*
X7542929Y26356347D01*
X7597619Y26488380D01*
X7625500Y26628545D01*
X7625500Y26771454D01*
X9174500Y26771454D01*
X9174500Y26628547D01*
X9202379Y26488386D01*
X9202381Y26488380D01*
X9256771Y26357070D01*
X9257071Y26356347D01*
X9336468Y26237521D01*
X9437521Y26136468D01*
X9556347Y26057071D01*
X9688380Y26002381D01*
X9828545Y25974500D01*
X9828547Y25974500D01*
X9971453Y25974500D01*
X9971455Y25974500D01*
X10111620Y26002381D01*
X10243653Y26057071D01*
X10362479Y26136468D01*
X10463532Y26237521D01*
X10542929Y26356347D01*
X10597619Y26488380D01*
X10625500Y26628545D01*
X10625500Y26771455D01*
X10597619Y26911620D01*
X10542929Y27043653D01*
X10463532Y27162479D01*
X10362479Y27263532D01*
X10346064Y27274500D01*
X10285324Y27315085D01*
X10243653Y27342929D01*
X10243650Y27342931D01*
X10243649Y27342931D01*
X10111620Y27397619D01*
X10111614Y27397621D01*
X10017752Y27416291D01*
X9971455Y27425500D01*
X9828545Y27425500D01*
X9788810Y27417597D01*
X9688385Y27397621D01*
X9688379Y27397619D01*
X9556350Y27342931D01*
X9437521Y27263533D01*
X9437520Y27263531D01*
X9336469Y27162480D01*
X9336467Y27162479D01*
X9257069Y27043650D01*
X9202381Y26911621D01*
X9202379Y26911615D01*
X9187432Y26836469D01*
X9175421Y26776082D01*
X9174500Y26771454D01*
X7625500Y26771454D01*
X7625500Y26771455D01*
X7597619Y26911620D01*
X7542929Y27043653D01*
X7463532Y27162479D01*
X7362479Y27263532D01*
X7346064Y27274500D01*
X7285324Y27315085D01*
X7243653Y27342929D01*
X7243650Y27342931D01*
X7243649Y27342931D01*
X7111620Y27397619D01*
X7111614Y27397621D01*
X7017752Y27416291D01*
X6971455Y27425500D01*
X6828545Y27425500D01*
X6788810Y27417597D01*
X6688385Y27397621D01*
X6688379Y27397619D01*
X6556350Y27342931D01*
X6437521Y27263533D01*
X6437520Y27263531D01*
X6336469Y27162480D01*
X6336467Y27162479D01*
X6257069Y27043650D01*
X6202381Y26911621D01*
X6202379Y26911615D01*
X6187432Y26836469D01*
X6175421Y26776082D01*
X6174500Y26771454D01*
X1000000Y26771454D01*
X1000000Y31951492D01*
X5797500Y31951492D01*
X5797500Y31768509D01*
X5826123Y31587784D01*
X5826126Y31587771D01*
X5882665Y31413763D01*
X5965740Y31250717D01*
X5994146Y31211620D01*
X6073294Y31102682D01*
X6202682Y30973294D01*
X6264274Y30928545D01*
X6350716Y30865741D01*
X6427909Y30826410D01*
X6513755Y30782669D01*
X6513758Y30782669D01*
X6513762Y30782666D01*
X6687770Y30726127D01*
X6687776Y30726126D01*
X6687781Y30726124D01*
X6808266Y30707042D01*
X6868508Y30697500D01*
X6868509Y30697500D01*
X7051492Y30697500D01*
X7096673Y30704656D01*
X7232219Y30726124D01*
X7232226Y30726127D01*
X7232229Y30726127D01*
X7406237Y30782666D01*
X7406239Y30782668D01*
X7406245Y30782669D01*
X7569283Y30865741D01*
X7717318Y30973294D01*
X7846706Y31102682D01*
X7954259Y31250717D01*
X8037331Y31413755D01*
X8038402Y31417049D01*
X8093873Y31587771D01*
X8093873Y31587774D01*
X8093876Y31587781D01*
X8122500Y31768509D01*
X8122500Y31951491D01*
X8122500Y31951492D01*
X8337500Y31951492D01*
X8337500Y31768509D01*
X8366123Y31587784D01*
X8366126Y31587771D01*
X8422665Y31413763D01*
X8505740Y31250717D01*
X8534146Y31211620D01*
X8613294Y31102682D01*
X8742682Y30973294D01*
X8804274Y30928545D01*
X8890716Y30865741D01*
X8967909Y30826410D01*
X9053755Y30782669D01*
X9053758Y30782669D01*
X9053762Y30782666D01*
X9227770Y30726127D01*
X9227776Y30726126D01*
X9227781Y30726124D01*
X9348266Y30707042D01*
X9408508Y30697500D01*
X9408509Y30697500D01*
X9591492Y30697500D01*
X9636673Y30704656D01*
X9772219Y30726124D01*
X9772226Y30726127D01*
X9772229Y30726127D01*
X9946237Y30782666D01*
X9946239Y30782668D01*
X9946245Y30782669D01*
X10109283Y30865741D01*
X10257318Y30973294D01*
X10386706Y31102682D01*
X10494259Y31250717D01*
X10577331Y31413755D01*
X10578402Y31417049D01*
X10633873Y31587771D01*
X10633873Y31587774D01*
X10633876Y31587781D01*
X10662500Y31768509D01*
X10662500Y31951491D01*
X10662500Y31951492D01*
X10877500Y31951492D01*
X10877500Y31768509D01*
X10906123Y31587784D01*
X10906126Y31587771D01*
X10962665Y31413763D01*
X11045740Y31250717D01*
X11074146Y31211620D01*
X11153294Y31102682D01*
X11282682Y30973294D01*
X11344274Y30928545D01*
X11430716Y30865741D01*
X11507909Y30826410D01*
X11593755Y30782669D01*
X11593758Y30782669D01*
X11593762Y30782666D01*
X11767770Y30726127D01*
X11767776Y30726126D01*
X11767781Y30726124D01*
X11888266Y30707042D01*
X11948508Y30697500D01*
X11948509Y30697500D01*
X12131492Y30697500D01*
X12176673Y30704656D01*
X12312219Y30726124D01*
X12312226Y30726127D01*
X12312229Y30726127D01*
X12486237Y30782666D01*
X12486239Y30782668D01*
X12486245Y30782669D01*
X12649283Y30865741D01*
X12797318Y30973294D01*
X12926706Y31102682D01*
X13034259Y31250717D01*
X13117331Y31413755D01*
X13118402Y31417049D01*
X13173873Y31587771D01*
X13173873Y31587774D01*
X13173876Y31587781D01*
X13202500Y31768509D01*
X13202500Y31951452D01*
X13418000Y31951452D01*
X13418000Y31768549D01*
X13446611Y31587901D01*
X13446614Y31587888D01*
X13503130Y31413951D01*
X13586168Y31250982D01*
X13673710Y31130489D01*
X14143412Y31600192D01*
X14173498Y31548080D01*
X14268080Y31453498D01*
X14320188Y31423414D01*
X13850487Y30953712D01*
X13970976Y30866171D01*
X14133950Y30783131D01*
X14307887Y30726615D01*
X14307900Y30726612D01*
X14488548Y30698000D01*
X14671452Y30698000D01*
X14852099Y30726612D01*
X14852112Y30726615D01*
X15026049Y30783131D01*
X15189022Y30866171D01*
X15189023Y30866171D01*
X15309511Y30953711D01*
X14839810Y31423413D01*
X14891920Y31453498D01*
X14986502Y31548080D01*
X15016587Y31600190D01*
X15486289Y31130489D01*
X15573829Y31250977D01*
X15573829Y31250978D01*
X15656869Y31413951D01*
X15713385Y31587888D01*
X15713388Y31587901D01*
X15742000Y31768549D01*
X15742000Y31951452D01*
X15741994Y31951492D01*
X15957500Y31951492D01*
X15957500Y31768509D01*
X15986123Y31587784D01*
X15986126Y31587771D01*
X16042665Y31413763D01*
X16125740Y31250717D01*
X16154146Y31211620D01*
X16233294Y31102682D01*
X16362682Y30973294D01*
X16424274Y30928545D01*
X16510716Y30865741D01*
X16587909Y30826410D01*
X16673755Y30782669D01*
X16673758Y30782669D01*
X16673762Y30782666D01*
X16847770Y30726127D01*
X16847776Y30726126D01*
X16847781Y30726124D01*
X16968266Y30707042D01*
X17028508Y30697500D01*
X17028509Y30697500D01*
X17211492Y30697500D01*
X17256673Y30704656D01*
X17392219Y30726124D01*
X17392226Y30726127D01*
X17392229Y30726127D01*
X17566237Y30782666D01*
X17566239Y30782668D01*
X17566245Y30782669D01*
X17729283Y30865741D01*
X17877318Y30973294D01*
X18006706Y31102682D01*
X18114259Y31250717D01*
X18197331Y31413755D01*
X18198402Y31417049D01*
X18253873Y31587771D01*
X18253873Y31587774D01*
X18253876Y31587781D01*
X18282500Y31768509D01*
X18282500Y31951491D01*
X18253876Y32132219D01*
X18253874Y32132224D01*
X18253873Y32132230D01*
X18197334Y32306238D01*
X18197331Y32306242D01*
X18197331Y32306245D01*
X18114395Y32469017D01*
X18114259Y32469284D01*
X18066399Y32535157D01*
X18006706Y32617318D01*
X17877318Y32746706D01*
X17819949Y32788387D01*
X17729283Y32854260D01*
X17566237Y32937335D01*
X17392229Y32993874D01*
X17392216Y32993877D01*
X17211492Y33022500D01*
X17211491Y33022500D01*
X17028509Y33022500D01*
X17028508Y33022500D01*
X16847783Y32993877D01*
X16847770Y32993874D01*
X16673762Y32937335D01*
X16510716Y32854260D01*
X16396234Y32771083D01*
X16362682Y32746706D01*
X16233294Y32617318D01*
X16233291Y32617315D01*
X16233291Y32617314D01*
X16125740Y32469284D01*
X16042665Y32306238D01*
X15986126Y32132230D01*
X15986123Y32132217D01*
X15957500Y31951492D01*
X15741994Y31951492D01*
X15713388Y32132100D01*
X15713385Y32132113D01*
X15656869Y32306050D01*
X15573829Y32469023D01*
X15573829Y32469024D01*
X15486288Y32589513D01*
X15016586Y32119812D01*
X14986502Y32171920D01*
X14891920Y32266502D01*
X14839808Y32296588D01*
X15309511Y32766290D01*
X15189018Y32853832D01*
X15026049Y32936870D01*
X14852112Y32993386D01*
X14852099Y32993389D01*
X14671452Y33022000D01*
X14488548Y33022000D01*
X14307900Y32993389D01*
X14307887Y32993386D01*
X14133952Y32936871D01*
X13970983Y32853834D01*
X13850487Y32766290D01*
X14320189Y32296588D01*
X14268080Y32266502D01*
X14173498Y32171920D01*
X14143412Y32119811D01*
X13673710Y32589513D01*
X13586166Y32469017D01*
X13503129Y32306048D01*
X13446614Y32132113D01*
X13446611Y32132100D01*
X13418000Y31951452D01*
X13202500Y31951452D01*
X13202500Y31951491D01*
X13173876Y32132219D01*
X13173874Y32132224D01*
X13173873Y32132230D01*
X13117334Y32306238D01*
X13117331Y32306242D01*
X13117331Y32306245D01*
X13034395Y32469017D01*
X13034259Y32469284D01*
X12986399Y32535157D01*
X12926706Y32617318D01*
X12797318Y32746706D01*
X12739949Y32788387D01*
X12649283Y32854260D01*
X12486237Y32937335D01*
X12312229Y32993874D01*
X12312216Y32993877D01*
X12131492Y33022500D01*
X12131491Y33022500D01*
X11948509Y33022500D01*
X11948508Y33022500D01*
X11767783Y32993877D01*
X11767770Y32993874D01*
X11593762Y32937335D01*
X11430716Y32854260D01*
X11316234Y32771083D01*
X11282682Y32746706D01*
X11153294Y32617318D01*
X11153291Y32617315D01*
X11153291Y32617314D01*
X11045740Y32469284D01*
X10962665Y32306238D01*
X10906126Y32132230D01*
X10906123Y32132217D01*
X10877500Y31951492D01*
X10662500Y31951492D01*
X10633876Y32132219D01*
X10633874Y32132224D01*
X10633873Y32132230D01*
X10577334Y32306238D01*
X10577331Y32306242D01*
X10577331Y32306245D01*
X10494395Y32469017D01*
X10494259Y32469284D01*
X10446399Y32535157D01*
X10386706Y32617318D01*
X10257318Y32746706D01*
X10199949Y32788387D01*
X10109283Y32854260D01*
X9946237Y32937335D01*
X9772229Y32993874D01*
X9772216Y32993877D01*
X9591492Y33022500D01*
X9591491Y33022500D01*
X9408509Y33022500D01*
X9408508Y33022500D01*
X9227783Y32993877D01*
X9227770Y32993874D01*
X9053762Y32937335D01*
X8890716Y32854260D01*
X8776234Y32771083D01*
X8742682Y32746706D01*
X8613294Y32617318D01*
X8613291Y32617315D01*
X8613291Y32617314D01*
X8505740Y32469284D01*
X8422665Y32306238D01*
X8366126Y32132230D01*
X8366123Y32132217D01*
X8337500Y31951492D01*
X8122500Y31951492D01*
X8093876Y32132219D01*
X8093874Y32132224D01*
X8093873Y32132230D01*
X8037334Y32306238D01*
X8037331Y32306242D01*
X8037331Y32306245D01*
X7954395Y32469017D01*
X7954259Y32469284D01*
X7906399Y32535157D01*
X7846706Y32617318D01*
X7717318Y32746706D01*
X7659949Y32788387D01*
X7569283Y32854260D01*
X7406237Y32937335D01*
X7232229Y32993874D01*
X7232216Y32993877D01*
X7051492Y33022500D01*
X7051491Y33022500D01*
X6868509Y33022500D01*
X6868508Y33022500D01*
X6687783Y32993877D01*
X6687770Y32993874D01*
X6513762Y32937335D01*
X6350716Y32854260D01*
X6236234Y32771083D01*
X6202682Y32746706D01*
X6073294Y32617318D01*
X6073291Y32617315D01*
X6073291Y32617314D01*
X5965740Y32469284D01*
X5882665Y32306238D01*
X5826126Y32132230D01*
X5826123Y32132217D01*
X5797500Y31951492D01*
X1000000Y31951492D01*
X1000000Y37926000D01*
X1021674Y37978326D01*
X1074000Y38000000D01*
X62926000Y38000000D01*
X62978326Y37978326D01*
G37*
%TD.AperFunction*%
%TD*%
%TA.AperFunction,Conductor*%
%TO.N,/USB_5V*%
G36*
X24969825Y36278326D02*
G01*
X24991499Y36226000D01*
X24991499Y35684273D01*
X25022567Y35528078D01*
X25022569Y35528071D01*
X25083516Y35380934D01*
X25171996Y35248513D01*
X25284610Y35135899D01*
X25417031Y35047419D01*
X25564168Y34986472D01*
X25720369Y34955402D01*
X25720370Y34955402D01*
X25879628Y34955402D01*
X25879629Y34955402D01*
X26035830Y34986472D01*
X26182967Y35047419D01*
X26315388Y35135899D01*
X26428002Y35248513D01*
X26516482Y35380934D01*
X26577429Y35528071D01*
X26608499Y35684272D01*
X26608499Y36226000D01*
X26630173Y36278326D01*
X26682499Y36300000D01*
X31917500Y36300000D01*
X31969826Y36278326D01*
X31991500Y36226000D01*
X31991500Y35684273D01*
X32022568Y35528078D01*
X32022570Y35528071D01*
X32083517Y35380934D01*
X32171997Y35248513D01*
X32284611Y35135899D01*
X32417032Y35047419D01*
X32564169Y34986472D01*
X32720370Y34955402D01*
X32720371Y34955402D01*
X32879629Y34955402D01*
X32879630Y34955402D01*
X33035831Y34986472D01*
X33182968Y35047419D01*
X33315389Y35135899D01*
X33428003Y35248513D01*
X33516483Y35380934D01*
X33577430Y35528071D01*
X33608500Y35684272D01*
X33608500Y36226000D01*
X33630174Y36278326D01*
X33682500Y36300000D01*
X36026000Y36300000D01*
X36078326Y36278326D01*
X36100000Y36226000D01*
X36100000Y34515243D01*
X36078326Y34462917D01*
X36014140Y34398732D01*
X36014139Y34398730D01*
X35945688Y34296286D01*
X35898537Y34182453D01*
X35898535Y34182446D01*
X35874500Y34061606D01*
X35874500Y33938394D01*
X35877803Y33921790D01*
X35898535Y33817555D01*
X35898537Y33817548D01*
X35945688Y33703715D01*
X35945689Y33703714D01*
X36014142Y33601267D01*
X36078326Y33537083D01*
X36100000Y33484758D01*
X36100000Y25974000D01*
X36078326Y25921674D01*
X36026000Y25900000D01*
X34500518Y25900000D01*
X34459407Y25912471D01*
X34455496Y25915084D01*
X34318917Y25971657D01*
X34318907Y25971660D01*
X34221811Y25990974D01*
X34173918Y26000500D01*
X34026082Y26000500D01*
X33984977Y25992324D01*
X33881092Y25971660D01*
X33881082Y25971657D01*
X33744503Y25915084D01*
X33740593Y25912471D01*
X33699482Y25900000D01*
X29000000Y25900000D01*
X29000000Y21879500D01*
X28978326Y21827174D01*
X28926000Y21805500D01*
X23074000Y21805500D01*
X23021674Y21827174D01*
X23000000Y21879500D01*
X23000000Y25550500D01*
X23021674Y25602826D01*
X23074000Y25624500D01*
X24660258Y25624500D01*
X24712584Y25602826D01*
X24714139Y25601271D01*
X24714142Y25601267D01*
X24801267Y25514142D01*
X24903714Y25445689D01*
X25017548Y25398537D01*
X25138394Y25374500D01*
X25261606Y25374500D01*
X25382452Y25398537D01*
X25496286Y25445689D01*
X25598733Y25514142D01*
X25685858Y25601267D01*
X25754311Y25703714D01*
X25801463Y25817548D01*
X25825500Y25938394D01*
X25825500Y26061606D01*
X25801463Y26182452D01*
X25754311Y26296286D01*
X25685858Y26398733D01*
X25598733Y26485858D01*
X25496286Y26554311D01*
X25496287Y26554311D01*
X25496285Y26554312D01*
X25382452Y26601463D01*
X25382445Y26601465D01*
X25261606Y26625500D01*
X25138394Y26625500D01*
X25017554Y26601465D01*
X25017547Y26601463D01*
X24903714Y26554312D01*
X24801270Y26485861D01*
X24801269Y26485860D01*
X24801267Y26485859D01*
X24801267Y26485858D01*
X24714142Y26398733D01*
X24714140Y26398731D01*
X24712584Y26397174D01*
X24660258Y26375500D01*
X23074000Y26375500D01*
X23021674Y26397174D01*
X23000000Y26449500D01*
X23000000Y29961606D01*
X27974500Y29961606D01*
X27974500Y29838395D01*
X27998535Y29717555D01*
X27998537Y29717548D01*
X28045688Y29603715D01*
X28045689Y29603714D01*
X28114142Y29501267D01*
X28201267Y29414142D01*
X28303714Y29345689D01*
X28417548Y29298537D01*
X28538394Y29274500D01*
X28661606Y29274500D01*
X28782452Y29298537D01*
X28896286Y29345689D01*
X28998733Y29414142D01*
X29085858Y29501267D01*
X29154311Y29603714D01*
X29201463Y29717548D01*
X29225500Y29838394D01*
X29225500Y29961606D01*
X29201463Y30082452D01*
X29154311Y30196286D01*
X29085858Y30298733D01*
X28998733Y30385858D01*
X28951306Y30417548D01*
X28896285Y30454312D01*
X28782452Y30501463D01*
X28782445Y30501465D01*
X28661606Y30525500D01*
X28538394Y30525500D01*
X28417554Y30501465D01*
X28417547Y30501463D01*
X28303714Y30454312D01*
X28201270Y30385861D01*
X28114139Y30298730D01*
X28045688Y30196286D01*
X27998537Y30082453D01*
X27998535Y30082446D01*
X27974500Y29961606D01*
X23000000Y29961606D01*
X23000000Y30886606D01*
X25524500Y30886606D01*
X25524500Y30763395D01*
X25548535Y30642555D01*
X25548537Y30642548D01*
X25595688Y30528715D01*
X25664139Y30426271D01*
X25664142Y30426267D01*
X25751267Y30339142D01*
X25853714Y30270689D01*
X25967548Y30223537D01*
X26088394Y30199500D01*
X26211606Y30199500D01*
X26332452Y30223537D01*
X26446286Y30270689D01*
X26548733Y30339142D01*
X26635858Y30426267D01*
X26704311Y30528714D01*
X26751463Y30642548D01*
X26755254Y30661606D01*
X32249500Y30661606D01*
X32249500Y30538394D01*
X32252065Y30525500D01*
X32273535Y30417555D01*
X32273537Y30417548D01*
X32320688Y30303715D01*
X32374262Y30223536D01*
X32389142Y30201267D01*
X32476267Y30114142D01*
X32578714Y30045689D01*
X32692548Y29998537D01*
X32813394Y29974500D01*
X32936606Y29974500D01*
X33057452Y29998537D01*
X33171286Y30045689D01*
X33273733Y30114142D01*
X33360858Y30201267D01*
X33429311Y30303714D01*
X33476463Y30417548D01*
X33500500Y30538394D01*
X33500500Y30661606D01*
X33476463Y30782452D01*
X33429311Y30896286D01*
X33360858Y30998733D01*
X33273733Y31085858D01*
X33273729Y31085861D01*
X33171285Y31154312D01*
X33057452Y31201463D01*
X33057445Y31201465D01*
X32936606Y31225500D01*
X32813394Y31225500D01*
X32692554Y31201465D01*
X32692547Y31201463D01*
X32578714Y31154312D01*
X32476270Y31085861D01*
X32389139Y30998730D01*
X32320688Y30896286D01*
X32273537Y30782453D01*
X32273535Y30782446D01*
X32269746Y30763395D01*
X32249500Y30661606D01*
X26755254Y30661606D01*
X26775500Y30763394D01*
X26775500Y30886606D01*
X26751463Y31007452D01*
X26704311Y31121286D01*
X26680652Y31156693D01*
X26669603Y31212241D01*
X26701068Y31259333D01*
X26756617Y31270383D01*
X26783292Y31259335D01*
X26803714Y31245689D01*
X26917548Y31198537D01*
X27038394Y31174500D01*
X27161606Y31174500D01*
X27282452Y31198537D01*
X27396286Y31245689D01*
X27498733Y31314142D01*
X27585858Y31401267D01*
X27654311Y31503714D01*
X27701463Y31617548D01*
X27725500Y31738394D01*
X27725500Y31861606D01*
X27874500Y31861606D01*
X27874500Y31738395D01*
X27898535Y31617555D01*
X27898537Y31617548D01*
X27945688Y31503715D01*
X28014139Y31401271D01*
X28014142Y31401267D01*
X28101267Y31314142D01*
X28203714Y31245689D01*
X28317548Y31198537D01*
X28438394Y31174500D01*
X28561606Y31174500D01*
X28682452Y31198537D01*
X28796286Y31245689D01*
X28898733Y31314142D01*
X28985858Y31401267D01*
X29054311Y31503714D01*
X29101463Y31617548D01*
X29125500Y31738394D01*
X29125500Y31861606D01*
X29101463Y31982452D01*
X29054311Y32096286D01*
X28985858Y32198733D01*
X28898733Y32285858D01*
X28796286Y32354311D01*
X28796287Y32354311D01*
X28796285Y32354312D01*
X28682452Y32401463D01*
X28682445Y32401465D01*
X28561606Y32425500D01*
X28438394Y32425500D01*
X28317554Y32401465D01*
X28317547Y32401463D01*
X28203714Y32354312D01*
X28101270Y32285861D01*
X28014139Y32198730D01*
X27945688Y32096286D01*
X27898537Y31982453D01*
X27898535Y31982446D01*
X27874500Y31861606D01*
X27725500Y31861606D01*
X27701463Y31982452D01*
X27654311Y32096286D01*
X27585858Y32198733D01*
X27498733Y32285858D01*
X27396286Y32354311D01*
X27396287Y32354311D01*
X27396285Y32354312D01*
X27282452Y32401463D01*
X27282445Y32401465D01*
X27161606Y32425500D01*
X27038394Y32425500D01*
X26917554Y32401465D01*
X26917547Y32401463D01*
X26803714Y32354312D01*
X26701270Y32285861D01*
X26614139Y32198730D01*
X26545688Y32096286D01*
X26498537Y31982453D01*
X26498535Y31982446D01*
X26474500Y31861606D01*
X26474500Y31738395D01*
X26498535Y31617555D01*
X26498537Y31617548D01*
X26545688Y31503715D01*
X26569347Y31468308D01*
X26580396Y31412760D01*
X26548930Y31365667D01*
X26493382Y31354618D01*
X26466707Y31365667D01*
X26446288Y31379311D01*
X26332452Y31426463D01*
X26332445Y31426465D01*
X26211606Y31450500D01*
X26088394Y31450500D01*
X25967554Y31426465D01*
X25967547Y31426463D01*
X25853714Y31379312D01*
X25751270Y31310861D01*
X25664139Y31223730D01*
X25595688Y31121286D01*
X25548537Y31007453D01*
X25548535Y31007446D01*
X25524500Y30886606D01*
X23000000Y30886606D01*
X23000000Y33486031D01*
X25851800Y33486031D01*
X25851800Y33326772D01*
X25882868Y33170577D01*
X25882870Y33170570D01*
X25943817Y33023433D01*
X26032297Y32891012D01*
X26144911Y32778398D01*
X26277332Y32689918D01*
X26424469Y32628971D01*
X26580670Y32597901D01*
X26580671Y32597901D01*
X27019329Y32597901D01*
X27019330Y32597901D01*
X27175531Y32628971D01*
X27322668Y32689918D01*
X27455089Y32778398D01*
X27567703Y32891012D01*
X27656183Y33023433D01*
X27717130Y33170570D01*
X27748200Y33326771D01*
X27748200Y33486031D01*
X30851800Y33486031D01*
X30851800Y33326772D01*
X30882868Y33170577D01*
X30882870Y33170570D01*
X30943817Y33023433D01*
X31032297Y32891012D01*
X31144911Y32778398D01*
X31277332Y32689918D01*
X31424469Y32628971D01*
X31580670Y32597901D01*
X31580671Y32597901D01*
X32019329Y32597901D01*
X32019330Y32597901D01*
X32175531Y32628971D01*
X32322668Y32689918D01*
X32455089Y32778398D01*
X32567703Y32891012D01*
X32656183Y33023433D01*
X32717130Y33170570D01*
X32748200Y33326771D01*
X32748200Y33486031D01*
X32717130Y33642232D01*
X32656183Y33789369D01*
X32567703Y33921790D01*
X32455089Y34034404D01*
X32322668Y34122884D01*
X32175531Y34183831D01*
X32175524Y34183833D01*
X32057850Y34207239D01*
X32019330Y34214901D01*
X31580670Y34214901D01*
X31549770Y34208755D01*
X31424475Y34183833D01*
X31424468Y34183831D01*
X31277331Y34122884D01*
X31144911Y34034405D01*
X31144910Y34034403D01*
X31032298Y33921791D01*
X31032296Y33921790D01*
X30943817Y33789370D01*
X30882870Y33642233D01*
X30882868Y33642226D01*
X30851800Y33486031D01*
X27748200Y33486031D01*
X27717130Y33642232D01*
X27656183Y33789369D01*
X27567703Y33921790D01*
X27455089Y34034404D01*
X27322668Y34122884D01*
X27175531Y34183831D01*
X27175524Y34183833D01*
X27057850Y34207239D01*
X27019330Y34214901D01*
X26580670Y34214901D01*
X26549770Y34208755D01*
X26424475Y34183833D01*
X26424468Y34183831D01*
X26277331Y34122884D01*
X26144911Y34034405D01*
X26144910Y34034403D01*
X26032298Y33921791D01*
X26032296Y33921790D01*
X25943817Y33789370D01*
X25882870Y33642233D01*
X25882868Y33642226D01*
X25851800Y33486031D01*
X23000000Y33486031D01*
X23000000Y36226000D01*
X23021674Y36278326D01*
X23074000Y36300000D01*
X24917499Y36300000D01*
X24969825Y36278326D01*
G37*
%TD.AperFunction*%
%TD*%
M02*
