M48
; DRILL file {KiCad 9.0.4-9.0.4-0~ubuntu22.04.1} date 2025-09-23T17:57:12+1200
; FORMAT={-:-/ absolute / metric / decimal}
; #@! TF.CreationDate,2025-09-23T17:57:12+12:00
; #@! TF.GenerationSoftware,Kicad,Pcbnew,9.0.4-9.0.4-0~ubuntu22.04.1
; #@! TF.FileFunction,Plated,1,4,PTH
FMAT,2
METRIC
; #@! TA.AperFunction,Plated,PTH,ViaDrill
T1C0.250
; #@! TA.AperFunction,Plated,PTH,ViaDrill
T2C0.300
; #@! TA.AperFunction,Plated,PTH,ViaDrill
T3C0.400
; #@! TA.AperFunction,Plated,PTH,ViaDrill
T4C0.500
; #@! TA.AperFunction,Plated,PTH,ComponentDrill
T5C0.559
; #@! TA.AperFunction,Plated,PTH,ComponentDrill
T6C0.610
; #@! TA.AperFunction,Plated,PTH,ComponentDrill
T7C0.800
; #@! TA.AperFunction,Plated,PTH,ComponentDrill
T8C1.000
; #@! TA.AperFunction,Plated,PTH,ComponentDrill
T9C1.016
; #@! TA.AperFunction,Plated,PTH,ComponentDrill
T10C1.067
%
G90
G05
T1
X5.4Y23.7
X6.9Y26.7
X7.25Y15.9
X7.9Y35.9
X8.076Y17.149
X8.1Y20.95
X8.1Y14.15
X8.35Y15.1
X9.15Y13.4
X9.65Y12.4
X9.9Y26.7
X10.05Y20.1
X10.2Y18.4
X10.325Y16.675
X10.4Y23.3
X10.4Y21.7
X10.6Y19.4
X12.9Y26.7
X13.75Y17.0
X13.75Y15.25
X15.0Y17.0
X15.0Y15.25
X15.9Y26.7
X18.9Y26.7
X20.4Y23.7
X24.3Y20.5
X24.3Y19.0
X25.2Y26.0
X26.15Y30.825
X27.1Y31.8
X27.337Y18.0
X27.35Y18.95
X27.387Y17.05
X27.5Y13.0
X28.175Y27.125
X28.5Y31.8
X28.6Y29.9
X29.8Y27.9
X30.5Y13.0
X32.0Y10.0
X32.0Y7.0
X32.0Y4.0
X32.225Y18.95
X32.875Y30.6
X33.6Y18.2
X33.6Y17.025
X35.3Y28.5
X36.4Y2.7
X36.5Y34.0
X37.0Y22.7
X38.0Y37.0
X38.0Y2.7
X39.5Y34.0
X39.5Y13.0
X40.3Y28.9
X40.7Y21.6
X40.9Y27.4
X41.0Y37.0
X41.4Y29.0
X41.8Y28.0
X43.6Y2.7
X44.65Y31.0
X44.65Y29.0
X44.65Y27.0
X45.2Y2.7
X45.5Y13.0
X45.65Y30.0
X45.65Y28.0
X46.65Y31.0
X46.65Y27.0
X47.0Y37.0
X47.0Y16.0
X47.65Y30.0
X47.65Y28.0
X48.5Y13.0
X48.5Y11.65
X48.5Y10.7
X48.5Y4.0
X48.65Y31.0
X48.65Y29.0
X48.65Y27.0
X50.0Y37.0
X50.55Y18.9
X53.0Y37.0
X53.775Y11.65
X53.8Y10.7
X54.1Y9.0
X56.4Y18.9
X57.3Y9.0
T2
X4.75Y17.55
X6.0Y17.55
X16.7Y10.3
X16.9Y9.0
X16.95Y12.25
X17.775Y13.075
X20.475Y17.65
X20.475Y16.4
X20.475Y15.15
X20.475Y13.9
X21.75Y20.5
X21.75Y19.0
X24.525Y17.6
X24.525Y16.35
X24.525Y15.1
X24.525Y13.85
X25.45Y19.8
X25.575Y15.375
X26.425Y19.8
X26.525Y15.4
X27.675Y15.4
X27.675Y14.15
X31.725Y15.3
X31.725Y14.05
X40.53Y23.41
X40.56Y25.27
X41.8Y25.1
X42.35Y24.35
X43.95Y20.05
X44.18Y34.89
X44.2Y33.92
X45.37Y20.01
X46.03Y34.88
X46.07Y33.9
X48.38Y24.1
X48.5Y23.0
X51.6Y26.645
X52.505Y32.99
X52.6Y34.3
X52.6Y30.875
X52.74Y26.65
X52.8Y28.72
X53.0Y31.9
X54.0Y34.0
X54.0Y24.85
X54.25Y21.55
X55.0Y32.0
X55.0Y26.85
X55.5Y21.53
X55.55Y27.8
X56.0Y34.0
X56.0Y24.85
X57.0Y32.0
X57.0Y26.85
X57.55Y27.8
X58.0Y34.0
X58.0Y24.85
X59.0Y37.0
X59.0Y32.0
X59.0Y26.85
X60.0Y34.0
X60.0Y24.85
X61.0Y32.0
X61.0Y26.85
X62.0Y37.0
X62.0Y34.0
X62.0Y24.85
X62.0Y22.0
X62.0Y19.0
X62.0Y16.0
X62.0Y13.0
X62.0Y10.0
X62.0Y7.0
X62.0Y4.0
X62.05Y27.8
T3
X4.85Y13.15
X5.9Y13.15
X26.8Y24.8
X26.8Y23.2
X30.3Y8.1
X30.3Y5.1
X30.6Y30.8
X34.1Y25.25
X34.1Y22.65
X36.5Y11.7
X37.9Y11.7
X43.7Y11.7
X45.0Y11.7
T4
X16.0Y3.5
X38.4Y14.0
X49.25Y20.25
T9
X6.96Y34.4
X6.96Y31.86
X9.5Y34.4
X9.5Y31.86
X12.04Y34.4
X12.04Y31.86
X14.58Y34.4
X14.58Y31.86
X17.12Y34.4
X17.12Y31.86
T10
X52.328Y3.419
X54.868Y3.419
X57.408Y3.419
T5
G00X25.8Y36.399
M15
G01X25.8Y35.764
M16
G05
G00X32.8Y36.399
M15
G01X32.8Y35.764
M16
G05
T6
G00X26.94Y33.406
M15
G01X26.66Y33.406
M16
G05
G00X31.94Y33.406
M15
G01X31.66Y33.406
M16
G05
T7
G00X11.95Y1.504
M15
G01X10.25Y1.504
M16
G05
T8
G00X8.0Y7.204
M15
G01X8.0Y5.204
M16
G05
G00X13.9Y7.454
M15
G01X13.9Y4.954
M16
G05
M30
