%TF.GenerationSoftware,KiCad,Pcbnew,9.0.4-9.0.4-0~ubuntu22.04.1*%
%TF.CreationDate,2025-09-23T18:33:34+12:00*%
%TF.ProjectId,BBBLedHW,4242424c-6564-4485-972e-6b696361645f,rev?*%
%TF.SameCoordinates,PX7365040PY5f5e100*%
%TF.FileFunction,Copper,L1,Top*%
%TF.FilePolarity,Positive*%
%FSLAX46Y46*%
G04 Gerber Fmt 4.6, Leading zero omitted, Abs format (unit mm)*
G04 Created by KiCad (PCBNEW 9.0.4-9.0.4-0~ubuntu22.04.1) date 2025-09-23 18:33:34*
%MOMM*%
%LPD*%
G01*
G04 APERTURE LIST*
G04 Aperture macros list*
%AMRoundRect*
0 Rectangle with rounded corners*
0 $1 Rounding radius*
0 $2 $3 $4 $5 $6 $7 $8 $9 X,Y pos of 4 corners*
0 Add a 4 corners polygon primitive as box body*
4,1,4,$2,$3,$4,$5,$6,$7,$8,$9,$2,$3,0*
0 Add four circle primitives for the rounded corners*
1,1,$1+$1,$2,$3*
1,1,$1+$1,$4,$5*
1,1,$1+$1,$6,$7*
1,1,$1+$1,$8,$9*
0 Add four rect primitives between the rounded corners*
20,1,$1+$1,$2,$3,$4,$5,0*
20,1,$1+$1,$4,$5,$6,$7,0*
20,1,$1+$1,$6,$7,$8,$9,0*
20,1,$1+$1,$8,$9,$2,$3,0*%
G04 Aperture macros list end*
%TA.AperFunction,SMDPad,CuDef*%
%ADD10R,0.250000X0.550000*%
%TD*%
%TA.AperFunction,SMDPad,CuDef*%
%ADD11R,0.400000X0.600000*%
%TD*%
%TA.AperFunction,SMDPad,CuDef*%
%ADD12RoundRect,0.218750X-0.256250X0.218750X-0.256250X-0.218750X0.256250X-0.218750X0.256250X0.218750X0*%
%TD*%
%TA.AperFunction,SMDPad,CuDef*%
%ADD13RoundRect,0.150000X0.150000X-0.587500X0.150000X0.587500X-0.150000X0.587500X-0.150000X-0.587500X0*%
%TD*%
%TA.AperFunction,SMDPad,CuDef*%
%ADD14R,0.990600X1.244600*%
%TD*%
%TA.AperFunction,SMDPad,CuDef*%
%ADD15RoundRect,0.140000X0.140000X0.170000X-0.140000X0.170000X-0.140000X-0.170000X0.140000X-0.170000X0*%
%TD*%
%TA.AperFunction,SMDPad,CuDef*%
%ADD16RoundRect,0.140000X-0.170000X0.140000X-0.170000X-0.140000X0.170000X-0.140000X0.170000X0.140000X0*%
%TD*%
%TA.AperFunction,SMDPad,CuDef*%
%ADD17R,1.565400X2.109000*%
%TD*%
%TA.AperFunction,SMDPad,CuDef*%
%ADD18RoundRect,0.140000X0.170000X-0.140000X0.170000X0.140000X-0.170000X0.140000X-0.170000X-0.140000X0*%
%TD*%
%TA.AperFunction,SMDPad,CuDef*%
%ADD19R,1.000000X0.900000*%
%TD*%
%TA.AperFunction,ComponentPad*%
%ADD20C,1.574800*%
%TD*%
%TA.AperFunction,SMDPad,CuDef*%
%ADD21C,0.500000*%
%TD*%
%TA.AperFunction,SMDPad,CuDef*%
%ADD22R,0.457200X1.346200*%
%TD*%
%TA.AperFunction,ComponentPad*%
%ADD23O,1.016000X1.651000*%
%TD*%
%TA.AperFunction,ComponentPad*%
%ADD24O,1.295400X1.016000*%
%TD*%
%TA.AperFunction,SMDPad,CuDef*%
%ADD25RoundRect,0.250000X0.250000X0.475000X-0.250000X0.475000X-0.250000X-0.475000X0.250000X-0.475000X0*%
%TD*%
%TA.AperFunction,SMDPad,CuDef*%
%ADD26RoundRect,0.135000X0.135000X0.185000X-0.135000X0.185000X-0.135000X-0.185000X0.135000X-0.185000X0*%
%TD*%
%TA.AperFunction,SMDPad,CuDef*%
%ADD27RoundRect,0.150000X-0.512500X-0.150000X0.512500X-0.150000X0.512500X0.150000X-0.512500X0.150000X0*%
%TD*%
%TA.AperFunction,SMDPad,CuDef*%
%ADD28RoundRect,0.147500X0.147500X0.172500X-0.147500X0.172500X-0.147500X-0.172500X0.147500X-0.172500X0*%
%TD*%
%TA.AperFunction,SMDPad,CuDef*%
%ADD29RoundRect,0.135000X-0.185000X0.135000X-0.185000X-0.135000X0.185000X-0.135000X0.185000X0.135000X0*%
%TD*%
%TA.AperFunction,SMDPad,CuDef*%
%ADD30R,1.600000X3.000000*%
%TD*%
%TA.AperFunction,SMDPad,CuDef*%
%ADD31RoundRect,0.150000X0.587500X0.150000X-0.587500X0.150000X-0.587500X-0.150000X0.587500X-0.150000X0*%
%TD*%
%TA.AperFunction,SMDPad,CuDef*%
%ADD32RoundRect,0.062500X0.062500X-0.375000X0.062500X0.375000X-0.062500X0.375000X-0.062500X-0.375000X0*%
%TD*%
%TA.AperFunction,SMDPad,CuDef*%
%ADD33RoundRect,0.062500X0.375000X-0.062500X0.375000X0.062500X-0.375000X0.062500X-0.375000X-0.062500X0*%
%TD*%
%TA.AperFunction,HeatsinkPad*%
%ADD34R,5.600000X5.600000*%
%TD*%
%TA.AperFunction,SMDPad,CuDef*%
%ADD35RoundRect,0.200000X0.200000X-0.250000X0.200000X0.250000X-0.200000X0.250000X-0.200000X-0.250000X0*%
%TD*%
%TA.AperFunction,SMDPad,CuDef*%
%ADD36RoundRect,0.150000X0.512500X0.150000X-0.512500X0.150000X-0.512500X-0.150000X0.512500X-0.150000X0*%
%TD*%
%TA.AperFunction,SMDPad,CuDef*%
%ADD37RoundRect,0.140000X-0.140000X-0.170000X0.140000X-0.170000X0.140000X0.170000X-0.140000X0.170000X0*%
%TD*%
%TA.AperFunction,SMDPad,CuDef*%
%ADD38RoundRect,0.250000X-0.250000X-0.475000X0.250000X-0.475000X0.250000X0.475000X-0.250000X0.475000X0*%
%TD*%
%TA.AperFunction,ComponentPad*%
%ADD39C,1.524000*%
%TD*%
%TA.AperFunction,SMDPad,CuDef*%
%ADD40RoundRect,0.135000X0.185000X-0.135000X0.185000X0.135000X-0.185000X0.135000X-0.185000X-0.135000X0*%
%TD*%
%TA.AperFunction,SMDPad,CuDef*%
%ADD41RoundRect,0.250000X-0.475000X0.250000X-0.475000X-0.250000X0.475000X-0.250000X0.475000X0.250000X0*%
%TD*%
%TA.AperFunction,ComponentPad*%
%ADD42O,1.750000X4.250000*%
%TD*%
%TA.AperFunction,ComponentPad*%
%ADD43O,1.750000X3.750000*%
%TD*%
%TA.AperFunction,ComponentPad*%
%ADD44O,3.100000X1.400000*%
%TD*%
%TA.AperFunction,SMDPad,CuDef*%
%ADD45R,3.300000X3.700000*%
%TD*%
%TA.AperFunction,SMDPad,CuDef*%
%ADD46RoundRect,0.147500X-0.147500X-0.172500X0.147500X-0.172500X0.147500X0.172500X-0.147500X0.172500X0*%
%TD*%
%TA.AperFunction,SMDPad,CuDef*%
%ADD47RoundRect,0.150000X-0.825000X-0.150000X0.825000X-0.150000X0.825000X0.150000X-0.825000X0.150000X0*%
%TD*%
%TA.AperFunction,HeatsinkPad*%
%ADD48R,2.290000X3.000000*%
%TD*%
%TA.AperFunction,ViaPad*%
%ADD49C,0.700000*%
%TD*%
%TA.AperFunction,ViaPad*%
%ADD50C,0.650000*%
%TD*%
%TA.AperFunction,ViaPad*%
%ADD51C,1.000000*%
%TD*%
%TA.AperFunction,ViaPad*%
%ADD52C,0.900000*%
%TD*%
%TA.AperFunction,Conductor*%
%ADD53C,0.500000*%
%TD*%
%TA.AperFunction,Conductor*%
%ADD54C,0.400000*%
%TD*%
%TA.AperFunction,Conductor*%
%ADD55C,0.300000*%
%TD*%
%TA.AperFunction,Conductor*%
%ADD56C,0.250000*%
%TD*%
%TA.AperFunction,Conductor*%
%ADD57C,0.150000*%
%TD*%
%TA.AperFunction,Conductor*%
%ADD58C,0.600000*%
%TD*%
%TA.AperFunction,Conductor*%
%ADD59C,0.330000*%
%TD*%
%TA.AperFunction,Conductor*%
%ADD60C,1.000000*%
%TD*%
%TA.AperFunction,Conductor*%
%ADD61C,0.200000*%
%TD*%
G04 APERTURE END LIST*
D10*
%TO.P,FL1,1*%
%TO.N,Net-(C9-Pad1)*%
X56995000Y29575000D03*
D11*
%TO.P,FL1,2*%
%TO.N,GND*%
X57550000Y29575000D03*
D10*
%TO.P,FL1,3*%
%TO.N,/MICROSTRIP*%
X58105000Y29575000D03*
%TD*%
D12*
%TO.P,D3,1,K*%
%TO.N,Net-(D3-K)*%
X55000000Y13375000D03*
%TO.P,D3,2,A*%
%TO.N,Net-(D3-A)*%
X55000000Y11800000D03*
%TD*%
D13*
%TO.P,Q2,1,D*%
%TO.N,Net-(D3-K)*%
X50800000Y16562500D03*
%TO.P,Q2,2,G*%
%TO.N,/MCU_LED_1*%
X52700000Y16562500D03*
%TO.P,Q2,3,S*%
%TO.N,GND*%
X51750000Y18437500D03*
%TD*%
D14*
%TO.P,X2,1,1*%
%TO.N,/MCU_LSE_IN*%
X43900700Y23280000D03*
%TO.P,X2,2,2*%
%TO.N,/MCU_LSE_OUT*%
X45399300Y23280000D03*
%TD*%
D15*
%TO.P,C27,1*%
%TO.N,+5V*%
X23530000Y20500000D03*
%TO.P,C27,2*%
%TO.N,GND*%
X22570000Y20500000D03*
%TD*%
D16*
%TO.P,C14,1*%
%TO.N,+3V3*%
X51750000Y31835000D03*
%TO.P,C14,2*%
%TO.N,GND*%
X51750000Y30875000D03*
%TD*%
%TO.P,C16,1*%
%TO.N,/MCU_LSE_OUT*%
X45400000Y21760000D03*
%TO.P,C16,2*%
%TO.N,GND*%
X45400000Y20800000D03*
%TD*%
D15*
%TO.P,C3,1*%
%TO.N,+3V3*%
X41504518Y29881000D03*
%TO.P,C3,2*%
%TO.N,GND*%
X40544518Y29881000D03*
%TD*%
D17*
%TO.P,D4,1,K*%
%TO.N,+5V*%
X32478100Y23950000D03*
%TO.P,D4,2,A*%
%TO.N,/USB_5V*%
X28315500Y23950000D03*
%TD*%
D18*
%TO.P,C25,1*%
%TO.N,VBUS*%
X9130000Y14160000D03*
%TO.P,C25,2*%
%TO.N,GND*%
X9130000Y15120000D03*
%TD*%
D19*
%TO.P,SW1,1,1*%
%TO.N,Net-(R10-Pad2)*%
X38600000Y21450000D03*
X38600000Y17350000D03*
%TO.P,SW1,2,2*%
%TO.N,+3V3*%
X37000000Y21450000D03*
X37000000Y17350000D03*
%TD*%
D20*
%TO.P,J2,1,GND*%
%TO.N,GND*%
X52328400Y3419200D03*
%TO.P,J2,2,DATA*%
%TO.N,/LED_DATA*%
X54868400Y3419200D03*
%TO.P,J2,3,5V*%
%TO.N,+5V*%
X57408400Y3419200D03*
%TD*%
D15*
%TO.P,C23,1*%
%TO.N,+5V*%
X26405000Y18950000D03*
%TO.P,C23,2*%
%TO.N,GND*%
X25445000Y18950000D03*
%TD*%
D16*
%TO.P,C9,1*%
%TO.N,Net-(C9-Pad1)*%
X55550000Y29600000D03*
%TO.P,C9,2*%
%TO.N,GND*%
X55550000Y28640000D03*
%TD*%
D15*
%TO.P,C12,1*%
%TO.N,/SW*%
X14850000Y19750000D03*
%TO.P,C12,2*%
%TO.N,Net-(U2-BST)*%
X13890000Y19750000D03*
%TD*%
D16*
%TO.P,C29,1*%
%TO.N,+3V3*%
X51725000Y33950000D03*
%TO.P,C29,2*%
%TO.N,GND*%
X51725000Y32990000D03*
%TD*%
D21*
%TO.P,FID3,*%
%TO.N,*%
X2000000Y24000000D03*
%TD*%
D22*
%TO.P,J1,1,VBUS*%
%TO.N,/USB_5V*%
X30600000Y33406401D03*
%TO.P,J1,2,D-*%
%TO.N,/USB_D-*%
X29949999Y33406401D03*
%TO.P,J1,3,D+*%
%TO.N,/USB_D+*%
X29300000Y33406401D03*
%TO.P,J1,4,GND*%
%TO.N,GND*%
X28650001Y33406401D03*
%TO.P,J1,5,Shield*%
X28000000Y33406401D03*
D23*
%TO.P,J1,S_1*%
%TO.N,N/C*%
X32800000Y36081402D03*
%TO.P,J1,S_2*%
X25799999Y36081402D03*
D24*
%TO.P,J1,S_3*%
X31800000Y33406401D03*
%TO.P,J1,S_4*%
X26800000Y33406401D03*
%TD*%
D12*
%TO.P,D5,1,K*%
%TO.N,Net-(D5-K)*%
X2550000Y17187500D03*
%TO.P,D5,2,A*%
%TO.N,Net-(D5-A)*%
X2550000Y15612500D03*
%TD*%
D25*
%TO.P,C13,1*%
%TO.N,+5V*%
X23500000Y17000000D03*
%TO.P,C13,2*%
%TO.N,GND*%
X21600000Y17000000D03*
%TD*%
D26*
%TO.P,R1,1*%
%TO.N,/PGOOD*%
X11460000Y12400000D03*
%TO.P,R1,2*%
%TO.N,VBUS*%
X10440000Y12400000D03*
%TD*%
D27*
%TO.P,U4,1,IN*%
%TO.N,+5V*%
X28612500Y18950000D03*
%TO.P,U4,2,GND*%
%TO.N,GND*%
X28612500Y18000000D03*
%TO.P,U4,3,EN*%
%TO.N,+5V*%
X28612500Y17050000D03*
%TO.P,U4,4,N/C*%
%TO.N,unconnected-(U4-N{slash}C-Pad4)*%
X30887500Y17050000D03*
%TO.P,U4,5,OUT*%
%TO.N,+3V3*%
X30887500Y18950000D03*
%TD*%
D28*
%TO.P,L1,1,1*%
%TO.N,Net-(C9-Pad1)*%
X54220000Y29600000D03*
%TO.P,L1,2,2*%
%TO.N,/MCU_RF*%
X53250000Y29600000D03*
%TD*%
D13*
%TO.P,Q4,1,D*%
%TO.N,Net-(D2-K)*%
X56800000Y16562500D03*
%TO.P,Q4,2,G*%
%TO.N,/MCU_LED_2*%
X58700000Y16562500D03*
%TO.P,Q4,3,S*%
%TO.N,GND*%
X57750000Y18437500D03*
%TD*%
D29*
%TO.P,R7,1*%
%TO.N,Net-(D3-A)*%
X55000000Y10010000D03*
%TO.P,R7,2*%
%TO.N,+3V3*%
X55000000Y8990000D03*
%TD*%
D21*
%TO.P,FID1,*%
%TO.N,*%
X72000000Y37000000D03*
%TD*%
D30*
%TO.P,C20,1*%
%TO.N,+5V*%
X37200000Y9400000D03*
%TO.P,C20,2*%
%TO.N,GND*%
X37200000Y5000000D03*
%TD*%
D16*
%TO.P,C24,1*%
%TO.N,+3V3*%
X32750000Y17980000D03*
%TO.P,C24,2*%
%TO.N,GND*%
X32750000Y17020000D03*
%TD*%
D12*
%TO.P,D2,1,K*%
%TO.N,Net-(D2-K)*%
X58100000Y13375000D03*
%TO.P,D2,2,A*%
%TO.N,Net-(D2-A)*%
X58100000Y11800000D03*
%TD*%
D31*
%TO.P,Q3,1,G*%
%TO.N,/PGOOD*%
X6687500Y19050000D03*
%TO.P,Q3,2,S*%
%TO.N,GND*%
X6687500Y20950000D03*
%TO.P,Q3,3,D*%
%TO.N,Net-(D5-K)*%
X4812500Y20000000D03*
%TD*%
D32*
%TO.P,U3,1,VBAT*%
%TO.N,+3V3*%
X43800000Y25362500D03*
%TO.P,U3,2,PC14*%
%TO.N,/MCU_LSE_IN*%
X44300000Y25362500D03*
%TO.P,U3,3,PC15*%
%TO.N,/MCU_LSE_OUT*%
X44800000Y25362500D03*
%TO.P,U3,4,PH3*%
%TO.N,/MCU_BOOT0*%
X45300000Y25362500D03*
%TO.P,U3,5,PB8*%
%TO.N,unconnected-(U3-PB8-Pad5)*%
X45800000Y25362500D03*
%TO.P,U3,6,PB9*%
%TO.N,unconnected-(U3-PB9-Pad6)*%
X46300000Y25362500D03*
%TO.P,U3,7,NRST*%
%TO.N,/SWD_nRST*%
X46800000Y25362500D03*
%TO.P,U3,8,VDDA*%
%TO.N,+3V3*%
X47300000Y25362500D03*
%TO.P,U3,9,PA0*%
%TO.N,/MCU_LLC*%
X47800000Y25362500D03*
%TO.P,U3,10,PA1*%
%TO.N,unconnected-(U3-PA1-Pad10)*%
X48300000Y25362500D03*
%TO.P,U3,11,PA2*%
%TO.N,unconnected-(U3-PA2-Pad11)*%
X48800000Y25362500D03*
%TO.P,U3,12,PA3*%
%TO.N,unconnected-(U3-PA3-Pad12)*%
X49300000Y25362500D03*
D33*
%TO.P,U3,13,PA4*%
%TO.N,/MCU_LED_1*%
X49987500Y26050000D03*
%TO.P,U3,14,PA5*%
%TO.N,/MCU_LED_2*%
X49987500Y26550000D03*
%TO.P,U3,15,PA6*%
%TO.N,unconnected-(U3-PA6-Pad15)*%
X49987500Y27050000D03*
%TO.P,U3,16,PA7*%
%TO.N,unconnected-(U3-PA7-Pad16)*%
X49987500Y27550000D03*
%TO.P,U3,17,PA8*%
%TO.N,unconnected-(U3-PA8-Pad17)*%
X49987500Y28050000D03*
%TO.P,U3,18,PA9*%
%TO.N,unconnected-(U3-PA9-Pad18)*%
X49987500Y28550000D03*
%TO.P,U3,19,PB2*%
%TO.N,unconnected-(U3-PB2-Pad19)*%
X49987500Y29050000D03*
%TO.P,U3,20,VDD*%
%TO.N,+3V3*%
X49987500Y29550000D03*
%TO.P,U3,21,RF1*%
%TO.N,/MCU_RF*%
X49987500Y30050000D03*
%TO.P,U3,22,VSSRF*%
%TO.N,GND*%
X49987500Y30550000D03*
%TO.P,U3,23,VDDRF*%
%TO.N,+3V3*%
X49987500Y31050000D03*
%TO.P,U3,24,OSC_OUT*%
%TO.N,/MCU_HSE_OUT*%
X49987500Y31550000D03*
D32*
%TO.P,U3,25,OSC_IN*%
%TO.N,/MCU_HSE_IN*%
X49300000Y32237500D03*
%TO.P,U3,26,AT0*%
%TO.N,unconnected-(U3-AT0-Pad26)*%
X48800000Y32237500D03*
%TO.P,U3,27,AT1*%
%TO.N,unconnected-(U3-AT1-Pad27)*%
X48300000Y32237500D03*
%TO.P,U3,28,PB0*%
%TO.N,unconnected-(U3-PB0-Pad28)*%
X47800000Y32237500D03*
%TO.P,U3,29,PB1*%
%TO.N,unconnected-(U3-PB1-Pad29)*%
X47300000Y32237500D03*
%TO.P,U3,30,PE4*%
%TO.N,unconnected-(U3-PE4-Pad30)*%
X46800000Y32237500D03*
%TO.P,U3,31,VFBSMPS*%
%TO.N,unconnected-(U3-VFBSMPS-Pad31)*%
X46300000Y32237500D03*
%TO.P,U3,32,VSSSMPS*%
%TO.N,GND*%
X45800000Y32237500D03*
%TO.P,U3,33,VLXSMPS*%
%TO.N,unconnected-(U3-VLXSMPS-Pad33)*%
X45300000Y32237500D03*
%TO.P,U3,34,VDDSMPS*%
%TO.N,+3V3*%
X44800000Y32237500D03*
%TO.P,U3,35,VDD*%
X44300000Y32237500D03*
%TO.P,U3,36,PA10*%
%TO.N,unconnected-(U3-PA10-Pad36)*%
X43800000Y32237500D03*
D33*
%TO.P,U3,37,PA11*%
%TO.N,/MCU_D-*%
X43112500Y31550000D03*
%TO.P,U3,38,PA12*%
%TO.N,/MCU_D+*%
X43112500Y31050000D03*
%TO.P,U3,39,PA13*%
%TO.N,/SWD_IO*%
X43112500Y30550000D03*
%TO.P,U3,40,VDDUSB*%
%TO.N,+3V3*%
X43112500Y30050000D03*
%TO.P,U3,41,PA14*%
%TO.N,/SWD_CLK*%
X43112500Y29550000D03*
%TO.P,U3,42,PA15*%
%TO.N,unconnected-(U3-PA15-Pad42)*%
X43112500Y29050000D03*
%TO.P,U3,43,PB3*%
%TO.N,unconnected-(U3-PB3-Pad43)*%
X43112500Y28550000D03*
%TO.P,U3,44,PB4*%
%TO.N,unconnected-(U3-PB4-Pad44)*%
X43112500Y28050000D03*
%TO.P,U3,45,PB5*%
%TO.N,unconnected-(U3-PB5-Pad45)*%
X43112500Y27550000D03*
%TO.P,U3,46,PB6*%
%TO.N,unconnected-(U3-PB6-Pad46)*%
X43112500Y27050000D03*
%TO.P,U3,47,PB7*%
%TO.N,unconnected-(U3-PB7-Pad47)*%
X43112500Y26550000D03*
%TO.P,U3,48,VDD*%
%TO.N,+3V3*%
X43112500Y26050000D03*
D34*
%TO.P,U3,49,VSS*%
%TO.N,GND*%
X46550000Y28800000D03*
%TD*%
D35*
%TO.P,X1,1,1*%
%TO.N,/MCU_HSE_OUT*%
X50200000Y34300000D03*
%TO.P,X1,2,2*%
%TO.N,GND*%
X50200000Y35700000D03*
%TO.P,X1,3,3*%
%TO.N,/MCU_HSE_IN*%
X49100000Y35700000D03*
%TO.P,X1,4,4*%
%TO.N,GND*%
X49100000Y34300000D03*
%TD*%
D15*
%TO.P,C5,1*%
%TO.N,+3V3*%
X41510000Y24220000D03*
%TO.P,C5,2*%
%TO.N,GND*%
X40550000Y24220000D03*
%TD*%
D36*
%TO.P,U1,1,VCCA*%
%TO.N,+3V3*%
X52400000Y10700000D03*
%TO.P,U1,2,GND*%
%TO.N,GND*%
X52400000Y11650000D03*
%TO.P,U1,3,A*%
%TO.N,/LED_DATA*%
X52400000Y12600000D03*
%TO.P,U1,4,B*%
%TO.N,/MCU_LLC*%
X50125000Y12600000D03*
%TO.P,U1,5,DIR*%
%TO.N,GND*%
X50125000Y11650000D03*
%TO.P,U1,6,VCCB*%
%TO.N,+5V*%
X50125000Y10700000D03*
%TD*%
D16*
%TO.P,C8,1*%
%TO.N,/MCU_RF*%
X51850000Y29680000D03*
%TO.P,C8,2*%
%TO.N,GND*%
X51850000Y28720000D03*
%TD*%
D37*
%TO.P,C7,1*%
%TO.N,+3V3*%
X51770000Y27520000D03*
%TO.P,C7,2*%
%TO.N,GND*%
X52730000Y27520000D03*
%TD*%
D27*
%TO.P,U5,1,I/O1*%
%TO.N,/USB_D-*%
X31762500Y29450000D03*
%TO.P,U5,2,GND*%
%TO.N,GND*%
X31762500Y28500000D03*
%TO.P,U5,3,I/O2*%
%TO.N,/USB_D+*%
X31762500Y27550000D03*
%TO.P,U5,4,I/O2*%
%TO.N,/MCU_D+*%
X34037500Y27550000D03*
%TO.P,U5,5,VBUS*%
%TO.N,/USB_5V*%
X34037500Y28500000D03*
%TO.P,U5,6,I/O1*%
%TO.N,/MCU_D-*%
X34037500Y29450000D03*
%TD*%
D38*
%TO.P,C18,1*%
%TO.N,GND*%
X28800000Y14750000D03*
%TO.P,C18,2*%
%TO.N,+3V3*%
X30700000Y14750000D03*
%TD*%
D39*
%TO.P,J4,1,RST*%
%TO.N,/SWD_nRST*%
X6960000Y31860000D03*
%TO.P,J4,2,SWCLK*%
%TO.N,/SWD_CLK*%
X6960000Y34400000D03*
%TO.P,J4,3,SWIM*%
%TO.N,unconnected-(J4-SWIM-Pad3)*%
X9500000Y31860000D03*
%TO.P,J4,4,SWDIO*%
%TO.N,/SWD_IO*%
X9500000Y34400000D03*
%TO.P,J4,5,GND*%
%TO.N,GND*%
X12040000Y31860000D03*
%TO.P,J4,6,GND*%
X12040000Y34400000D03*
%TO.P,J4,7,3V3*%
%TO.N,+3V3*%
X14580000Y31860000D03*
%TO.P,J4,8,3V3*%
X14580000Y34400000D03*
%TO.P,J4,9,5V*%
%TO.N,unconnected-(J4-5V-Pad9)*%
X17120000Y31860000D03*
%TO.P,J4,10,5V*%
%TO.N,unconnected-(J4-5V-Pad10)*%
X17120000Y34400000D03*
%TD*%
D25*
%TO.P,C22,1*%
%TO.N,+5V*%
X23500000Y14500000D03*
%TO.P,C22,2*%
%TO.N,GND*%
X21600000Y14500000D03*
%TD*%
D18*
%TO.P,C26,1*%
%TO.N,VBUS*%
X7230000Y14180000D03*
%TO.P,C26,2*%
%TO.N,GND*%
X7230000Y15140000D03*
%TD*%
D21*
%TO.P,FID2,*%
%TO.N,*%
X72000000Y2000000D03*
%TD*%
D40*
%TO.P,R4,1*%
%TO.N,VBUS*%
X8976000Y16864000D03*
%TO.P,R4,2*%
%TO.N,/REG_EN*%
X8976000Y17884000D03*
%TD*%
D18*
%TO.P,C2,1*%
%TO.N,+3V3*%
X43560000Y33920000D03*
%TO.P,C2,2*%
%TO.N,GND*%
X43560000Y34880000D03*
%TD*%
D41*
%TO.P,C11,1*%
%TO.N,GND*%
X5350000Y16400000D03*
%TO.P,C11,2*%
%TO.N,VBUS*%
X5350000Y14500000D03*
%TD*%
D42*
%TO.P,J3,1*%
%TO.N,VBUS*%
X13900000Y6204500D03*
D43*
%TO.P,J3,2*%
%TO.N,GND*%
X8000000Y6204500D03*
D44*
%TO.P,J3,3*%
%TO.N,unconnected-(J3-Pad3)*%
X11100000Y1504500D03*
%TD*%
D37*
%TO.P,C17,1*%
%TO.N,GND*%
X25570000Y16225000D03*
%TO.P,C17,2*%
%TO.N,+5V*%
X26530000Y16225000D03*
%TD*%
D29*
%TO.P,R8,1*%
%TO.N,Net-(D2-A)*%
X58200000Y10010000D03*
%TO.P,R8,2*%
%TO.N,+3V3*%
X58200000Y8990000D03*
%TD*%
D13*
%TO.P,Q1,1,D*%
%TO.N,/REG_EN*%
X25200000Y27500000D03*
%TO.P,Q1,2,G*%
%TO.N,/USB_5V*%
X27100000Y27500000D03*
%TO.P,Q1,3,S*%
%TO.N,GND*%
X26150000Y29375000D03*
%TD*%
D29*
%TO.P,R13,1*%
%TO.N,GND*%
X55500000Y20710000D03*
%TO.P,R13,2*%
%TO.N,/MCU_LED_2*%
X55500000Y19690000D03*
%TD*%
D40*
%TO.P,R3,1*%
%TO.N,GND*%
X15350000Y11700000D03*
%TO.P,R3,2*%
%TO.N,Net-(U2-FB)*%
X15350000Y12720000D03*
%TD*%
D26*
%TO.P,R10,1*%
%TO.N,/MCU_BOOT0*%
X41700000Y17700000D03*
%TO.P,R10,2*%
%TO.N,Net-(R10-Pad2)*%
X40680000Y17700000D03*
%TD*%
D15*
%TO.P,C28,1*%
%TO.N,+5V*%
X23530000Y19000000D03*
%TO.P,C28,2*%
%TO.N,GND*%
X22570000Y19000000D03*
%TD*%
D29*
%TO.P,R12,1*%
%TO.N,GND*%
X54250000Y20710000D03*
%TO.P,R12,2*%
%TO.N,/MCU_LED_1*%
X54250000Y19690000D03*
%TD*%
D40*
%TO.P,R6,1*%
%TO.N,/USB_5V*%
X28900000Y27927500D03*
%TO.P,R6,2*%
%TO.N,GND*%
X28900000Y28947500D03*
%TD*%
D45*
%TO.P,L3,1,1*%
%TO.N,/SW*%
X19400000Y6500000D03*
%TO.P,L3,2,2*%
%TO.N,+5V*%
X27300000Y6500000D03*
%TD*%
D17*
%TO.P,D1,1,K*%
%TO.N,/SW*%
X16631300Y22500000D03*
%TO.P,D1,2,A*%
%TO.N,GND*%
X12468700Y22500000D03*
%TD*%
D40*
%TO.P,R5,1*%
%TO.N,/REG_EN*%
X9150000Y19090000D03*
%TO.P,R5,2*%
%TO.N,GND*%
X9150000Y20110000D03*
%TD*%
D46*
%TO.P,L2,1,1*%
%TO.N,/MICROSTRIP*%
X59565000Y29600000D03*
%TO.P,L2,2,2*%
%TO.N,/RF_ANT*%
X60535000Y29600000D03*
%TD*%
D16*
%TO.P,C10,1*%
%TO.N,/RF_ANT*%
X62050000Y29580000D03*
%TO.P,C10,2*%
%TO.N,GND*%
X62050000Y28620000D03*
%TD*%
D47*
%TO.P,U2,1,BST*%
%TO.N,Net-(U2-BST)*%
X11900000Y17944500D03*
%TO.P,U2,2,Vin*%
%TO.N,VBUS*%
X11900000Y16674500D03*
%TO.P,U2,3,EN*%
%TO.N,/REG_EN*%
X11900000Y15404500D03*
%TO.P,U2,4,PGOOD*%
%TO.N,/PGOOD*%
X11900000Y14134500D03*
%TO.P,U2,5,FB*%
%TO.N,Net-(U2-FB)*%
X16850000Y14134500D03*
%TO.P,U2,6,NC*%
%TO.N,unconnected-(U2-NC-Pad6)*%
X16850000Y15404500D03*
%TO.P,U2,7,GND*%
%TO.N,GND*%
X16850000Y16674500D03*
%TO.P,U2,8,SW*%
%TO.N,/SW*%
X16850000Y17944500D03*
D48*
%TO.P,U2,9,PADGND*%
%TO.N,GND*%
X14375000Y16039500D03*
%TD*%
D16*
%TO.P,C15,1*%
%TO.N,/MCU_LSE_IN*%
X43900000Y21760000D03*
%TO.P,C15,2*%
%TO.N,GND*%
X43900000Y20800000D03*
%TD*%
%TO.P,C6,1*%
%TO.N,+3V3*%
X47610000Y23960000D03*
%TO.P,C6,2*%
%TO.N,GND*%
X47610000Y23000000D03*
%TD*%
D26*
%TO.P,R9,1*%
%TO.N,/MCU_BOOT0*%
X41730000Y20610000D03*
%TO.P,R9,2*%
%TO.N,GND*%
X40710000Y20610000D03*
%TD*%
D30*
%TO.P,C21,1*%
%TO.N,+5V*%
X44400000Y9400000D03*
%TO.P,C21,2*%
%TO.N,GND*%
X44400000Y5000000D03*
%TD*%
D15*
%TO.P,C19,1*%
%TO.N,/MCU_BOOT0*%
X41690000Y19200000D03*
%TO.P,C19,2*%
%TO.N,GND*%
X40730000Y19200000D03*
%TD*%
%TO.P,C4,1*%
%TO.N,+3V3*%
X41530000Y26000000D03*
%TO.P,C4,2*%
%TO.N,GND*%
X40570000Y26000000D03*
%TD*%
D26*
%TO.P,R11,1*%
%TO.N,+5V*%
X3210000Y13000000D03*
%TO.P,R11,2*%
%TO.N,Net-(D5-A)*%
X2190000Y13000000D03*
%TD*%
D18*
%TO.P,C1,1*%
%TO.N,+3V3*%
X45370000Y33920000D03*
%TO.P,C1,2*%
%TO.N,GND*%
X45370000Y34880000D03*
%TD*%
D29*
%TO.P,R2,1*%
%TO.N,Net-(U2-FB)*%
X13550000Y12710000D03*
%TO.P,R2,2*%
%TO.N,+5V*%
X13550000Y11690000D03*
%TD*%
D49*
%TO.N,+3V3*%
X41800000Y25100000D03*
X44200000Y33920000D03*
D50*
X37000000Y22700000D03*
D49*
X31725000Y15300000D03*
X51600000Y26645000D03*
D50*
X54100000Y9000000D03*
D49*
X46070000Y33900000D03*
X52600000Y34300000D03*
D51*
X38400000Y14000000D03*
D50*
X57300000Y9000000D03*
D49*
X31725000Y14050000D03*
X42350000Y24350000D03*
D50*
X33600000Y18200000D03*
D49*
X48380000Y24100000D03*
D50*
X53800000Y10700000D03*
D49*
X53000000Y31900000D03*
D50*
X41400000Y29000000D03*
X32225000Y18950000D03*
D49*
%TO.N,GND*%
X20475000Y13900000D03*
D50*
X10400000Y23300000D03*
D49*
X21750000Y20500000D03*
D50*
X27337500Y18000000D03*
D49*
X43950000Y20050000D03*
X62050000Y27800000D03*
X62000000Y4000000D03*
X62000000Y24850000D03*
D50*
X47000000Y37000000D03*
X20400000Y23700000D03*
D49*
X20475000Y15150000D03*
D50*
X44650000Y27000000D03*
X48650000Y31000000D03*
X40700000Y21600000D03*
D49*
X52505000Y32990000D03*
X16950000Y12250000D03*
X62000000Y34000000D03*
X45370000Y20010000D03*
X6000000Y17550000D03*
D50*
X5400000Y23700000D03*
D49*
X54000000Y24850000D03*
D50*
X45200000Y2700000D03*
X48650000Y27000000D03*
D49*
X62000000Y37000000D03*
X40560000Y25270000D03*
X20475000Y16400000D03*
D50*
X33600000Y17025000D03*
D49*
X44180000Y34890000D03*
X16900000Y9000000D03*
D50*
X45650000Y30000000D03*
D49*
X20475000Y17650000D03*
X62000000Y19000000D03*
X62000000Y22000000D03*
D50*
X32000000Y4000000D03*
D49*
X25575000Y15375000D03*
D50*
X13750000Y17000000D03*
X38000000Y37000000D03*
D49*
X62000000Y7000000D03*
X55500000Y21530000D03*
D50*
X32875000Y30600000D03*
X32000000Y10000000D03*
X44650000Y29000000D03*
X26150000Y30825000D03*
D49*
X59000000Y32000000D03*
X54250000Y21550000D03*
D50*
X27500000Y13000000D03*
X10050000Y20100000D03*
X36400000Y2700000D03*
X10600000Y19400000D03*
X8350000Y15100000D03*
X38000000Y2700000D03*
X47000000Y16000000D03*
D49*
X27675000Y14150000D03*
D50*
X28600000Y29900000D03*
D49*
X57000000Y26850000D03*
D50*
X50000000Y37000000D03*
D49*
X52800000Y28720000D03*
D50*
X39500000Y34000000D03*
D49*
X60000000Y24850000D03*
D50*
X48500000Y13000000D03*
D49*
X57550000Y27800000D03*
X59000000Y26850000D03*
D50*
X12900000Y26700000D03*
X28500000Y31800000D03*
X18900000Y26700000D03*
X13750000Y15250000D03*
D49*
X48500000Y23000000D03*
D50*
X53000000Y37000000D03*
D49*
X52600000Y30875000D03*
D50*
X47650000Y30000000D03*
D49*
X55000000Y32000000D03*
D50*
X6900000Y26700000D03*
X48500000Y11650000D03*
X43600000Y2700000D03*
X15000000Y15250000D03*
D49*
X27675000Y15400000D03*
D50*
X48650000Y29000000D03*
D49*
X56000000Y24850000D03*
X54000000Y34000000D03*
X25450000Y19800000D03*
X55000000Y26850000D03*
D50*
X7250000Y15900000D03*
D49*
X61000000Y32000000D03*
X21750000Y19000000D03*
X4750000Y17550000D03*
X59000000Y37000000D03*
D50*
X36500000Y34000000D03*
X44650000Y31000000D03*
X46650000Y31000000D03*
X48500000Y4000000D03*
X53775000Y11650000D03*
X15000000Y17000000D03*
D49*
X55550000Y27800000D03*
D50*
X47650000Y28000000D03*
D49*
X62000000Y10000000D03*
D50*
X10400000Y21700000D03*
D49*
X56000000Y34000000D03*
D50*
X40300000Y28900000D03*
X9900000Y26700000D03*
D49*
X62000000Y16000000D03*
D50*
X30500000Y13000000D03*
D49*
X58000000Y34000000D03*
D50*
X41000000Y37000000D03*
X32000000Y7000000D03*
D49*
X52740000Y26650000D03*
D50*
X45650000Y28000000D03*
X50550000Y18900000D03*
D49*
X57000000Y32000000D03*
X46030000Y34880000D03*
D50*
X40900000Y27400000D03*
D49*
X58000000Y24850000D03*
D50*
X8100000Y20950000D03*
X46650000Y27000000D03*
D49*
X61000000Y26850000D03*
D50*
X56400000Y18900000D03*
D49*
X62000000Y13000000D03*
D50*
X15900000Y26700000D03*
X45500000Y13000000D03*
X39500000Y13000000D03*
D49*
X40530000Y23410000D03*
X60000000Y34000000D03*
D50*
X27100000Y31800000D03*
%TO.N,VBUS*%
X8100000Y14150000D03*
X9650000Y12400000D03*
X8076000Y17149000D03*
D51*
X16000000Y3500000D03*
D50*
X10325000Y16675000D03*
D52*
X4850000Y13150000D03*
X5900000Y13150000D03*
D50*
X9150000Y13400000D03*
D52*
%TO.N,+5V*%
X36500000Y11700000D03*
D50*
X24300000Y19000000D03*
D49*
X24525000Y17600000D03*
D52*
X30300000Y8100000D03*
X34100000Y25250000D03*
D50*
X27350000Y18950000D03*
X27387500Y17050000D03*
D49*
X26525000Y15400000D03*
D52*
X37900000Y11700000D03*
D49*
X24525000Y16350000D03*
X26425000Y19800000D03*
D52*
X45000000Y11700000D03*
D50*
X48500000Y10700000D03*
D52*
X43700000Y11700000D03*
D49*
X17775000Y13075000D03*
D50*
X24300000Y20500000D03*
D49*
X24525000Y13850000D03*
D52*
X30300000Y5100000D03*
D49*
X24525000Y15100000D03*
D52*
X34100000Y22650000D03*
D49*
X16700000Y10300000D03*
D50*
%TO.N,/USB_5V*%
X29800000Y27900000D03*
D52*
X26800000Y24800000D03*
D50*
X28175000Y27125000D03*
X35300000Y28500000D03*
D52*
X30600000Y30800000D03*
X26800000Y23200000D03*
D50*
%TO.N,/SWD_CLK*%
X41800000Y28000000D03*
X7900000Y35900000D03*
%TO.N,/REG_EN*%
X25200000Y26000000D03*
X10200000Y18400000D03*
D51*
%TO.N,/MCU_LLC*%
X49250000Y20250000D03*
%TD*%
D53*
%TO.N,+3V3*%
X41500000Y29915000D02*
X41500000Y29100000D01*
X52350000Y33950000D02*
X52600000Y34200000D01*
X51750000Y31835000D02*
X52440000Y31835000D01*
D54*
X42475000Y30050000D02*
X42175000Y30050000D01*
X42025000Y29900000D02*
X41500000Y29900000D01*
D53*
X51780000Y27545000D02*
X51780000Y27100000D01*
X41500000Y29100000D02*
X41400000Y29000000D01*
D55*
X57210000Y8990000D02*
X57200000Y9000000D01*
D53*
X47610000Y23960000D02*
X47650000Y24000000D01*
X52600000Y34200000D02*
X52600000Y34300000D01*
X47300000Y24600000D02*
X47300000Y24300000D01*
X52440000Y31835000D02*
X52935000Y31835000D01*
D56*
X50700000Y29550000D02*
X49987500Y29550000D01*
X50500000Y31050000D02*
X50850000Y31400000D01*
D53*
X50950000Y29300000D02*
X50950000Y27800000D01*
D55*
X55000000Y8990000D02*
X54210000Y8990000D01*
D57*
X37000000Y21450000D02*
X37000000Y17300000D01*
D56*
X43112500Y30050000D02*
X42575000Y30050000D01*
D54*
X50850000Y31400000D02*
X51275000Y31825000D01*
D53*
X32750000Y17980000D02*
X33380000Y17980000D01*
X50950000Y27800000D02*
X51225000Y27525000D01*
D56*
X47300000Y25362500D02*
X47300000Y24600000D01*
X49987500Y31050000D02*
X50500000Y31050000D01*
D54*
X51275000Y31825000D02*
X51750000Y31825000D01*
X46050000Y33920000D02*
X46070000Y33900000D01*
D53*
X51725000Y33950000D02*
X52350000Y33950000D01*
X51780000Y26880000D02*
X51600000Y26700000D01*
D56*
X50800000Y29450000D02*
X50700000Y29550000D01*
D58*
X52400000Y10700000D02*
X53800000Y10700000D01*
D53*
X47650000Y24000000D02*
X48340000Y24000000D01*
X52935000Y31835000D02*
X53000000Y31900000D01*
D56*
X42575000Y30050000D02*
X42475000Y30050000D01*
D55*
X58200000Y8990000D02*
X57210000Y8990000D01*
D53*
X51225000Y27525000D02*
X51775000Y27525000D01*
X47300000Y24300000D02*
X47600000Y24000000D01*
D57*
X37000000Y21450000D02*
X37000000Y22700000D01*
D53*
X50800000Y29450000D02*
X50950000Y29300000D01*
D54*
X42175000Y30050000D02*
X42050000Y29925000D01*
D53*
X33380000Y17980000D02*
X33600000Y18200000D01*
X51780000Y27100000D02*
X51780000Y26880000D01*
D54*
X42050000Y29925000D02*
X42025000Y29900000D01*
D55*
X54210000Y8990000D02*
X54200000Y9000000D01*
D58*
X30887500Y18950000D02*
X32225000Y18950000D01*
D54*
%TO.N,GND*%
X51350000Y30875000D02*
X51725000Y30875000D01*
X44170000Y34880000D02*
X44180000Y34890000D01*
D53*
X40550000Y24220000D02*
X40550000Y23430000D01*
X52400000Y11650000D02*
X53775000Y11650000D01*
D54*
X45370000Y34880000D02*
X46030000Y34880000D01*
D57*
X40730000Y19200000D02*
X40730000Y20770000D01*
D53*
X14650500Y16674500D02*
X14650000Y16675000D01*
X40570000Y25280000D02*
X40560000Y25270000D01*
D57*
X12040000Y31860000D02*
X12040000Y32140000D01*
D53*
X51850000Y28720000D02*
X52560000Y28720000D01*
X40550000Y29895000D02*
X40550000Y29050000D01*
D56*
X45800000Y32237500D02*
X45800000Y31000000D01*
X50775000Y30575000D02*
X50750000Y30550000D01*
D57*
X10040000Y20110000D02*
X10050000Y20100000D01*
D53*
X7230000Y15140000D02*
X7230000Y15880000D01*
D57*
X54250000Y21450000D02*
X54300000Y21500000D01*
D54*
X51050000Y30575000D02*
X51350000Y30875000D01*
D53*
X43900000Y20100000D02*
X43950000Y20050000D01*
D54*
X43560000Y34880000D02*
X44170000Y34880000D01*
D55*
X57750000Y18437500D02*
X56762500Y18437500D01*
D58*
X33595000Y17020000D02*
X33600000Y17025000D01*
D53*
X7230000Y15880000D02*
X7250000Y15900000D01*
D57*
X9150000Y20110000D02*
X10040000Y20110000D01*
D55*
X51287500Y18900000D02*
X50550000Y18900000D01*
D53*
X55560000Y28650000D02*
X55560000Y27990000D01*
X16850000Y16674500D02*
X14650500Y16674500D01*
X50125000Y11650000D02*
X48500000Y11650000D01*
X25450000Y18900000D02*
X25450000Y19800000D01*
X43900000Y20800000D02*
X43900000Y20100000D01*
D55*
X56762500Y18437500D02*
X56550000Y18650000D01*
D53*
X51725000Y32990000D02*
X52505000Y32990000D01*
D57*
X26150000Y29375000D02*
X26150000Y30825000D01*
D53*
X51750000Y30875000D02*
X52440000Y30875000D01*
D57*
X32875000Y29275000D02*
X32875000Y30525000D01*
D53*
X8370000Y15120000D02*
X8350000Y15100000D01*
D57*
X32100000Y28500000D02*
X32875000Y29275000D01*
X12040000Y34400000D02*
X12040000Y34740000D01*
D53*
X22590000Y20500000D02*
X21900000Y20500000D01*
D57*
X40710000Y21590000D02*
X40700000Y21600000D01*
D53*
X52740000Y27550000D02*
X52740000Y26900000D01*
D56*
X50750000Y30550000D02*
X49987500Y30550000D01*
D53*
X22590000Y19000000D02*
X21900000Y19000000D01*
X47610000Y23000000D02*
X48500000Y23000000D01*
D57*
X55500000Y20710000D02*
X55500000Y21500000D01*
X40730000Y20770000D02*
X40700000Y20800000D01*
X40710000Y20610000D02*
X40710000Y21590000D01*
D53*
X32750000Y17020000D02*
X33595000Y17020000D01*
D55*
X51750000Y18437500D02*
X51287500Y18900000D01*
D53*
X45400000Y20110000D02*
X45350000Y20060000D01*
D57*
X31762500Y28500000D02*
X32100000Y28500000D01*
D58*
X28600000Y18000000D02*
X27337500Y18000000D01*
D54*
X50775000Y30575000D02*
X51050000Y30575000D01*
D57*
X6687500Y20950000D02*
X8100000Y20950000D01*
D53*
X40570000Y26000000D02*
X40570000Y25280000D01*
X40550000Y23430000D02*
X40530000Y23410000D01*
D54*
X57550000Y29575000D02*
X57550000Y27900000D01*
D53*
X62050000Y28620000D02*
X62050000Y27930000D01*
D57*
X54250000Y20710000D02*
X54250000Y21450000D01*
D53*
X25575000Y16275000D02*
X25575000Y15375000D01*
X45400000Y20800000D02*
X45400000Y20110000D01*
X40550000Y29050000D02*
X40400000Y28900000D01*
X9130000Y15120000D02*
X8370000Y15120000D01*
D57*
%TO.N,/MCU_RF*%
X51950000Y29600000D02*
X51850000Y29700000D01*
D59*
X51500000Y30050000D02*
X51850000Y29700000D01*
X51950000Y29600000D02*
X53250000Y29600000D01*
X49987500Y30050000D02*
X51500000Y30050000D01*
D57*
%TO.N,Net-(C9-Pad1)*%
X55550000Y29600000D02*
X55550000Y29500000D01*
D59*
X54220000Y29600000D02*
X55450000Y29600000D01*
D57*
X55450000Y29500000D02*
X55550000Y29600000D01*
D59*
X55550000Y29600000D02*
X56950000Y29600000D01*
%TO.N,/RF_ANT*%
X62020000Y29560000D02*
X62050000Y29590000D01*
D54*
X66700000Y23200000D02*
X66700000Y31900000D01*
X67900000Y31900000D02*
X67900000Y23200000D01*
X65500000Y31900000D02*
X65500000Y23200000D01*
X63000000Y29590000D02*
X64290000Y29590000D01*
X66700000Y31900000D02*
X67900000Y31900000D01*
D59*
X60535000Y29600000D02*
X61860000Y29600000D01*
D54*
X64290000Y29590000D02*
X64300000Y29600000D01*
X64300000Y31900000D02*
X65500000Y31900000D01*
X64300000Y29600000D02*
X64300000Y31900000D01*
X69100000Y23200000D02*
X69100000Y29400000D01*
D59*
X62050000Y29590000D02*
X63000000Y29590000D01*
D54*
X67900000Y23200000D02*
X69100000Y23200000D01*
X65500000Y23200000D02*
X66700000Y23200000D01*
D53*
%TO.N,VBUS*%
X9130000Y13420000D02*
X9150000Y13400000D01*
X8070000Y14180000D02*
X8100000Y14150000D01*
D57*
X10440000Y12400000D02*
X9650000Y12400000D01*
D53*
X9130000Y14160000D02*
X9130000Y13420000D01*
X10325500Y16674500D02*
X10325000Y16675000D01*
X8386000Y16864000D02*
X8076000Y17174000D01*
X11900000Y16674500D02*
X10325500Y16674500D01*
X8976000Y16864000D02*
X8386000Y16864000D01*
X7230000Y14180000D02*
X8070000Y14180000D01*
D58*
%TO.N,+5V*%
X28612500Y18950000D02*
X27350000Y18950000D01*
X50125000Y10700000D02*
X48500000Y10700000D01*
D57*
X7250000Y12150000D02*
X3600000Y12150000D01*
X3210000Y12540000D02*
X3210000Y13000000D01*
D60*
X27300000Y6500000D02*
X28300000Y6500000D01*
D57*
X13900000Y11000000D02*
X13550000Y11350000D01*
D53*
X26425000Y18925000D02*
X26425000Y19800000D01*
X26525000Y16275000D02*
X26525000Y15400000D01*
D57*
X16600000Y11000000D02*
X13900000Y11000000D01*
X16600000Y10200000D02*
X9200000Y10200000D01*
X13550000Y11350000D02*
X13550000Y11690000D01*
D53*
X23530000Y19000000D02*
X24300000Y19000000D01*
X26400000Y18900000D02*
X26425000Y18925000D01*
D57*
X16700000Y10300000D02*
X16600000Y10200000D01*
X3600000Y12150000D02*
X3210000Y12540000D01*
D60*
X27300000Y6500000D02*
X27700000Y6500000D01*
D57*
X9200000Y10200000D02*
X7250000Y12150000D01*
D58*
X28650000Y17050000D02*
X27387500Y17050000D01*
D57*
X17775000Y12175000D02*
X16600000Y11000000D01*
D53*
X23530000Y20500000D02*
X24300000Y20500000D01*
D57*
X17775000Y13075000D02*
X17775000Y12175000D01*
D55*
%TO.N,/MCU_LSE_IN*%
X44300000Y24540000D02*
X43880000Y24120000D01*
X44300000Y24700000D02*
X44300000Y24540000D01*
X43880000Y24120000D02*
X43880000Y21820000D01*
D61*
X44300000Y25362500D02*
X44300000Y24700000D01*
D55*
X43880000Y21820000D02*
X43910000Y21790000D01*
%TO.N,/MCU_LSE_OUT*%
X45350000Y24150000D02*
X45350000Y21840000D01*
X45350000Y21840000D02*
X45400000Y21790000D01*
D61*
X44800000Y25362500D02*
X44800000Y24700000D01*
D55*
X44800000Y24700000D02*
X45350000Y24150000D01*
D57*
%TO.N,/MCU_BOOT0*%
X45300000Y24881744D02*
X45656744Y24525000D01*
X46475000Y24225000D02*
X46475000Y20000000D01*
X46475000Y20000000D02*
X45875000Y19400000D01*
X45875000Y19400000D02*
X43450000Y19400000D01*
X45300000Y25362500D02*
X45300000Y24881744D01*
X41725000Y20625000D02*
X41725000Y17700000D01*
X43450000Y19400000D02*
X42225000Y20625000D01*
X42225000Y20625000D02*
X41725000Y20625000D01*
X45656744Y24525000D02*
X46175000Y24525000D01*
X46175000Y24525000D02*
X46475000Y24225000D01*
D55*
%TO.N,Net-(D2-A)*%
X58200000Y11800000D02*
X58100000Y11900000D01*
X58200000Y10010000D02*
X58200000Y11800000D01*
%TO.N,Net-(D2-K)*%
X56800000Y15600000D02*
X56800000Y16500000D01*
X58100000Y13375000D02*
X58100000Y14300000D01*
X58100000Y14300000D02*
X56800000Y15600000D01*
%TO.N,Net-(D3-K)*%
X50800000Y15200000D02*
X50800000Y16600000D01*
X55000000Y14100000D02*
X54300000Y14800000D01*
X54300000Y14800000D02*
X51200000Y14800000D01*
X51200000Y14800000D02*
X50800000Y15200000D01*
X55000000Y13375000D02*
X55000000Y14100000D01*
%TO.N,Net-(D3-A)*%
X55000000Y10010000D02*
X55000000Y11800000D01*
D54*
%TO.N,/USB_5V*%
X27175000Y27100000D02*
X28150000Y27100000D01*
D53*
X34037500Y28500000D02*
X35300000Y28500000D01*
X27102500Y27927500D02*
X27100000Y27925000D01*
D54*
X30600000Y32306401D02*
X30600000Y33500000D01*
D58*
X30600000Y32306401D02*
X30600000Y30800000D01*
D53*
X28900000Y27927500D02*
X29772500Y27927500D01*
X28900000Y27927500D02*
X27102500Y27927500D01*
X28900000Y27927500D02*
X28377500Y27927500D01*
X29772500Y27927500D02*
X29800000Y27900000D01*
D57*
%TO.N,Net-(D5-K)*%
X2550000Y19050000D02*
X3500000Y20000000D01*
X3500000Y20000000D02*
X4800000Y20000000D01*
X2550000Y17187500D02*
X2550000Y19050000D01*
%TO.N,Net-(D5-A)*%
X2500000Y14000000D02*
X2500000Y15600000D01*
X2190000Y13000000D02*
X2190000Y13690000D01*
X2190000Y13690000D02*
X2500000Y14000000D01*
D59*
%TO.N,/MICROSTRIP*%
X59565000Y29600000D02*
X58150000Y29600000D01*
D57*
%TO.N,/SWD_nRST*%
X36000000Y16000000D02*
X35500000Y16500000D01*
X33776853Y20823147D02*
X26376853Y20823147D01*
X26376853Y20823147D02*
X17696890Y29503110D01*
X46800000Y19604322D02*
X43195678Y16000000D01*
X35500000Y16500000D02*
X35500000Y19100000D01*
X35500000Y19100000D02*
X33776853Y20823147D01*
X43195678Y16000000D02*
X36000000Y16000000D01*
X7496890Y29503110D02*
X7000000Y30000000D01*
X46800000Y25362500D02*
X46800000Y19604322D01*
X17696890Y29503110D02*
X7496890Y29503110D01*
X7000000Y30000000D02*
X7000000Y31500000D01*
%TO.N,/SWD_CLK*%
X42125000Y29225000D02*
X42425000Y29525000D01*
X43075000Y29525000D02*
X43100000Y29550000D01*
X42125000Y28525000D02*
X42125000Y29225000D01*
D54*
X6960000Y34400000D02*
X7100000Y34400000D01*
D57*
X42000000Y28400000D02*
X41800000Y28200000D01*
X41974999Y28374999D02*
X42000000Y28400000D01*
X42425000Y29525000D02*
X43075000Y29525000D01*
X42000000Y28400000D02*
X42125000Y28525000D01*
D54*
X7100000Y34400000D02*
X7900000Y35200000D01*
X7900000Y35200000D02*
X7900000Y35900000D01*
D57*
X41800000Y28200000D02*
X41800000Y28000000D01*
%TO.N,/SWD_IO*%
X41499542Y31200000D02*
X42149542Y30550000D01*
X17966483Y30200000D02*
X26666483Y21500000D01*
X10600000Y31147191D02*
X11547191Y30200000D01*
X39800000Y27000000D02*
X39800000Y30550000D01*
X40450000Y31200000D02*
X41499542Y31200000D01*
X9500000Y34500000D02*
X10600000Y33400000D01*
X39800000Y30550000D02*
X40450000Y31200000D01*
X34300000Y21500000D02*
X39800000Y27000000D01*
X26666483Y21500000D02*
X34300000Y21500000D01*
X11547191Y30200000D02*
X17966483Y30200000D01*
X10600000Y33400000D02*
X10600000Y31147191D01*
X42149542Y30550000D02*
X43125000Y30550000D01*
%TO.N,/REG_EN*%
X10500000Y15400000D02*
X11900000Y15400000D01*
X9900000Y17700000D02*
X9700000Y17700000D01*
X10200000Y18400000D02*
X10200000Y18800000D01*
X10200000Y18000000D02*
X9900000Y17700000D01*
X9700000Y17700000D02*
X9550000Y17850000D01*
X10200000Y18000000D02*
X10200000Y18400000D01*
X25200000Y27500000D02*
X25200000Y26050000D01*
X9774000Y16126000D02*
X10500000Y15400000D01*
X9900000Y19100000D02*
X9200000Y19100000D01*
X9526000Y17874000D02*
X8926000Y17874000D01*
X9700000Y17700000D02*
X9700000Y16200000D01*
X9700000Y16200000D02*
X9800000Y16100000D01*
X9526000Y17874000D02*
X9600000Y17800000D01*
X10200000Y18800000D02*
X9900000Y19100000D01*
D55*
%TO.N,/MCU_LED_1*%
X54250000Y16850000D02*
X54250000Y19700000D01*
D61*
X52850000Y19700000D02*
X54250000Y19700000D01*
D55*
X52700000Y16562500D02*
X53962500Y16562500D01*
D61*
X49987500Y26050000D02*
X49987500Y22562500D01*
D55*
X53962500Y16562500D02*
X54250000Y16850000D01*
D61*
X49987500Y22562500D02*
X52850000Y19700000D01*
D57*
%TO.N,/PGOOD*%
X6700000Y17550000D02*
X8375000Y15875000D01*
X11460000Y12400000D02*
X12100000Y12400000D01*
X12000000Y14100000D02*
X10333805Y14100000D01*
X12100000Y12400000D02*
X12350000Y12650000D01*
X10333805Y14100000D02*
X10000000Y14433805D01*
X8375000Y15875000D02*
X8650000Y15875000D01*
X6687500Y19050000D02*
X6687500Y17562500D01*
X6650000Y19050000D02*
X6700000Y19050000D01*
X10000000Y15450000D02*
X9575000Y15875000D01*
X10000000Y14433805D02*
X10000000Y15450000D01*
X12350000Y12650000D02*
X12350000Y14150000D01*
X9575000Y15875000D02*
X8525000Y15875000D01*
X6687500Y17562500D02*
X6700000Y17550000D01*
D61*
%TO.N,/MCU_LED_2*%
X50800000Y26550000D02*
X51200000Y26150000D01*
D55*
X58060000Y19690000D02*
X58700000Y19050000D01*
D61*
X54050000Y22600000D02*
X55700000Y22600000D01*
X55700000Y22600000D02*
X56450000Y21850000D01*
D55*
X58700000Y19050000D02*
X58700000Y16500000D01*
D61*
X53400000Y23250000D02*
X54050000Y22600000D01*
X49987500Y26550000D02*
X50800000Y26550000D01*
X51200000Y25450000D02*
X53400000Y23250000D01*
D55*
X55500000Y19690000D02*
X58060000Y19690000D01*
D61*
X51200000Y26150000D02*
X51200000Y25450000D01*
X56450000Y21850000D02*
X56450000Y19700000D01*
D57*
%TO.N,Net-(U2-FB)*%
X16200000Y12700000D02*
X16850000Y13350000D01*
X13550000Y12710000D02*
X15390000Y12710000D01*
X15350000Y12700000D02*
X16200000Y12700000D01*
X15390000Y12710000D02*
X15400000Y12700000D01*
X16850000Y13350000D02*
X16850000Y14100000D01*
%TO.N,Net-(R10-Pad2)*%
X39825000Y18000000D02*
X39850000Y17975000D01*
X39850000Y17975000D02*
X40125000Y17700000D01*
X39825000Y21200000D02*
X39825000Y18000000D01*
X39575000Y21450000D02*
X39825000Y21200000D01*
X40125000Y17700000D02*
X40175000Y17700000D01*
X39850000Y17350000D02*
X38625000Y17350000D01*
X40200000Y17700000D02*
X39850000Y17350000D01*
X38600000Y21450000D02*
X39575000Y21450000D01*
X40680000Y17700000D02*
X40200000Y17700000D01*
D56*
%TO.N,/LED_DATA*%
X54850000Y6400000D02*
X54850000Y4300000D01*
X54000000Y7250000D02*
X54850000Y6400000D01*
X52400000Y12600000D02*
X51737501Y12600000D01*
X52700000Y7250000D02*
X54000000Y7250000D01*
X51250000Y12112499D02*
X51250000Y8700000D01*
X54850000Y3450000D02*
X54900000Y3400000D01*
X51250000Y8700000D02*
X52700000Y7250000D01*
X51737501Y12600000D02*
X51250000Y12112499D01*
X54850000Y4300000D02*
X54850000Y3450000D01*
D57*
%TO.N,/MCU_LLC*%
X49250000Y24250000D02*
X49250000Y20250000D01*
X49250000Y14725000D02*
X50125000Y13850000D01*
X49250000Y20250000D02*
X49250000Y14725000D01*
X48900000Y24600000D02*
X49250000Y24250000D01*
X47970000Y24600000D02*
X48900000Y24600000D01*
X50125000Y13850000D02*
X50125000Y12600000D01*
X47800000Y24770000D02*
X47970000Y24600000D01*
X47800000Y25362500D02*
X47800000Y24770000D01*
D61*
%TO.N,/USB_D+*%
X30500000Y27750000D02*
X30750000Y27500000D01*
X29450000Y32650000D02*
X29300000Y32800000D01*
X29450000Y32600000D02*
X29450000Y32650000D01*
X30500000Y28500000D02*
X30500000Y27750000D01*
X29450000Y32600000D02*
X29450000Y29550000D01*
X30750000Y27500000D02*
X31351621Y27500000D01*
X29450000Y29550000D02*
X30500000Y28500000D01*
D55*
%TO.N,/MCU_HSE_OUT*%
X50200000Y34300000D02*
X50200000Y31600000D01*
D61*
%TO.N,/USB_D-*%
X29799999Y29847489D02*
X29799999Y32599999D01*
X31776256Y29423744D02*
X30223744Y29423744D01*
X31800000Y29400000D02*
X31776256Y29423744D01*
X30223744Y29423744D02*
X29799999Y29847489D01*
X30000000Y32800000D02*
X30000000Y33300000D01*
X29799999Y32599999D02*
X30000000Y32800000D01*
D55*
%TO.N,/MCU_HSE_IN*%
X48580000Y33280000D02*
X48000000Y33860000D01*
X48000000Y35250000D02*
X48390000Y35640000D01*
X48000000Y33860000D02*
X48000000Y35250000D01*
X48990000Y33280000D02*
X48580000Y33280000D01*
D57*
X49300000Y32850000D02*
X49300000Y32990000D01*
X49300000Y32990000D02*
X49260000Y33030000D01*
D55*
X48390000Y35640000D02*
X48970000Y35640000D01*
X49250000Y33020000D02*
X48990000Y33280000D01*
D57*
X49300000Y32237500D02*
X49300000Y32850000D01*
D61*
%TO.N,/MCU_D+*%
X35300000Y27550000D02*
X36075000Y28325000D01*
X36075000Y28325000D02*
X36672488Y28325000D01*
X43112500Y31050000D02*
X42521158Y31050000D01*
X41777570Y31795000D02*
X42126256Y31446314D01*
X42521158Y31050000D02*
X42135579Y31435579D01*
X40145000Y31795000D02*
X41777570Y31795000D01*
X39590000Y31240000D02*
X40145000Y31795000D01*
X36672488Y28325000D02*
X39587488Y31240000D01*
X34037500Y27550000D02*
X35300000Y27550000D01*
%TO.N,/MCU_D-*%
X43112500Y31550000D02*
X42518958Y31550000D01*
X39445026Y31590000D02*
X40000026Y32145000D01*
X35300000Y29450000D02*
X36075000Y28675000D01*
X42518958Y31550000D02*
X42374479Y31694479D01*
X34037500Y29450000D02*
X35300000Y29450000D01*
X36075000Y28675000D02*
X36527512Y28675000D01*
X36527512Y28675000D02*
X39442512Y31590000D01*
X40000026Y32145000D02*
X41922546Y32145000D01*
X39442512Y31590000D02*
X39445026Y31590000D01*
X41922546Y32145000D02*
X42373744Y31693802D01*
X43112500Y31550000D02*
X42970000Y31550000D01*
%TD*%
%TA.AperFunction,Conductor*%
%TO.N,+5V*%
G36*
X34553326Y25753326D02*
G01*
X34575000Y25701000D01*
X34575000Y22336689D01*
X34553326Y22284363D01*
X34440637Y22171674D01*
X34388311Y22150000D01*
X33673126Y22150000D01*
X33620800Y22171674D01*
X33603012Y22200336D01*
X33350000Y22950000D01*
X33349998Y22950001D01*
X31874642Y22957130D01*
X31822422Y22979057D01*
X31801000Y23031129D01*
X31801000Y24826000D01*
X31822674Y24878326D01*
X31875000Y24900000D01*
X33250000Y24900000D01*
X33730983Y25737842D01*
X33775832Y25772431D01*
X33795160Y25775000D01*
X34501000Y25775000D01*
X34553326Y25753326D01*
G37*
%TD.AperFunction*%
%TD*%
%TA.AperFunction,Conductor*%
%TO.N,GND*%
G36*
X14291110Y19155546D02*
G01*
X14311527Y19135129D01*
X14337218Y19096681D01*
X14341009Y19091008D01*
X14423899Y19035623D01*
X14476225Y19013949D01*
X14574000Y18994500D01*
X15363516Y18994500D01*
X15415842Y18972826D01*
X15722826Y18665842D01*
X15744500Y18613516D01*
X15744500Y18411044D01*
X15722826Y18358718D01*
X15696951Y18332844D01*
X15639353Y18219802D01*
X15624500Y18126020D01*
X15624500Y17762981D01*
X15639353Y17669196D01*
X15639354Y17669194D01*
X15696950Y17556158D01*
X15745210Y17507898D01*
X15761454Y17483397D01*
X15763549Y17478233D01*
X15763949Y17476225D01*
X15784365Y17426936D01*
X15784432Y17426771D01*
X15784431Y17426699D01*
X15785215Y17424508D01*
X15820879Y17371134D01*
X15841009Y17341008D01*
X15923899Y17285623D01*
X15976225Y17263949D01*
X16074000Y17244500D01*
X17863516Y17244500D01*
X17915842Y17222826D01*
X18222826Y16915842D01*
X18244500Y16863516D01*
X18244500Y13625504D01*
X18222826Y13573178D01*
X18170500Y13551504D01*
X18133500Y13561418D01*
X18123548Y13567164D01*
X18017194Y13628567D01*
X17982717Y13673499D01*
X17990109Y13729652D01*
X18001870Y13744979D01*
X18003050Y13746158D01*
X18060646Y13859196D01*
X18075500Y13952981D01*
X18075499Y14316018D01*
X18073168Y14330734D01*
X18060646Y14409805D01*
X18060645Y14409807D01*
X18003051Y14522840D01*
X18003050Y14522842D01*
X17913342Y14612550D01*
X17800304Y14670146D01*
X17800302Y14670147D01*
X17800301Y14670147D01*
X17706519Y14685000D01*
X15993480Y14685000D01*
X15899695Y14670147D01*
X15899693Y14670146D01*
X15786657Y14612550D01*
X15696951Y14522844D01*
X15639353Y14409802D01*
X15624500Y14316020D01*
X15624500Y13952981D01*
X15639353Y13859196D01*
X15639354Y13859194D01*
X15696949Y13746160D01*
X15696950Y13746158D01*
X15786658Y13656450D01*
X15899696Y13598854D01*
X15993481Y13584000D01*
X16445021Y13584001D01*
X16497347Y13562327D01*
X16519021Y13510001D01*
X16497347Y13457675D01*
X16086847Y13047174D01*
X16034521Y13025500D01*
X15926940Y13025500D01*
X15874614Y13047174D01*
X15860459Y13067000D01*
X15853076Y13082102D01*
X15762102Y13173076D01*
X15646518Y13229582D01*
X15571586Y13240500D01*
X15571582Y13240500D01*
X15128418Y13240500D01*
X15128413Y13240500D01*
X15053481Y13229582D01*
X14937897Y13173076D01*
X14846923Y13082102D01*
X14844429Y13076999D01*
X14801975Y13039509D01*
X14777948Y13035500D01*
X14117163Y13035500D01*
X14064837Y13057174D01*
X14057371Y13067634D01*
X14056640Y13067111D01*
X14053077Y13072101D01*
X13962102Y13163076D01*
X13846518Y13219582D01*
X13771586Y13230500D01*
X13771582Y13230500D01*
X13328418Y13230500D01*
X13328413Y13230500D01*
X13253481Y13219582D01*
X13137897Y13163076D01*
X13046924Y13072103D01*
X12990418Y12956519D01*
X12979500Y12881587D01*
X12979500Y12538414D01*
X12990418Y12463482D01*
X13046924Y12347898D01*
X13142234Y12252588D01*
X13139667Y12250022D01*
X13163280Y12212090D01*
X13150446Y12156926D01*
X13141583Y12148063D01*
X13142234Y12147412D01*
X13046924Y12052103D01*
X12990418Y11936519D01*
X12979500Y11861587D01*
X12979500Y11518414D01*
X12990418Y11443482D01*
X13046924Y11327898D01*
X13137898Y11236924D01*
X13213165Y11200128D01*
X13258645Y11177894D01*
X13257201Y11174941D01*
X13284998Y11152772D01*
X13286582Y11153987D01*
X13289533Y11150141D01*
X13289535Y11150138D01*
X13507555Y10932119D01*
X13636946Y10802728D01*
X13636951Y10802722D01*
X13639535Y10800138D01*
X13700138Y10739535D01*
X13737248Y10718110D01*
X13737249Y10718109D01*
X13737250Y10718109D01*
X13774361Y10696682D01*
X13774363Y10696682D01*
X13774364Y10696681D01*
X13815754Y10685591D01*
X13857144Y10674500D01*
X13857145Y10674499D01*
X13857147Y10674499D01*
X13947383Y10674499D01*
X13947399Y10674500D01*
X16094648Y10674500D01*
X16112486Y10667111D01*
X16131631Y10664596D01*
X16137726Y10656657D01*
X16146974Y10652826D01*
X16154363Y10634986D01*
X16166121Y10619671D01*
X16164817Y10609748D01*
X16168648Y10600500D01*
X16158744Y10563517D01*
X16158167Y10562517D01*
X16113242Y10528027D01*
X16094071Y10525500D01*
X9365479Y10525500D01*
X9313153Y10547174D01*
X8390979Y11469348D01*
X7449862Y12410465D01*
X7449859Y12410467D01*
X7449858Y12410468D01*
X7375643Y12453316D01*
X7375641Y12453317D01*
X7375640Y12453318D01*
X7375639Y12453318D01*
X7292853Y12475500D01*
X7292851Y12475500D01*
X6766130Y12475500D01*
X6713804Y12497174D01*
X6692130Y12549500D01*
X6693551Y12563932D01*
X6705500Y12624000D01*
X6705500Y13619348D01*
X6697743Y13658342D01*
X6708792Y13713888D01*
X6755883Y13745355D01*
X6811432Y13734306D01*
X6822647Y13725103D01*
X6827609Y13720141D01*
X6937825Y13663983D01*
X7029265Y13649500D01*
X7430734Y13649501D01*
X7522175Y13663983D01*
X7533628Y13669820D01*
X7536801Y13671435D01*
X7570396Y13679500D01*
X7744101Y13679500D01*
X7781100Y13669587D01*
X7877865Y13613719D01*
X8024231Y13574501D01*
X8024232Y13574500D01*
X8024234Y13574500D01*
X8175768Y13574500D01*
X8175768Y13574501D01*
X8322135Y13613719D01*
X8453365Y13689485D01*
X8503175Y13739296D01*
X8555500Y13760969D01*
X8607826Y13739295D01*
X8629500Y13686969D01*
X8629500Y13669297D01*
X8619587Y13632299D01*
X8613720Y13622138D01*
X8613717Y13622131D01*
X8574500Y13475769D01*
X8574500Y13324232D01*
X8613717Y13177870D01*
X8613721Y13177861D01*
X8674782Y13072101D01*
X8689485Y13046635D01*
X8796635Y12939485D01*
X8927865Y12863719D01*
X9074231Y12824501D01*
X9074232Y12824500D01*
X9102383Y12824500D01*
X9154709Y12802826D01*
X9176383Y12750500D01*
X9166469Y12713500D01*
X9113721Y12622140D01*
X9113717Y12622131D01*
X9074500Y12475769D01*
X9074500Y12324232D01*
X9113717Y12177870D01*
X9113721Y12177861D01*
X9187830Y12049501D01*
X9189485Y12046635D01*
X9296635Y11939485D01*
X9427865Y11863719D01*
X9574231Y11824501D01*
X9574232Y11824500D01*
X9574234Y11824500D01*
X9725768Y11824500D01*
X9725768Y11824501D01*
X9872135Y11863719D01*
X9974461Y11922798D01*
X10030611Y11930190D01*
X10063785Y11911037D01*
X10077898Y11896924D01*
X10193482Y11840418D01*
X10268418Y11829500D01*
X10268424Y11829500D01*
X10611576Y11829500D01*
X10611582Y11829500D01*
X10686518Y11840418D01*
X10802102Y11896924D01*
X10893076Y11987898D01*
X10893076Y11987899D01*
X10897412Y11992234D01*
X10899993Y11989653D01*
X10937816Y12013265D01*
X10992996Y12000502D01*
X11001926Y11991572D01*
X11002588Y11992234D01*
X11006924Y11987898D01*
X11097898Y11896924D01*
X11213482Y11840418D01*
X11288418Y11829500D01*
X11288424Y11829500D01*
X11631576Y11829500D01*
X11631582Y11829500D01*
X11706518Y11840418D01*
X11822102Y11896924D01*
X11913076Y11987898D01*
X11935125Y12033000D01*
X11977578Y12070490D01*
X12001606Y12074500D01*
X12142851Y12074500D01*
X12142853Y12074500D01*
X12225639Y12096682D01*
X12299862Y12139535D01*
X12610465Y12450138D01*
X12618169Y12463482D01*
X12653318Y12524362D01*
X12675499Y12607145D01*
X12675500Y12607145D01*
X12675500Y13510001D01*
X12697174Y13562327D01*
X12749500Y13584001D01*
X12756519Y13584001D01*
X12850304Y13598854D01*
X12850306Y13598855D01*
X12879478Y13613719D01*
X12963342Y13656450D01*
X13053050Y13746158D01*
X13110646Y13859196D01*
X13125500Y13952981D01*
X13125499Y14316018D01*
X13123168Y14330734D01*
X13110646Y14409805D01*
X13110645Y14409807D01*
X13053051Y14522840D01*
X13053050Y14522842D01*
X12963342Y14612550D01*
X12850304Y14670146D01*
X12850302Y14670147D01*
X12850301Y14670147D01*
X12756519Y14685000D01*
X11043480Y14685000D01*
X10949695Y14670147D01*
X10949693Y14670146D01*
X10836657Y14612550D01*
X10746948Y14522841D01*
X10746948Y14522840D01*
X10717938Y14465905D01*
X10674871Y14429122D01*
X10652004Y14425500D01*
X10499283Y14425500D01*
X10446957Y14447174D01*
X10347174Y14546958D01*
X10325500Y14599284D01*
X10325500Y15013336D01*
X10347174Y15065662D01*
X10399500Y15087336D01*
X10418647Y15084816D01*
X10457147Y15074500D01*
X10542853Y15074500D01*
X10671876Y15074500D01*
X10724202Y15052826D01*
X10737810Y15034096D01*
X10746950Y15016158D01*
X10836658Y14926450D01*
X10949696Y14868854D01*
X11043481Y14854000D01*
X12756518Y14854001D01*
X12756519Y14854001D01*
X12850304Y14868854D01*
X12850306Y14868855D01*
X12852419Y14869932D01*
X12963342Y14926450D01*
X13053050Y15016158D01*
X13110646Y15129196D01*
X13125500Y15222981D01*
X13125499Y15586018D01*
X13125499Y15586020D01*
X15624500Y15586020D01*
X15624500Y15222981D01*
X15639353Y15129196D01*
X15639354Y15129194D01*
X15696950Y15016158D01*
X15786658Y14926450D01*
X15899696Y14868854D01*
X15993481Y14854000D01*
X17706518Y14854001D01*
X17706519Y14854001D01*
X17800304Y14868854D01*
X17800306Y14868855D01*
X17802419Y14869932D01*
X17913342Y14926450D01*
X18003050Y15016158D01*
X18060646Y15129196D01*
X18075500Y15222981D01*
X18075499Y15586018D01*
X18073859Y15596372D01*
X18060646Y15679805D01*
X18060645Y15679807D01*
X18017523Y15764437D01*
X18003050Y15792842D01*
X17913342Y15882550D01*
X17800304Y15940146D01*
X17800302Y15940147D01*
X17800301Y15940147D01*
X17706519Y15955000D01*
X15993480Y15955000D01*
X15899695Y15940147D01*
X15899693Y15940146D01*
X15786657Y15882550D01*
X15696951Y15792844D01*
X15639353Y15679802D01*
X15624500Y15586020D01*
X13125499Y15586020D01*
X13123859Y15596372D01*
X13110646Y15679805D01*
X13110645Y15679807D01*
X13067523Y15764437D01*
X13053050Y15792842D01*
X12963342Y15882550D01*
X12850304Y15940146D01*
X12850302Y15940147D01*
X12850301Y15940147D01*
X12756519Y15955000D01*
X11043480Y15955000D01*
X10949695Y15940147D01*
X10949693Y15940146D01*
X10836657Y15882550D01*
X10746949Y15792842D01*
X10733224Y15765904D01*
X10724171Y15758174D01*
X10719616Y15747174D01*
X10703454Y15740480D01*
X10690156Y15729122D01*
X10667290Y15725500D01*
X10665479Y15725500D01*
X10613153Y15747174D01*
X10381030Y15979297D01*
X10359356Y16031623D01*
X10381030Y16083949D01*
X10414199Y16103100D01*
X10547135Y16138719D01*
X10591072Y16164086D01*
X10628072Y16174000D01*
X10862951Y16174000D01*
X10896546Y16165935D01*
X10949696Y16138854D01*
X11043481Y16124000D01*
X12756518Y16124001D01*
X12756519Y16124001D01*
X12850304Y16138854D01*
X12850306Y16138855D01*
X12899824Y16164086D01*
X12963342Y16196450D01*
X13053050Y16286158D01*
X13110646Y16399196D01*
X13125500Y16492981D01*
X13125499Y16856018D01*
X13123525Y16868481D01*
X13110646Y16949805D01*
X13110645Y16949807D01*
X13066217Y17037000D01*
X13053050Y17062842D01*
X12963342Y17152550D01*
X12850304Y17210146D01*
X12850302Y17210147D01*
X12850301Y17210147D01*
X12756519Y17225000D01*
X11043480Y17225000D01*
X10949696Y17210147D01*
X10896546Y17183065D01*
X10862951Y17175000D01*
X10629804Y17175000D01*
X10592804Y17184914D01*
X10547139Y17211279D01*
X10547130Y17211283D01*
X10400768Y17250500D01*
X10400766Y17250500D01*
X10249234Y17250500D01*
X10153775Y17224922D01*
X10118652Y17215511D01*
X10108737Y17216817D01*
X10099500Y17212990D01*
X10081653Y17220383D01*
X10062500Y17222904D01*
X10056412Y17230838D01*
X10047174Y17234664D01*
X10039781Y17252512D01*
X10028021Y17267838D01*
X10025500Y17286990D01*
X10025500Y17353878D01*
X10047174Y17406204D01*
X10062500Y17417964D01*
X10099862Y17439535D01*
X10460465Y17800138D01*
X10503318Y17874361D01*
X10504910Y17880302D01*
X10506868Y17887610D01*
X10538980Y17931121D01*
X10540141Y17931851D01*
X10553365Y17939485D01*
X10555177Y17941298D01*
X10561133Y17945039D01*
X10585894Y17949245D01*
X10610152Y17955747D01*
X10613340Y17953907D01*
X10616970Y17954523D01*
X10637451Y17939990D01*
X10659204Y17927433D01*
X10660492Y17923640D01*
X10663160Y17921746D01*
X10665187Y17909810D01*
X10674500Y17882380D01*
X10674500Y17762981D01*
X10689353Y17669196D01*
X10689354Y17669194D01*
X10735057Y17579499D01*
X10746950Y17556158D01*
X10836658Y17466450D01*
X10949696Y17408854D01*
X11043481Y17394000D01*
X12756518Y17394001D01*
X12756519Y17394001D01*
X12850304Y17408854D01*
X12850306Y17408855D01*
X12868183Y17417964D01*
X12963342Y17466450D01*
X13053050Y17556158D01*
X13110646Y17669196D01*
X13125500Y17762981D01*
X13125499Y18126018D01*
X13124786Y18130518D01*
X13110646Y18219805D01*
X13110645Y18219807D01*
X13078305Y18283276D01*
X13053050Y18332842D01*
X12963342Y18422550D01*
X12850304Y18480146D01*
X12850302Y18480147D01*
X12850301Y18480147D01*
X12817923Y18485275D01*
X12798366Y18497261D01*
X12777174Y18506038D01*
X12774837Y18511679D01*
X12769632Y18514869D01*
X12755500Y18558364D01*
X12755500Y18613516D01*
X12777174Y18665842D01*
X13084158Y18972826D01*
X13136484Y18994500D01*
X13925998Y18994500D01*
X13926000Y18994500D01*
X14023775Y19013949D01*
X14072757Y19034238D01*
X14075496Y19035219D01*
X14076101Y19035623D01*
X14076102Y19035623D01*
X14158992Y19091009D01*
X14188471Y19135129D01*
X14235561Y19166594D01*
X14291110Y19155546D01*
G37*
%TD.AperFunction*%
%TA.AperFunction,Conductor*%
G36*
X17152826Y13087848D02*
G01*
X17174500Y13035522D01*
X17174500Y12995941D01*
X17215421Y12843221D01*
X17215422Y12843219D01*
X17215423Y12843216D01*
X17294480Y12706284D01*
X17406284Y12594480D01*
X17412498Y12590893D01*
X17446978Y12545962D01*
X17449500Y12526806D01*
X17449500Y12340479D01*
X17427826Y12288153D01*
X16486847Y11347174D01*
X16434521Y11325500D01*
X14170450Y11325500D01*
X14118124Y11347174D01*
X14096450Y11399500D01*
X14103969Y11432001D01*
X14109582Y11443482D01*
X14120500Y11518418D01*
X14120500Y11861582D01*
X14109582Y11936518D01*
X14053076Y12052102D01*
X13962102Y12143076D01*
X13957766Y12147412D01*
X13960347Y12149994D01*
X13936735Y12187816D01*
X13949498Y12242996D01*
X13958428Y12251926D01*
X13957766Y12252588D01*
X14053077Y12347899D01*
X14056640Y12352889D01*
X14059540Y12350818D01*
X14093118Y12380484D01*
X14117163Y12384500D01*
X14789839Y12384500D01*
X14842165Y12362826D01*
X14843101Y12361721D01*
X14846924Y12357898D01*
X14937898Y12266924D01*
X15053482Y12210418D01*
X15128418Y12199500D01*
X15128424Y12199500D01*
X15571576Y12199500D01*
X15571582Y12199500D01*
X15646518Y12210418D01*
X15762102Y12266924D01*
X15848004Y12352826D01*
X15900330Y12374500D01*
X16242851Y12374500D01*
X16242853Y12374500D01*
X16325639Y12396682D01*
X16399862Y12439535D01*
X17043852Y13083528D01*
X17048174Y13087848D01*
X17056424Y13091266D01*
X17072691Y13101319D01*
X17072694Y13101320D01*
X17073665Y13098407D01*
X17085547Y13103329D01*
X17087991Y13104671D01*
X17088459Y13104535D01*
X17100500Y13109522D01*
X17152826Y13087848D01*
G37*
%TD.AperFunction*%
%TA.AperFunction,Conductor*%
G36*
X62978326Y37978326D02*
G01*
X63000000Y37926000D01*
X63000000Y30874000D01*
X62978326Y30821674D01*
X62926000Y30800000D01*
X53074000Y30800000D01*
X53021674Y30821674D01*
X53000000Y30874000D01*
X53000000Y31225500D01*
X53021674Y31277826D01*
X53074000Y31299500D01*
X53079059Y31299500D01*
X53079059Y31299501D01*
X53231784Y31340423D01*
X53368716Y31419480D01*
X53480520Y31531284D01*
X53559577Y31668216D01*
X53600499Y31820941D01*
X53600500Y31820941D01*
X53600500Y31979059D01*
X53600499Y31979060D01*
X53599433Y31983037D01*
X53559577Y32131784D01*
X53480520Y32268716D01*
X53368716Y32380520D01*
X53231784Y32459577D01*
X53231781Y32459578D01*
X53231779Y32459579D01*
X53079059Y32500500D01*
X53079057Y32500500D01*
X52920943Y32500500D01*
X52920941Y32500500D01*
X52768220Y32459579D01*
X52768214Y32459576D01*
X52631283Y32380520D01*
X52607938Y32357174D01*
X52555612Y32335500D01*
X52090396Y32335500D01*
X52056801Y32343565D01*
X52042174Y32351018D01*
X51950736Y32365500D01*
X51549265Y32365500D01*
X51457824Y32351017D01*
X51457822Y32351017D01*
X51347608Y32294859D01*
X51342896Y32291435D01*
X51341316Y32293609D01*
X51297598Y32275500D01*
X51215689Y32275500D01*
X51125326Y32251287D01*
X51111345Y32247541D01*
X51101111Y32244799D01*
X50998385Y32185490D01*
X50726826Y31913931D01*
X50674500Y31892257D01*
X50622174Y31913931D01*
X50600500Y31966257D01*
X50600500Y33600712D01*
X50622174Y33653038D01*
X50630558Y33660252D01*
X50722146Y33727847D01*
X50722146Y33727848D01*
X50722150Y33727850D01*
X50802793Y33837118D01*
X50847646Y33965301D01*
X50850500Y33995734D01*
X50850500Y34120737D01*
X51164500Y34120737D01*
X51164500Y33779266D01*
X51178983Y33687825D01*
X51178983Y33687823D01*
X51223804Y33599859D01*
X51235141Y33577609D01*
X51322609Y33490141D01*
X51432825Y33433983D01*
X51524265Y33419500D01*
X51925734Y33419501D01*
X52017175Y33433983D01*
X52028628Y33439820D01*
X52031801Y33441435D01*
X52065396Y33449500D01*
X52415894Y33449500D01*
X52415894Y33449501D01*
X52543186Y33483608D01*
X52657314Y33549500D01*
X52863827Y33756015D01*
X52879140Y33767765D01*
X52968716Y33819480D01*
X53080520Y33931284D01*
X53159577Y34068216D01*
X53200499Y34220941D01*
X53200500Y34220941D01*
X53200500Y34379059D01*
X53200499Y34379060D01*
X53192246Y34409859D01*
X53159577Y34531784D01*
X53080520Y34668716D01*
X52968716Y34780520D01*
X52831784Y34859577D01*
X52831781Y34859578D01*
X52831779Y34859579D01*
X52679059Y34900500D01*
X52679057Y34900500D01*
X52520943Y34900500D01*
X52520941Y34900500D01*
X52368220Y34859579D01*
X52368214Y34859576D01*
X52231283Y34780520D01*
X52119480Y34668717D01*
X52040424Y34531786D01*
X52040420Y34531777D01*
X52039814Y34529514D01*
X52039095Y34528579D01*
X52038568Y34527304D01*
X52038226Y34527446D01*
X52005331Y34484585D01*
X51956762Y34475586D01*
X51925736Y34480500D01*
X51524265Y34480500D01*
X51432824Y34466017D01*
X51432822Y34466017D01*
X51322608Y34409859D01*
X51235142Y34322393D01*
X51178982Y34212173D01*
X51178982Y34212171D01*
X51164500Y34120737D01*
X50850500Y34120737D01*
X50850500Y34604266D01*
X50847646Y34634699D01*
X50802793Y34762882D01*
X50789776Y34780520D01*
X50722153Y34872147D01*
X50722146Y34872154D01*
X50612883Y34952793D01*
X50612881Y34952794D01*
X50484704Y34997645D01*
X50484705Y34997645D01*
X50484700Y34997646D01*
X50484699Y34997646D01*
X50454266Y35000500D01*
X49945734Y35000500D01*
X49915301Y34997646D01*
X49915299Y34997646D01*
X49915295Y34997645D01*
X49787118Y34952794D01*
X49787116Y34952793D01*
X49677853Y34872154D01*
X49677846Y34872147D01*
X49597207Y34762884D01*
X49597206Y34762882D01*
X49552355Y34634705D01*
X49552354Y34634701D01*
X49552354Y34634699D01*
X49549500Y34604266D01*
X49549500Y33995734D01*
X49552354Y33965301D01*
X49552354Y33965299D01*
X49552355Y33965296D01*
X49597206Y33837119D01*
X49597207Y33837117D01*
X49677846Y33727854D01*
X49677853Y33727847D01*
X49769442Y33660252D01*
X49798673Y33611742D01*
X49799500Y33600712D01*
X49799500Y32749766D01*
X49777826Y32697440D01*
X49725500Y32675766D01*
X49673174Y32697440D01*
X49658433Y32718492D01*
X49632433Y32774249D01*
X49625500Y32805523D01*
X49625500Y32864229D01*
X49628022Y32883382D01*
X49639307Y32925499D01*
X49650500Y32967271D01*
X49650501Y32967271D01*
X49650501Y33072728D01*
X49650500Y33072729D01*
X49623208Y33174584D01*
X49623206Y33174589D01*
X49570481Y33265911D01*
X49409980Y33426412D01*
X49235913Y33600480D01*
X49235910Y33600482D01*
X49235909Y33600483D01*
X49144592Y33653205D01*
X49144588Y33653207D01*
X49118295Y33660252D01*
X49042727Y33680500D01*
X49042726Y33680500D01*
X48776545Y33680500D01*
X48724219Y33702174D01*
X48422174Y34004219D01*
X48400500Y34056545D01*
X48400500Y35053456D01*
X48422173Y35105781D01*
X48460311Y35143920D01*
X48512637Y35165593D01*
X48564963Y35143919D01*
X48572176Y35135537D01*
X48577846Y35127854D01*
X48577849Y35127851D01*
X48577850Y35127850D01*
X48687118Y35047207D01*
X48815295Y35002356D01*
X48815301Y35002354D01*
X48845734Y34999500D01*
X48845741Y34999500D01*
X49354258Y34999500D01*
X49354266Y34999500D01*
X49384699Y35002354D01*
X49512882Y35047207D01*
X49622150Y35127850D01*
X49702793Y35237118D01*
X49747646Y35365301D01*
X49750500Y35395734D01*
X49750500Y36004266D01*
X49747646Y36034699D01*
X49702793Y36162882D01*
X49702792Y36162884D01*
X49622153Y36272147D01*
X49622146Y36272154D01*
X49512883Y36352793D01*
X49512881Y36352794D01*
X49384704Y36397645D01*
X49384705Y36397645D01*
X49384700Y36397646D01*
X49384699Y36397646D01*
X49354266Y36400500D01*
X48845734Y36400500D01*
X48815301Y36397646D01*
X48815299Y36397646D01*
X48815295Y36397645D01*
X48687118Y36352794D01*
X48687116Y36352793D01*
X48577853Y36272154D01*
X48577846Y36272147D01*
X48497207Y36162884D01*
X48497205Y36162881D01*
X48471725Y36090060D01*
X48433986Y36047828D01*
X48401878Y36040500D01*
X48337273Y36040500D01*
X48315623Y36034699D01*
X48235411Y36013207D01*
X48235407Y36013205D01*
X48144090Y35960483D01*
X47679517Y35495910D01*
X47626795Y35404593D01*
X47626794Y35404591D01*
X47626793Y35404589D01*
X47626793Y35404588D01*
X47607310Y35331874D01*
X47599500Y35302727D01*
X47599500Y33912727D01*
X47599500Y33807273D01*
X47613621Y33754573D01*
X47626793Y33705412D01*
X47626795Y33705408D01*
X47679517Y33614091D01*
X47679518Y33614090D01*
X47679520Y33614087D01*
X48242541Y33051066D01*
X48264215Y32998741D01*
X48242541Y32946415D01*
X48213583Y32928528D01*
X48204481Y32925500D01*
X48200822Y32925499D01*
X48155240Y32919499D01*
X48077419Y32883211D01*
X48073367Y32881862D01*
X48049049Y32883602D01*
X48024689Y32882538D01*
X48018734Y32885004D01*
X47944760Y32919499D01*
X47944758Y32919500D01*
X47911179Y32923921D01*
X47899179Y32925500D01*
X47899177Y32925500D01*
X47700822Y32925500D01*
X47655241Y32919500D01*
X47655236Y32919498D01*
X47581272Y32885008D01*
X47524689Y32882538D01*
X47518734Y32885004D01*
X47444760Y32919499D01*
X47444758Y32919500D01*
X47411179Y32923921D01*
X47399179Y32925500D01*
X47399177Y32925500D01*
X47200822Y32925500D01*
X47155241Y32919500D01*
X47155236Y32919498D01*
X47081272Y32885008D01*
X47024689Y32882538D01*
X47018734Y32885004D01*
X46944760Y32919499D01*
X46944758Y32919500D01*
X46911179Y32923921D01*
X46899179Y32925500D01*
X46899177Y32925500D01*
X46700822Y32925500D01*
X46655241Y32919500D01*
X46655236Y32919498D01*
X46581272Y32885008D01*
X46524689Y32882538D01*
X46518734Y32885004D01*
X46444760Y32919499D01*
X46444758Y32919500D01*
X46411179Y32923921D01*
X46399179Y32925500D01*
X46399177Y32925500D01*
X46200822Y32925500D01*
X46155241Y32919500D01*
X46155239Y32919499D01*
X46055200Y32872850D01*
X45977150Y32794800D01*
X45930500Y32694759D01*
X45924500Y32649178D01*
X45924500Y31825823D01*
X45930500Y31780242D01*
X45930501Y31780240D01*
X45977150Y31680201D01*
X46055201Y31602150D01*
X46155240Y31555501D01*
X46200821Y31549500D01*
X46399178Y31549501D01*
X46444760Y31555501D01*
X46518726Y31589993D01*
X46575309Y31592464D01*
X46581253Y31590002D01*
X46655240Y31555501D01*
X46700821Y31549500D01*
X46899178Y31549501D01*
X46944760Y31555501D01*
X47018726Y31589993D01*
X47075309Y31592464D01*
X47081253Y31590002D01*
X47155240Y31555501D01*
X47200821Y31549500D01*
X47399178Y31549501D01*
X47444760Y31555501D01*
X47518726Y31589993D01*
X47575309Y31592464D01*
X47581253Y31590002D01*
X47655240Y31555501D01*
X47700821Y31549500D01*
X47899178Y31549501D01*
X47944760Y31555501D01*
X48018726Y31589993D01*
X48075309Y31592464D01*
X48081253Y31590002D01*
X48155240Y31555501D01*
X48200821Y31549500D01*
X48399178Y31549501D01*
X48444760Y31555501D01*
X48518726Y31589993D01*
X48575309Y31592464D01*
X48581253Y31590002D01*
X48655240Y31555501D01*
X48700821Y31549500D01*
X48899178Y31549501D01*
X48944760Y31555501D01*
X49018726Y31589993D01*
X49075309Y31592464D01*
X49081253Y31590002D01*
X49155240Y31555501D01*
X49200821Y31549500D01*
X49225498Y31549501D01*
X49277824Y31527829D01*
X49299500Y31475504D01*
X49299500Y31450824D01*
X49305500Y31405242D01*
X49305501Y31405239D01*
X49335725Y31340425D01*
X49339991Y31331275D01*
X49339992Y31331274D01*
X49342462Y31274691D01*
X49339992Y31268727D01*
X49305501Y31194761D01*
X49305500Y31194759D01*
X49299500Y31149178D01*
X49299500Y30950823D01*
X49305500Y30905242D01*
X49305501Y30905240D01*
X49352150Y30805201D01*
X49378326Y30779025D01*
X49400000Y30726699D01*
X49400000Y30373301D01*
X49378326Y30320975D01*
X49352150Y30294800D01*
X49305500Y30194759D01*
X49299500Y30149178D01*
X49299500Y29950823D01*
X49305500Y29905242D01*
X49305501Y29905239D01*
X49319835Y29874500D01*
X49339991Y29831275D01*
X49339992Y29831274D01*
X49342462Y29774691D01*
X49339992Y29768727D01*
X49305501Y29694761D01*
X49305500Y29694759D01*
X49299500Y29649178D01*
X49299500Y29450823D01*
X49305500Y29405242D01*
X49305501Y29405239D01*
X49329691Y29353365D01*
X49339991Y29331275D01*
X49339992Y29331274D01*
X49342462Y29274691D01*
X49339992Y29268727D01*
X49305501Y29194761D01*
X49305500Y29194759D01*
X49301449Y29163984D01*
X49299543Y29149501D01*
X49299500Y29149178D01*
X49299500Y28950823D01*
X49305500Y28905242D01*
X49305501Y28905239D01*
X49336523Y28838712D01*
X49339991Y28831275D01*
X49339992Y28831274D01*
X49342462Y28774691D01*
X49339992Y28768727D01*
X49305501Y28694761D01*
X49305500Y28694759D01*
X49299500Y28649178D01*
X49299500Y28450823D01*
X49305500Y28405242D01*
X49305501Y28405239D01*
X49336523Y28338712D01*
X49339991Y28331275D01*
X49339992Y28331274D01*
X49342462Y28274691D01*
X49339992Y28268727D01*
X49305501Y28194761D01*
X49305500Y28194759D01*
X49299500Y28149178D01*
X49299500Y27950823D01*
X49305500Y27905242D01*
X49305501Y27905240D01*
X49339991Y27831275D01*
X49339992Y27831274D01*
X49342462Y27774691D01*
X49339992Y27768727D01*
X49305501Y27694761D01*
X49305500Y27694759D01*
X49299500Y27649178D01*
X49299500Y27450823D01*
X49305500Y27405242D01*
X49305501Y27405239D01*
X49324863Y27363718D01*
X49339991Y27331275D01*
X49339992Y27331274D01*
X49342462Y27274691D01*
X49339992Y27268727D01*
X49305501Y27194761D01*
X49305500Y27194759D01*
X49301143Y27161659D01*
X49299543Y27149501D01*
X49299500Y27149178D01*
X49299500Y26950823D01*
X49305500Y26905242D01*
X49305501Y26905239D01*
X49319900Y26874361D01*
X49339991Y26831275D01*
X49339992Y26831274D01*
X49342462Y26774691D01*
X49339992Y26768727D01*
X49305501Y26694761D01*
X49305500Y26694759D01*
X49299500Y26649178D01*
X49299500Y26450823D01*
X49305500Y26405242D01*
X49305501Y26405239D01*
X49329691Y26353365D01*
X49339991Y26331275D01*
X49339992Y26331274D01*
X49342462Y26274691D01*
X49339992Y26268727D01*
X49305501Y26194761D01*
X49305500Y26194759D01*
X49299500Y26149178D01*
X49299500Y26124500D01*
X49277826Y26072174D01*
X49225503Y26050500D01*
X49200823Y26050500D01*
X49155241Y26044500D01*
X49155236Y26044498D01*
X49081272Y26010008D01*
X49024689Y26007538D01*
X49018734Y26010004D01*
X48944760Y26044499D01*
X48944758Y26044500D01*
X48911179Y26048921D01*
X48899179Y26050500D01*
X48899177Y26050500D01*
X48700822Y26050500D01*
X48655241Y26044500D01*
X48655236Y26044498D01*
X48581272Y26010008D01*
X48524689Y26007538D01*
X48518734Y26010004D01*
X48444760Y26044499D01*
X48444758Y26044500D01*
X48411179Y26048921D01*
X48399179Y26050500D01*
X48399177Y26050500D01*
X48200822Y26050500D01*
X48155241Y26044500D01*
X48155236Y26044498D01*
X48081272Y26010008D01*
X48024689Y26007538D01*
X48018734Y26010004D01*
X47944760Y26044499D01*
X47944758Y26044500D01*
X47911179Y26048921D01*
X47899179Y26050500D01*
X47899177Y26050500D01*
X47700822Y26050500D01*
X47655241Y26044500D01*
X47655236Y26044498D01*
X47581272Y26010008D01*
X47524689Y26007538D01*
X47518734Y26010004D01*
X47444760Y26044499D01*
X47444758Y26044500D01*
X47411179Y26048921D01*
X47399179Y26050500D01*
X47399177Y26050500D01*
X47200822Y26050500D01*
X47155241Y26044500D01*
X47155236Y26044498D01*
X47081272Y26010008D01*
X47024689Y26007538D01*
X47018734Y26010004D01*
X46944760Y26044499D01*
X46944758Y26044500D01*
X46911179Y26048921D01*
X46899179Y26050500D01*
X46899177Y26050500D01*
X46700822Y26050500D01*
X46655241Y26044500D01*
X46655236Y26044498D01*
X46581272Y26010008D01*
X46524689Y26007538D01*
X46518734Y26010004D01*
X46444760Y26044499D01*
X46444758Y26044500D01*
X46411179Y26048921D01*
X46399179Y26050500D01*
X46399177Y26050500D01*
X46200822Y26050500D01*
X46155241Y26044500D01*
X46155236Y26044498D01*
X46081272Y26010008D01*
X46024689Y26007538D01*
X46018734Y26010004D01*
X45944760Y26044499D01*
X45944758Y26044500D01*
X45911179Y26048921D01*
X45899179Y26050500D01*
X45899177Y26050500D01*
X45700822Y26050500D01*
X45655241Y26044500D01*
X45655236Y26044498D01*
X45581272Y26010008D01*
X45524689Y26007538D01*
X45518734Y26010004D01*
X45444760Y26044499D01*
X45444758Y26044500D01*
X45411179Y26048921D01*
X45399179Y26050500D01*
X45399177Y26050500D01*
X45200822Y26050500D01*
X45155241Y26044500D01*
X45155236Y26044498D01*
X45081272Y26010008D01*
X45024689Y26007538D01*
X45018734Y26010004D01*
X44944760Y26044499D01*
X44944758Y26044500D01*
X44911179Y26048921D01*
X44899179Y26050500D01*
X44899177Y26050500D01*
X44700822Y26050500D01*
X44655241Y26044500D01*
X44655236Y26044498D01*
X44581272Y26010008D01*
X44524689Y26007538D01*
X44518734Y26010004D01*
X44444760Y26044499D01*
X44444758Y26044500D01*
X44411179Y26048921D01*
X44399179Y26050500D01*
X44399177Y26050500D01*
X44200822Y26050500D01*
X44155241Y26044500D01*
X44155236Y26044498D01*
X44081272Y26010008D01*
X44024689Y26007538D01*
X44018734Y26010004D01*
X43944760Y26044499D01*
X43944758Y26044500D01*
X43911179Y26048921D01*
X43899179Y26050500D01*
X43899177Y26050500D01*
X43874499Y26050500D01*
X43822173Y26072174D01*
X43800499Y26124500D01*
X43800499Y26149178D01*
X43794499Y26194759D01*
X43794499Y26194760D01*
X43760006Y26268729D01*
X43757537Y26325310D01*
X43760008Y26331274D01*
X43794499Y26405240D01*
X43800500Y26450821D01*
X43800499Y26649178D01*
X43794499Y26694760D01*
X43760006Y26768729D01*
X43757537Y26825310D01*
X43760008Y26831274D01*
X43794499Y26905240D01*
X43800500Y26950821D01*
X43800499Y27149178D01*
X43794499Y27194760D01*
X43760006Y27268729D01*
X43757537Y27325310D01*
X43760008Y27331274D01*
X43794499Y27405240D01*
X43800500Y27450821D01*
X43800499Y27649178D01*
X43794499Y27694760D01*
X43760006Y27768729D01*
X43757537Y27825310D01*
X43760008Y27831274D01*
X43794499Y27905240D01*
X43800500Y27950821D01*
X43800499Y28149178D01*
X43794499Y28194760D01*
X43760006Y28268729D01*
X43757537Y28325310D01*
X43760008Y28331274D01*
X43794499Y28405240D01*
X43800500Y28450821D01*
X43800499Y28649178D01*
X43794499Y28694760D01*
X43760006Y28768729D01*
X43757537Y28825310D01*
X43760008Y28831274D01*
X43794499Y28905240D01*
X43800500Y28950821D01*
X43800499Y29149178D01*
X43794499Y29194760D01*
X43760006Y29268729D01*
X43757537Y29325310D01*
X43760008Y29331274D01*
X43794499Y29405240D01*
X43800500Y29450821D01*
X43800499Y29649178D01*
X43794499Y29694760D01*
X43760006Y29768729D01*
X43757537Y29825310D01*
X43760008Y29831274D01*
X43794499Y29905240D01*
X43800500Y29950821D01*
X43800499Y30149178D01*
X43794499Y30194760D01*
X43760006Y30268729D01*
X43757537Y30325310D01*
X43760003Y30331266D01*
X43794499Y30405240D01*
X43800500Y30450821D01*
X43800499Y30649178D01*
X43794499Y30694760D01*
X43760006Y30768729D01*
X43757537Y30825310D01*
X43760003Y30831266D01*
X43794499Y30905240D01*
X43800500Y30950821D01*
X43800499Y31149178D01*
X43794499Y31194760D01*
X43760006Y31268729D01*
X43757537Y31325310D01*
X43760008Y31331274D01*
X43794499Y31405240D01*
X43800500Y31450821D01*
X43800500Y31475501D01*
X43822174Y31527827D01*
X43874500Y31549501D01*
X43899178Y31549501D01*
X43944760Y31555501D01*
X44018726Y31589993D01*
X44075309Y31592464D01*
X44081253Y31590002D01*
X44155240Y31555501D01*
X44200821Y31549500D01*
X44399178Y31549501D01*
X44444760Y31555501D01*
X44518726Y31589993D01*
X44575309Y31592464D01*
X44581253Y31590002D01*
X44655240Y31555501D01*
X44700821Y31549500D01*
X44899178Y31549501D01*
X44944760Y31555501D01*
X45018726Y31589993D01*
X45075309Y31592464D01*
X45081253Y31590002D01*
X45155240Y31555501D01*
X45200821Y31549500D01*
X45399178Y31549501D01*
X45444760Y31555501D01*
X45544799Y31602150D01*
X45622850Y31680201D01*
X45669499Y31780240D01*
X45675500Y31825821D01*
X45675499Y32649178D01*
X45669499Y32694760D01*
X45622850Y32794799D01*
X45544799Y32872850D01*
X45444760Y32919499D01*
X45444758Y32919500D01*
X45444757Y32919500D01*
X45439322Y32921084D01*
X45440144Y32923905D01*
X45399616Y32947314D01*
X45384968Y33002024D01*
X45406005Y33044675D01*
X45584158Y33222826D01*
X45636484Y33244500D01*
X46375998Y33244500D01*
X46376000Y33244500D01*
X46473775Y33263949D01*
X46522757Y33284238D01*
X46525496Y33285219D01*
X46526101Y33285623D01*
X46526102Y33285623D01*
X46608992Y33341009D01*
X46664377Y33423899D01*
X46686051Y33476225D01*
X46705500Y33574000D01*
X46705500Y34226000D01*
X46686051Y34323775D01*
X46665764Y34372751D01*
X46664782Y34375496D01*
X46608991Y34458992D01*
X46608990Y34458993D01*
X46526100Y34514378D01*
X46473779Y34536050D01*
X46473769Y34536053D01*
X46399643Y34550797D01*
X46376000Y34555500D01*
X46195308Y34555500D01*
X46195307Y34555500D01*
X46187477Y34554987D01*
X46161964Y34553315D01*
X46161960Y34553315D01*
X46161952Y34553314D01*
X46161947Y34553313D01*
X46142833Y34550797D01*
X46142824Y34550796D01*
X46142812Y34550794D01*
X46142804Y34550793D01*
X46142795Y34550791D01*
X46110038Y34544276D01*
X46084829Y34537521D01*
X46065677Y34535000D01*
X45994323Y34535000D01*
X45975171Y34537521D01*
X45949961Y34544276D01*
X45917204Y34550791D01*
X45917199Y34550792D01*
X45917188Y34550794D01*
X45917169Y34550797D01*
X45917166Y34550797D01*
X45898052Y34553313D01*
X45898047Y34553314D01*
X45898040Y34553315D01*
X45898036Y34553315D01*
X45864692Y34555500D01*
X44924000Y34555500D01*
X44900357Y34550797D01*
X44826230Y34536053D01*
X44826220Y34536050D01*
X44781319Y34517452D01*
X44781308Y34517447D01*
X44773899Y34514377D01*
X44773898Y34514377D01*
X44763731Y34507584D01*
X44761206Y34506167D01*
X44735723Y34503132D01*
X44710558Y34498127D01*
X44706796Y34499686D01*
X44704966Y34499467D01*
X44702348Y34501528D01*
X44683889Y34509173D01*
X44676101Y34514377D01*
X44676099Y34514378D01*
X44676096Y34514380D01*
X44623779Y34536050D01*
X44623769Y34536053D01*
X44549643Y34550797D01*
X44526000Y34555500D01*
X44307987Y34555500D01*
X44307977Y34555500D01*
X44274649Y34553317D01*
X44255495Y34550796D01*
X44255494Y34550796D01*
X44236397Y34546997D01*
X44233507Y34546422D01*
X44219072Y34545000D01*
X44140929Y34545000D01*
X44126495Y34546421D01*
X44104507Y34550794D01*
X44104497Y34550796D01*
X44085346Y34553316D01*
X44085344Y34553317D01*
X44085330Y34553318D01*
X44052018Y34555500D01*
X44052013Y34555500D01*
X43374000Y34555500D01*
X43350357Y34550797D01*
X43276230Y34536053D01*
X43276220Y34536050D01*
X43227263Y34515771D01*
X43224508Y34514786D01*
X43141008Y34458992D01*
X43141007Y34458991D01*
X43085622Y34376101D01*
X43063949Y34323778D01*
X43063948Y34323774D01*
X43051738Y34262396D01*
X43045095Y34243241D01*
X43013983Y34182179D01*
X43013983Y34182177D01*
X42999500Y34090736D01*
X42999500Y33749266D01*
X43013983Y33657825D01*
X43050529Y33586098D01*
X43055019Y33575227D01*
X43056337Y33571142D01*
X43063949Y33532877D01*
X43085375Y33481149D01*
X43085517Y33480710D01*
X43085622Y33480552D01*
X43085623Y33480551D01*
X43085623Y33480550D01*
X43110813Y33442851D01*
X43141007Y33397661D01*
X43558183Y32980485D01*
X43579857Y32928159D01*
X43558183Y32875833D01*
X43477150Y32794800D01*
X43430500Y32694759D01*
X43424500Y32649178D01*
X43424500Y31999500D01*
X43402826Y31947174D01*
X43350500Y31925500D01*
X42700820Y31925500D01*
X42682494Y31923087D01*
X42678217Y31924234D01*
X42674157Y31922466D01*
X42653133Y31930956D01*
X42627787Y31937748D01*
X42621453Y31943204D01*
X42620967Y31943673D01*
X42589691Y31974949D01*
X42586863Y31976583D01*
X42581132Y31982113D01*
X42581062Y31982273D01*
X42580191Y31983037D01*
X42137758Y32425470D01*
X42057835Y32471614D01*
X42055414Y32472263D01*
X42051221Y32473386D01*
X42016084Y32482801D01*
X41968692Y32495500D01*
X41968690Y32495500D01*
X39953882Y32495500D01*
X39906490Y32482802D01*
X39864742Y32471616D01*
X39864737Y32471614D01*
X39784813Y32425470D01*
X39240133Y31880791D01*
X39230919Y31873718D01*
X39231146Y31873422D01*
X39227302Y31870473D01*
X36404004Y29047174D01*
X36351678Y29025500D01*
X36250834Y29025500D01*
X36198508Y29047174D01*
X35515212Y29730470D01*
X35435289Y29776614D01*
X35435284Y29776616D01*
X35346146Y29800500D01*
X35346144Y29800500D01*
X34942679Y29800500D01*
X34890353Y29822174D01*
X34881835Y29833896D01*
X34881472Y29833632D01*
X34878050Y29838342D01*
X34788343Y29928049D01*
X34788342Y29928050D01*
X34675304Y29985646D01*
X34675302Y29985647D01*
X34675301Y29985647D01*
X34581519Y30000500D01*
X33493480Y30000500D01*
X33399695Y29985647D01*
X33399693Y29985646D01*
X33286657Y29928050D01*
X33196951Y29838344D01*
X33139353Y29725302D01*
X33124500Y29631520D01*
X33124500Y29268481D01*
X33139353Y29174696D01*
X33139354Y29174694D01*
X33196950Y29061658D01*
X33231282Y29027326D01*
X33252956Y28975000D01*
X33231282Y28922674D01*
X33196951Y28888344D01*
X33139353Y28775302D01*
X33124500Y28681520D01*
X33124500Y28318481D01*
X33139353Y28224696D01*
X33139354Y28224694D01*
X33196950Y28111658D01*
X33231282Y28077326D01*
X33252956Y28025000D01*
X33231282Y27972674D01*
X33196951Y27938344D01*
X33139353Y27825302D01*
X33124500Y27731520D01*
X33124500Y27368481D01*
X33139353Y27274696D01*
X33139354Y27274694D01*
X33190974Y27173387D01*
X33196950Y27161658D01*
X33286658Y27071950D01*
X33399696Y27014354D01*
X33493481Y26999500D01*
X34581518Y26999501D01*
X34581519Y26999501D01*
X34675304Y27014354D01*
X34675306Y27014355D01*
X34677419Y27015432D01*
X34788342Y27071950D01*
X34878050Y27161658D01*
X34878051Y27161662D01*
X34881472Y27166368D01*
X34883516Y27164883D01*
X34919822Y27195881D01*
X34942679Y27199500D01*
X35346146Y27199500D01*
X35346146Y27199501D01*
X35435288Y27223386D01*
X35441807Y27227150D01*
X35515212Y27269530D01*
X36198508Y27952826D01*
X36250834Y27974500D01*
X36718634Y27974500D01*
X36718634Y27974501D01*
X36807776Y27998386D01*
X36887700Y28044530D01*
X39348174Y30505006D01*
X39400500Y30526679D01*
X39452826Y30505005D01*
X39474500Y30452679D01*
X39474500Y27165479D01*
X39452826Y27113153D01*
X35006826Y22667153D01*
X34954500Y22645479D01*
X34902174Y22667153D01*
X34880500Y22719479D01*
X34880500Y25701008D01*
X34880493Y25701571D01*
X34880419Y25708056D01*
X34857245Y25817909D01*
X34835571Y25870235D01*
X34829870Y25883147D01*
X34764299Y25974280D01*
X34764298Y25974281D01*
X34670234Y26035572D01*
X34670229Y26035574D01*
X34629379Y26052494D01*
X34617909Y26057245D01*
X34611359Y26059870D01*
X34611355Y26059871D01*
X34501003Y26080500D01*
X34501000Y26080500D01*
X33795160Y26080500D01*
X33754908Y26077837D01*
X33754899Y26077836D01*
X33735581Y26075269D01*
X33689254Y26065407D01*
X33689248Y26065405D01*
X33589258Y26014342D01*
X33544446Y25979781D01*
X33538869Y25975377D01*
X33466042Y25889948D01*
X33466039Y25889944D01*
X33401695Y25777861D01*
X33284382Y25573508D01*
X33278177Y25562700D01*
X33233328Y25528111D01*
X33177158Y25535365D01*
X33142569Y25580214D01*
X33140000Y25599542D01*
X33140000Y25804200D01*
X27653600Y25804200D01*
X27653600Y25476543D01*
X27653437Y25476150D01*
X27653596Y25475754D01*
X27642621Y25450039D01*
X27631926Y25424217D01*
X27631532Y25424054D01*
X27631365Y25423662D01*
X27605417Y25413237D01*
X27579600Y25402543D01*
X27578884Y25402547D01*
X27536212Y25403002D01*
X27458074Y25403835D01*
X27406537Y25425505D01*
X27382003Y25450039D01*
X27337695Y25494347D01*
X27332647Y25499280D01*
X27332646Y25499281D01*
X27332644Y25499282D01*
X27238582Y25560572D01*
X27238577Y25560574D01*
X27191160Y25580214D01*
X27186257Y25582245D01*
X27179707Y25584870D01*
X27179703Y25584871D01*
X27069351Y25605500D01*
X27069348Y25605500D01*
X26349000Y25605500D01*
X26348993Y25605500D01*
X26344884Y25605453D01*
X26341944Y25605419D01*
X26341941Y25605419D01*
X26341935Y25605418D01*
X26232091Y25582246D01*
X26232090Y25582245D01*
X26179783Y25560579D01*
X26166855Y25554871D01*
X26166851Y25554869D01*
X26075719Y25489299D01*
X26014428Y25395235D01*
X26014426Y25395230D01*
X25992776Y25342960D01*
X25992755Y25342909D01*
X25991232Y25339110D01*
X25990130Y25336360D01*
X25990129Y25336356D01*
X25969500Y25226004D01*
X25969500Y22835962D01*
X25947826Y22783636D01*
X25895500Y22761962D01*
X25843174Y22783636D01*
X22598520Y26028290D01*
X22551041Y26075769D01*
X24624500Y26075769D01*
X24624500Y25924232D01*
X24663717Y25777870D01*
X24663721Y25777861D01*
X24723396Y25674501D01*
X24739485Y25646635D01*
X24846635Y25539485D01*
X24977865Y25463719D01*
X25124231Y25424501D01*
X25124232Y25424500D01*
X25124234Y25424500D01*
X25275768Y25424500D01*
X25275768Y25424501D01*
X25422135Y25463719D01*
X25553365Y25539485D01*
X25660515Y25646635D01*
X25736281Y25777865D01*
X25775499Y25924232D01*
X25775500Y25924232D01*
X25775500Y26075768D01*
X25775499Y26075769D01*
X25774231Y26080500D01*
X25736281Y26222135D01*
X25660515Y26353365D01*
X25555088Y26458792D01*
X25533415Y26511116D01*
X25555089Y26563442D01*
X25573820Y26577051D01*
X25588342Y26584450D01*
X25678050Y26674158D01*
X25735646Y26787196D01*
X25750500Y26880981D01*
X25750499Y28119018D01*
X25750499Y28119020D01*
X26549500Y28119020D01*
X26549500Y26880981D01*
X26564353Y26787196D01*
X26564354Y26787194D01*
X26605012Y26707400D01*
X26621950Y26674158D01*
X26711658Y26584450D01*
X26824696Y26526854D01*
X26918481Y26512000D01*
X27281518Y26512001D01*
X27281519Y26512001D01*
X27375304Y26526854D01*
X27375306Y26526855D01*
X27389295Y26533983D01*
X27488342Y26584450D01*
X27531718Y26627826D01*
X27584044Y26649500D01*
X27827761Y26649500D01*
X27864761Y26639586D01*
X27920635Y26607327D01*
X27952865Y26588719D01*
X28099231Y26549501D01*
X28099232Y26549500D01*
X28099234Y26549500D01*
X28250768Y26549500D01*
X28250768Y26549501D01*
X28397135Y26588719D01*
X28528365Y26664485D01*
X28635515Y26771635D01*
X28711281Y26902865D01*
X28750499Y27049232D01*
X28750500Y27049232D01*
X28750500Y27200766D01*
X28744439Y27223386D01*
X28720200Y27313849D01*
X28727593Y27370000D01*
X28772527Y27404479D01*
X28791679Y27407000D01*
X29121576Y27407000D01*
X29121582Y27407000D01*
X29196518Y27417918D01*
X29199715Y27419482D01*
X29232216Y27427000D01*
X29448431Y27427000D01*
X29485431Y27417086D01*
X29505949Y27405240D01*
X29577865Y27363719D01*
X29724231Y27324501D01*
X29724232Y27324500D01*
X29724234Y27324500D01*
X29875768Y27324500D01*
X29875768Y27324501D01*
X30022135Y27363719D01*
X30153365Y27439485D01*
X30181773Y27467894D01*
X30234098Y27489568D01*
X30286424Y27467895D01*
X30469531Y27284788D01*
X30534788Y27219531D01*
X30534790Y27219530D01*
X30534791Y27219529D01*
X30597139Y27183532D01*
X30614712Y27173386D01*
X30614713Y27173386D01*
X30614715Y27173385D01*
X30642680Y27165892D01*
X30703853Y27149501D01*
X30703854Y27149500D01*
X30703856Y27149500D01*
X30903456Y27149500D01*
X30955782Y27127826D01*
X31011658Y27071950D01*
X31124696Y27014354D01*
X31218481Y26999500D01*
X32306518Y26999501D01*
X32306519Y26999501D01*
X32400304Y27014354D01*
X32400306Y27014355D01*
X32402419Y27015432D01*
X32513342Y27071950D01*
X32603050Y27161658D01*
X32660646Y27274696D01*
X32675500Y27368481D01*
X32675499Y27731518D01*
X32664653Y27800000D01*
X32660646Y27825305D01*
X32660645Y27825307D01*
X32625041Y27895182D01*
X32603050Y27938342D01*
X32513342Y28028050D01*
X32400304Y28085646D01*
X32400302Y28085647D01*
X32400301Y28085647D01*
X32306519Y28100500D01*
X31218480Y28100500D01*
X31124695Y28085647D01*
X31124693Y28085646D01*
X31011657Y28028050D01*
X30976826Y27993218D01*
X30924500Y27971544D01*
X30872174Y27993218D01*
X30850500Y28045544D01*
X30850500Y28546146D01*
X30850499Y28546147D01*
X30826615Y28635285D01*
X30826613Y28635290D01*
X30780471Y28715209D01*
X30780470Y28715210D01*
X30780469Y28715212D01*
X30715212Y28780469D01*
X30548763Y28946918D01*
X30527089Y28999244D01*
X30548763Y29051570D01*
X30601089Y29073244D01*
X30879713Y29073244D01*
X30932037Y29051571D01*
X31011658Y28971950D01*
X31124696Y28914354D01*
X31218481Y28899500D01*
X32306518Y28899501D01*
X32306519Y28899501D01*
X32400304Y28914354D01*
X32400306Y28914355D01*
X32416633Y28922674D01*
X32513342Y28971950D01*
X32603050Y29061658D01*
X32660646Y29174696D01*
X32675500Y29268481D01*
X32675499Y29631518D01*
X32672681Y29649309D01*
X32660646Y29725305D01*
X32660645Y29725307D01*
X32622514Y29800142D01*
X32603050Y29838342D01*
X32513342Y29928050D01*
X32400304Y29985646D01*
X32400302Y29985647D01*
X32400301Y29985647D01*
X32306519Y30000500D01*
X31218480Y30000500D01*
X31124695Y29985647D01*
X31124693Y29985646D01*
X31011657Y29928050D01*
X30921950Y29838343D01*
X30909877Y29814648D01*
X30866810Y29777866D01*
X30843943Y29774244D01*
X30399578Y29774244D01*
X30347252Y29795918D01*
X30172173Y29970997D01*
X30150499Y30023323D01*
X30150499Y30119419D01*
X30172173Y30171745D01*
X30224499Y30193419D01*
X30265610Y30180948D01*
X30268189Y30179225D01*
X30395672Y30126420D01*
X30531007Y30099500D01*
X30531009Y30099500D01*
X30668991Y30099500D01*
X30668993Y30099500D01*
X30804328Y30126420D01*
X30931811Y30179225D01*
X31046542Y30255886D01*
X31144114Y30353458D01*
X31220775Y30468189D01*
X31273580Y30595672D01*
X31300500Y30731007D01*
X31300500Y30868993D01*
X31273580Y31004328D01*
X31249320Y31062897D01*
X31220777Y31131807D01*
X31220776Y31131809D01*
X31220775Y31131811D01*
X31162971Y31218321D01*
X31150500Y31259433D01*
X31150500Y32378878D01*
X31150499Y32378879D01*
X31112985Y32518883D01*
X31112983Y32518888D01*
X31073637Y32587037D01*
X31064323Y32633441D01*
X31064646Y32635965D01*
X31079100Y32708627D01*
X31079100Y32748784D01*
X31079700Y32753467D01*
X31091605Y32774255D01*
X31100774Y32796389D01*
X31105374Y32798295D01*
X31107848Y32802614D01*
X31130965Y32808895D01*
X31153100Y32818063D01*
X31158586Y32816399D01*
X31162504Y32817463D01*
X31170865Y32812675D01*
X31194208Y32805594D01*
X31301016Y32734227D01*
X31439054Y32677050D01*
X31585594Y32647901D01*
X31585596Y32647901D01*
X32014404Y32647901D01*
X32014406Y32647901D01*
X32160946Y32677050D01*
X32298984Y32734227D01*
X32423216Y32817236D01*
X32528865Y32922885D01*
X32611874Y33047117D01*
X32669051Y33185155D01*
X32698200Y33331695D01*
X32698200Y33481107D01*
X32669051Y33627647D01*
X32611874Y33765685D01*
X32528865Y33889917D01*
X32423216Y33995566D01*
X32422955Y33995741D01*
X32298983Y34078576D01*
X32160950Y34135751D01*
X32160940Y34135754D01*
X32062809Y34155273D01*
X32014406Y34164901D01*
X31585594Y34164901D01*
X31544052Y34156638D01*
X31439059Y34135754D01*
X31439049Y34135751D01*
X31301016Y34078576D01*
X31194212Y34007211D01*
X31138663Y33996162D01*
X31091571Y34027628D01*
X31079100Y34068740D01*
X31079100Y34104174D01*
X31079003Y34104661D01*
X31064566Y34177241D01*
X31009201Y34260102D01*
X30926340Y34315467D01*
X30853274Y34330001D01*
X30346726Y34330001D01*
X30289435Y34318606D01*
X30260563Y34318606D01*
X30203273Y34330001D01*
X29696725Y34330001D01*
X29639435Y34318606D01*
X29610563Y34318606D01*
X29553274Y34330001D01*
X29046726Y34330001D01*
X29008479Y34322393D01*
X28973659Y34315467D01*
X28890799Y34260103D01*
X28890798Y34260102D01*
X28835434Y34177242D01*
X28835434Y34177241D01*
X28820900Y34104175D01*
X28820900Y32708627D01*
X28835434Y32635561D01*
X28890799Y32552700D01*
X28973660Y32497335D01*
X29039938Y32484152D01*
X29087029Y32452686D01*
X29099500Y32411574D01*
X29099500Y29503854D01*
X29115530Y29444032D01*
X29116711Y29439623D01*
X29121597Y29421386D01*
X29123386Y29414711D01*
X29169530Y29334788D01*
X29902492Y28601826D01*
X29924166Y28549500D01*
X29902492Y28497174D01*
X29850166Y28475500D01*
X29724232Y28475500D01*
X29577869Y28436283D01*
X29573380Y28434423D01*
X29572809Y28435801D01*
X29543693Y28428000D01*
X29232216Y28428000D01*
X29199715Y28435519D01*
X29196518Y28437082D01*
X29121586Y28448000D01*
X29121582Y28448000D01*
X28678418Y28448000D01*
X28678413Y28448000D01*
X28603481Y28437082D01*
X28600285Y28435519D01*
X28567784Y28428000D01*
X27481673Y28428000D01*
X27448080Y28436065D01*
X27375304Y28473146D01*
X27375302Y28473147D01*
X27375301Y28473147D01*
X27281519Y28488000D01*
X26918480Y28488000D01*
X26824695Y28473147D01*
X26824693Y28473146D01*
X26711657Y28415550D01*
X26621951Y28325844D01*
X26564353Y28212802D01*
X26549500Y28119020D01*
X25750499Y28119020D01*
X25749393Y28126000D01*
X25735646Y28212805D01*
X25735645Y28212807D01*
X25688567Y28305201D01*
X25678050Y28325842D01*
X25588342Y28415550D01*
X25475304Y28473146D01*
X25475302Y28473147D01*
X25475301Y28473147D01*
X25381519Y28488000D01*
X25018480Y28488000D01*
X24924695Y28473147D01*
X24924693Y28473146D01*
X24811657Y28415550D01*
X24721951Y28325844D01*
X24664353Y28212802D01*
X24649500Y28119020D01*
X24649500Y26880981D01*
X24664353Y26787196D01*
X24664354Y26787194D01*
X24721950Y26674158D01*
X24811658Y26584450D01*
X24826180Y26577050D01*
X24862962Y26533983D01*
X24858518Y26477520D01*
X24844910Y26458790D01*
X24739483Y26353363D01*
X24663721Y26222140D01*
X24663717Y26222131D01*
X24624500Y26075769D01*
X22551041Y26075769D01*
X20402114Y28224696D01*
X18166345Y30460465D01*
X18166342Y30460467D01*
X18166341Y30460468D01*
X18092126Y30503316D01*
X18092124Y30503317D01*
X18092123Y30503318D01*
X18092122Y30503318D01*
X18009336Y30525500D01*
X18009334Y30525500D01*
X11712670Y30525500D01*
X11660344Y30547174D01*
X10947174Y31260344D01*
X10925500Y31312670D01*
X10925500Y31959722D01*
X13567500Y31959722D01*
X13567500Y31760279D01*
X13606408Y31564671D01*
X13606411Y31564661D01*
X13682732Y31380404D01*
X13763562Y31259433D01*
X13793540Y31214569D01*
X13934569Y31073540D01*
X14100401Y30962734D01*
X14100402Y30962734D01*
X14100403Y30962733D01*
X14239200Y30905242D01*
X14284665Y30886410D01*
X14480277Y30847500D01*
X14480279Y30847500D01*
X14679721Y30847500D01*
X14679723Y30847500D01*
X14875335Y30886410D01*
X15059599Y30962734D01*
X15225431Y31073540D01*
X15366460Y31214569D01*
X15477266Y31380401D01*
X15553590Y31564665D01*
X15592500Y31760277D01*
X15592500Y31959722D01*
X16107500Y31959722D01*
X16107500Y31760279D01*
X16146408Y31564671D01*
X16146411Y31564661D01*
X16222732Y31380404D01*
X16303562Y31259433D01*
X16333540Y31214569D01*
X16474569Y31073540D01*
X16640401Y30962734D01*
X16640402Y30962734D01*
X16640403Y30962733D01*
X16779200Y30905242D01*
X16824665Y30886410D01*
X17020277Y30847500D01*
X17020279Y30847500D01*
X17219721Y30847500D01*
X17219723Y30847500D01*
X17415335Y30886410D01*
X17599599Y30962734D01*
X17765431Y31073540D01*
X17906460Y31214569D01*
X18017266Y31380401D01*
X18093590Y31564665D01*
X18132500Y31760277D01*
X18132500Y31959723D01*
X18093590Y32155335D01*
X18093588Y32155340D01*
X18017267Y32339597D01*
X18009636Y32351017D01*
X17906460Y32505431D01*
X17765431Y32646460D01*
X17763274Y32647901D01*
X17599596Y32757268D01*
X17415339Y32833589D01*
X17415329Y32833592D01*
X17284335Y32859648D01*
X17219723Y32872500D01*
X17020277Y32872500D01*
X16964823Y32861470D01*
X16824670Y32833592D01*
X16824660Y32833589D01*
X16640403Y32757268D01*
X16474572Y32646463D01*
X16333537Y32505428D01*
X16222732Y32339597D01*
X16146411Y32155340D01*
X16146408Y32155330D01*
X16115412Y31999500D01*
X16112138Y31983037D01*
X16107500Y31959722D01*
X15592500Y31959722D01*
X15592500Y31959723D01*
X15553590Y32155335D01*
X15553588Y32155340D01*
X15477267Y32339597D01*
X15469636Y32351017D01*
X15366460Y32505431D01*
X15225431Y32646460D01*
X15223274Y32647901D01*
X15059596Y32757268D01*
X14875339Y32833589D01*
X14875329Y32833592D01*
X14744335Y32859648D01*
X14679723Y32872500D01*
X14480277Y32872500D01*
X14424823Y32861470D01*
X14284670Y32833592D01*
X14284660Y32833589D01*
X14100403Y32757268D01*
X13934572Y32646463D01*
X13793537Y32505428D01*
X13682732Y32339597D01*
X13606411Y32155340D01*
X13606408Y32155330D01*
X13575412Y31999500D01*
X13572138Y31983037D01*
X13567500Y31959722D01*
X10925500Y31959722D01*
X10925500Y33442851D01*
X10925500Y33442853D01*
X10923719Y33449501D01*
X10903318Y33525639D01*
X10860465Y33599862D01*
X10474012Y33986315D01*
X10452338Y34038641D01*
X10457970Y34066957D01*
X10473590Y34104665D01*
X10512500Y34300277D01*
X10512500Y34499723D01*
X13567500Y34499723D01*
X13567500Y34300277D01*
X13577032Y34252358D01*
X13606408Y34104671D01*
X13606411Y34104661D01*
X13682732Y33920404D01*
X13787974Y33762898D01*
X13793540Y33754569D01*
X13934569Y33613540D01*
X14100401Y33502734D01*
X14100402Y33502734D01*
X14100403Y33502733D01*
X14266382Y33433983D01*
X14284665Y33426410D01*
X14480277Y33387500D01*
X14480279Y33387500D01*
X14679721Y33387500D01*
X14679723Y33387500D01*
X14875335Y33426410D01*
X15059599Y33502734D01*
X15225431Y33613540D01*
X15366460Y33754569D01*
X15477266Y33920401D01*
X15553590Y34104665D01*
X15592500Y34300277D01*
X15592500Y34499723D01*
X16107500Y34499723D01*
X16107500Y34300277D01*
X16117032Y34252358D01*
X16146408Y34104671D01*
X16146411Y34104661D01*
X16222732Y33920404D01*
X16327974Y33762898D01*
X16333540Y33754569D01*
X16474569Y33613540D01*
X16640401Y33502734D01*
X16640402Y33502734D01*
X16640403Y33502733D01*
X16806382Y33433983D01*
X16824665Y33426410D01*
X17020277Y33387500D01*
X17020279Y33387500D01*
X17219721Y33387500D01*
X17219723Y33387500D01*
X17415335Y33426410D01*
X17547386Y33481107D01*
X25901800Y33481107D01*
X25901800Y33331695D01*
X25911428Y33283292D01*
X25930947Y33185161D01*
X25930950Y33185151D01*
X25988125Y33047118D01*
X26071134Y32922886D01*
X26176784Y32817236D01*
X26301016Y32734227D01*
X26396300Y32694759D01*
X26439054Y32677050D01*
X26585594Y32647901D01*
X26585596Y32647901D01*
X27014404Y32647901D01*
X27014406Y32647901D01*
X27160946Y32677050D01*
X27298984Y32734227D01*
X27423216Y32817236D01*
X27528865Y32922885D01*
X27611874Y33047117D01*
X27669051Y33185155D01*
X27698200Y33331695D01*
X27698200Y33481107D01*
X27669051Y33627647D01*
X27611874Y33765685D01*
X27528865Y33889917D01*
X27423216Y33995566D01*
X27422955Y33995741D01*
X27298983Y34078576D01*
X27160950Y34135751D01*
X27160940Y34135754D01*
X27062809Y34155273D01*
X27014406Y34164901D01*
X26585594Y34164901D01*
X26544052Y34156638D01*
X26439059Y34135754D01*
X26439049Y34135751D01*
X26301016Y34078576D01*
X26176784Y33995567D01*
X26176783Y33995565D01*
X26071136Y33889918D01*
X26071134Y33889917D01*
X25988125Y33765685D01*
X25930950Y33627652D01*
X25930947Y33627642D01*
X25910659Y33525642D01*
X25901800Y33481107D01*
X17547386Y33481107D01*
X17599599Y33502734D01*
X17765431Y33613540D01*
X17906460Y33754569D01*
X18017266Y33920401D01*
X18093590Y34104665D01*
X18132500Y34300277D01*
X18132500Y34499723D01*
X18093590Y34695335D01*
X18025559Y34859577D01*
X18017267Y34879597D01*
X17906462Y35045428D01*
X17906460Y35045431D01*
X17765431Y35186460D01*
X17689616Y35237118D01*
X17599596Y35297268D01*
X17415339Y35373589D01*
X17415329Y35373592D01*
X17284335Y35399648D01*
X17219723Y35412500D01*
X17020277Y35412500D01*
X16964823Y35401470D01*
X16824670Y35373592D01*
X16824660Y35373589D01*
X16640403Y35297268D01*
X16474572Y35186463D01*
X16333537Y35045428D01*
X16222732Y34879597D01*
X16146411Y34695340D01*
X16146408Y34695330D01*
X16118160Y34553316D01*
X16107500Y34499723D01*
X15592500Y34499723D01*
X15553590Y34695335D01*
X15485559Y34859577D01*
X15477267Y34879597D01*
X15366462Y35045428D01*
X15366460Y35045431D01*
X15225431Y35186460D01*
X15149616Y35237118D01*
X15059596Y35297268D01*
X14875339Y35373589D01*
X14875329Y35373592D01*
X14744335Y35399648D01*
X14679723Y35412500D01*
X14480277Y35412500D01*
X14424823Y35401470D01*
X14284670Y35373592D01*
X14284660Y35373589D01*
X14100403Y35297268D01*
X13934572Y35186463D01*
X13793537Y35045428D01*
X13682732Y34879597D01*
X13606411Y34695340D01*
X13606408Y34695330D01*
X13578160Y34553316D01*
X13567500Y34499723D01*
X10512500Y34499723D01*
X10473590Y34695335D01*
X10405559Y34859577D01*
X10397267Y34879597D01*
X10286462Y35045428D01*
X10286460Y35045431D01*
X10145431Y35186460D01*
X10069616Y35237118D01*
X9979596Y35297268D01*
X9795339Y35373589D01*
X9795329Y35373592D01*
X9664335Y35399648D01*
X9599723Y35412500D01*
X9400277Y35412500D01*
X9344823Y35401470D01*
X9204670Y35373592D01*
X9204660Y35373589D01*
X9020403Y35297268D01*
X8854572Y35186463D01*
X8713537Y35045428D01*
X8602732Y34879597D01*
X8526411Y34695340D01*
X8526408Y34695330D01*
X8498160Y34553316D01*
X8487500Y34499723D01*
X8487500Y34300277D01*
X8497032Y34252358D01*
X8526408Y34104671D01*
X8526411Y34104661D01*
X8602732Y33920404D01*
X8707974Y33762898D01*
X8713540Y33754569D01*
X8854569Y33613540D01*
X9020401Y33502734D01*
X9020402Y33502734D01*
X9020403Y33502733D01*
X9186382Y33433983D01*
X9204665Y33426410D01*
X9400277Y33387500D01*
X9400279Y33387500D01*
X9599721Y33387500D01*
X9599723Y33387500D01*
X9795335Y33426410D01*
X9974464Y33500607D01*
X10031100Y33500607D01*
X10055107Y33484566D01*
X10252826Y33286847D01*
X10274500Y33234521D01*
X10274500Y32696043D01*
X10252826Y32643717D01*
X10200500Y32622043D01*
X10148179Y32643712D01*
X10148174Y32643717D01*
X10145431Y32646460D01*
X10143274Y32647901D01*
X9979596Y32757268D01*
X9795339Y32833589D01*
X9795329Y32833592D01*
X9664335Y32859648D01*
X9599723Y32872500D01*
X9400277Y32872500D01*
X9344823Y32861470D01*
X9204670Y32833592D01*
X9204660Y32833589D01*
X9020403Y32757268D01*
X8854572Y32646463D01*
X8713537Y32505428D01*
X8602732Y32339597D01*
X8526411Y32155340D01*
X8526408Y32155330D01*
X8495412Y31999500D01*
X8492138Y31983037D01*
X8487500Y31959722D01*
X8487500Y31760279D01*
X8526408Y31564671D01*
X8526411Y31564661D01*
X8602732Y31380404D01*
X8683562Y31259433D01*
X8713540Y31214569D01*
X8854569Y31073540D01*
X9020401Y30962734D01*
X9020402Y30962734D01*
X9020403Y30962733D01*
X9159200Y30905242D01*
X9204665Y30886410D01*
X9400277Y30847500D01*
X9400279Y30847500D01*
X9599721Y30847500D01*
X9599723Y30847500D01*
X9795335Y30886410D01*
X9979599Y30962734D01*
X10145431Y31073540D01*
X10163103Y31091213D01*
X10215425Y31112886D01*
X10267752Y31091213D01*
X10286905Y31058039D01*
X10296680Y31021557D01*
X10296684Y31021548D01*
X10339532Y30947333D01*
X10339533Y30947332D01*
X10339535Y30947329D01*
X10818672Y30468192D01*
X11286725Y30000139D01*
X11331928Y29954936D01*
X11353602Y29902610D01*
X11331928Y29850284D01*
X11279602Y29828610D01*
X7662368Y29828610D01*
X7610042Y29850284D01*
X7347174Y30113153D01*
X7325500Y30165479D01*
X7325500Y30866029D01*
X7347174Y30918355D01*
X7371178Y30934395D01*
X7439599Y30962734D01*
X7605431Y31073540D01*
X7746460Y31214569D01*
X7857266Y31380401D01*
X7933590Y31564665D01*
X7972500Y31760277D01*
X7972500Y31959723D01*
X7933590Y32155335D01*
X7933588Y32155340D01*
X7857267Y32339597D01*
X7849636Y32351017D01*
X7746460Y32505431D01*
X7605431Y32646460D01*
X7603274Y32647901D01*
X7439596Y32757268D01*
X7255339Y32833589D01*
X7255329Y32833592D01*
X7124335Y32859648D01*
X7059723Y32872500D01*
X6860277Y32872500D01*
X6804823Y32861470D01*
X6664670Y32833592D01*
X6664660Y32833589D01*
X6480403Y32757268D01*
X6314572Y32646463D01*
X6173537Y32505428D01*
X6062732Y32339597D01*
X5986411Y32155340D01*
X5986408Y32155330D01*
X5955412Y31999500D01*
X5952138Y31983037D01*
X5947500Y31959722D01*
X5947500Y31760279D01*
X5986408Y31564671D01*
X5986411Y31564661D01*
X6062732Y31380404D01*
X6143562Y31259433D01*
X6173540Y31214569D01*
X6314569Y31073540D01*
X6480401Y30962734D01*
X6480402Y30962734D01*
X6480403Y30962733D01*
X6628818Y30901258D01*
X6668867Y30861210D01*
X6674500Y30832891D01*
X6674500Y30042853D01*
X6674500Y29957147D01*
X6696645Y29874500D01*
X6696683Y29874359D01*
X6696684Y29874357D01*
X6739532Y29800142D01*
X6739533Y29800141D01*
X6739535Y29800138D01*
X6990201Y29549473D01*
X7233836Y29305838D01*
X7233841Y29305832D01*
X7236425Y29303248D01*
X7297028Y29242645D01*
X7366014Y29202816D01*
X7371252Y29199792D01*
X7454035Y29177610D01*
X7454036Y29177609D01*
X7454038Y29177609D01*
X7544273Y29177609D01*
X7544289Y29177610D01*
X17531411Y29177610D01*
X17583737Y29155936D01*
X26116387Y20623286D01*
X26116388Y20623285D01*
X26176991Y20562682D01*
X26251215Y20519829D01*
X26254486Y20518953D01*
X26299420Y20484477D01*
X26306815Y20428324D01*
X26272339Y20383390D01*
X26254489Y20375996D01*
X26193220Y20359579D01*
X26193214Y20359576D01*
X26056283Y20280520D01*
X25944480Y20168717D01*
X25865424Y20031786D01*
X25865421Y20031780D01*
X25824500Y19879060D01*
X25824500Y19720941D01*
X25865421Y19568221D01*
X25865422Y19568219D01*
X25865423Y19568216D01*
X25910662Y19489859D01*
X25914586Y19483063D01*
X25924500Y19446063D01*
X25924500Y19329646D01*
X25916435Y19296054D01*
X25888983Y19242175D01*
X25888982Y19242173D01*
X25888982Y19242171D01*
X25874500Y19150737D01*
X25874500Y18749266D01*
X25888983Y18657825D01*
X25888983Y18657823D01*
X25933986Y18569501D01*
X25945141Y18547609D01*
X26032609Y18460141D01*
X26142825Y18403983D01*
X26234265Y18389500D01*
X26575734Y18389501D01*
X26667175Y18403983D01*
X26777391Y18460141D01*
X26849360Y18532111D01*
X26901685Y18553784D01*
X26954009Y18532111D01*
X26996635Y18489485D01*
X27127865Y18413719D01*
X27274231Y18374501D01*
X27274232Y18374500D01*
X27274234Y18374500D01*
X27425765Y18374500D01*
X27425766Y18374500D01*
X27509660Y18396980D01*
X27528811Y18399500D01*
X28693587Y18399500D01*
X28693595Y18399501D01*
X29156519Y18399501D01*
X29250304Y18414354D01*
X29250306Y18414355D01*
X29265585Y18422140D01*
X29363342Y18471950D01*
X29453050Y18561658D01*
X29510646Y18674696D01*
X29525500Y18768481D01*
X29525499Y19131518D01*
X29525499Y19131520D01*
X29974500Y19131520D01*
X29974500Y18768481D01*
X29989353Y18674696D01*
X29989354Y18674694D01*
X30035311Y18584500D01*
X30046950Y18561658D01*
X30136658Y18471950D01*
X30249696Y18414354D01*
X30343481Y18399500D01*
X30806404Y18399501D01*
X30806414Y18399500D01*
X30815025Y18399500D01*
X32046189Y18399500D01*
X32063413Y18397468D01*
X32064373Y18397239D01*
X32149234Y18374500D01*
X32159382Y18374500D01*
X32167873Y18372468D01*
X32184266Y18360576D01*
X32202975Y18352826D01*
X32206423Y18344502D01*
X32213717Y18339210D01*
X32216899Y18319210D01*
X32224649Y18300500D01*
X32221778Y18288545D01*
X32222617Y18283276D01*
X32219473Y18278944D01*
X32216584Y18266906D01*
X32203983Y18242176D01*
X32203982Y18242171D01*
X32189500Y18150737D01*
X32189500Y17809266D01*
X32203983Y17717825D01*
X32203983Y17717823D01*
X32231551Y17663719D01*
X32260141Y17607609D01*
X32347609Y17520141D01*
X32457825Y17463983D01*
X32549265Y17449500D01*
X32950734Y17449501D01*
X33042175Y17463983D01*
X33053628Y17469820D01*
X33056801Y17471435D01*
X33090396Y17479500D01*
X33445894Y17479500D01*
X33445894Y17479501D01*
X33573186Y17513608D01*
X33687314Y17579500D01*
X33738991Y17631179D01*
X33772162Y17650330D01*
X33822135Y17663719D01*
X33953365Y17739485D01*
X34060515Y17846635D01*
X34136281Y17977865D01*
X34175499Y18124232D01*
X34175500Y18124232D01*
X34175500Y18275768D01*
X34175499Y18275769D01*
X34168872Y18300500D01*
X34136281Y18422135D01*
X34060515Y18553365D01*
X33953365Y18660515D01*
X33951387Y18661657D01*
X33822139Y18736279D01*
X33822130Y18736283D01*
X33675768Y18775500D01*
X33675766Y18775500D01*
X33524234Y18775500D01*
X33524232Y18775500D01*
X33377869Y18736283D01*
X33377860Y18736279D01*
X33246637Y18660517D01*
X33139482Y18553362D01*
X33126194Y18530347D01*
X33081259Y18495870D01*
X33048185Y18496735D01*
X33047928Y18495106D01*
X32950737Y18510500D01*
X32950735Y18510500D01*
X32763957Y18510500D01*
X32711631Y18532174D01*
X32689957Y18584500D01*
X32699871Y18621500D01*
X32722397Y18660517D01*
X32761281Y18727865D01*
X32800499Y18874232D01*
X32800500Y18874232D01*
X32800500Y19025768D01*
X32800499Y19025769D01*
X32782524Y19092852D01*
X32761281Y19172135D01*
X32685515Y19303365D01*
X32578365Y19410515D01*
X32578362Y19410517D01*
X32447139Y19486279D01*
X32447130Y19486283D01*
X32300768Y19525500D01*
X32300766Y19525500D01*
X32149234Y19525500D01*
X32065339Y19503021D01*
X32046189Y19500500D01*
X30343480Y19500500D01*
X30249695Y19485647D01*
X30249693Y19485646D01*
X30136657Y19428050D01*
X30046951Y19338344D01*
X29989353Y19225302D01*
X29974500Y19131520D01*
X29525499Y19131520D01*
X29524927Y19135127D01*
X29510646Y19225305D01*
X29510645Y19225307D01*
X29472658Y19299859D01*
X29453050Y19338342D01*
X29363342Y19428050D01*
X29250304Y19485646D01*
X29250302Y19485647D01*
X29250301Y19485647D01*
X29156520Y19500500D01*
X29156519Y19500500D01*
X28684976Y19500500D01*
X28684975Y19500500D01*
X27528811Y19500500D01*
X27509660Y19503021D01*
X27425766Y19525500D01*
X27274234Y19525500D01*
X27274232Y19525500D01*
X27127869Y19486283D01*
X27127856Y19486278D01*
X27081145Y19459309D01*
X27024992Y19451917D01*
X26980060Y19486396D01*
X26972668Y19542549D01*
X26980060Y19560394D01*
X26984577Y19568216D01*
X27025499Y19720941D01*
X27025500Y19720941D01*
X27025500Y19879059D01*
X27025499Y19879060D01*
X27018625Y19904713D01*
X26984577Y20031784D01*
X26905520Y20168716D01*
X26793716Y20280520D01*
X26656810Y20359562D01*
X26622333Y20404494D01*
X26629725Y20460647D01*
X26674658Y20495125D01*
X26693811Y20497647D01*
X33611374Y20497647D01*
X33663700Y20475973D01*
X35152826Y18986847D01*
X35174500Y18934521D01*
X35174500Y16542853D01*
X35174500Y16457147D01*
X35188667Y16404275D01*
X35196683Y16374359D01*
X35196684Y16374357D01*
X35239532Y16300142D01*
X35239533Y16300141D01*
X35239535Y16300138D01*
X35739533Y15800141D01*
X35739535Y15800138D01*
X35800138Y15739535D01*
X35835548Y15719091D01*
X35874361Y15696682D01*
X35957147Y15674500D01*
X35957149Y15674500D01*
X43238529Y15674500D01*
X43238531Y15674500D01*
X43321317Y15696682D01*
X43395540Y15739535D01*
X47060465Y19404460D01*
X47103318Y19478683D01*
X47125500Y19561469D01*
X47125500Y19647175D01*
X47125500Y23421221D01*
X47147174Y23473547D01*
X47199500Y23495221D01*
X47233095Y23487155D01*
X47317825Y23443983D01*
X47409265Y23429500D01*
X47810734Y23429501D01*
X47902175Y23443983D01*
X47995303Y23491435D01*
X48028898Y23499500D01*
X48459059Y23499500D01*
X48459059Y23499501D01*
X48611784Y23540423D01*
X48748716Y23619480D01*
X48798174Y23668938D01*
X48850500Y23690612D01*
X48902826Y23668938D01*
X48924500Y23616612D01*
X48924500Y20974680D01*
X48902826Y20922354D01*
X48891612Y20913151D01*
X48771584Y20832952D01*
X48771583Y20832950D01*
X48667050Y20728417D01*
X48667048Y20728416D01*
X48584915Y20605495D01*
X48528343Y20468918D01*
X48528340Y20468908D01*
X48506593Y20359577D01*
X48499500Y20323918D01*
X48499500Y20176082D01*
X48507706Y20134827D01*
X48528340Y20031093D01*
X48528343Y20031083D01*
X48584915Y19894506D01*
X48667048Y19771585D01*
X48771584Y19667049D01*
X48891612Y19586849D01*
X48923078Y19539757D01*
X48924500Y19525320D01*
X48924500Y14767853D01*
X48924500Y14682147D01*
X48945419Y14604076D01*
X48946683Y14599359D01*
X48946684Y14599357D01*
X48989532Y14525142D01*
X48989533Y14525141D01*
X48989535Y14525138D01*
X49777826Y13736847D01*
X49799500Y13684522D01*
X49799500Y13224500D01*
X49777826Y13172174D01*
X49725501Y13150500D01*
X49580980Y13150500D01*
X49487195Y13135647D01*
X49487193Y13135646D01*
X49374157Y13078050D01*
X49284451Y12988344D01*
X49284450Y12988342D01*
X49241427Y12903904D01*
X49226853Y12875302D01*
X49212000Y12781520D01*
X49212000Y12418481D01*
X49226853Y12324696D01*
X49226854Y12324694D01*
X49281293Y12217853D01*
X49284450Y12211658D01*
X49374158Y12121950D01*
X49487196Y12064354D01*
X49580981Y12049500D01*
X50669018Y12049501D01*
X50669019Y12049501D01*
X50692464Y12053215D01*
X50762804Y12064354D01*
X50766904Y12066444D01*
X50823364Y12070889D01*
X50866433Y12034108D01*
X50874500Y12000510D01*
X50874500Y11299491D01*
X50852826Y11247165D01*
X50800500Y11225491D01*
X50766908Y11233555D01*
X50762804Y11235646D01*
X50762803Y11235647D01*
X50762802Y11235647D01*
X50669020Y11250500D01*
X50669019Y11250500D01*
X50197476Y11250500D01*
X50197475Y11250500D01*
X48678811Y11250500D01*
X48659660Y11253021D01*
X48575766Y11275500D01*
X48424234Y11275500D01*
X48424232Y11275500D01*
X48277869Y11236283D01*
X48277860Y11236279D01*
X48146637Y11160517D01*
X48039483Y11053363D01*
X47963721Y10922140D01*
X47963717Y10922131D01*
X47924500Y10775769D01*
X47924500Y10624232D01*
X47963717Y10477870D01*
X47963721Y10477861D01*
X48039483Y10346638D01*
X48039485Y10346635D01*
X48146635Y10239485D01*
X48277865Y10163719D01*
X48424231Y10124501D01*
X48424232Y10124500D01*
X48424234Y10124500D01*
X48575765Y10124500D01*
X48575766Y10124500D01*
X48659660Y10146980D01*
X48678811Y10149500D01*
X50206087Y10149500D01*
X50206095Y10149501D01*
X50669019Y10149501D01*
X50692464Y10153215D01*
X50762804Y10164354D01*
X50766904Y10166444D01*
X50823364Y10170889D01*
X50866433Y10134108D01*
X50874500Y10100510D01*
X50874500Y8749436D01*
X50874500Y8650564D01*
X50883549Y8616793D01*
X50891809Y8585966D01*
X50900090Y8555061D01*
X50933298Y8497544D01*
X50949525Y8469438D01*
X50949526Y8469437D01*
X52469437Y6949525D01*
X52555063Y6900089D01*
X52650564Y6874500D01*
X52650565Y6874500D01*
X53813811Y6874500D01*
X53866137Y6852826D01*
X54452826Y6266137D01*
X54474500Y6213811D01*
X54474500Y4428903D01*
X54452826Y4376577D01*
X54428820Y4360536D01*
X54376773Y4338977D01*
X54206777Y4225391D01*
X54206776Y4225389D01*
X54062211Y4080824D01*
X54062209Y4080823D01*
X53948624Y3910830D01*
X53870387Y3721949D01*
X53870384Y3721939D01*
X53830500Y3521423D01*
X53830500Y3316978D01*
X53870384Y3116462D01*
X53870387Y3116452D01*
X53948624Y2927571D01*
X53948625Y2927570D01*
X54062210Y2757577D01*
X54206777Y2613010D01*
X54376770Y2499425D01*
X54565656Y2421186D01*
X54766176Y2381300D01*
X54766178Y2381300D01*
X54970622Y2381300D01*
X54970624Y2381300D01*
X55171144Y2421186D01*
X55360030Y2499425D01*
X55530023Y2613010D01*
X55674590Y2757577D01*
X55788175Y2927570D01*
X55866414Y3116456D01*
X55906300Y3316976D01*
X55906300Y3521423D01*
X56370500Y3521423D01*
X56370500Y3316978D01*
X56410384Y3116462D01*
X56410387Y3116452D01*
X56488624Y2927571D01*
X56488625Y2927570D01*
X56602210Y2757577D01*
X56746777Y2613010D01*
X56916770Y2499425D01*
X57105656Y2421186D01*
X57306176Y2381300D01*
X57306178Y2381300D01*
X57510622Y2381300D01*
X57510624Y2381300D01*
X57711144Y2421186D01*
X57900030Y2499425D01*
X58070023Y2613010D01*
X58214590Y2757577D01*
X58328175Y2927570D01*
X58406414Y3116456D01*
X58446300Y3316976D01*
X58446300Y3521424D01*
X58406414Y3721944D01*
X58328175Y3910830D01*
X58214590Y4080823D01*
X58070023Y4225390D01*
X58068780Y4226221D01*
X57900029Y4338976D01*
X57711148Y4417213D01*
X57711138Y4417216D01*
X57575748Y4444146D01*
X57510624Y4457100D01*
X57306176Y4457100D01*
X57249331Y4445793D01*
X57105661Y4417216D01*
X57105651Y4417213D01*
X56916770Y4338976D01*
X56746777Y4225391D01*
X56746776Y4225389D01*
X56602211Y4080824D01*
X56602209Y4080823D01*
X56488624Y3910830D01*
X56410387Y3721949D01*
X56410384Y3721939D01*
X56370500Y3521423D01*
X55906300Y3521423D01*
X55906300Y3521424D01*
X55866414Y3721944D01*
X55788175Y3910830D01*
X55674590Y4080823D01*
X55530023Y4225390D01*
X55528779Y4226221D01*
X55445600Y4281799D01*
X55360030Y4338975D01*
X55360028Y4338976D01*
X55271180Y4375779D01*
X55231132Y4415828D01*
X55225500Y4444146D01*
X55225500Y6449434D01*
X55225500Y6449435D01*
X55225500Y6449436D01*
X55199911Y6544937D01*
X55150475Y6630562D01*
X54230563Y7550474D01*
X54230562Y7550475D01*
X54144942Y7599908D01*
X54144933Y7599912D01*
X54097185Y7612706D01*
X54097184Y7612706D01*
X54049438Y7625500D01*
X54049436Y7625500D01*
X54049435Y7625500D01*
X52886190Y7625500D01*
X52833864Y7647174D01*
X51647174Y8833864D01*
X51625500Y8886190D01*
X51625500Y9075769D01*
X53524500Y9075769D01*
X53524500Y8924232D01*
X53563717Y8777870D01*
X53563721Y8777861D01*
X53637217Y8650563D01*
X53639485Y8646635D01*
X53746635Y8539485D01*
X53877865Y8463719D01*
X54024231Y8424501D01*
X54024232Y8424500D01*
X54024234Y8424500D01*
X54175768Y8424500D01*
X54175768Y8424501D01*
X54322135Y8463719D01*
X54453365Y8539485D01*
X54467024Y8553145D01*
X54519348Y8574820D01*
X54571674Y8553147D01*
X54571676Y8553146D01*
X54587898Y8536924D01*
X54703482Y8480418D01*
X54778418Y8469500D01*
X54778424Y8469500D01*
X55221576Y8469500D01*
X55221582Y8469500D01*
X55296518Y8480418D01*
X55412102Y8536924D01*
X55503076Y8627898D01*
X55559582Y8743482D01*
X55570500Y8818418D01*
X55570500Y9075769D01*
X56724500Y9075769D01*
X56724500Y8924232D01*
X56763717Y8777870D01*
X56763721Y8777861D01*
X56837217Y8650563D01*
X56839485Y8646635D01*
X56946635Y8539485D01*
X57077865Y8463719D01*
X57224231Y8424501D01*
X57224232Y8424500D01*
X57224234Y8424500D01*
X57375768Y8424500D01*
X57375768Y8424501D01*
X57522135Y8463719D01*
X57653365Y8539485D01*
X57667024Y8553145D01*
X57719348Y8574820D01*
X57771674Y8553147D01*
X57771676Y8553146D01*
X57787898Y8536924D01*
X57903482Y8480418D01*
X57978418Y8469500D01*
X57978424Y8469500D01*
X58421576Y8469500D01*
X58421582Y8469500D01*
X58496518Y8480418D01*
X58612102Y8536924D01*
X58703076Y8627898D01*
X58759582Y8743482D01*
X58770500Y8818418D01*
X58770500Y9161582D01*
X58759582Y9236518D01*
X58703076Y9352102D01*
X58612102Y9443076D01*
X58607766Y9447412D01*
X58610347Y9449994D01*
X58586735Y9487816D01*
X58599498Y9542996D01*
X58608428Y9551926D01*
X58607766Y9552588D01*
X58630678Y9575500D01*
X58703076Y9647898D01*
X58759582Y9763482D01*
X58770500Y9838418D01*
X58770500Y10181582D01*
X58759582Y10256518D01*
X58703076Y10372102D01*
X58622174Y10453004D01*
X58600500Y10505330D01*
X58600500Y11140887D01*
X58622174Y11193213D01*
X58630148Y11200123D01*
X58691472Y11246028D01*
X58772336Y11354050D01*
X58819491Y11480478D01*
X58825500Y11536370D01*
X58825500Y12063630D01*
X58819491Y12119522D01*
X58797730Y12177865D01*
X58772337Y12245949D01*
X58772336Y12245950D01*
X58749765Y12276101D01*
X58691472Y12353972D01*
X58605298Y12418481D01*
X58583449Y12434837D01*
X58583448Y12434838D01*
X58457026Y12481990D01*
X58457023Y12481991D01*
X58457022Y12481991D01*
X58429076Y12484996D01*
X58401131Y12488000D01*
X58401130Y12488000D01*
X57798870Y12488000D01*
X57798869Y12488000D01*
X57742978Y12481991D01*
X57742973Y12481990D01*
X57616551Y12434838D01*
X57616550Y12434837D01*
X57508528Y12353972D01*
X57427663Y12245950D01*
X57427662Y12245949D01*
X57380510Y12119527D01*
X57380509Y12119522D01*
X57375238Y12070490D01*
X57374500Y12063630D01*
X57374500Y11536370D01*
X57376430Y11518414D01*
X57380509Y11480479D01*
X57380510Y11480474D01*
X57427662Y11354052D01*
X57427663Y11354051D01*
X57427664Y11354050D01*
X57508528Y11246028D01*
X57616550Y11165164D01*
X57616551Y11165163D01*
X57747315Y11116391D01*
X57746804Y11115022D01*
X57788449Y11085005D01*
X57799500Y11046102D01*
X57799500Y10505330D01*
X57777826Y10453004D01*
X57696924Y10372103D01*
X57640418Y10256519D01*
X57629500Y10181587D01*
X57629500Y9838414D01*
X57640418Y9763482D01*
X57696924Y9647898D01*
X57792234Y9552588D01*
X57789667Y9550022D01*
X57813280Y9512090D01*
X57800446Y9456926D01*
X57792347Y9447422D01*
X57788018Y9443135D01*
X57787898Y9443076D01*
X57781677Y9436855D01*
X57781423Y9436603D01*
X57755274Y9425920D01*
X57729346Y9415181D01*
X57729169Y9415255D01*
X57728993Y9415182D01*
X57703183Y9426019D01*
X57677025Y9436855D01*
X57653365Y9460515D01*
X57653362Y9460517D01*
X57522139Y9536279D01*
X57522130Y9536283D01*
X57375768Y9575500D01*
X57375766Y9575500D01*
X57224234Y9575500D01*
X57224232Y9575500D01*
X57077869Y9536283D01*
X57077860Y9536279D01*
X56946637Y9460517D01*
X56839483Y9353363D01*
X56763721Y9222140D01*
X56763717Y9222131D01*
X56724500Y9075769D01*
X55570500Y9075769D01*
X55570500Y9161582D01*
X55559582Y9236518D01*
X55503076Y9352102D01*
X55412102Y9443076D01*
X55407766Y9447412D01*
X55410347Y9449994D01*
X55386735Y9487816D01*
X55399498Y9542996D01*
X55408428Y9551926D01*
X55407766Y9552588D01*
X55430678Y9575500D01*
X55503076Y9647898D01*
X55559582Y9763482D01*
X55570500Y9838418D01*
X55570500Y10181582D01*
X55559582Y10256518D01*
X55503076Y10372102D01*
X55422174Y10453004D01*
X55400500Y10505330D01*
X55400500Y11082847D01*
X55422174Y11135173D01*
X55448638Y11152181D01*
X55483450Y11165164D01*
X55591472Y11246028D01*
X55672336Y11354050D01*
X55719491Y11480478D01*
X55725500Y11536370D01*
X55725500Y12063630D01*
X55719491Y12119522D01*
X55697730Y12177865D01*
X55672337Y12245949D01*
X55672336Y12245950D01*
X55649765Y12276101D01*
X55591472Y12353972D01*
X55505298Y12418481D01*
X55483449Y12434837D01*
X55483448Y12434838D01*
X55357026Y12481990D01*
X55357023Y12481991D01*
X55357022Y12481991D01*
X55329076Y12484996D01*
X55301131Y12488000D01*
X55301130Y12488000D01*
X54698870Y12488000D01*
X54698869Y12488000D01*
X54642978Y12481991D01*
X54642973Y12481990D01*
X54516551Y12434838D01*
X54516550Y12434837D01*
X54408528Y12353972D01*
X54327663Y12245950D01*
X54327662Y12245949D01*
X54280510Y12119527D01*
X54280509Y12119522D01*
X54275238Y12070490D01*
X54274500Y12063630D01*
X54274500Y11536370D01*
X54276430Y11518414D01*
X54280509Y11480479D01*
X54280510Y11480474D01*
X54327662Y11354052D01*
X54327663Y11354051D01*
X54327664Y11354050D01*
X54408528Y11246028D01*
X54516550Y11165164D01*
X54551360Y11152181D01*
X54592812Y11113589D01*
X54599500Y11082847D01*
X54599500Y10505330D01*
X54577826Y10453004D01*
X54496924Y10372103D01*
X54440418Y10256519D01*
X54429500Y10181587D01*
X54429500Y9838414D01*
X54440418Y9763482D01*
X54496924Y9647898D01*
X54592234Y9552588D01*
X54589667Y9550022D01*
X54613280Y9512090D01*
X54600446Y9456926D01*
X54592347Y9447422D01*
X54588018Y9443135D01*
X54587898Y9443076D01*
X54581677Y9436855D01*
X54581423Y9436603D01*
X54555274Y9425920D01*
X54529346Y9415181D01*
X54529169Y9415255D01*
X54528993Y9415182D01*
X54503183Y9426019D01*
X54477025Y9436855D01*
X54453365Y9460515D01*
X54453362Y9460517D01*
X54322139Y9536279D01*
X54322130Y9536283D01*
X54175768Y9575500D01*
X54175766Y9575500D01*
X54024234Y9575500D01*
X54024232Y9575500D01*
X53877869Y9536283D01*
X53877860Y9536279D01*
X53746637Y9460517D01*
X53639483Y9353363D01*
X53563721Y9222140D01*
X53563717Y9222131D01*
X53524500Y9075769D01*
X51625500Y9075769D01*
X51625500Y10113248D01*
X51647174Y10165574D01*
X51699500Y10187248D01*
X51733093Y10179183D01*
X51762196Y10164354D01*
X51855981Y10149500D01*
X52318904Y10149501D01*
X52318914Y10149500D01*
X52327525Y10149500D01*
X53621189Y10149500D01*
X53640339Y10146980D01*
X53724234Y10124500D01*
X53724235Y10124500D01*
X53875768Y10124500D01*
X53875768Y10124501D01*
X54022135Y10163719D01*
X54153365Y10239485D01*
X54260515Y10346635D01*
X54336281Y10477865D01*
X54375499Y10624232D01*
X54375500Y10624232D01*
X54375500Y10775768D01*
X54375499Y10775769D01*
X54368969Y10800138D01*
X54336281Y10922135D01*
X54260515Y11053365D01*
X54153365Y11160515D01*
X54153362Y11160517D01*
X54022139Y11236279D01*
X54022130Y11236283D01*
X53875768Y11275500D01*
X53875766Y11275500D01*
X53724234Y11275500D01*
X53640339Y11253021D01*
X53621189Y11250500D01*
X51855980Y11250500D01*
X51762195Y11235647D01*
X51762193Y11235646D01*
X51733094Y11220819D01*
X51676632Y11216376D01*
X51633565Y11253160D01*
X51625500Y11286754D01*
X51625500Y11926311D01*
X51647174Y11978636D01*
X51672382Y12003845D01*
X51710236Y12041700D01*
X51762561Y12063374D01*
X51774131Y12062464D01*
X51855981Y12049500D01*
X52944018Y12049501D01*
X52944019Y12049501D01*
X53037804Y12064354D01*
X53037806Y12064355D01*
X53041904Y12066443D01*
X53150842Y12121950D01*
X53240550Y12211658D01*
X53298146Y12324696D01*
X53313000Y12418481D01*
X53312999Y12781518D01*
X53309624Y12802826D01*
X53298146Y12875305D01*
X53298145Y12875307D01*
X53267077Y12936281D01*
X53240550Y12988342D01*
X53150842Y13078050D01*
X53037804Y13135646D01*
X53037802Y13135647D01*
X53037801Y13135647D01*
X52944019Y13150500D01*
X51855980Y13150500D01*
X51762195Y13135647D01*
X51762193Y13135646D01*
X51649157Y13078050D01*
X51559449Y12988342D01*
X51527249Y12925146D01*
X51509939Y12904333D01*
X51510368Y12903904D01*
X51164325Y12557862D01*
X51111999Y12536188D01*
X51059673Y12557862D01*
X51037999Y12610188D01*
X51037999Y12781520D01*
X51023146Y12875305D01*
X51023145Y12875307D01*
X50992077Y12936281D01*
X50965550Y12988342D01*
X50875842Y13078050D01*
X50762804Y13135646D01*
X50762802Y13135647D01*
X50762801Y13135647D01*
X50669020Y13150500D01*
X50669019Y13150500D01*
X50524500Y13150500D01*
X50472174Y13172174D01*
X50450500Y13224500D01*
X50450500Y13892853D01*
X50428318Y13975638D01*
X50428318Y13975639D01*
X50385467Y14049859D01*
X50385466Y14049860D01*
X50385465Y14049862D01*
X49597174Y14838153D01*
X49575500Y14890479D01*
X49575500Y17181520D01*
X50249500Y17181520D01*
X50249500Y15943481D01*
X50264353Y15849696D01*
X50264354Y15849694D01*
X50321950Y15736658D01*
X50377826Y15680782D01*
X50399500Y15628456D01*
X50399500Y15252727D01*
X50399500Y15147273D01*
X50426793Y15045412D01*
X50426795Y15045408D01*
X50479517Y14954091D01*
X50479518Y14954090D01*
X50479520Y14954087D01*
X50879519Y14554088D01*
X50879520Y14554087D01*
X50954087Y14479520D01*
X51045413Y14426793D01*
X51147270Y14399501D01*
X51147271Y14399500D01*
X51147273Y14399500D01*
X51252727Y14399500D01*
X54103455Y14399500D01*
X54155781Y14377826D01*
X54460292Y14073315D01*
X54481966Y14020989D01*
X54460292Y13968663D01*
X54452313Y13961749D01*
X54408528Y13928972D01*
X54327663Y13820950D01*
X54327662Y13820949D01*
X54280510Y13694527D01*
X54280509Y13694522D01*
X54274500Y13638630D01*
X54274500Y13111370D01*
X54275580Y13101320D01*
X54280509Y13055479D01*
X54280510Y13055474D01*
X54327662Y12929052D01*
X54327663Y12929051D01*
X54327664Y12929050D01*
X54408528Y12821028D01*
X54502743Y12750500D01*
X54516550Y12740164D01*
X54516551Y12740163D01*
X54607386Y12706284D01*
X54642978Y12693009D01*
X54693443Y12687584D01*
X54698869Y12687000D01*
X54698870Y12687000D01*
X55301131Y12687000D01*
X55306076Y12687532D01*
X55357022Y12693009D01*
X55444134Y12725500D01*
X55483448Y12740163D01*
X55483448Y12740164D01*
X55483450Y12740164D01*
X55591472Y12821028D01*
X55672336Y12929050D01*
X55719491Y13055478D01*
X55725500Y13111370D01*
X55725500Y13638630D01*
X55719491Y13694522D01*
X55705194Y13732854D01*
X55672337Y13820949D01*
X55672336Y13820950D01*
X55591472Y13928972D01*
X55483450Y14009836D01*
X55478190Y14011798D01*
X55448638Y14022821D01*
X55407187Y14061416D01*
X55400500Y14092155D01*
X55400500Y14152729D01*
X55400499Y14152730D01*
X55396537Y14167515D01*
X55373207Y14254587D01*
X55320480Y14345913D01*
X55245913Y14420480D01*
X54545913Y15120480D01*
X54545910Y15120482D01*
X54545909Y15120483D01*
X54454592Y15173205D01*
X54454588Y15173207D01*
X54352727Y15200500D01*
X54352726Y15200500D01*
X51396545Y15200500D01*
X51344219Y15222174D01*
X51222174Y15344219D01*
X51200500Y15396545D01*
X51200500Y15628456D01*
X51222174Y15680782D01*
X51239067Y15697675D01*
X51278050Y15736658D01*
X51335646Y15849696D01*
X51350500Y15943481D01*
X51350499Y17181518D01*
X51345785Y17211281D01*
X51335646Y17275305D01*
X51335645Y17275307D01*
X51286815Y17371140D01*
X51278050Y17388342D01*
X51188342Y17478050D01*
X51075304Y17535646D01*
X51075302Y17535647D01*
X51075301Y17535647D01*
X50981519Y17550500D01*
X50618480Y17550500D01*
X50524695Y17535647D01*
X50524693Y17535646D01*
X50411657Y17478050D01*
X50321951Y17388344D01*
X50264353Y17275302D01*
X50249500Y17181520D01*
X49575500Y17181520D01*
X49575500Y19525320D01*
X49597174Y19577646D01*
X49608388Y19586849D01*
X49698672Y19647175D01*
X49728416Y19667049D01*
X49832951Y19771584D01*
X49915084Y19894505D01*
X49971658Y20031087D01*
X50000500Y20176082D01*
X50000500Y20323918D01*
X49971658Y20468913D01*
X49915084Y20605495D01*
X49832951Y20728416D01*
X49728416Y20832951D01*
X49697867Y20853363D01*
X49608388Y20913151D01*
X49576922Y20960243D01*
X49575500Y20974680D01*
X49575500Y22300705D01*
X49597174Y22353031D01*
X49649500Y22374705D01*
X49701826Y22353031D01*
X49705658Y22348660D01*
X49707029Y22347289D01*
X49707030Y22347288D01*
X52569531Y19484788D01*
X52634788Y19419531D01*
X52634790Y19419530D01*
X52634791Y19419529D01*
X52714710Y19373387D01*
X52714712Y19373386D01*
X52714713Y19373386D01*
X52714715Y19373385D01*
X52725557Y19370480D01*
X52803853Y19349501D01*
X52803854Y19349500D01*
X52803856Y19349500D01*
X53694670Y19349500D01*
X53746996Y19327826D01*
X53827826Y19246996D01*
X53849500Y19194670D01*
X53849500Y17046545D01*
X53827826Y16994219D01*
X53818281Y16984674D01*
X53765955Y16963000D01*
X53324499Y16963000D01*
X53272173Y16984674D01*
X53250499Y17037000D01*
X53250499Y17181520D01*
X53235646Y17275305D01*
X53235645Y17275307D01*
X53186815Y17371140D01*
X53178050Y17388342D01*
X53088342Y17478050D01*
X52975304Y17535646D01*
X52975302Y17535647D01*
X52975301Y17535647D01*
X52881519Y17550500D01*
X52518480Y17550500D01*
X52424695Y17535647D01*
X52424693Y17535646D01*
X52311657Y17478050D01*
X52221951Y17388344D01*
X52164353Y17275302D01*
X52149500Y17181520D01*
X52149500Y15943481D01*
X52164353Y15849696D01*
X52164354Y15849694D01*
X52194203Y15791114D01*
X52221950Y15736658D01*
X52311658Y15646950D01*
X52424696Y15589354D01*
X52518481Y15574500D01*
X52881518Y15574501D01*
X52881519Y15574501D01*
X52975304Y15589354D01*
X52975306Y15589355D01*
X52977419Y15590432D01*
X53088342Y15646950D01*
X53178050Y15736658D01*
X53235646Y15849696D01*
X53250500Y15943481D01*
X53250500Y16088000D01*
X53272174Y16140326D01*
X53324500Y16162000D01*
X54015226Y16162000D01*
X54015227Y16162000D01*
X54117088Y16189293D01*
X54208413Y16242020D01*
X54570480Y16604087D01*
X54582923Y16625639D01*
X54623207Y16695413D01*
X54650499Y16797271D01*
X54650500Y16797271D01*
X54650500Y17181520D01*
X56249500Y17181520D01*
X56249500Y15943481D01*
X56264353Y15849696D01*
X56264354Y15849694D01*
X56321950Y15736658D01*
X56377826Y15680782D01*
X56399500Y15628456D01*
X56399500Y15547273D01*
X56419155Y15473919D01*
X56426793Y15445412D01*
X56426795Y15445408D01*
X56479517Y15354091D01*
X56479518Y15354090D01*
X56479520Y15354087D01*
X57108108Y14725500D01*
X57677826Y14155782D01*
X57699500Y14103456D01*
X57699500Y14092155D01*
X57677826Y14039829D01*
X57651362Y14022821D01*
X57616549Y14009836D01*
X57508528Y13928972D01*
X57427663Y13820950D01*
X57427662Y13820949D01*
X57380510Y13694527D01*
X57380509Y13694522D01*
X57374500Y13638630D01*
X57374500Y13111370D01*
X57375580Y13101320D01*
X57380509Y13055479D01*
X57380510Y13055474D01*
X57427662Y12929052D01*
X57427663Y12929051D01*
X57427664Y12929050D01*
X57508528Y12821028D01*
X57602743Y12750500D01*
X57616550Y12740164D01*
X57616551Y12740163D01*
X57707386Y12706284D01*
X57742978Y12693009D01*
X57793443Y12687584D01*
X57798869Y12687000D01*
X57798870Y12687000D01*
X58401131Y12687000D01*
X58406076Y12687532D01*
X58457022Y12693009D01*
X58544134Y12725500D01*
X58583448Y12740163D01*
X58583448Y12740164D01*
X58583450Y12740164D01*
X58691472Y12821028D01*
X58772336Y12929050D01*
X58819491Y13055478D01*
X58825500Y13111370D01*
X58825500Y13638630D01*
X58819491Y13694522D01*
X58805194Y13732854D01*
X58772337Y13820949D01*
X58772336Y13820950D01*
X58691472Y13928972D01*
X58583450Y14009836D01*
X58578190Y14011798D01*
X58548638Y14022821D01*
X58536940Y14033713D01*
X58522174Y14039829D01*
X58517027Y14052254D01*
X58507187Y14061416D01*
X58500500Y14092155D01*
X58500500Y14241302D01*
X58500501Y14241315D01*
X58500501Y14352729D01*
X58500500Y14352730D01*
X58493775Y14377826D01*
X58476534Y14442171D01*
X58473208Y14454584D01*
X58473204Y14454593D01*
X58469796Y14460495D01*
X58469792Y14460501D01*
X58459449Y14478417D01*
X58420480Y14545913D01*
X58345913Y14620480D01*
X58343334Y14623059D01*
X58343323Y14623069D01*
X57299758Y15666635D01*
X57278084Y15718961D01*
X57286149Y15752554D01*
X57335646Y15849696D01*
X57350500Y15943481D01*
X57350499Y17181518D01*
X57345785Y17211281D01*
X57335646Y17275305D01*
X57335645Y17275307D01*
X57286815Y17371140D01*
X57278050Y17388342D01*
X57188342Y17478050D01*
X57075304Y17535646D01*
X57075302Y17535647D01*
X57075301Y17535647D01*
X56981519Y17550500D01*
X56618480Y17550500D01*
X56524695Y17535647D01*
X56524693Y17535646D01*
X56411657Y17478050D01*
X56321951Y17388344D01*
X56264353Y17275302D01*
X56249500Y17181520D01*
X54650500Y17181520D01*
X54650500Y19194670D01*
X54672174Y19246996D01*
X54693004Y19267826D01*
X54753076Y19327898D01*
X54808519Y19441309D01*
X54850972Y19478798D01*
X54907501Y19475288D01*
X54941480Y19441309D01*
X54996924Y19327898D01*
X55087898Y19236924D01*
X55203482Y19180418D01*
X55278418Y19169500D01*
X55278424Y19169500D01*
X55721576Y19169500D01*
X55721582Y19169500D01*
X55796518Y19180418D01*
X55912102Y19236924D01*
X55943004Y19267826D01*
X55995330Y19289500D01*
X57863455Y19289500D01*
X57915781Y19267826D01*
X58277826Y18905782D01*
X58299500Y18853456D01*
X58299500Y17496544D01*
X58277826Y17444218D01*
X58221951Y17388344D01*
X58164353Y17275302D01*
X58149500Y17181520D01*
X58149500Y15943481D01*
X58164353Y15849696D01*
X58164354Y15849694D01*
X58194203Y15791114D01*
X58221950Y15736658D01*
X58311658Y15646950D01*
X58424696Y15589354D01*
X58518481Y15574500D01*
X58881518Y15574501D01*
X58881519Y15574501D01*
X58975304Y15589354D01*
X58975306Y15589355D01*
X58977419Y15590432D01*
X59088342Y15646950D01*
X59178050Y15736658D01*
X59235646Y15849696D01*
X59250500Y15943481D01*
X59250499Y17181518D01*
X59245785Y17211281D01*
X59235646Y17275305D01*
X59235645Y17275307D01*
X59186815Y17371140D01*
X59178050Y17388342D01*
X59122174Y17444218D01*
X59100500Y17496544D01*
X59100500Y18991302D01*
X59100501Y18991315D01*
X59100501Y19102729D01*
X59100500Y19102730D01*
X59073208Y19204584D01*
X59073206Y19204589D01*
X59052517Y19240423D01*
X59036696Y19267826D01*
X59020480Y19295913D01*
X58945913Y19370480D01*
X58943334Y19373059D01*
X58943323Y19373069D01*
X58626533Y19689859D01*
X58305913Y20010480D01*
X58305910Y20010482D01*
X58305909Y20010483D01*
X58214592Y20063205D01*
X58214588Y20063207D01*
X58181122Y20072174D01*
X58112727Y20090500D01*
X58112726Y20090500D01*
X56874500Y20090500D01*
X56822174Y20112174D01*
X56800500Y20164500D01*
X56800500Y21896146D01*
X56800499Y21896147D01*
X56776615Y21985285D01*
X56776613Y21985290D01*
X56755317Y22022175D01*
X56745464Y22039241D01*
X56730470Y22065212D01*
X55915212Y22880470D01*
X55835289Y22926614D01*
X55835284Y22926616D01*
X55746146Y22950500D01*
X55746144Y22950500D01*
X54225834Y22950500D01*
X54173508Y22972174D01*
X51572174Y25573508D01*
X51550500Y25625834D01*
X51550500Y25970500D01*
X51572174Y26022826D01*
X51624500Y26044500D01*
X51679059Y26044500D01*
X51679059Y26044501D01*
X51831784Y26085423D01*
X51968716Y26164480D01*
X52080520Y26276284D01*
X52159577Y26413216D01*
X52200499Y26565941D01*
X52200500Y26565941D01*
X52200500Y26587499D01*
X52206585Y26616886D01*
X52208278Y26620800D01*
X52246392Y26686814D01*
X52260512Y26739511D01*
X52280500Y26814107D01*
X52280500Y26945892D01*
X52280500Y27165892D01*
X52280500Y27199231D01*
X52285913Y27221734D01*
X52284217Y27222285D01*
X52286017Y27227826D01*
X52300500Y27319265D01*
X52300499Y27720734D01*
X52286017Y27812175D01*
X52286016Y27812177D01*
X52286016Y27812178D01*
X52256887Y27869346D01*
X52229859Y27922391D01*
X52142391Y28009859D01*
X52032175Y28066017D01*
X52032172Y28066018D01*
X52032171Y28066018D01*
X51940736Y28080500D01*
X51599263Y28080500D01*
X51536075Y28070492D01*
X51481003Y28083715D01*
X51451411Y28132006D01*
X51450500Y28143581D01*
X51450500Y29097912D01*
X51472174Y29150238D01*
X51524500Y29171912D01*
X51552127Y29165278D01*
X51552291Y29165782D01*
X51557817Y29163987D01*
X51557825Y29163983D01*
X51649265Y29149500D01*
X52050734Y29149501D01*
X52142175Y29163983D01*
X52163201Y29174696D01*
X52166614Y29176435D01*
X52200209Y29184500D01*
X52751991Y29184500D01*
X52804317Y29162826D01*
X52865646Y29101497D01*
X52916146Y29075766D01*
X52977977Y29044262D01*
X52977977Y29044261D01*
X52995515Y29041484D01*
X53071177Y29029500D01*
X53126000Y29029501D01*
X53178325Y29007828D01*
X53200000Y28955502D01*
X53200000Y28600000D01*
X53326000Y28600000D01*
X53378326Y28578326D01*
X53400000Y28526000D01*
X53400000Y28200000D01*
X62926000Y28200000D01*
X62978326Y28178326D01*
X63000000Y28126000D01*
X63000000Y1074000D01*
X62978326Y1021674D01*
X62926000Y1000000D01*
X12880592Y1000000D01*
X12828266Y1021674D01*
X12806592Y1074000D01*
X12812225Y1102319D01*
X12863973Y1227249D01*
X12900500Y1410884D01*
X12900500Y1598116D01*
X12863973Y1781751D01*
X12792322Y1954731D01*
X12688302Y2110408D01*
X12555908Y2242802D01*
X12513579Y2271085D01*
X12504482Y2277164D01*
X12400231Y2346822D01*
X12400228Y2346824D01*
X12400227Y2346824D01*
X12227251Y2418473D01*
X12227244Y2418475D01*
X12088902Y2445993D01*
X12043616Y2455000D01*
X10156384Y2455000D01*
X10120056Y2447775D01*
X9972755Y2418475D01*
X9972748Y2418473D01*
X9799772Y2346824D01*
X9644092Y2242803D01*
X9644091Y2242801D01*
X9511699Y2110409D01*
X9511697Y2110408D01*
X9407676Y1954728D01*
X9336027Y1781752D01*
X9336025Y1781745D01*
X9299500Y1598116D01*
X9299500Y1410885D01*
X9336025Y1227256D01*
X9336027Y1227249D01*
X9387775Y1102319D01*
X9387775Y1045681D01*
X9347727Y1005633D01*
X9319408Y1000000D01*
X1074000Y1000000D01*
X1021674Y1021674D01*
X1000000Y1074000D01*
X1000000Y3573917D01*
X15249500Y3573917D01*
X15249500Y3426084D01*
X15278340Y3281093D01*
X15278343Y3281083D01*
X15334915Y3144506D01*
X15353658Y3116456D01*
X15417049Y3021584D01*
X15521584Y2917049D01*
X15644505Y2834916D01*
X15781087Y2778342D01*
X15926082Y2749500D01*
X15926084Y2749500D01*
X16073916Y2749500D01*
X16073918Y2749500D01*
X16218913Y2778342D01*
X16355495Y2834916D01*
X16478416Y2917049D01*
X16582951Y3021584D01*
X16665084Y3144505D01*
X16721658Y3281087D01*
X16750500Y3426082D01*
X16750500Y3573918D01*
X16721658Y3718913D01*
X16720400Y3721949D01*
X16665084Y3855495D01*
X16582951Y3978416D01*
X16478415Y4082952D01*
X16355494Y4165085D01*
X16218917Y4221657D01*
X16218907Y4221660D01*
X16121811Y4240974D01*
X16073918Y4250500D01*
X15926082Y4250500D01*
X15884977Y4242324D01*
X15781092Y4221660D01*
X15781082Y4221657D01*
X15644505Y4165085D01*
X15521584Y4082952D01*
X15521583Y4082950D01*
X15417050Y3978417D01*
X15417048Y3978416D01*
X15334915Y3855495D01*
X15278343Y3718918D01*
X15278340Y3718908D01*
X15249500Y3573917D01*
X1000000Y3573917D01*
X1000000Y7543080D01*
X12774500Y7543080D01*
X12774500Y4865921D01*
X12802214Y4690946D01*
X12802216Y4690935D01*
X12856956Y4522461D01*
X12856958Y4522457D01*
X12937384Y4364614D01*
X12937387Y4364608D01*
X13041247Y4221657D01*
X13041517Y4221286D01*
X13166786Y4096017D01*
X13166789Y4096015D01*
X13166790Y4096014D01*
X13279741Y4013950D01*
X13310110Y3991886D01*
X13443539Y3923900D01*
X13467956Y3911459D01*
X13467960Y3911457D01*
X13636434Y3856717D01*
X13636438Y3856717D01*
X13636445Y3856714D01*
X13787495Y3832790D01*
X13811420Y3829000D01*
X13811421Y3829000D01*
X13988580Y3829000D01*
X14009626Y3832334D01*
X14163555Y3856714D01*
X14163563Y3856717D01*
X14163565Y3856717D01*
X14332039Y3911457D01*
X14332039Y3911458D01*
X14332042Y3911458D01*
X14489890Y3991886D01*
X14633214Y4096017D01*
X14758483Y4221286D01*
X14862614Y4364610D01*
X14943042Y4522458D01*
X14952725Y4552260D01*
X14997783Y4690935D01*
X14997783Y4690937D01*
X14997786Y4690945D01*
X15025500Y4865921D01*
X15025500Y7543079D01*
X14997786Y7718055D01*
X14997783Y7718062D01*
X14997783Y7718066D01*
X14943043Y7886540D01*
X14943041Y7886544D01*
X14907644Y7956014D01*
X14862614Y8044390D01*
X14758483Y8187714D01*
X14633214Y8312983D01*
X14633211Y8312986D01*
X14633209Y8312987D01*
X14489892Y8417113D01*
X14489886Y8417116D01*
X14332043Y8497542D01*
X14332039Y8497544D01*
X14163565Y8552284D01*
X14163556Y8552286D01*
X14163555Y8552286D01*
X14021284Y8574820D01*
X13988580Y8580000D01*
X13988579Y8580000D01*
X13811421Y8580000D01*
X13811420Y8580000D01*
X13636445Y8552286D01*
X13636434Y8552284D01*
X13467960Y8497544D01*
X13467956Y8497542D01*
X13310113Y8417116D01*
X13310107Y8417113D01*
X13166790Y8312987D01*
X13041513Y8187710D01*
X12937387Y8044393D01*
X12937384Y8044387D01*
X12856958Y7886544D01*
X12856956Y7886540D01*
X12802216Y7718066D01*
X12802214Y7718055D01*
X12774500Y7543080D01*
X1000000Y7543080D01*
X1000000Y13221587D01*
X1669500Y13221587D01*
X1669500Y12778414D01*
X1677210Y12725500D01*
X1680418Y12703482D01*
X1736924Y12587898D01*
X1827898Y12496924D01*
X1943482Y12440418D01*
X2018418Y12429500D01*
X2018424Y12429500D01*
X2361576Y12429500D01*
X2361582Y12429500D01*
X2436518Y12440418D01*
X2552102Y12496924D01*
X2643076Y12587898D01*
X2643076Y12587899D01*
X2647412Y12592234D01*
X2649993Y12589653D01*
X2687816Y12613265D01*
X2742996Y12600502D01*
X2751926Y12591572D01*
X2752588Y12592234D01*
X2756924Y12587898D01*
X2847898Y12496924D01*
X2859824Y12491094D01*
X2897314Y12448642D01*
X2898802Y12443767D01*
X2906681Y12414364D01*
X2906682Y12414360D01*
X2949532Y12340142D01*
X2949533Y12340141D01*
X2949535Y12340138D01*
X3339534Y11950139D01*
X3339535Y11950138D01*
X3400138Y11889535D01*
X3474362Y11846682D01*
X3557144Y11824501D01*
X3557145Y11824500D01*
X3557147Y11824500D01*
X3642853Y11824500D01*
X7084521Y11824500D01*
X7136847Y11802826D01*
X8939534Y10000139D01*
X8939535Y10000138D01*
X9000138Y9939535D01*
X9074362Y9896682D01*
X9157144Y9874501D01*
X9157145Y9874500D01*
X9157147Y9874500D01*
X9242852Y9874500D01*
X16245612Y9874500D01*
X16297938Y9852826D01*
X16331284Y9819480D01*
X16468216Y9740423D01*
X16620940Y9699501D01*
X16620941Y9699500D01*
X16620943Y9699500D01*
X16779059Y9699500D01*
X16779059Y9699501D01*
X16931784Y9740423D01*
X17068716Y9819480D01*
X17180520Y9931284D01*
X17259577Y10068216D01*
X17300499Y10220941D01*
X17300500Y10220941D01*
X17300500Y10379059D01*
X17300499Y10379060D01*
X17274025Y10477861D01*
X17259577Y10531784D01*
X17180520Y10668716D01*
X17068716Y10780520D01*
X17007770Y10815707D01*
X16973292Y10860640D01*
X16980684Y10916793D01*
X16992440Y10932115D01*
X18035465Y11975138D01*
X18078318Y12049361D01*
X18099021Y12126630D01*
X18133500Y12171563D01*
X18189652Y12178956D01*
X18234586Y12144477D01*
X18244500Y12107477D01*
X18244500Y9386484D01*
X18222826Y9334158D01*
X17915842Y9027174D01*
X17863516Y9005500D01*
X17574000Y9005500D01*
X17546282Y8999987D01*
X17476230Y8986053D01*
X17476220Y8986050D01*
X17427263Y8965771D01*
X17424508Y8964786D01*
X17341008Y8908992D01*
X17341007Y8908991D01*
X17285622Y8826101D01*
X17263950Y8773780D01*
X17263947Y8773770D01*
X17244500Y8675999D01*
X17244500Y4324002D01*
X17263947Y4226231D01*
X17263950Y4226221D01*
X17284229Y4177264D01*
X17285215Y4174508D01*
X17341008Y4091009D01*
X17341009Y4091008D01*
X17423899Y4035623D01*
X17476225Y4013949D01*
X17574000Y3994500D01*
X17574002Y3994500D01*
X21425998Y3994500D01*
X21426000Y3994500D01*
X21523775Y4013949D01*
X21572757Y4034238D01*
X21575496Y4035219D01*
X21576101Y4035623D01*
X21576102Y4035623D01*
X21658992Y4091009D01*
X21714377Y4173899D01*
X21736051Y4226225D01*
X21755500Y4324000D01*
X21755500Y8374673D01*
X25399500Y8374673D01*
X25399500Y4625328D01*
X25414034Y4552260D01*
X25463954Y4477547D01*
X25469399Y4469399D01*
X25552260Y4414034D01*
X25625326Y4399500D01*
X25625328Y4399500D01*
X28974672Y4399500D01*
X28974674Y4399500D01*
X29047740Y4414034D01*
X29130601Y4469399D01*
X29136046Y4477549D01*
X29183133Y4509017D01*
X29238683Y4497972D01*
X29249902Y4488766D01*
X29899397Y3839271D01*
X29903711Y3836965D01*
X29980551Y3785623D01*
X30032877Y3763949D01*
X30130652Y3744500D01*
X30130654Y3744500D01*
X30925998Y3744500D01*
X30926000Y3744500D01*
X31023775Y3763949D01*
X31072757Y3784238D01*
X31075496Y3785219D01*
X31076101Y3785623D01*
X31076102Y3785623D01*
X31158992Y3841009D01*
X31214377Y3923899D01*
X31236051Y3976225D01*
X31255500Y4074000D01*
X31255500Y8926000D01*
X31236051Y9023775D01*
X31215764Y9072751D01*
X31214782Y9075496D01*
X31158991Y9158992D01*
X31158990Y9158993D01*
X31076100Y9214378D01*
X31023779Y9236050D01*
X31023769Y9236053D01*
X30958294Y9249077D01*
X30926000Y9255500D01*
X30130652Y9255500D01*
X30102934Y9249987D01*
X30032882Y9236053D01*
X30032872Y9236050D01*
X29983913Y9215770D01*
X29981162Y9214786D01*
X29897660Y9158993D01*
X29249902Y8511235D01*
X29197576Y8489561D01*
X29145250Y8511235D01*
X29136049Y8522447D01*
X29130601Y8530601D01*
X29121136Y8536925D01*
X29047740Y8585966D01*
X28974674Y8600500D01*
X25625326Y8600500D01*
X25576615Y8590811D01*
X25552259Y8585966D01*
X25469399Y8530602D01*
X25469398Y8530601D01*
X25414034Y8447741D01*
X25399500Y8374673D01*
X21755500Y8374673D01*
X21755500Y11469348D01*
X21736051Y11567123D01*
X21715762Y11616104D01*
X21714783Y11618842D01*
X21658992Y11702340D01*
X21235332Y12126000D01*
X35444500Y12126000D01*
X35444500Y11630652D01*
X35450923Y11598358D01*
X35463947Y11532883D01*
X35463950Y11532873D01*
X35484230Y11483914D01*
X35485215Y11481161D01*
X35485623Y11480551D01*
X35485623Y11480550D01*
X35485671Y11480478D01*
X35541007Y11397661D01*
X36122826Y10815842D01*
X36144500Y10763516D01*
X36144500Y7974002D01*
X36148078Y7956014D01*
X36149500Y7941577D01*
X36149500Y7875326D01*
X36164034Y7802260D01*
X36219399Y7719399D01*
X36302260Y7664034D01*
X36375326Y7649500D01*
X36441576Y7649500D01*
X36456012Y7648078D01*
X36474000Y7644500D01*
X37926000Y7644500D01*
X37943988Y7648078D01*
X37958424Y7649500D01*
X38024672Y7649500D01*
X38024674Y7649500D01*
X38097740Y7664034D01*
X38180601Y7719399D01*
X38235966Y7802260D01*
X38250500Y7875326D01*
X38250500Y7941577D01*
X38251922Y7956014D01*
X38255500Y7974002D01*
X38255500Y10763516D01*
X38277174Y10815842D01*
X38546337Y11085005D01*
X38858992Y11397660D01*
X38858992Y11397661D01*
X38858991Y11397661D01*
X38860730Y11399399D01*
X38863037Y11403716D01*
X38914377Y11480551D01*
X38936051Y11532877D01*
X38955500Y11630652D01*
X38955500Y12126000D01*
X42644500Y12126000D01*
X42644500Y11630652D01*
X42650923Y11598358D01*
X42663947Y11532883D01*
X42663950Y11532873D01*
X42684230Y11483914D01*
X42685215Y11481161D01*
X42685623Y11480551D01*
X42685623Y11480550D01*
X42685671Y11480478D01*
X42741007Y11397661D01*
X43322826Y10815842D01*
X43344500Y10763516D01*
X43344500Y7974002D01*
X43348078Y7956014D01*
X43349500Y7941577D01*
X43349500Y7875326D01*
X43364034Y7802260D01*
X43419399Y7719399D01*
X43502260Y7664034D01*
X43575326Y7649500D01*
X43641576Y7649500D01*
X43656012Y7648078D01*
X43674000Y7644500D01*
X45126000Y7644500D01*
X45143988Y7648078D01*
X45158424Y7649500D01*
X45224672Y7649500D01*
X45224674Y7649500D01*
X45297740Y7664034D01*
X45380601Y7719399D01*
X45435966Y7802260D01*
X45450500Y7875326D01*
X45450500Y7941577D01*
X45451922Y7956014D01*
X45455500Y7974002D01*
X45455500Y10763516D01*
X45477174Y10815842D01*
X45746337Y11085005D01*
X46058992Y11397660D01*
X46058992Y11397661D01*
X46058991Y11397661D01*
X46060730Y11399399D01*
X46063037Y11403716D01*
X46114377Y11480551D01*
X46136051Y11532877D01*
X46155500Y11630652D01*
X46155500Y12126000D01*
X46136051Y12223775D01*
X46115764Y12272751D01*
X46114782Y12275496D01*
X46058991Y12358992D01*
X46058990Y12358993D01*
X45976100Y12414378D01*
X45923779Y12436050D01*
X45923769Y12436053D01*
X45852956Y12450138D01*
X45826000Y12455500D01*
X42974000Y12455500D01*
X42947044Y12450138D01*
X42876230Y12436053D01*
X42876220Y12436050D01*
X42827263Y12415771D01*
X42824508Y12414786D01*
X42741008Y12358992D01*
X42741007Y12358991D01*
X42685622Y12276101D01*
X42663950Y12223780D01*
X42663947Y12223770D01*
X42649273Y12149994D01*
X42644500Y12126000D01*
X38955500Y12126000D01*
X38936051Y12223775D01*
X38915764Y12272751D01*
X38914782Y12275496D01*
X38858991Y12358992D01*
X38858990Y12358993D01*
X38776100Y12414378D01*
X38723779Y12436050D01*
X38723769Y12436053D01*
X38652956Y12450138D01*
X38626000Y12455500D01*
X35774000Y12455500D01*
X35747044Y12450138D01*
X35676230Y12436053D01*
X35676220Y12436050D01*
X35627263Y12415771D01*
X35624508Y12414786D01*
X35541008Y12358992D01*
X35541007Y12358991D01*
X35485622Y12276101D01*
X35463950Y12223780D01*
X35463947Y12223770D01*
X35449273Y12149994D01*
X35444500Y12126000D01*
X21235332Y12126000D01*
X20027174Y13334158D01*
X20005500Y13386484D01*
X20005500Y17522874D01*
X22749500Y17522874D01*
X22749500Y16477127D01*
X22755909Y16417515D01*
X22806202Y16282671D01*
X22806203Y16282670D01*
X22806204Y16282669D01*
X22892454Y16167454D01*
X22978417Y16103102D01*
X23007669Y16081204D01*
X23007670Y16081203D01*
X23118605Y16039828D01*
X23142517Y16030909D01*
X23202127Y16024500D01*
X23783515Y16024501D01*
X23835841Y16002827D01*
X24036341Y15802327D01*
X24058015Y15750001D01*
X24036341Y15697675D01*
X23835841Y15497174D01*
X23783515Y15475500D01*
X23202126Y15475500D01*
X23142514Y15469091D01*
X23007670Y15418798D01*
X23007669Y15418797D01*
X22892454Y15332546D01*
X22806203Y15217331D01*
X22806202Y15217330D01*
X22755910Y15082488D01*
X22755909Y15082483D01*
X22749500Y15022874D01*
X22749500Y13977127D01*
X22755909Y13917515D01*
X22806202Y13782671D01*
X22806203Y13782670D01*
X22812319Y13774500D01*
X22892454Y13667454D01*
X22984092Y13598854D01*
X23007669Y13581204D01*
X23007670Y13581203D01*
X23118605Y13539828D01*
X23142517Y13530909D01*
X23202127Y13524500D01*
X23783515Y13524501D01*
X23835841Y13502827D01*
X24099397Y13239271D01*
X24103711Y13236965D01*
X24180551Y13185623D01*
X24232877Y13163949D01*
X24330652Y13144500D01*
X24330654Y13144500D01*
X24825998Y13144500D01*
X24826000Y13144500D01*
X24923775Y13163949D01*
X24972757Y13184238D01*
X24975496Y13185219D01*
X24976101Y13185623D01*
X24976102Y13185623D01*
X25058992Y13241009D01*
X25114377Y13323899D01*
X25136051Y13376225D01*
X25155500Y13474000D01*
X25155500Y15479060D01*
X25924500Y15479060D01*
X25924500Y15320941D01*
X25965421Y15168221D01*
X25965422Y15168219D01*
X25965423Y15168216D01*
X26044480Y15031284D01*
X26156284Y14919480D01*
X26293216Y14840423D01*
X26445940Y14799501D01*
X26445941Y14799500D01*
X26445943Y14799500D01*
X26604059Y14799500D01*
X26604059Y14799501D01*
X26756784Y14840423D01*
X26893716Y14919480D01*
X27005520Y15031284D01*
X27084577Y15168216D01*
X27112620Y15272874D01*
X29949500Y15272874D01*
X29949500Y14227127D01*
X29955909Y14167515D01*
X30006202Y14032671D01*
X30006203Y14032670D01*
X30006204Y14032669D01*
X30092454Y13917454D01*
X30196539Y13839536D01*
X30207669Y13831204D01*
X30207670Y13831203D01*
X30290961Y13800138D01*
X30342517Y13780909D01*
X30402127Y13774500D01*
X30933515Y13774501D01*
X30985841Y13752827D01*
X31299397Y13439271D01*
X31303711Y13436965D01*
X31380551Y13385623D01*
X31432877Y13363949D01*
X31530652Y13344500D01*
X31530654Y13344500D01*
X32025998Y13344500D01*
X32026000Y13344500D01*
X32123775Y13363949D01*
X32172757Y13384238D01*
X32175496Y13385219D01*
X32176101Y13385623D01*
X32176102Y13385623D01*
X32258992Y13441009D01*
X32314377Y13523899D01*
X32336051Y13576225D01*
X32355500Y13674000D01*
X32355500Y14073918D01*
X37649500Y14073918D01*
X37649500Y13926082D01*
X37652310Y13911955D01*
X37678340Y13781093D01*
X37678343Y13781083D01*
X37734915Y13644506D01*
X37817048Y13521585D01*
X37921584Y13417049D01*
X38044505Y13334916D01*
X38070298Y13324232D01*
X38181087Y13278342D01*
X38326082Y13249500D01*
X38326084Y13249500D01*
X38473916Y13249500D01*
X38473918Y13249500D01*
X38618913Y13278342D01*
X38755495Y13334916D01*
X38878416Y13417049D01*
X38982951Y13521584D01*
X39065084Y13644505D01*
X39121658Y13781087D01*
X39150500Y13926082D01*
X39150500Y14073918D01*
X39121658Y14218913D01*
X39065084Y14355495D01*
X38982951Y14478416D01*
X38878416Y14582951D01*
X38846801Y14604076D01*
X38755494Y14665085D01*
X38618917Y14721657D01*
X38618907Y14721660D01*
X38521811Y14740974D01*
X38473918Y14750500D01*
X38326082Y14750500D01*
X38284977Y14742324D01*
X38181092Y14721660D01*
X38181082Y14721657D01*
X38044505Y14665085D01*
X37921584Y14582952D01*
X37921583Y14582950D01*
X37817050Y14478417D01*
X37817048Y14478416D01*
X37734915Y14355495D01*
X37678343Y14218918D01*
X37678340Y14218908D01*
X37655549Y14104327D01*
X37649500Y14073918D01*
X32355500Y14073918D01*
X32355500Y15726000D01*
X32336051Y15823775D01*
X32315764Y15872751D01*
X32314782Y15875496D01*
X32258991Y15958992D01*
X32258990Y15958993D01*
X32176100Y16014378D01*
X32123779Y16036050D01*
X32123769Y16036053D01*
X32058294Y16049077D01*
X32026000Y16055500D01*
X31530652Y16055500D01*
X31502934Y16049987D01*
X31432882Y16036053D01*
X31432872Y16036050D01*
X31383913Y16015770D01*
X31381162Y16014786D01*
X31297660Y15958993D01*
X31297658Y15958991D01*
X31082766Y15744100D01*
X31030440Y15722426D01*
X31022532Y15722850D01*
X30997877Y15725500D01*
X30402126Y15725500D01*
X30342514Y15719091D01*
X30207670Y15668798D01*
X30207669Y15668797D01*
X30092454Y15582546D01*
X30006203Y15467331D01*
X30006202Y15467330D01*
X29955910Y15332488D01*
X29955909Y15332483D01*
X29949500Y15272874D01*
X27112620Y15272874D01*
X27123954Y15315174D01*
X27125500Y15320942D01*
X27125500Y15479059D01*
X27125499Y15479060D01*
X27120645Y15497174D01*
X27084577Y15631784D01*
X27075821Y15646950D01*
X27035414Y15716940D01*
X27025500Y15753939D01*
X27025500Y15874794D01*
X27033565Y15908388D01*
X27046017Y15932825D01*
X27060500Y16024265D01*
X27060499Y16425734D01*
X27058877Y16435975D01*
X27072096Y16491047D01*
X27120385Y16520642D01*
X27159945Y16513322D01*
X27160880Y16515577D01*
X27165360Y16513722D01*
X27165365Y16513719D01*
X27311731Y16474501D01*
X27311732Y16474500D01*
X27311734Y16474500D01*
X27463265Y16474500D01*
X27463266Y16474500D01*
X27547160Y16496980D01*
X27566311Y16499500D01*
X28731087Y16499500D01*
X28731095Y16499501D01*
X29156519Y16499501D01*
X29250304Y16514354D01*
X29250306Y16514355D01*
X29262645Y16520642D01*
X29363342Y16571950D01*
X29453050Y16661658D01*
X29510646Y16774696D01*
X29525500Y16868481D01*
X29525499Y17231518D01*
X29525499Y17231520D01*
X29974500Y17231520D01*
X29974500Y16868481D01*
X29989353Y16774696D01*
X29989354Y16774694D01*
X30029128Y16696635D01*
X30046950Y16661658D01*
X30136658Y16571950D01*
X30249696Y16514354D01*
X30343481Y16499500D01*
X31431518Y16499501D01*
X31431519Y16499501D01*
X31525304Y16514354D01*
X31525306Y16514355D01*
X31537645Y16520642D01*
X31638342Y16571950D01*
X31728050Y16661658D01*
X31785646Y16774696D01*
X31800500Y16868481D01*
X31800499Y17231518D01*
X31794066Y17272135D01*
X31785646Y17325305D01*
X31785645Y17325307D01*
X31738433Y17417964D01*
X31728050Y17438342D01*
X31638342Y17528050D01*
X31525304Y17585646D01*
X31525302Y17585647D01*
X31525301Y17585647D01*
X31431519Y17600500D01*
X30343480Y17600500D01*
X30249695Y17585647D01*
X30249693Y17585646D01*
X30136657Y17528050D01*
X30046951Y17438344D01*
X29989353Y17325302D01*
X29974500Y17231520D01*
X29525499Y17231520D01*
X29519066Y17272135D01*
X29510646Y17325305D01*
X29510645Y17325307D01*
X29463433Y17417964D01*
X29453050Y17438342D01*
X29363342Y17528050D01*
X29250304Y17585646D01*
X29250302Y17585647D01*
X29250301Y17585647D01*
X29156520Y17600500D01*
X29156519Y17600500D01*
X28722476Y17600500D01*
X28722475Y17600500D01*
X27566311Y17600500D01*
X27547160Y17603021D01*
X27463266Y17625500D01*
X27311734Y17625500D01*
X27311732Y17625500D01*
X27165369Y17586283D01*
X27165360Y17586279D01*
X27034137Y17510517D01*
X26926983Y17403363D01*
X26851221Y17272140D01*
X26851217Y17272131D01*
X26812000Y17125769D01*
X26812000Y17125766D01*
X26812000Y16974234D01*
X26838502Y16875326D01*
X26840251Y16868799D01*
X26832858Y16812647D01*
X26787924Y16778168D01*
X26757196Y16776558D01*
X26700736Y16785500D01*
X26359265Y16785500D01*
X26267824Y16771017D01*
X26267822Y16771017D01*
X26157608Y16714859D01*
X26070142Y16627393D01*
X26013982Y16517173D01*
X26013982Y16517171D01*
X25999500Y16425737D01*
X25999500Y16024266D01*
X26013982Y15932827D01*
X26013982Y15932826D01*
X26013983Y15932825D01*
X26016434Y15928014D01*
X26024500Y15894419D01*
X26024500Y15753939D01*
X26014586Y15716940D01*
X25965425Y15631789D01*
X25965421Y15631780D01*
X25924500Y15479060D01*
X25155500Y15479060D01*
X25155500Y15526000D01*
X25136051Y15623775D01*
X25114377Y15676101D01*
X25114377Y15676102D01*
X25091712Y15710022D01*
X25090986Y15711201D01*
X25086697Y15737909D01*
X25081420Y15764437D01*
X25082152Y15766207D01*
X25082006Y15767121D01*
X25083236Y15768823D01*
X25092468Y15791112D01*
X25114377Y15823899D01*
X25136051Y15876225D01*
X25155500Y15974000D01*
X25155500Y18026000D01*
X25136051Y18123775D01*
X25115764Y18172751D01*
X25114782Y18175496D01*
X25058991Y18258992D01*
X25058990Y18258993D01*
X24976100Y18314378D01*
X24923779Y18336050D01*
X24923769Y18336053D01*
X24858294Y18349077D01*
X24826000Y18355500D01*
X24610866Y18355500D01*
X24558540Y18377174D01*
X24536866Y18429500D01*
X24558540Y18481826D01*
X24573866Y18493586D01*
X24595433Y18506038D01*
X24653365Y18539485D01*
X24760515Y18646635D01*
X24836281Y18777865D01*
X24875499Y18924232D01*
X24875500Y18924232D01*
X24875500Y19075768D01*
X24875499Y19075769D01*
X24870921Y19092853D01*
X24836281Y19222135D01*
X24760515Y19353365D01*
X24653365Y19460515D01*
X24627778Y19475288D01*
X24522139Y19536279D01*
X24522130Y19536283D01*
X24375768Y19575500D01*
X24375766Y19575500D01*
X24224234Y19575500D01*
X24224232Y19575500D01*
X24077869Y19536283D01*
X24077860Y19536279D01*
X24033062Y19510414D01*
X23996062Y19500500D01*
X23899272Y19500500D01*
X23865679Y19508565D01*
X23792175Y19546017D01*
X23792172Y19546018D01*
X23792171Y19546018D01*
X23700736Y19560500D01*
X23359265Y19560500D01*
X23267824Y19546017D01*
X23267822Y19546017D01*
X23157608Y19489859D01*
X23070142Y19402393D01*
X23013982Y19292173D01*
X23013982Y19292171D01*
X22999500Y19200737D01*
X22999500Y18799266D01*
X23013983Y18707825D01*
X23013983Y18707823D01*
X23045516Y18645938D01*
X23070141Y18597609D01*
X23157609Y18510141D01*
X23267825Y18453983D01*
X23359265Y18439500D01*
X23700734Y18439501D01*
X23792175Y18453983D01*
X23865677Y18491435D01*
X23899272Y18499500D01*
X23996062Y18499500D01*
X24033062Y18489586D01*
X24049411Y18480147D01*
X24077865Y18463719D01*
X24152935Y18443605D01*
X24197867Y18409128D01*
X24205260Y18352975D01*
X24174894Y18310598D01*
X24097657Y18258990D01*
X23835841Y17997174D01*
X23783515Y17975500D01*
X23202126Y17975500D01*
X23142514Y17969091D01*
X23007670Y17918798D01*
X23007669Y17918797D01*
X22892454Y17832546D01*
X22806203Y17717331D01*
X22806202Y17717330D01*
X22755910Y17582488D01*
X22755909Y17582483D01*
X22749500Y17522874D01*
X20005500Y17522874D01*
X20005500Y20700737D01*
X22999500Y20700737D01*
X22999500Y20299266D01*
X23013983Y20207825D01*
X23013983Y20207823D01*
X23046974Y20143076D01*
X23070141Y20097609D01*
X23157609Y20010141D01*
X23267825Y19953983D01*
X23359265Y19939500D01*
X23700734Y19939501D01*
X23792175Y19953983D01*
X23865677Y19991435D01*
X23899272Y19999500D01*
X23996062Y19999500D01*
X24033062Y19989586D01*
X24077865Y19963719D01*
X24224231Y19924501D01*
X24224232Y19924500D01*
X24224234Y19924500D01*
X24375768Y19924500D01*
X24375768Y19924501D01*
X24522135Y19963719D01*
X24653365Y20039485D01*
X24760515Y20146635D01*
X24770830Y20164500D01*
X24795843Y20207825D01*
X24836281Y20277865D01*
X24875499Y20424232D01*
X24875500Y20424232D01*
X24875500Y20575768D01*
X24875499Y20575769D01*
X24867133Y20606990D01*
X24836281Y20722135D01*
X24760515Y20853365D01*
X24653365Y20960515D01*
X24653362Y20960517D01*
X24522139Y21036279D01*
X24522130Y21036283D01*
X24375768Y21075500D01*
X24375766Y21075500D01*
X24224234Y21075500D01*
X24224232Y21075500D01*
X24077869Y21036283D01*
X24077860Y21036279D01*
X24033062Y21010414D01*
X23996062Y21000500D01*
X23899272Y21000500D01*
X23865679Y21008565D01*
X23792175Y21046017D01*
X23792172Y21046018D01*
X23792171Y21046018D01*
X23700736Y21060500D01*
X23359265Y21060500D01*
X23267824Y21046017D01*
X23267822Y21046017D01*
X23157608Y20989859D01*
X23070142Y20902393D01*
X23013982Y20792173D01*
X23013982Y20792171D01*
X22999500Y20700737D01*
X20005500Y20700737D01*
X20005500Y22569347D01*
X19996046Y22616873D01*
X19986051Y22667123D01*
X19965762Y22716104D01*
X19964783Y22718842D01*
X19964357Y22719479D01*
X19908992Y22802340D01*
X18852340Y23858992D01*
X18850601Y23860731D01*
X18846280Y23863041D01*
X18769449Y23914377D01*
X18769450Y23914377D01*
X18769448Y23914378D01*
X18717127Y23936050D01*
X18717117Y23936053D01*
X18651642Y23949077D01*
X18619348Y23955500D01*
X17367200Y23955500D01*
X17314874Y23977174D01*
X17293200Y24029500D01*
X17293200Y24354200D01*
X11806800Y24354200D01*
X11806800Y23630300D01*
X13228200Y23630300D01*
X13280526Y23608626D01*
X13302200Y23556300D01*
X13302200Y21443700D01*
X13280526Y21391374D01*
X13228200Y21369700D01*
X11806800Y21369700D01*
X11806800Y20645800D01*
X11984655Y20645800D01*
X12001790Y20638703D01*
X12020227Y20636689D01*
X12026994Y20628263D01*
X12036981Y20624126D01*
X12044078Y20606990D01*
X12055692Y20592530D01*
X12054518Y20581786D01*
X12058655Y20571800D01*
X12051557Y20554665D01*
X12049544Y20536228D01*
X12041466Y20530304D01*
X12036981Y20519474D01*
X12005385Y20500763D01*
X12002274Y20499856D01*
X11932877Y20486051D01*
X11880551Y20464377D01*
X11880550Y20464377D01*
X11880435Y20464301D01*
X11880434Y20464300D01*
X11797660Y20408993D01*
X11797659Y20408991D01*
X11089267Y19700600D01*
X11086958Y19696278D01*
X11035622Y19619449D01*
X11013950Y19567128D01*
X11013947Y19567118D01*
X11000696Y19500499D01*
X10996357Y19478681D01*
X10994500Y19469347D01*
X10994500Y18548323D01*
X10989943Y18537324D01*
X10990878Y18525456D01*
X10979519Y18512157D01*
X10972826Y18495997D01*
X10954096Y18482389D01*
X10876816Y18443012D01*
X10820353Y18438568D01*
X10777286Y18475350D01*
X10771742Y18489789D01*
X10736281Y18622135D01*
X10660515Y18753365D01*
X10553365Y18860515D01*
X10541345Y18867455D01*
X10506868Y18912387D01*
X10503318Y18925638D01*
X10503318Y18925639D01*
X10461960Y18997273D01*
X10460467Y18999859D01*
X10460466Y18999860D01*
X10460465Y18999862D01*
X10099862Y19360465D01*
X10099859Y19360467D01*
X10099858Y19360468D01*
X10025643Y19403316D01*
X10025641Y19403317D01*
X10025640Y19403318D01*
X10025639Y19403318D01*
X9942853Y19425500D01*
X9942851Y19425500D01*
X9710161Y19425500D01*
X9657835Y19447174D01*
X9656898Y19448280D01*
X9562102Y19543076D01*
X9446518Y19599582D01*
X9371586Y19610500D01*
X9371582Y19610500D01*
X8928418Y19610500D01*
X8928413Y19610500D01*
X8853481Y19599582D01*
X8737897Y19543076D01*
X8646924Y19452103D01*
X8590418Y19336519D01*
X8579500Y19261587D01*
X8579500Y18918414D01*
X8586776Y18868481D01*
X8590418Y18843482D01*
X8646924Y18727898D01*
X8737898Y18636924D01*
X8853482Y18580418D01*
X8928418Y18569500D01*
X8928424Y18569500D01*
X9371576Y18569500D01*
X9371582Y18569500D01*
X9446518Y18580418D01*
X9537541Y18624918D01*
X9594067Y18628427D01*
X9636521Y18590937D01*
X9641519Y18539284D01*
X9624500Y18475766D01*
X9624500Y18324235D01*
X9632962Y18292652D01*
X9631656Y18282738D01*
X9635483Y18273500D01*
X9628089Y18255652D01*
X9625568Y18236499D01*
X9617635Y18230413D01*
X9613809Y18221174D01*
X9595961Y18213782D01*
X9580635Y18202021D01*
X9561483Y18199500D01*
X9548052Y18199500D01*
X9495726Y18221174D01*
X9481571Y18240999D01*
X9479076Y18246102D01*
X9388102Y18337076D01*
X9272518Y18393582D01*
X9197586Y18404500D01*
X9197582Y18404500D01*
X8754418Y18404500D01*
X8754413Y18404500D01*
X8679481Y18393582D01*
X8563897Y18337076D01*
X8472924Y18246103D01*
X8416418Y18130519D01*
X8405500Y18055587D01*
X8405500Y17751466D01*
X8383826Y17699140D01*
X8331500Y17677466D01*
X8303282Y17685023D01*
X8302620Y17683423D01*
X8298130Y17685283D01*
X8151768Y17724500D01*
X8151766Y17724500D01*
X8000234Y17724500D01*
X8000232Y17724500D01*
X7853869Y17685283D01*
X7853860Y17685279D01*
X7722637Y17609517D01*
X7615483Y17502363D01*
X7539721Y17371140D01*
X7539719Y17371134D01*
X7530515Y17336788D01*
X7496036Y17291855D01*
X7439883Y17284464D01*
X7406711Y17303616D01*
X7034674Y17675653D01*
X7013000Y17727979D01*
X7013000Y18425501D01*
X7034674Y18477827D01*
X7087000Y18499501D01*
X7306519Y18499501D01*
X7400304Y18514354D01*
X7400306Y18514355D01*
X7402419Y18515432D01*
X7513342Y18571950D01*
X7603050Y18661658D01*
X7660646Y18774696D01*
X7675500Y18868481D01*
X7675499Y19231518D01*
X7673811Y19242175D01*
X7660646Y19325305D01*
X7660645Y19325307D01*
X7620312Y19404464D01*
X7603050Y19438342D01*
X7513342Y19528050D01*
X7400304Y19585646D01*
X7400302Y19585647D01*
X7400301Y19585647D01*
X7306519Y19600500D01*
X6068480Y19600500D01*
X5974695Y19585647D01*
X5974693Y19585646D01*
X5861657Y19528050D01*
X5771951Y19438344D01*
X5771950Y19438342D01*
X5738687Y19373059D01*
X5714353Y19325302D01*
X5699500Y19231520D01*
X5699500Y18868481D01*
X5714353Y18774696D01*
X5714354Y18774694D01*
X5750333Y18704083D01*
X5771950Y18661658D01*
X5861658Y18571950D01*
X5974696Y18514354D01*
X6068481Y18499500D01*
X6288000Y18499501D01*
X6340326Y18477827D01*
X6362000Y18425501D01*
X6362000Y17605353D01*
X6362000Y17519647D01*
X6384182Y17436861D01*
X6422129Y17371135D01*
X6427035Y17362638D01*
X6439535Y17350138D01*
X8114533Y15675141D01*
X8114535Y15675138D01*
X8175138Y15614535D01*
X8200553Y15599862D01*
X8236808Y15578930D01*
X8249357Y15571684D01*
X8249359Y15571684D01*
X8249361Y15571682D01*
X8249362Y15571682D01*
X8249364Y15571681D01*
X8290754Y15560591D01*
X8332144Y15549500D01*
X8332145Y15549499D01*
X8332147Y15549499D01*
X8422383Y15549499D01*
X8422399Y15549500D01*
X8482147Y15549500D01*
X9409521Y15549500D01*
X9461847Y15527826D01*
X9652826Y15336848D01*
X9674500Y15284522D01*
X9674500Y14656402D01*
X9652826Y14604076D01*
X9600500Y14582402D01*
X9548174Y14604076D01*
X9532392Y14619858D01*
X9532391Y14619859D01*
X9422175Y14676017D01*
X9422172Y14676018D01*
X9422171Y14676018D01*
X9330736Y14690500D01*
X8929265Y14690500D01*
X8837824Y14676017D01*
X8837822Y14676017D01*
X8727608Y14619859D01*
X8638140Y14530391D01*
X8585814Y14508717D01*
X8533489Y14530391D01*
X8453365Y14610515D01*
X8449842Y14612549D01*
X8322139Y14686279D01*
X8322130Y14686283D01*
X8175768Y14725500D01*
X8175766Y14725500D01*
X8024234Y14725500D01*
X8024232Y14725500D01*
X7877866Y14686282D01*
X7877503Y14686131D01*
X7876734Y14685979D01*
X7873181Y14685026D01*
X7873118Y14685260D01*
X7849189Y14680500D01*
X7570396Y14680500D01*
X7536801Y14688565D01*
X7522174Y14696018D01*
X7430736Y14710500D01*
X7029265Y14710500D01*
X6937824Y14696017D01*
X6937822Y14696017D01*
X6827608Y14639859D01*
X6740142Y14552393D01*
X6683982Y14442173D01*
X6683982Y14442171D01*
X6669500Y14350737D01*
X6669500Y14009265D01*
X6674792Y13975856D01*
X6661570Y13920784D01*
X6613278Y13891192D01*
X6558206Y13904414D01*
X6549377Y13911955D01*
X6344099Y14117233D01*
X6322425Y14169559D01*
X6322849Y14177470D01*
X6322941Y14178328D01*
X6325500Y14202127D01*
X6325499Y14797872D01*
X6319091Y14857483D01*
X6308447Y14886022D01*
X6268797Y14992330D01*
X6268796Y14992331D01*
X6182546Y15107546D01*
X6067331Y15193796D01*
X6067330Y15193797D01*
X6067329Y15193798D01*
X5932487Y15244090D01*
X5932484Y15244091D01*
X5932483Y15244091D01*
X5872873Y15250500D01*
X4827126Y15250500D01*
X4767514Y15244091D01*
X4632670Y15193798D01*
X4632669Y15193797D01*
X4517454Y15107546D01*
X4431203Y14992331D01*
X4431202Y14992330D01*
X4380910Y14857488D01*
X4380909Y14857483D01*
X4374500Y14797874D01*
X4374500Y14202127D01*
X4374501Y14202123D01*
X4377151Y14177469D01*
X4361193Y14123127D01*
X4355901Y14117235D01*
X4089267Y13850600D01*
X4086958Y13846279D01*
X4035622Y13769449D01*
X4013950Y13717128D01*
X4013947Y13717118D01*
X3999504Y13644506D01*
X3994500Y13619348D01*
X3994500Y12624000D01*
X4006447Y12563936D01*
X3995399Y12508388D01*
X3948307Y12476922D01*
X3933870Y12475500D01*
X3765479Y12475500D01*
X3713153Y12497174D01*
X3687089Y12523238D01*
X3665415Y12575564D01*
X3672932Y12608061D01*
X3719582Y12703482D01*
X3730500Y12778418D01*
X3730500Y13221582D01*
X3719582Y13296518D01*
X3663076Y13412102D01*
X3572102Y13503076D01*
X3456518Y13559582D01*
X3443917Y13561418D01*
X3381586Y13570500D01*
X3381582Y13570500D01*
X3038418Y13570500D01*
X3038413Y13570500D01*
X2963481Y13559582D01*
X2847897Y13503076D01*
X2752588Y13407766D01*
X2750021Y13410333D01*
X2712090Y13386720D01*
X2656926Y13399554D01*
X2647643Y13407431D01*
X2643170Y13411909D01*
X2643076Y13412102D01*
X2560047Y13495131D01*
X2549245Y13521254D01*
X2538404Y13547426D01*
X2538413Y13547448D01*
X2538404Y13547470D01*
X2549356Y13573867D01*
X2560077Y13599751D01*
X2760465Y13800138D01*
X2803318Y13874361D01*
X2825500Y13957147D01*
X2825500Y14042853D01*
X2825500Y14855274D01*
X2847174Y14907600D01*
X2891589Y14928850D01*
X2907022Y14930509D01*
X2991307Y14961946D01*
X3033448Y14977663D01*
X3033448Y14977664D01*
X3033450Y14977664D01*
X3141472Y15058528D01*
X3222336Y15166550D01*
X3222958Y15168216D01*
X3243083Y15222174D01*
X3269491Y15292978D01*
X3275500Y15348870D01*
X3275500Y15876130D01*
X3269491Y15932022D01*
X3253833Y15974002D01*
X3222337Y16058449D01*
X3222336Y16058450D01*
X3205303Y16081203D01*
X3141472Y16166472D01*
X3040554Y16242018D01*
X3033449Y16247337D01*
X3033448Y16247338D01*
X2907026Y16294490D01*
X2907023Y16294491D01*
X2907022Y16294491D01*
X2879076Y16297496D01*
X2851131Y16300500D01*
X2851130Y16300500D01*
X2248870Y16300500D01*
X2248869Y16300500D01*
X2192978Y16294491D01*
X2192973Y16294490D01*
X2066551Y16247338D01*
X2066550Y16247337D01*
X1958528Y16166472D01*
X1877663Y16058450D01*
X1877662Y16058449D01*
X1830510Y15932027D01*
X1830509Y15932022D01*
X1824500Y15876130D01*
X1824500Y15348870D01*
X1827502Y15320943D01*
X1830509Y15292979D01*
X1830510Y15292974D01*
X1877662Y15166552D01*
X1877663Y15166551D01*
X1897993Y15139393D01*
X1958528Y15058528D01*
X2066550Y14977664D01*
X2066551Y14977663D01*
X2126360Y14955356D01*
X2167813Y14916763D01*
X2174500Y14886022D01*
X2174500Y14165479D01*
X2152826Y14113153D01*
X1929532Y13889859D01*
X1886684Y13815644D01*
X1886680Y13815635D01*
X1868064Y13746160D01*
X1868065Y13746159D01*
X1864500Y13732854D01*
X1864500Y13567164D01*
X1842826Y13514838D01*
X1832371Y13507366D01*
X1832889Y13506640D01*
X1827899Y13503077D01*
X1736924Y13412103D01*
X1680418Y13296519D01*
X1669500Y13221587D01*
X1000000Y13221587D01*
X1000000Y17451131D01*
X1824500Y17451131D01*
X1824500Y16923870D01*
X1830509Y16867979D01*
X1830510Y16867974D01*
X1877662Y16741552D01*
X1877663Y16741551D01*
X1877664Y16741550D01*
X1958528Y16633528D01*
X2017363Y16589485D01*
X2066550Y16552664D01*
X2066551Y16552663D01*
X2169261Y16514355D01*
X2192978Y16505509D01*
X2243443Y16500084D01*
X2248869Y16499500D01*
X2248870Y16499500D01*
X2851131Y16499500D01*
X2856076Y16500032D01*
X2907022Y16505509D01*
X3007146Y16542853D01*
X3033448Y16552663D01*
X3033448Y16552664D01*
X3033450Y16552664D01*
X3141472Y16633528D01*
X3222336Y16741550D01*
X3269491Y16867978D01*
X3275500Y16923870D01*
X3275500Y17451130D01*
X3269491Y17507022D01*
X3258815Y17535646D01*
X3222337Y17633449D01*
X3222336Y17633450D01*
X3219318Y17637482D01*
X3141472Y17741472D01*
X3033450Y17822336D01*
X3033449Y17822337D01*
X3033450Y17822337D01*
X2923639Y17863294D01*
X2882187Y17901887D01*
X2875500Y17932628D01*
X2875500Y18884521D01*
X2897174Y18936847D01*
X3613153Y19652826D01*
X3665479Y19674500D01*
X3819583Y19674500D01*
X3871909Y19652826D01*
X3885517Y19634096D01*
X3896950Y19611658D01*
X3986658Y19521950D01*
X4099696Y19464354D01*
X4193481Y19449500D01*
X5431518Y19449501D01*
X5431519Y19449501D01*
X5525304Y19464354D01*
X5525306Y19464355D01*
X5553426Y19478683D01*
X5638342Y19521950D01*
X5728050Y19611658D01*
X5785646Y19724696D01*
X5800500Y19818481D01*
X5800499Y20181518D01*
X5785646Y20275304D01*
X5785646Y20275305D01*
X5785645Y20275307D01*
X5755770Y20333939D01*
X5728050Y20388342D01*
X5638342Y20478050D01*
X5525304Y20535646D01*
X5525302Y20535647D01*
X5525301Y20535647D01*
X5431519Y20550500D01*
X4193480Y20550500D01*
X4099695Y20535647D01*
X4099693Y20535646D01*
X3986657Y20478050D01*
X3896950Y20388343D01*
X3885517Y20365904D01*
X3842450Y20329122D01*
X3819583Y20325500D01*
X3542853Y20325500D01*
X3457147Y20325500D01*
X3374361Y20303318D01*
X3374360Y20303318D01*
X3374358Y20303317D01*
X3374356Y20303316D01*
X3300141Y20260468D01*
X2289532Y19249859D01*
X2246682Y19175641D01*
X2246680Y19175636D01*
X2240008Y19150736D01*
X2240009Y19150735D01*
X2227147Y19102730D01*
X2224500Y19092852D01*
X2224500Y17932628D01*
X2202826Y17880302D01*
X2176361Y17863294D01*
X2066550Y17822337D01*
X1958528Y17741472D01*
X1877663Y17633450D01*
X1877662Y17633449D01*
X1830510Y17507027D01*
X1830509Y17507022D01*
X1824500Y17451131D01*
X1000000Y17451131D01*
X1000000Y24079060D01*
X1399500Y24079060D01*
X1399500Y23920941D01*
X1440421Y23768221D01*
X1440422Y23768219D01*
X1440423Y23768216D01*
X1519480Y23631284D01*
X1631284Y23519480D01*
X1768216Y23440423D01*
X1920940Y23399501D01*
X1920941Y23399500D01*
X1920943Y23399500D01*
X2079059Y23399500D01*
X2079059Y23399501D01*
X2231784Y23440423D01*
X2368716Y23519480D01*
X2480520Y23631284D01*
X2559577Y23768216D01*
X2600499Y23920941D01*
X2600500Y23920941D01*
X2600500Y24079059D01*
X2600499Y24079060D01*
X2559578Y24231780D01*
X2559577Y24231784D01*
X2480520Y24368716D01*
X2368716Y24480520D01*
X2231784Y24559577D01*
X2231781Y24559578D01*
X2231779Y24559579D01*
X2079059Y24600500D01*
X2079057Y24600500D01*
X1920943Y24600500D01*
X1920941Y24600500D01*
X1768220Y24559579D01*
X1768214Y24559576D01*
X1631283Y24480520D01*
X1519480Y24368717D01*
X1440424Y24231786D01*
X1440421Y24231780D01*
X1399500Y24079060D01*
X1000000Y24079060D01*
X1000000Y34499723D01*
X5947500Y34499723D01*
X5947500Y34300277D01*
X5957032Y34252358D01*
X5986408Y34104671D01*
X5986411Y34104661D01*
X6062732Y33920404D01*
X6167974Y33762898D01*
X6173540Y33754569D01*
X6314569Y33613540D01*
X6480401Y33502734D01*
X6480402Y33502734D01*
X6480403Y33502733D01*
X6646382Y33433983D01*
X6664665Y33426410D01*
X6860277Y33387500D01*
X6860279Y33387500D01*
X7059721Y33387500D01*
X7059723Y33387500D01*
X7255335Y33426410D01*
X7439599Y33502734D01*
X7605431Y33613540D01*
X7746460Y33754569D01*
X7857266Y33920401D01*
X7933590Y34104665D01*
X7972500Y34300277D01*
X7972500Y34499723D01*
X7957706Y34574095D01*
X7968755Y34629642D01*
X7977953Y34640850D01*
X8260490Y34923386D01*
X8319799Y35026113D01*
X8338367Y35095412D01*
X8350500Y35140691D01*
X8350500Y35509461D01*
X8360414Y35546461D01*
X8360513Y35546634D01*
X8360515Y35546635D01*
X8436281Y35677865D01*
X8475499Y35824232D01*
X8475500Y35824232D01*
X8475500Y35975768D01*
X8475499Y35975769D01*
X8467863Y36004266D01*
X8436281Y36122135D01*
X8360515Y36253365D01*
X8253365Y36360515D01*
X8189054Y36397645D01*
X8162187Y36413157D01*
X8122139Y36436279D01*
X8122130Y36436283D01*
X7982833Y36473607D01*
X25041499Y36473607D01*
X25041499Y35689198D01*
X25070646Y35542662D01*
X25070649Y35542652D01*
X25127824Y35404619D01*
X25210833Y35280387D01*
X25316483Y35174737D01*
X25440715Y35091728D01*
X25552493Y35045428D01*
X25578753Y35034551D01*
X25725293Y35005402D01*
X25725295Y35005402D01*
X25874703Y35005402D01*
X25874705Y35005402D01*
X26021245Y35034551D01*
X26159283Y35091728D01*
X26283515Y35174737D01*
X26389164Y35280386D01*
X26472173Y35404618D01*
X26529350Y35542656D01*
X26558499Y35689196D01*
X26558499Y36473607D01*
X32041500Y36473607D01*
X32041500Y35689198D01*
X32070647Y35542662D01*
X32070650Y35542652D01*
X32127825Y35404619D01*
X32210834Y35280387D01*
X32316484Y35174737D01*
X32440716Y35091728D01*
X32552494Y35045428D01*
X32578754Y35034551D01*
X32725294Y35005402D01*
X32725296Y35005402D01*
X32874704Y35005402D01*
X32874706Y35005402D01*
X33021246Y35034551D01*
X33159284Y35091728D01*
X33283516Y35174737D01*
X33389165Y35280386D01*
X33472174Y35404618D01*
X33529351Y35542656D01*
X33558500Y35689196D01*
X33558500Y36473608D01*
X33529351Y36620148D01*
X33472174Y36758186D01*
X33389165Y36882418D01*
X33283516Y36988067D01*
X33159284Y37071076D01*
X33159285Y37071076D01*
X33159283Y37071077D01*
X33021250Y37128252D01*
X33021240Y37128255D01*
X32923109Y37147774D01*
X32874706Y37157402D01*
X32725294Y37157402D01*
X32683752Y37149139D01*
X32578759Y37128255D01*
X32578749Y37128252D01*
X32440716Y37071077D01*
X32316484Y36988068D01*
X32316483Y36988066D01*
X32210836Y36882419D01*
X32210834Y36882418D01*
X32127825Y36758186D01*
X32070650Y36620153D01*
X32070647Y36620143D01*
X32046314Y36497810D01*
X32041877Y36475500D01*
X32041500Y36473607D01*
X26558499Y36473607D01*
X26558499Y36473608D01*
X26529350Y36620148D01*
X26472173Y36758186D01*
X26389164Y36882418D01*
X26283515Y36988067D01*
X26159283Y37071076D01*
X26159284Y37071076D01*
X26159282Y37071077D01*
X26021249Y37128252D01*
X26021239Y37128255D01*
X25923108Y37147774D01*
X25874705Y37157402D01*
X25725293Y37157402D01*
X25683751Y37149139D01*
X25578758Y37128255D01*
X25578748Y37128252D01*
X25440715Y37071077D01*
X25316483Y36988068D01*
X25316482Y36988066D01*
X25210835Y36882419D01*
X25210833Y36882418D01*
X25127824Y36758186D01*
X25070649Y36620153D01*
X25070646Y36620143D01*
X25046313Y36497810D01*
X25041876Y36475500D01*
X25041499Y36473607D01*
X7982833Y36473607D01*
X7975768Y36475500D01*
X7975766Y36475500D01*
X7824234Y36475500D01*
X7824232Y36475500D01*
X7677869Y36436283D01*
X7677860Y36436279D01*
X7546637Y36360517D01*
X7439483Y36253363D01*
X7363721Y36122140D01*
X7363717Y36122131D01*
X7324500Y35975769D01*
X7324500Y35824232D01*
X7363717Y35677870D01*
X7363718Y35677868D01*
X7363719Y35677865D01*
X7439485Y35546635D01*
X7439486Y35546634D01*
X7439586Y35546461D01*
X7449500Y35509461D01*
X7449500Y35417257D01*
X7427826Y35364931D01*
X7427823Y35364928D01*
X7418387Y35355493D01*
X7366060Y35333822D01*
X7337746Y35339455D01*
X7255339Y35373589D01*
X7255329Y35373592D01*
X7124335Y35399648D01*
X7059723Y35412500D01*
X6860277Y35412500D01*
X6804823Y35401470D01*
X6664670Y35373592D01*
X6664660Y35373589D01*
X6480403Y35297268D01*
X6314572Y35186463D01*
X6173537Y35045428D01*
X6062732Y34879597D01*
X5986411Y34695340D01*
X5986408Y34695330D01*
X5958160Y34553316D01*
X5947500Y34499723D01*
X1000000Y34499723D01*
X1000000Y37926000D01*
X1021674Y37978326D01*
X1074000Y38000000D01*
X62926000Y38000000D01*
X62978326Y37978326D01*
G37*
%TD.AperFunction*%
%TA.AperFunction,Conductor*%
G36*
X41386389Y30852826D02*
G01*
X41671389Y30567826D01*
X41693063Y30515500D01*
X41671389Y30463174D01*
X41619063Y30441500D01*
X41333783Y30441500D01*
X41242342Y30427017D01*
X41242340Y30427017D01*
X41132126Y30370859D01*
X41044660Y30283393D01*
X40988500Y30173173D01*
X40988500Y30173171D01*
X40974018Y30081737D01*
X40974018Y29680266D01*
X40988500Y29588826D01*
X40988501Y29588825D01*
X40991434Y29583069D01*
X40999500Y29549473D01*
X40999500Y29444032D01*
X40977827Y29391707D01*
X40939484Y29353364D01*
X40863721Y29222140D01*
X40863717Y29222131D01*
X40824500Y29075769D01*
X40824500Y28924232D01*
X40863717Y28777870D01*
X40863721Y28777861D01*
X40938016Y28649179D01*
X40939485Y28646635D01*
X41046635Y28539485D01*
X41177865Y28463719D01*
X41279856Y28436391D01*
X41324789Y28401913D01*
X41332182Y28345761D01*
X41324789Y28327913D01*
X41263721Y28222140D01*
X41263717Y28222131D01*
X41224500Y28075769D01*
X41224500Y27924232D01*
X41263717Y27777870D01*
X41263721Y27777861D01*
X41339483Y27646638D01*
X41339485Y27646635D01*
X41446635Y27539485D01*
X41577865Y27463719D01*
X41724231Y27424501D01*
X41724232Y27424500D01*
X41724234Y27424500D01*
X41875768Y27424500D01*
X41875768Y27424501D01*
X42022135Y27463719D01*
X42153365Y27539485D01*
X42260515Y27646635D01*
X42286627Y27691864D01*
X42331559Y27726342D01*
X42387712Y27718950D01*
X42422191Y27674018D01*
X42424402Y27651601D01*
X42424500Y27651601D01*
X42424500Y27650612D01*
X42424556Y27650044D01*
X42424500Y27649187D01*
X42424500Y27450823D01*
X42430500Y27405242D01*
X42430501Y27405239D01*
X42449863Y27363718D01*
X42464991Y27331275D01*
X42464992Y27331274D01*
X42467462Y27274691D01*
X42464992Y27268727D01*
X42430501Y27194761D01*
X42430500Y27194759D01*
X42426143Y27161659D01*
X42424543Y27149501D01*
X42424500Y27149178D01*
X42424500Y26950823D01*
X42430500Y26905242D01*
X42430501Y26905239D01*
X42444900Y26874361D01*
X42464991Y26831275D01*
X42464992Y26831274D01*
X42465015Y26830726D01*
X42465415Y26830350D01*
X42465363Y26822776D01*
X42467462Y26774691D01*
X42467108Y26773738D01*
X42466140Y26771189D01*
X42430501Y26694760D01*
X42426982Y26668034D01*
X42423923Y26659974D01*
X42409967Y26645158D01*
X42399788Y26627527D01*
X42391191Y26625224D01*
X42385090Y26618746D01*
X42364743Y26618138D01*
X42345080Y26612869D01*
X42336055Y26617280D01*
X42328478Y26617053D01*
X42319804Y26625223D01*
X42302787Y26633540D01*
X42300718Y26635580D01*
X42299258Y26637000D01*
X42299218Y26637039D01*
X42296634Y26639518D01*
X42256066Y26665024D01*
X42212234Y26692582D01*
X42159338Y26712790D01*
X42159327Y26712793D01*
X42061056Y26729517D01*
X42061051Y26729517D01*
X41264852Y26707401D01*
X41170896Y26686669D01*
X41120624Y26665022D01*
X41041008Y26611020D01*
X40985622Y26528129D01*
X40963950Y26475808D01*
X40963947Y26475798D01*
X40951500Y26413221D01*
X40944500Y26378028D01*
X40944500Y23949000D01*
X40947076Y23936051D01*
X40963947Y23851231D01*
X40963950Y23851221D01*
X40984229Y23802264D01*
X40985215Y23799508D01*
X41041008Y23716009D01*
X41041009Y23716008D01*
X41123899Y23660623D01*
X41176225Y23638949D01*
X41274000Y23619500D01*
X41274002Y23619500D01*
X42469346Y23619500D01*
X42469348Y23619500D01*
X42567123Y23638949D01*
X42616116Y23659243D01*
X42618843Y23660218D01*
X42619449Y23660623D01*
X42619450Y23660623D01*
X42702340Y23716008D01*
X43042394Y24056063D01*
X43094719Y24077736D01*
X43147045Y24056062D01*
X43168719Y24003736D01*
X43167297Y23989300D01*
X43156705Y23936050D01*
X43154900Y23926974D01*
X43154900Y22633026D01*
X43169434Y22559960D01*
X43224799Y22477099D01*
X43307660Y22421734D01*
X43380726Y22407200D01*
X43405500Y22407200D01*
X43457826Y22385526D01*
X43479500Y22333200D01*
X43479500Y22232402D01*
X43457826Y22180076D01*
X43410142Y22132393D01*
X43410141Y22132391D01*
X43353983Y22022175D01*
X43353982Y22022174D01*
X43353982Y22022172D01*
X43339500Y21930737D01*
X43339500Y21589266D01*
X43353983Y21497825D01*
X43353983Y21497823D01*
X43381561Y21443700D01*
X43410141Y21387609D01*
X43497609Y21300141D01*
X43607825Y21243983D01*
X43699265Y21229500D01*
X44100734Y21229501D01*
X44192175Y21243983D01*
X44302391Y21300141D01*
X44389859Y21387609D01*
X44446017Y21497825D01*
X44460500Y21589265D01*
X44460499Y21930734D01*
X44446017Y22022175D01*
X44446016Y22022177D01*
X44446016Y22022178D01*
X44405010Y22102655D01*
X44389859Y22132391D01*
X44302391Y22219859D01*
X44302174Y22220076D01*
X44280500Y22272402D01*
X44280500Y22333200D01*
X44302174Y22385526D01*
X44354500Y22407200D01*
X44420672Y22407200D01*
X44420674Y22407200D01*
X44493740Y22421734D01*
X44576601Y22477099D01*
X44588471Y22494864D01*
X44635563Y22526330D01*
X44691112Y22515281D01*
X44711529Y22494864D01*
X44723399Y22477099D01*
X44806260Y22421734D01*
X44879326Y22407200D01*
X44879341Y22407200D01*
X44882755Y22406863D01*
X44904769Y22395096D01*
X44927826Y22385545D01*
X44929302Y22381982D01*
X44932704Y22380163D01*
X44949500Y22333219D01*
X44949500Y22202402D01*
X44927826Y22150076D01*
X44910142Y22132393D01*
X44910141Y22132391D01*
X44853983Y22022175D01*
X44853982Y22022174D01*
X44853982Y22022172D01*
X44839500Y21930737D01*
X44839500Y21589266D01*
X44853983Y21497825D01*
X44853983Y21497823D01*
X44881561Y21443700D01*
X44910141Y21387609D01*
X44997609Y21300141D01*
X45107825Y21243983D01*
X45199265Y21229500D01*
X45600734Y21229501D01*
X45692175Y21243983D01*
X45802391Y21300141D01*
X45889859Y21387609D01*
X45946017Y21497825D01*
X45960500Y21589265D01*
X45960499Y21930734D01*
X45946017Y22022175D01*
X45946016Y22022177D01*
X45946016Y22022178D01*
X45905010Y22102655D01*
X45889859Y22132391D01*
X45802391Y22219859D01*
X45790904Y22225712D01*
X45783172Y22234765D01*
X45772174Y22239320D01*
X45765480Y22255480D01*
X45754122Y22268779D01*
X45750500Y22291646D01*
X45750500Y22333200D01*
X45772174Y22385526D01*
X45824500Y22407200D01*
X45919272Y22407200D01*
X45919274Y22407200D01*
X45992340Y22421734D01*
X46034389Y22449831D01*
X46089936Y22460879D01*
X46137029Y22429413D01*
X46149500Y22388301D01*
X46149500Y20165479D01*
X46127826Y20113153D01*
X45761847Y19747174D01*
X45709521Y19725500D01*
X43615478Y19725500D01*
X43563152Y19747174D01*
X43007008Y20303318D01*
X42424862Y20885465D01*
X42424859Y20885467D01*
X42424858Y20885468D01*
X42350643Y20928316D01*
X42350641Y20928317D01*
X42350640Y20928318D01*
X42350639Y20928318D01*
X42267853Y20950500D01*
X42267851Y20950500D01*
X42264273Y20950500D01*
X42211947Y20972174D01*
X42197792Y20992000D01*
X42183076Y21022102D01*
X42092102Y21113076D01*
X41976518Y21169582D01*
X41901586Y21180500D01*
X41901582Y21180500D01*
X41558418Y21180500D01*
X41558413Y21180500D01*
X41483481Y21169582D01*
X41367897Y21113076D01*
X41276924Y21022103D01*
X41220418Y20906519D01*
X41209500Y20831587D01*
X41209500Y20388414D01*
X41220418Y20313482D01*
X41276924Y20197898D01*
X41367897Y20106925D01*
X41368495Y20106498D01*
X41368779Y20106043D01*
X41372234Y20102588D01*
X41371435Y20101790D01*
X41398490Y20058455D01*
X41399500Y20046270D01*
X41399500Y19776932D01*
X41377826Y19724606D01*
X41359096Y19710998D01*
X41317608Y19689859D01*
X41230142Y19602393D01*
X41173982Y19492173D01*
X41173982Y19492171D01*
X41159500Y19400737D01*
X41159500Y18999266D01*
X41173983Y18907825D01*
X41173983Y18907823D01*
X41201685Y18853456D01*
X41230141Y18797609D01*
X41317609Y18710141D01*
X41359094Y18689004D01*
X41395878Y18645938D01*
X41399500Y18623069D01*
X41399500Y18279386D01*
X41377826Y18227060D01*
X41358003Y18212906D01*
X41337898Y18203077D01*
X41242588Y18107766D01*
X41240021Y18110333D01*
X41202090Y18086720D01*
X41146926Y18099554D01*
X41138063Y18108417D01*
X41137412Y18107766D01*
X41042102Y18203076D01*
X40926518Y18259582D01*
X40851586Y18270500D01*
X40851582Y18270500D01*
X40508418Y18270500D01*
X40508413Y18270500D01*
X40433481Y18259582D01*
X40317897Y18203076D01*
X40276826Y18162004D01*
X40224500Y18140330D01*
X40172174Y18162004D01*
X40150500Y18214330D01*
X40150500Y21242855D01*
X40150499Y21242856D01*
X40135149Y21300142D01*
X40128318Y21325638D01*
X40085465Y21399862D01*
X40024862Y21460465D01*
X39774862Y21710465D01*
X39774859Y21710467D01*
X39774858Y21710468D01*
X39700643Y21753316D01*
X39700641Y21753317D01*
X39700640Y21753318D01*
X39700639Y21753318D01*
X39617853Y21775500D01*
X39617851Y21775500D01*
X39424500Y21775500D01*
X39372174Y21797174D01*
X39350500Y21849500D01*
X39350500Y21924673D01*
X39350500Y21924674D01*
X39335966Y21997740D01*
X39280601Y22080601D01*
X39247612Y22102643D01*
X39197740Y22135966D01*
X39124674Y22150500D01*
X38075326Y22150500D01*
X38026615Y22140811D01*
X38002259Y22135966D01*
X37919399Y22080602D01*
X37919398Y22080601D01*
X37861529Y21993991D01*
X37814437Y21962525D01*
X37758888Y21973574D01*
X37738471Y21993991D01*
X37680601Y22080601D01*
X37680600Y22080602D01*
X37597740Y22135966D01*
X37524674Y22150500D01*
X37524672Y22150500D01*
X37443032Y22150500D01*
X37390706Y22172174D01*
X37369032Y22224500D01*
X37390706Y22276826D01*
X37414585Y22300705D01*
X37460515Y22346635D01*
X37536281Y22477865D01*
X37575499Y22624232D01*
X37575500Y22624232D01*
X37575500Y22775768D01*
X37575499Y22775769D01*
X37568379Y22802340D01*
X37536281Y22922135D01*
X37460515Y23053365D01*
X37353365Y23160515D01*
X37353362Y23160517D01*
X37222139Y23236279D01*
X37222130Y23236283D01*
X37075768Y23275500D01*
X37075766Y23275500D01*
X36924234Y23275500D01*
X36924232Y23275500D01*
X36777869Y23236283D01*
X36777860Y23236279D01*
X36646637Y23160517D01*
X36539483Y23053363D01*
X36463721Y22922140D01*
X36463717Y22922131D01*
X36424500Y22775769D01*
X36424500Y22624232D01*
X36463717Y22477870D01*
X36463721Y22477861D01*
X36539483Y22346637D01*
X36609294Y22276826D01*
X36630968Y22224499D01*
X36609294Y22172174D01*
X36556968Y22150500D01*
X36475326Y22150500D01*
X36426615Y22140811D01*
X36402259Y22135966D01*
X36319399Y22080602D01*
X36319398Y22080601D01*
X36264034Y21997741D01*
X36259227Y21973574D01*
X36249500Y21924674D01*
X36249500Y20975326D01*
X36257029Y20937476D01*
X36264034Y20902260D01*
X36311258Y20831582D01*
X36319399Y20819399D01*
X36402260Y20764034D01*
X36475326Y20749500D01*
X36600500Y20749500D01*
X36652826Y20727826D01*
X36674500Y20675500D01*
X36674500Y18124500D01*
X36652826Y18072174D01*
X36600500Y18050500D01*
X36475326Y18050500D01*
X36436883Y18042853D01*
X36402259Y18035966D01*
X36319399Y17980602D01*
X36319398Y17980601D01*
X36264034Y17897741D01*
X36259383Y17874359D01*
X36249500Y17824674D01*
X36249500Y16875326D01*
X36253341Y16856018D01*
X36264034Y16802260D01*
X36284909Y16771017D01*
X36319399Y16719399D01*
X36402260Y16664034D01*
X36475326Y16649500D01*
X36475328Y16649500D01*
X37524672Y16649500D01*
X37524674Y16649500D01*
X37597740Y16664034D01*
X37680601Y16719399D01*
X37735966Y16802260D01*
X37735965Y16802260D01*
X37738471Y16806009D01*
X37785562Y16837476D01*
X37841111Y16826427D01*
X37861529Y16806009D01*
X37919396Y16719402D01*
X37919398Y16719400D01*
X37919399Y16719399D01*
X38002260Y16664034D01*
X38075326Y16649500D01*
X38075328Y16649500D01*
X39124672Y16649500D01*
X39124674Y16649500D01*
X39197740Y16664034D01*
X39280601Y16719399D01*
X39335966Y16802260D01*
X39350500Y16875326D01*
X39350500Y16950500D01*
X39372174Y17002826D01*
X39424500Y17024500D01*
X39892851Y17024500D01*
X39892853Y17024500D01*
X39975639Y17046682D01*
X40049862Y17089535D01*
X40185248Y17224923D01*
X40237574Y17246596D01*
X40289900Y17224922D01*
X40317898Y17196924D01*
X40433482Y17140418D01*
X40508418Y17129500D01*
X40508424Y17129500D01*
X40851576Y17129500D01*
X40851582Y17129500D01*
X40926518Y17140418D01*
X41042102Y17196924D01*
X41133076Y17287898D01*
X41133076Y17287899D01*
X41137412Y17292234D01*
X41139993Y17289653D01*
X41177816Y17313265D01*
X41232996Y17300502D01*
X41241926Y17291572D01*
X41242588Y17292234D01*
X41246924Y17287898D01*
X41337898Y17196924D01*
X41453482Y17140418D01*
X41528418Y17129500D01*
X41528424Y17129500D01*
X41871576Y17129500D01*
X41871582Y17129500D01*
X41946518Y17140418D01*
X42062102Y17196924D01*
X42153076Y17287898D01*
X42209582Y17403482D01*
X42220500Y17478418D01*
X42220500Y17921582D01*
X42209582Y17996518D01*
X42153076Y18112102D01*
X42072174Y18193004D01*
X42050500Y18245330D01*
X42050500Y18667598D01*
X42072174Y18719924D01*
X42105615Y18753365D01*
X42149859Y18797609D01*
X42206017Y18907825D01*
X42220500Y18999265D01*
X42220499Y19400734D01*
X42206017Y19492175D01*
X42206016Y19492177D01*
X42206016Y19492178D01*
X42171204Y19560499D01*
X42149859Y19602391D01*
X42072174Y19680076D01*
X42050500Y19732402D01*
X42050500Y20040393D01*
X42072174Y20092719D01*
X42074723Y20095149D01*
X42082526Y20102243D01*
X42092102Y20106924D01*
X42136350Y20151173D01*
X42137648Y20152352D01*
X42162764Y20161381D01*
X42187424Y20171596D01*
X42189169Y20170874D01*
X42190946Y20171512D01*
X42215095Y20160135D01*
X42239750Y20149922D01*
X42239751Y20149922D01*
X43186946Y19202728D01*
X43186951Y19202722D01*
X43189535Y19200138D01*
X43250138Y19139535D01*
X43264024Y19131518D01*
X43287116Y19118186D01*
X43313886Y19102730D01*
X43324362Y19096682D01*
X43324363Y19096682D01*
X43324365Y19096681D01*
X43338651Y19092853D01*
X43407144Y19074500D01*
X43407145Y19074499D01*
X43407147Y19074499D01*
X43497383Y19074499D01*
X43497399Y19074500D01*
X45631199Y19074500D01*
X45683525Y19052826D01*
X45705199Y19000500D01*
X45683525Y18948174D01*
X43082525Y16347174D01*
X43030199Y16325500D01*
X36165478Y16325500D01*
X36113152Y16347174D01*
X35847174Y16613153D01*
X35825500Y16665479D01*
X35825500Y19142852D01*
X35823387Y19150737D01*
X35813001Y19189501D01*
X35809990Y19200737D01*
X35803319Y19225635D01*
X35803318Y19225639D01*
X35766448Y19289500D01*
X35760467Y19299859D01*
X35760466Y19299860D01*
X35760465Y19299862D01*
X34012151Y21048176D01*
X33990478Y21100500D01*
X34012152Y21152826D01*
X34064478Y21174500D01*
X34342851Y21174500D01*
X34342853Y21174500D01*
X34425639Y21196682D01*
X34499862Y21239535D01*
X39999859Y26739534D01*
X39999862Y26739535D01*
X40060465Y26800138D01*
X40103318Y26874362D01*
X40107038Y26888247D01*
X40109397Y26897048D01*
X40109398Y26897053D01*
X40125501Y26957147D01*
X40125501Y27042853D01*
X40125501Y27047382D01*
X40125500Y27047400D01*
X40125500Y30384522D01*
X40147174Y30436848D01*
X40563152Y30852826D01*
X40615478Y30874500D01*
X41334063Y30874500D01*
X41386389Y30852826D01*
G37*
%TD.AperFunction*%
%TA.AperFunction,Conductor*%
G36*
X50801824Y26052494D02*
G01*
X50827825Y26026494D01*
X50849500Y25974168D01*
X50849500Y25403854D01*
X50863380Y25352055D01*
X50863380Y25352054D01*
X50873384Y25314717D01*
X50873386Y25314712D01*
X50919530Y25234788D01*
X53119530Y23034788D01*
X53834788Y22319530D01*
X53914712Y22273386D01*
X53914713Y22273386D01*
X53914715Y22273385D01*
X53959284Y22261443D01*
X54003853Y22249501D01*
X54003854Y22249500D01*
X54003856Y22249500D01*
X54096144Y22249500D01*
X55524166Y22249500D01*
X55576492Y22227826D01*
X56077826Y21726492D01*
X56099500Y21674166D01*
X56099500Y20164500D01*
X56077826Y20112174D01*
X56025500Y20090500D01*
X55995330Y20090500D01*
X55943004Y20112174D01*
X55912102Y20143076D01*
X55796518Y20199582D01*
X55721586Y20210500D01*
X55721582Y20210500D01*
X55278418Y20210500D01*
X55278413Y20210500D01*
X55203481Y20199582D01*
X55087897Y20143076D01*
X54996924Y20052103D01*
X54941481Y19938693D01*
X54899027Y19901203D01*
X54842499Y19904713D01*
X54808519Y19938693D01*
X54778792Y19999500D01*
X54753076Y20052102D01*
X54662102Y20143076D01*
X54546518Y20199582D01*
X54471586Y20210500D01*
X54471582Y20210500D01*
X54028418Y20210500D01*
X54028413Y20210500D01*
X53953481Y20199582D01*
X53837897Y20143076D01*
X53766996Y20072174D01*
X53714670Y20050500D01*
X53025833Y20050500D01*
X52973507Y20072174D01*
X50359674Y22686008D01*
X50338000Y22738334D01*
X50338000Y25601551D01*
X50359674Y25653877D01*
X50402341Y25674918D01*
X50444760Y25680501D01*
X50544799Y25727150D01*
X50622850Y25805201D01*
X50669499Y25905240D01*
X50675500Y25950821D01*
X50675499Y26000168D01*
X50697172Y26052492D01*
X50749498Y26074167D01*
X50801824Y26052494D01*
G37*
%TD.AperFunction*%
%TD*%
%TA.AperFunction,Conductor*%
%TO.N,+5V*%
G36*
X24878326Y15578326D02*
G01*
X24900000Y15526000D01*
X24900000Y13474000D01*
X24878326Y13421674D01*
X24826000Y13400000D01*
X24330652Y13400000D01*
X24278326Y13421674D01*
X23825000Y13875000D01*
X23149000Y13875000D01*
X23096674Y13896674D01*
X23075000Y13949000D01*
X23075000Y15026000D01*
X23096674Y15078326D01*
X23149000Y15100000D01*
X23800000Y15100000D01*
X24278326Y15578326D01*
X24330652Y15600000D01*
X24826000Y15600000D01*
X24878326Y15578326D01*
G37*
%TD.AperFunction*%
%TD*%
%TA.AperFunction,Conductor*%
%TO.N,+5V*%
G36*
X45878326Y12178326D02*
G01*
X45900000Y12126000D01*
X45900000Y11630652D01*
X45878326Y11578326D01*
X45200000Y10900000D01*
X45200000Y7974000D01*
X45178326Y7921674D01*
X45126000Y7900000D01*
X43674000Y7900000D01*
X43621674Y7921674D01*
X43600000Y7974000D01*
X43600000Y10900000D01*
X42921674Y11578326D01*
X42900000Y11630652D01*
X42900000Y12126000D01*
X42921674Y12178326D01*
X42974000Y12200000D01*
X45826000Y12200000D01*
X45878326Y12178326D01*
G37*
%TD.AperFunction*%
%TD*%
%TA.AperFunction,Conductor*%
%TO.N,+3V3*%
G36*
X45883844Y34297479D02*
G01*
X45950943Y34279500D01*
X46109057Y34279500D01*
X46176156Y34297479D01*
X46195308Y34300000D01*
X46376000Y34300000D01*
X46428326Y34278326D01*
X46450000Y34226000D01*
X46450000Y33574000D01*
X46428326Y33521674D01*
X46376000Y33500000D01*
X45500000Y33500000D01*
X44925000Y32925000D01*
X44925000Y32657827D01*
X44924592Y32651600D01*
X44924658Y32651595D01*
X44924500Y32649186D01*
X44924501Y31924500D01*
X44902827Y31872174D01*
X44850501Y31850500D01*
X44749000Y31850500D01*
X44696674Y31872174D01*
X44675000Y31924500D01*
X44675000Y33344348D01*
X44696674Y33396674D01*
X44850000Y33550000D01*
X44850000Y34226000D01*
X44871674Y34278326D01*
X44924000Y34300000D01*
X45864692Y34300000D01*
X45883844Y34297479D01*
G37*
%TD.AperFunction*%
%TD*%
%TA.AperFunction,Conductor*%
%TO.N,+5V*%
G36*
X38678326Y12178326D02*
G01*
X38700000Y12126000D01*
X38700000Y11630652D01*
X38678326Y11578326D01*
X38000000Y10900000D01*
X38000000Y7974000D01*
X37978326Y7921674D01*
X37926000Y7900000D01*
X36474000Y7900000D01*
X36421674Y7921674D01*
X36400000Y7974000D01*
X36400000Y10900000D01*
X35721674Y11578326D01*
X35700000Y11630652D01*
X35700000Y12126000D01*
X35721674Y12178326D01*
X35774000Y12200000D01*
X38626000Y12200000D01*
X38678326Y12178326D01*
G37*
%TD.AperFunction*%
%TD*%
%TA.AperFunction,Conductor*%
%TO.N,+5V*%
G36*
X24878326Y18078326D02*
G01*
X24900000Y18026000D01*
X24900000Y15974000D01*
X24878326Y15921674D01*
X24826000Y15900000D01*
X24330652Y15900000D01*
X24278326Y15921674D01*
X23825000Y16375000D01*
X23149000Y16375000D01*
X23096674Y16396674D01*
X23075000Y16449000D01*
X23075000Y17526000D01*
X23096674Y17578326D01*
X23149000Y17600000D01*
X23800000Y17600000D01*
X24278326Y18078326D01*
X24330652Y18100000D01*
X24826000Y18100000D01*
X24878326Y18078326D01*
G37*
%TD.AperFunction*%
%TD*%
%TA.AperFunction,Conductor*%
%TO.N,+3V3*%
G36*
X44071164Y34297480D02*
G01*
X44100943Y34289500D01*
X44100944Y34289500D01*
X44259056Y34289500D01*
X44259057Y34289500D01*
X44288835Y34297480D01*
X44307987Y34300000D01*
X44526000Y34300000D01*
X44578326Y34278326D01*
X44600000Y34226000D01*
X44600000Y33630652D01*
X44578326Y33578326D01*
X44425000Y33425000D01*
X44425000Y31924500D01*
X44403326Y31872174D01*
X44351000Y31850500D01*
X44249500Y31850500D01*
X44197174Y31872174D01*
X44175500Y31924500D01*
X44175499Y32649183D01*
X44175341Y32651592D01*
X44175407Y32651597D01*
X44175000Y32657817D01*
X44175000Y32725000D01*
X44147496Y32752504D01*
X44132755Y32773557D01*
X44122850Y32794798D01*
X44122849Y32794800D01*
X44044798Y32872851D01*
X44023554Y32882757D01*
X44002502Y32897498D01*
X43321674Y33578326D01*
X43300000Y33630652D01*
X43300000Y34226000D01*
X43321674Y34278326D01*
X43374000Y34300000D01*
X44052013Y34300000D01*
X44071164Y34297480D01*
G37*
%TD.AperFunction*%
%TD*%
%TA.AperFunction,Conductor*%
%TO.N,/SW*%
G36*
X18671674Y23678326D02*
G01*
X19728326Y22621674D01*
X19750000Y22569348D01*
X19750000Y13250000D01*
X21478326Y11521674D01*
X21500000Y11469348D01*
X21500000Y4324000D01*
X21478326Y4271674D01*
X21426000Y4250000D01*
X17574000Y4250000D01*
X17521674Y4271674D01*
X17500000Y4324000D01*
X17500000Y8676000D01*
X17521674Y8728326D01*
X17574000Y8750000D01*
X18000000Y8750000D01*
X18500000Y9250000D01*
X18500000Y17000000D01*
X18000000Y17500000D01*
X16074000Y17500000D01*
X16021674Y17521674D01*
X16000000Y17574000D01*
X16000000Y18750000D01*
X15500000Y19250000D01*
X14574000Y19250000D01*
X14521674Y19271674D01*
X14500000Y19324000D01*
X14500000Y20571800D01*
X14521674Y20624126D01*
X14574000Y20645800D01*
X17293200Y20645800D01*
X17293200Y21369700D01*
X15871800Y21369700D01*
X15819474Y21391374D01*
X15797800Y21443700D01*
X15797800Y23556300D01*
X15819474Y23608626D01*
X15871800Y23630300D01*
X17293200Y23630300D01*
X17296240Y23633341D01*
X17314874Y23678326D01*
X17367200Y23700000D01*
X18619348Y23700000D01*
X18671674Y23678326D01*
G37*
%TD.AperFunction*%
%TD*%
%TA.AperFunction,Conductor*%
%TO.N,/USB_5V*%
G36*
X27121674Y25278326D02*
G01*
X27300000Y25100000D01*
X27607307Y25096726D01*
X27646374Y25080300D01*
X27653600Y25080300D01*
X29075000Y25080300D01*
X29127326Y25058626D01*
X29149000Y25006300D01*
X29149000Y22893700D01*
X29127326Y22841374D01*
X29075000Y22819700D01*
X27650808Y22819700D01*
X27603248Y22800000D01*
X27249999Y22800000D01*
X27022188Y22526626D01*
X26972040Y22500304D01*
X26965340Y22500000D01*
X26349000Y22500000D01*
X26296674Y22521674D01*
X26275000Y22574000D01*
X26275000Y25226000D01*
X26296674Y25278326D01*
X26349000Y25300000D01*
X27069348Y25300000D01*
X27121674Y25278326D01*
G37*
%TD.AperFunction*%
%TD*%
%TA.AperFunction,Conductor*%
%TO.N,VBUS*%
G36*
X5953326Y14903326D02*
G01*
X5975000Y14851000D01*
X5975000Y14125000D01*
X6428326Y13671674D01*
X6450000Y13619348D01*
X6450000Y12624000D01*
X6428326Y12571674D01*
X6376000Y12550000D01*
X4324000Y12550000D01*
X4271674Y12571674D01*
X4250000Y12624000D01*
X4250000Y13619348D01*
X4271674Y13671674D01*
X4725000Y14125000D01*
X4725000Y14851000D01*
X4746674Y14903326D01*
X4799000Y14925000D01*
X5901000Y14925000D01*
X5953326Y14903326D01*
G37*
%TD.AperFunction*%
%TD*%
%TA.AperFunction,Conductor*%
%TO.N,+3V3*%
G36*
X42121056Y26453904D02*
G01*
X42122529Y26452471D01*
X42400000Y26175000D01*
X42692174Y26175000D01*
X42698400Y26174592D01*
X42698405Y26174658D01*
X42700812Y26174502D01*
X42700821Y26174500D01*
X43425500Y26174501D01*
X43477826Y26152827D01*
X43499500Y26100501D01*
X43499500Y25975328D01*
X43514033Y25902262D01*
X43514033Y25902261D01*
X43514034Y25902260D01*
X43550000Y25848433D01*
X43550000Y25800000D01*
X43598432Y25800000D01*
X43652260Y25764034D01*
X43725326Y25749500D01*
X43850500Y25749500D01*
X43902826Y25727826D01*
X43924500Y25675500D01*
X43924500Y24950824D01*
X43931240Y24899628D01*
X43930013Y24899467D01*
X43927822Y24859332D01*
X43928048Y24859271D01*
X43927761Y24858201D01*
X43927681Y24856734D01*
X43926794Y24854593D01*
X43899500Y24752730D01*
X43899500Y24736545D01*
X43877826Y24684219D01*
X43590281Y24396674D01*
X43537955Y24375000D01*
X43000000Y24375000D01*
X42521674Y23896674D01*
X42469348Y23875000D01*
X41274000Y23875000D01*
X41221674Y23896674D01*
X41200000Y23949000D01*
X41200000Y26378028D01*
X41221674Y26430354D01*
X41271943Y26451999D01*
X42068149Y26474116D01*
X42121056Y26453904D01*
G37*
%TD.AperFunction*%
%TD*%
%TA.AperFunction,Conductor*%
%TO.N,Net-(U2-BST)*%
G36*
X13978326Y20228326D02*
G01*
X14000000Y20176000D01*
X14000000Y19324000D01*
X13978326Y19271674D01*
X13926000Y19250000D01*
X13000000Y19250000D01*
X12500000Y18750000D01*
X12500000Y17824000D01*
X12478326Y17771674D01*
X12426000Y17750000D01*
X11324000Y17750000D01*
X11271674Y17771674D01*
X11250000Y17824000D01*
X11250000Y19469348D01*
X11271674Y19521674D01*
X11978326Y20228326D01*
X12030652Y20250000D01*
X13926000Y20250000D01*
X13978326Y20228326D01*
G37*
%TD.AperFunction*%
%TD*%
%TA.AperFunction,Conductor*%
%TO.N,+3V3*%
G36*
X32078326Y15778326D02*
G01*
X32100000Y15726000D01*
X32100000Y13674000D01*
X32078326Y13621674D01*
X32026000Y13600000D01*
X31530652Y13600000D01*
X31478326Y13621674D01*
X31000000Y14100000D01*
X30349000Y14100000D01*
X30296674Y14121674D01*
X30275000Y14174000D01*
X30275000Y15326000D01*
X30296674Y15378326D01*
X30349000Y15400000D01*
X31100000Y15400000D01*
X31478326Y15778326D01*
X31530652Y15800000D01*
X32026000Y15800000D01*
X32078326Y15778326D01*
G37*
%TD.AperFunction*%
%TD*%
%TA.AperFunction,Conductor*%
%TO.N,+5V*%
G36*
X30978326Y8978326D02*
G01*
X31000000Y8926000D01*
X31000000Y4074000D01*
X30978326Y4021674D01*
X30926000Y4000000D01*
X30130652Y4000000D01*
X30078326Y4021674D01*
X29300000Y4800000D01*
X25874000Y4800000D01*
X25821674Y4821674D01*
X25800000Y4874000D01*
X25800000Y8126000D01*
X25821674Y8178326D01*
X25874000Y8200000D01*
X29300000Y8200000D01*
X30078326Y8978326D01*
X30130652Y9000000D01*
X30926000Y9000000D01*
X30978326Y8978326D01*
G37*
%TD.AperFunction*%
%TD*%
M02*
